<?xml version="1.0" encoding="utf-8"?>
<!-- Generator: Adobe Illustrator 16.0.3, SVG Export Plug-In . SVG Version: 6.00 Build 0)  -->
<!DOCTYPE svg PUBLIC "-//W3C//DTD SVG 1.1//EN" "http://www.w3.org/Graphics/SVG/1.1/DTD/svg11.dtd">
<svg version="1.1" id="Layer_1" xmlns="http://www.w3.org/2000/svg" xmlns:xlink="http://www.w3.org/1999/xlink" x="0px" y="0px" width="250px" height="120px" viewBox="0 90 612 50" enable-background="new 0 100 612 150" xml:space="preserve">
<path fill="none" stroke="#030303" stroke-width="1.123" stroke-miterlimit="10" d="M85.438,152.92l-4.255,1.419l-3.972,4.822
	c0,0-10.495,1.702-14.467,0l-4.258,11.789c0,0-7.395,9.174-10.578-0.655c0,0-4.493-7.488-0.843-27.99
	c0,0,11.328-26.399,46.713-31.36c0,0,8.425-10.391,23.403-8.144c0,0,4.306-6.553,16.101-12.544l9.736-8.051l23.59-20.22
	c0,0,0.749-4.306,8.613-6.178c0,0,7.301,1.685,14.978-8.426c0,0,1.123-1.56,3.182-0.749c0,0,21.406,9.175,39.005-13.105
	c0,0.468,5.274-6.927,5.274-6.927s2.715-6.366,13.948-11.702l11.421-7.396c0,0,6.927-3.931,13.48,0c0,0,7.489,4.4,8.425,12.17
	c0,0,8.987,4.868,7.583,11.328c0,0-4.4-0.282-4.962-2.248c-0.561-1.965-40.066,21.438-42.874,29.488c0,0-7.677-2.621-14.791,14.229
	c0,0-11.421,23.591-11.608,33.139l2.621,0.562c0,0,3.557,9.548,19.846,17.037c0,0,29.582,9.923,60.849,4.119
	c0,0,14.041-1.685,21.155-0.374c0,0,6.397,0.998,5.96,6.365c0,0,2.466,20.532-19.378,27.397c0,0-8.612,2.746-21.468,2.121
	c0.748,0.032-32.077,16.477-32.826,19.597c0,0-4.182,11.982-3.558,19.159c0,0-1.373,6.803-5.773,9.33H80.547
	c0,0,12.482-34.606,24.465-49.084c0,0-0.999-4.244-5.742,1.997l-1.997-11.483C97.273,152.353,88.332,158.979,85.438,152.92z"/>
<path fill="none" stroke="#030303" stroke-width="1.123" stroke-miterlimit="10" d="M291.786,31.237c0,0-11.3,19.246-25.481,31.4
	c0,0-4.305,7.344-9.116,9.37c0,0,0,10.382-4.052,14.434l1.013,7.09c0,0,1.519,5.065-3.799,7.344c0,0-3.038,4.812-7.85,6.331
	c0,0-3.292,6.837-7.343,7.85l-1.548,3.799"/>
<path fill="none" stroke="#030303" stroke-width="1.123" stroke-miterlimit="10" d="M271.509,37.937c0,0,5.258,4.733,4.933,8.412
	c0,0-0.254,1.592-0.483,2.285c0,0-3.434-3.813-3.779-3.351c0,0-3.065-2.253-4.965-1.049l-1.256,0.682c0,0-2.486,0.462-1.691-2.128
	C264.268,42.788,269.045,37.128,271.509,37.937z"/>
<path fill="none" stroke="#030303" stroke-width="1.123" stroke-miterlimit="10" d="M278.103,50.552l-4.402,4.897
	c0,0,6.236,2.304,7.868,4.863c0,0,1.29,2.091,0.906-1.381c0,0-0.361-3.509-2.618-5.9C279.857,53.031,278.947,51.501,278.103,50.552z
	"/>
<path fill="none" stroke="#030303" stroke-width="1.123" stroke-miterlimit="10" d="M299.196,127.543c0,0,3.998-6.689,3.646-10.533
	c0.023,0.304-0.731-3.559,1.766-0.142c0,0,2.703,4.878,2.729,6.863c0,0,1.248,1.684,1.489,3.039L299.196,127.543z"/>
<path fill="none" stroke="#030303" stroke-width="1.123" stroke-miterlimit="10" d="M183.954,60.936l6.5,3.737
	c0,0-11.5,10.5-13,18.75C177.454,83.423,174.954,67.199,183.954,60.936z"/>
<path fill="#010101" d="M354.514,137.693c0.816,0.219,5.745,1.172,14.786,2.859c8.169,1.471,13.561,2.614,16.175,3.432
	c2.56,0.926,4.982,2.396,7.271,4.412c2.288,2.014,4.003,4.846,5.147,8.495c1.144,3.594,1.715,8.469,1.715,14.623l-0.408,24.018
	c0,2.832,0.272,6.154,0.817,9.967c-5.065,0.816-14.352,3.158-27.857,7.025c0.98-7.462,1.471-17.728,1.471-30.798
	c-0.926,1.524-3.622,4.737-8.089,9.64c-4.465,4.901-10.837,11.6-19.115,20.096c-6.372-1.688-11.273-3.322-14.704-4.901
	c-0.218-2.069-0.654-5.283-1.308-9.64c-0.926-6.808-1.389-12.962-1.389-18.463c0-7.951,1.661-14.649,4.983-20.097
	C337.222,152.97,344.057,146.081,354.514,137.693 M354.187,157.382l1.798,32.104c2.995-3.321,5.963-7.065,8.904-11.232
	c2.94-4.166,5.445-8.073,7.516-11.723C369.409,162.229,363.336,159.179,354.187,157.382"/>
<path fill="#010101" d="M415.129,165.293l0.572-23.527l24.753,2.287l1.389,18.871c1.308-3.703,2.479-7.298,3.513-10.783
	c0.817-2.887,1.716-5.119,2.696-6.699c0.871-1.524,2.423-2.858,4.656-4.002c2.124-1.145,4.684-1.717,7.679-1.717
	c3.377,0,7.107,0.791,11.192,2.369l-2.696,10.375c-1.361,5.61-3.077,11.818-5.146,18.627c-6.535-4.303-10.946-6.78-13.234-7.435
	c-4.356,5.719-6.943,10.048-7.761,12.989c0.327,4.901,0.681,8.687,1.063,11.355c4.901,1.742,9.231,2.614,12.989,2.614
	c-2.288,6.426-5.093,13.452-8.415,21.076c-11.328,0-18.271-0.681-20.831-2.042c-2.669-1.308-5.446-3.54-8.333-6.699
	c-2.94-3.213-4.411-9.313-4.411-18.299C414.803,178.772,414.911,172.318,415.129,165.293"/>
<path fill="#010101" d="M482.444,106.376c13.016-3.867,23.555-6.154,31.615-6.862c-5.012,11.927-7.517,34.039-7.517,66.334v19.688
	c7.842-15.14,11.764-27.585,11.764-37.333c0-2.18-0.163-4.357-0.489-6.536l24.834-4.575c-0.326,4.467-0.844,8.088-1.552,10.866
	c-0.763,3.158-1.471,5.255-2.124,6.29c-0.817,1.361-2.969,4.139-6.454,8.332c-1.906,2.342-3.73,5.148-5.474,8.415
	c0.654-0.055,1.362-0.082,2.124-0.082c5.174,0,9.667,1.498,13.479,4.493c3.813,3.104,7.87,8.359,12.172,15.767
	c-3.649,4.521-6.957,8.455-9.925,11.805c-2.969,3.35-5.787,6.331-8.456,8.945c-3.376-8.877-11.273-16.557-23.69-23.037
	c-5.011,9.095-7.625,14.786-7.843,17.073l-25.161,5.474l0.082-13.397l-0.164-23.691c0-16.229,0.232-30.117,0.695-41.662
	C480.824,121.135,481.519,112.367,482.444,106.376"/>
<path fill="#D15027" d="M453.098,226.902l4.883,15.405c0.16,0.528,0.478,0.888,0.942,1.081c0.301,0.129,0.452,0.42,0.452,0.871
	c0,0.054-0.02,0.376-0.057,0.967c-0.038,0.259-0.305,0.388-0.795,0.388h-7.499c-0.276,0-0.458-0.043-0.546-0.129
	c-0.088-0.087-0.132-0.323-0.132-0.71c0-0.064,0.013-0.344,0.037-0.838c0.038-0.193,0.188-0.333,0.452-0.42
	c0.402-0.118,0.604-0.316,0.604-0.596c0-0.075-0.013-0.167-0.038-0.274l-2.638-8.136l-0.641,1.214v6.582
	c0,0.55,0.283,0.969,0.848,1.259c0.239,0.118,0.358,0.387,0.358,0.806c0,0.495-0.051,0.825-0.15,0.992
	c-0.101,0.166-0.346,0.25-0.735,0.25h-7.895c-0.289,0-0.49-0.052-0.603-0.155c-0.113-0.102-0.17-0.392-0.17-0.867
	c0-0.478,0.044-0.778,0.132-0.901c0.088-0.125,0.258-0.235,0.509-0.334c0.465-0.161,0.697-0.451,0.697-0.869v-19.349
	c0-0.482-0.227-0.842-0.679-1.078c-0.301-0.161-0.484-0.293-0.546-0.396c-0.063-0.102-0.095-0.314-0.095-0.637
	c0-0.73,0.031-1.152,0.095-1.266c0.062-0.112,0.245-0.169,0.546-0.169h8.592c0.402,0,0.604,0.14,0.604,0.419
	c0,0.869-0.02,1.373-0.057,1.508c-0.038,0.134-0.22,0.281-0.547,0.443c-0.603,0.269-0.904,0.611-0.904,1.03v8.261l4.095-7.991
	c0.227-0.434,0.34-0.763,0.34-0.984c0-0.139-0.151-0.303-0.456-0.493c-0.326-0.193-0.527-0.36-0.597-0.5
	c-0.068-0.14-0.104-0.494-0.104-1.063c0-0.42,0.183-0.629,0.55-0.629h5.006c0.292,0,0.468,0.048,0.53,0.144
	c0.063,0.097,0.094,0.373,0.094,0.833c0,0.49-0.04,0.79-0.122,0.896c-0.082,0.107-0.336,0.234-0.763,0.384
	c-0.327,0.107-0.534,0.193-0.622,0.258s-0.194,0.204-0.32,0.419L453.098,226.902z"/>
<path fill="#D15027" d="M467.567,234.28v6.594c0,0.87,0.198,1.553,0.594,2.048c0.396,0.494,0.901,0.74,1.517,0.74
	c0.955,0,1.718-0.346,2.289-1.039s0.875-1.642,0.914-2.845c0.013-0.646,0.084-1.032,0.217-1.161
	c0.132-0.129,0.587-0.193,1.365-0.193c0.679,0,1.109,0.059,1.291,0.177c0.183,0.118,0.273,0.414,0.273,0.887
	c0,1.655-0.628,3.128-1.885,4.418c-1.256,1.289-2.92,1.935-4.992,1.935c-2.374,0-4.391-0.922-6.049-2.766
	c-1.657-1.843-2.486-4.618-2.486-8.326s0.766-6.532,2.299-8.472c1.532-1.94,3.542-2.91,6.028-2.91c2.136,0,3.851,0.816,5.145,2.45
	c1.293,1.634,1.94,3.955,1.94,6.965v1.499H467.567z M470.111,232.266v-5.337c0-1.01-0.421-1.517-1.263-1.517
	c-0.854,0-1.281,0.507-1.281,1.517v5.337H470.111z"/>
<path fill="#D15027" d="M485.033,225.784c1.495-1.612,3.203-2.418,5.125-2.418c1.312,0,2.314,0.362,3.009,1.088
	c0.693,0.727,1.042,1.637,1.042,2.732v15.445c0,0.344,0.157,0.606,0.471,0.789c0.289,0.151,0.434,0.538,0.434,1.161
	c0,0.494-0.047,0.79-0.141,0.887c-0.095,0.097-0.293,0.146-0.594,0.146h-5.295c-0.753-0.549-1.13-1.264-1.13-2.145v-15.331
	c0-0.839-0.402-1.258-1.206-1.258c-0.528,0-1.1,0.236-1.715,0.709v15.042c0,0.387,0.22,0.688,0.659,0.902
	c0.265,0.129,0.396,0.365,0.396,0.709v0.822c0,0.365-0.309,0.549-0.924,0.549h-6.688c-0.326,0-0.534-0.041-0.622-0.121
	c-0.088-0.081-0.132-0.282-0.132-0.604v-0.597c0-0.312,0.113-0.532,0.34-0.661c0.301-0.183,0.496-0.354,0.584-0.516
	s0.132-0.517,0.132-1.064v-15.767c0-0.376-0.214-0.65-0.642-0.822c-0.238-0.097-0.357-0.269-0.357-0.516v-0.854
	c0-0.333,0.176-0.5,0.527-0.5h6.143c0.264,0,0.427,0.032,0.49,0.097c0.063,0.064,0.094,0.2,0.094,0.403V225.784z"/>
<path fill="#D15027" d="M503.932,225.784c1.494-1.612,3.203-2.418,5.124-2.418c1.313,0,2.313,0.362,3.009,1.088
	c0.694,0.727,1.043,1.637,1.043,2.732v15.445c0,0.344,0.156,0.606,0.47,0.789c0.29,0.151,0.435,0.538,0.435,1.161
	c0,0.494-0.048,0.79-0.143,0.887c-0.094,0.097-0.292,0.146-0.593,0.146h-5.294c-0.754-0.549-1.131-1.264-1.131-2.145v-15.331
	c0-0.839-0.401-1.258-1.206-1.258c-0.527,0-1.099,0.236-1.714,0.709v15.042c0,0.387,0.22,0.688,0.659,0.902
	c0.264,0.129,0.396,0.365,0.396,0.709v0.822c0,0.365-0.308,0.549-0.923,0.549h-6.69c-0.325,0-0.532-0.041-0.62-0.121
	c-0.089-0.081-0.133-0.282-0.133-0.604v-0.597c0-0.312,0.113-0.532,0.34-0.661c0.302-0.183,0.495-0.354,0.584-0.516
	c0.088-0.161,0.132-0.517,0.132-1.064v-15.767c0-0.376-0.214-0.65-0.641-0.822c-0.238-0.097-0.357-0.269-0.357-0.516v-0.854
	c0-0.333,0.176-0.5,0.526-0.5h6.144c0.264,0,0.427,0.032,0.489,0.097s0.095,0.2,0.095,0.403V225.784z"/>
<path fill="#D15027" d="M522.641,234.28v6.594c0,0.87,0.198,1.553,0.594,2.048c0.396,0.494,0.901,0.74,1.517,0.74
	c0.954,0,1.718-0.346,2.288-1.039c0.572-0.693,0.877-1.642,0.915-2.845c0.013-0.646,0.084-1.032,0.217-1.161
	c0.132-0.129,0.587-0.193,1.366-0.193c0.678,0,1.108,0.059,1.29,0.177c0.183,0.118,0.273,0.414,0.273,0.887
	c0,1.655-0.628,3.128-1.884,4.418c-1.257,1.289-2.921,1.935-4.993,1.935c-2.374,0-4.392-0.922-6.048-2.766
	c-1.658-1.843-2.487-4.618-2.487-8.326s0.766-6.532,2.299-8.472c1.532-1.94,3.542-2.91,6.029-2.91c2.135,0,3.85,0.816,5.144,2.45
	c1.293,1.634,1.94,3.955,1.94,6.965v1.499H522.641z M525.185,232.266v-5.337c0-1.01-0.421-1.517-1.263-1.517
	c-0.854,0-1.281,0.507-1.281,1.517v5.337H525.185z"/>
<path fill="#D15027" d="M532.834,220.915v-0.806c0-0.344,0.264-0.516,0.791-0.516h5.822c0.314,0,0.521,0.021,0.622,0.064
	s0.15,0.226,0.15,0.548v22.521c0,0.495,0.188,0.801,0.565,0.92c0.264,0.086,0.396,0.269,0.396,0.548v0.919
	c0,0.333-0.282,0.5-0.848,0.5h-6.915c-0.39,0-0.584-0.167-0.584-0.5v-0.919c0-0.376,0.194-0.656,0.584-0.839
	c0.251-0.107,0.408-0.206,0.471-0.298c0.063-0.092,0.095-0.266,0.095-0.524V222.56c0-0.376-0.171-0.628-0.509-0.758
	C533.048,221.619,532.834,221.324,532.834,220.915"/>
<path fill="#D15027" d="M552.806,223.963l1.036,4.465c0.025,0.141,0.038,0.265,0.038,0.371c0,0.301-0.339,0.451-1.018,0.451
	c-0.452,0-0.782-0.048-0.989-0.145s-0.442-0.354-0.706-0.774c-0.302-0.494-0.761-1.08-1.376-1.757s-1.168-1.016-1.658-1.016
	c-0.188,0-0.354,0.075-0.499,0.226s-0.217,0.328-0.217,0.533c0,0.546,0.917,2.098,2.751,4.654c1.583,2.224,2.656,3.967,3.222,5.235
	c0.565,1.267,0.848,2.695,0.848,4.284c0,1.687-0.427,3-1.281,3.939c-0.854,0.938-1.858,1.409-3.015,1.409
	c-0.729,0-1.494-0.226-2.298-0.678c-0.44-0.247-0.735-0.37-0.886-0.37c-0.176,0-0.276,0.123-0.302,0.37
	c-0.05,0.291-0.125,0.476-0.226,0.557c-0.101,0.08-0.428,0.121-0.98,0.121c-0.427,0-0.703-0.054-0.829-0.161
	c-0.125-0.107-0.213-0.296-0.263-0.564l-0.942-4.498c-0.038-0.215-0.056-0.35-0.056-0.403c0-0.301,0.42-0.451,1.261-0.451
	c0.44,0,0.745,0.049,0.914,0.146c0.17,0.097,0.387,0.376,0.65,0.838c0.979,1.752,1.909,2.628,2.788,2.628
	c0.565,0,0.848-0.29,0.848-0.869c0-0.516-0.21-1.155-0.631-1.917c-0.421-0.764-1.24-2.015-2.459-3.754
	c-1.281-1.848-2.207-3.394-2.778-4.639c-0.572-1.246-0.857-2.498-0.857-3.753c0-1.709,0.427-2.98,1.281-3.819
	c0.854-0.837,1.89-1.256,3.108-1.256c0.641,0,1.369,0.188,2.186,0.564c0.415,0.193,0.697,0.29,0.848,0.29
	c0.201,0,0.32-0.113,0.358-0.339c0.05-0.236,0.15-0.382,0.302-0.436c0.15-0.054,0.471-0.08,0.961-0.08
	c0.313,0,0.518,0.029,0.612,0.089C552.646,223.514,552.73,223.683,552.806,223.963"/>
<path fill="#030303" d="M85.667,153.335l-4.255,1.418l-3.972,4.822c0,0-10.496,1.702-14.467,0l-4.258,11.79
	c0,0-7.395,9.174-10.578-0.655c0,0-4.493-7.489-0.843-27.989c0,0,11.328-26.4,46.713-31.362c0,0,8.425-10.39,23.403-8.144
	c0,0,4.306-6.552,16.101-12.544l9.736-8.05l23.59-20.221c0,0,0.749-4.306,8.613-6.178c0,0,7.301,1.685,14.977-8.425
	c0,0,1.124-1.56,3.183-0.749c0,0,21.406,9.174,39.005-13.106c0,0.468,5.274-6.927,5.274-6.927s2.715-6.366,13.948-11.701
	l11.421-7.396c0,0,6.927-3.932,13.48,0c0,0,7.489,4.4,8.425,12.169c0,0,8.987,4.869,7.583,11.328c0,0-4.4-0.281-4.962-2.247
	s-40.066,21.437-42.874,29.488c0,0-7.677-2.621-14.791,14.229c0,0-11.421,23.59-11.608,33.138l2.621,0.562
	c0,0,3.557,9.549,19.846,17.038c0,0,29.582,9.922,60.849,4.119c0,0,14.041-1.686,21.155-0.375c0,0,6.397,0.999,5.96,6.365
	c0,0,2.465,20.532-19.378,27.397c0,0-8.612,2.746-21.468,2.122c0.748,0.031-32.077,16.476-32.826,19.596
	c0,0-4.182,11.982-3.558,19.159c0,0-1.373,6.803-5.773,9.33H80.775c0,0,12.482-34.604,24.464-49.084c0,0-0.998-4.243-5.741,1.997
	l-1.997-11.482C97.501,152.768,88.561,159.394,85.667,153.335"/>
<path fill="none" stroke="#030303" stroke-width="1.123" stroke-miterlimit="10" d="M85.667,153.335l-4.255,1.418l-3.972,4.822
	c0,0-10.496,1.702-14.467,0l-4.258,11.79c0,0-7.395,9.174-10.578-0.655c0,0-4.493-7.489-0.843-27.989c0,0,11.328-26.4,46.713-31.362
	c0,0,8.425-10.39,23.403-8.144c0,0,4.306-6.552,16.101-12.544l9.736-8.05l23.59-20.221c0,0,0.749-4.306,8.613-6.178
	c0,0,7.301,1.685,14.977-8.425c0,0,1.124-1.56,3.183-0.749c0,0,21.406,9.174,39.005-13.106c0,0.468,5.274-6.927,5.274-6.927
	s2.715-6.366,13.948-11.701l11.421-7.396c0,0,6.927-3.932,13.48,0c0,0,7.489,4.4,8.425,12.169c0,0,8.987,4.869,7.583,11.328
	c0,0-4.4-0.281-4.962-2.247s-40.066,21.437-42.874,29.488c0,0-7.677-2.621-14.791,14.229c0,0-11.421,23.59-11.608,33.138
	l2.621,0.562c0,0,3.557,9.549,19.846,17.038c0,0,29.582,9.922,60.849,4.119c0,0,14.041-1.686,21.155-0.375
	c0,0,6.397,0.999,5.96,6.365c0,0,2.465,20.532-19.378,27.397c0,0-8.612,2.746-21.468,2.122c0.748,0.031-32.077,16.476-32.826,19.596
	c0,0-4.182,11.982-3.558,19.159c0,0-1.373,6.803-5.773,9.33H80.775c0,0,12.482-34.604,24.464-49.084c0,0-0.998-4.243-5.741,1.997
	l-1.997-11.482C97.501,152.768,88.561,159.394,85.667,153.335z"/>
<path fill="#484C4D" d="M291.786,31.237c0,0-11.3,19.246-25.481,31.4c0,0-4.305,7.344-9.116,9.37c0,0,0,10.382-4.052,14.434
	l1.013,7.09c0,0,1.519,5.065-3.799,7.344c0,0-3.038,4.812-7.85,6.331c0,0-3.292,6.837-7.343,7.85l-1.548,3.799
	c0,0-9.348-6.316-12.348-13.149l-2.417-0.5c-0.558-1.227,11.022-49.818,26.167-46.417c1.028-2.778,10.542-16.167,42-29.583
	C287.048,29.004,288.074,31.263,291.786,31.237"/>
<path fill="#FFFFFF" d="M270.759,36.937c0,0,5.258,4.733,4.933,8.412c0,0-0.254,1.592-0.483,2.285c0,0-3.434-3.813-3.779-3.351
	c0,0-3.065-2.253-4.965-1.049l-1.256,0.682c0,0-2.486,0.462-1.691-2.128C263.518,41.788,268.295,36.128,270.759,36.937"/>
<path fill="none" stroke="#010101" stroke-miterlimit="10" d="M270.759,36.937c0,0,5.258,4.733,4.933,8.412
	c0,0-0.254,1.592-0.483,2.285c0,0-3.434-3.813-3.779-3.351c0,0-3.065-2.253-4.965-1.049l-1.256,0.682c0,0-2.486,0.462-1.691-2.128
	C263.518,41.788,268.295,36.128,270.759,36.937z"/>
<path fill="none" stroke="#030303" stroke-width="1.123" stroke-miterlimit="10" d="M278.103,51.067l-4.402,4.897
	c0,0,6.236,2.304,7.868,4.863c0,0,1.29,2.091,0.906-1.381c0,0-0.361-3.509-2.618-5.9C279.857,53.546,278.947,52.017,278.103,51.067z
	"/>
<path fill="none" stroke="#030303" stroke-width="1.123" stroke-miterlimit="10" d="M299.196,127.543c0,0,3.998-6.689,3.646-10.533
	c0.023,0.304-0.731-3.559,1.766-0.142c0,0,2.703,4.878,2.729,6.863c0,0,1.248,1.684,1.489,3.039L299.196,127.543z"/>
<path fill="#FFFFFF" d="M183.954,60.936l6.5,3.737c0,0-11.5,10.5-13,18.75C177.454,83.423,174.954,67.199,183.954,60.936"/>
<path fill="none" stroke="#030303" stroke-width="1.123" stroke-miterlimit="10" d="M183.954,60.936l6.5,3.737
	c0,0-11.5,10.5-13,18.75C177.454,83.423,174.954,67.199,183.954,60.936z"/>
<path fill="none" stroke="#070707" stroke-miterlimit="10" d="M289.904,31.023c0,0-14.904,24.852-24.029,29.477
	c0,0-3,6.625-9.25,10.25c0,0-1.125,13-4.125,15c0,0,1.125,7.625,0.625,9.25c0,0-0.125,2.75-3.375,5c0,0-2.5,3.875-7.375,5.5
	c0,0-2.625,5.625-6.625,7.625l-3.559,4.704"/>
</svg>
