<?xml version="1.0" encoding="utf-8"?>
<!-- Generator: Adobe Illustrator 16.0.3, SVG Export Plug-In . SVG Version: 6.00 Build 0)  -->
<!DOCTYPE svg PUBLIC "-//W3C//DTD SVG 1.1//EN" "http://www.w3.org/Graphics/SVG/1.1/DTD/svg11.dtd">
<svg version="1.1" id="Layer_1" xmlns="http://www.w3.org/2000/svg" xmlns:xlink="http://www.w3.org/1999/xlink" x="0px" y="0px" viewBox="0 0 500 500" enable-background="new 0 0 500 500" xml:space="preserve">
<g>
	<g>
		<g>
			<path fill="#855D42" d="M269.351,196.494c0.043-0.686-0.515-1.281-1.248-1.329c-0.733-0.046-1.366,0.473-1.409,1.159
				c-0.046,0.684,0.514,1.279,1.249,1.326C268.673,197.696,269.306,197.178,269.351,196.494z"/>
			<path fill="#855D42" d="M222.829,204.146c0.045-0.686-0.512-1.282-1.248-1.328c-0.737-0.047-1.365,0.471-1.409,1.156
				c-0.045,0.688,0.516,1.28,1.248,1.328C222.159,205.348,222.784,204.833,222.829,204.146z"/>
			<path fill="#855D42" d="M266.949,194.062c0.041-0.687-0.517-1.28-1.25-1.328c-0.737-0.047-1.365,0.47-1.408,1.157
				c-0.043,0.687,0.511,1.28,1.249,1.327C266.273,195.265,266.903,194.748,266.949,194.062z"/>
			
				<ellipse transform="matrix(0.9979 0.0645 -0.0645 0.9979 13.9853 -16.3201)" fill="#855D42" cx="259.662" cy="208.36" rx="1.332" ry="1.243"/>
			<path fill="#855D42" d="M223.917,220.3c0.043-0.686-0.52-1.282-1.249-1.328c-0.735-0.048-1.368,0.471-1.412,1.158
				c-0.045,0.682,0.514,1.279,1.254,1.327C223.238,221.503,223.872,220.983,223.917,220.3z"/>
			<path fill="#855D42" d="M227.621,203.895c0.044-0.686-0.519-1.282-1.248-1.328c-0.736-0.048-1.368,0.471-1.412,1.158
				c-0.045,0.682,0.514,1.279,1.253,1.326C226.943,205.098,227.577,204.578,227.621,203.895z"/>
			<path fill="#855D42" d="M248.547,214.735c0.043-0.686-0.52-1.282-1.249-1.328c-0.735-0.048-1.368,0.471-1.412,1.157
				c-0.044,0.682,0.514,1.279,1.254,1.327C247.868,215.938,248.502,215.419,248.547,214.735z"/>
			
				<ellipse transform="matrix(0.998 0.0639 -0.0639 0.998 13.6513 -16.0018)" fill="#855D42" cx="257.041" cy="205.46" rx="1.33" ry="1.246"/>
			
				<ellipse transform="matrix(0.9979 0.0643 -0.0643 0.9979 13.5032 -16.1284)" fill="#855D42" cx="257.416" cy="201.8" rx="1.329" ry="1.245"/>
			<path fill="#855D42" d="M266.106,198.898c0.044-0.688-0.516-1.281-1.25-1.328c-0.732-0.047-1.362,0.469-1.408,1.158
				c-0.047,0.686,0.516,1.279,1.249,1.327S266.061,199.585,266.106,198.898z"/>
			<path fill="#855D42" d="M260.131,197.815c0.045-0.686-0.512-1.28-1.25-1.327c-0.734-0.046-1.367,0.469-1.41,1.156
				c-0.042,0.688,0.519,1.282,1.251,1.33C259.46,199.02,260.09,198.501,260.131,197.815z"/>
			
				<ellipse transform="matrix(0.9979 0.0643 -0.0643 0.9979 13.6826 -13.1655)" fill="#855D42" cx="211.4" cy="206.01" rx="1.333" ry="1.244"/>
			<path fill="#855D42" d="M254.264,198.077c0.044-0.686-0.515-1.28-1.249-1.328c-0.734-0.047-1.364,0.471-1.409,1.157
				c-0.049,0.684,0.514,1.279,1.251,1.327C253.589,199.28,254.218,198.762,254.264,198.077z"/>
			<path fill="#855D42" d="M205.004,209.022c0.043-0.686-0.519-1.28-1.256-1.326c-0.732-0.048-1.364,0.471-1.407,1.154
				c-0.044,0.687,0.516,1.283,1.25,1.331C204.327,210.228,204.959,209.709,205.004,209.022z"/>
			<path fill="#855D42" d="M218.397,205.33c0.045-0.687-0.515-1.281-1.249-1.328c-0.736-0.047-1.368,0.471-1.412,1.157
				c-0.042,0.686,0.518,1.28,1.253,1.327C217.723,206.533,218.354,206.015,218.397,205.33z"/>
			<path fill="#855D42" d="M263.102,225.868c0.044-0.685-0.513-1.279-1.248-1.327s-1.368,0.471-1.411,1.156
				c-0.045,0.686,0.518,1.282,1.25,1.328C262.43,227.072,263.059,226.552,263.102,225.868z"/>
			<path fill="#855D42" d="M245.438,205.89c0.045-0.685-0.514-1.279-1.248-1.325c-0.733-0.047-1.367,0.469-1.411,1.155
				c-0.042,0.685,0.518,1.281,1.252,1.328C244.762,207.094,245.395,206.576,245.438,205.89z"/>
			<path fill="#855D42" d="M260.988,215.041c0.044-0.687-0.511-1.281-1.249-1.33c-0.734-0.046-1.363,0.472-1.405,1.159
				c-0.047,0.684,0.512,1.279,1.245,1.326C260.317,216.244,260.943,215.725,260.988,215.041z"/>
			<path fill="#855D42" d="M262.949,204.234c0.043-0.687-0.516-1.28-1.249-1.326c-0.736-0.046-1.365,0.47-1.406,1.155
				c-0.047,0.687,0.509,1.278,1.246,1.327C262.272,205.437,262.905,204.921,262.949,204.234z"/>
			<path fill="#855D42" d="M216.776,214.988c0.046-0.687-0.512-1.281-1.245-1.329c-0.736-0.047-1.364,0.471-1.408,1.158
				c-0.044,0.685,0.512,1.28,1.248,1.326C216.107,216.19,216.733,215.671,216.776,214.988z"/>
			<path fill="#855D42" d="M216.529,208.181c0.044-0.687-0.516-1.281-1.25-1.329c-0.735-0.047-1.367,0.471-1.412,1.159
				c-0.045,0.686,0.517,1.279,1.253,1.327C215.852,209.384,216.485,208.866,216.529,208.181z"/>
		</g>
		<g>
			
				<ellipse transform="matrix(-0.9917 0.1289 -0.1289 -0.9917 328.9745 364.3034)" fill="#855D42" cx="152.695" cy="192.801" rx="1.017" ry="1.145"/>
			<path fill="#855D42" d="M155.16,220.495c-0.081-0.626,0.303-1.193,0.86-1.266c0.56-0.073,1.075,0.377,1.156,1.002
				c0.082,0.627-0.305,1.193-0.86,1.265C155.756,221.569,155.242,221.122,155.16,220.495z"/>
			
				<ellipse transform="matrix(-0.9917 0.1289 -0.1289 -0.9917 327.0692 394.6)" fill="#855D42" cx="150.768" cy="207.882" rx="1.017" ry="1.144"/>
			
				<ellipse transform="matrix(-0.9916 0.1293 -0.1293 -0.9916 334.6241 412.5487)" fill="#855D42" cx="153.915" cy="217.141" rx="1.017" ry="1.142"/>
			<path fill="#855D42" d="M155.888,227.764c-0.082-0.626,0.306-1.195,0.86-1.266c0.558-0.073,1.076,0.377,1.158,1.004
				c0.082,0.624-0.305,1.192-0.863,1.265C156.488,228.838,155.968,228.388,155.888,227.764z"/>
			
				<ellipse transform="matrix(-0.9917 0.1288 -0.1288 -0.9917 337.7489 406.9154)" fill="#855D42" cx="155.714" cy="214.381" rx="1.016" ry="1.144"/>
			
				<ellipse transform="matrix(-0.9917 0.1287 -0.1287 -0.9917 336.2091 400.3724)" fill="#855D42" cx="155.174" cy="211.045" rx="1.015" ry="1.143"/>
			
				<ellipse transform="matrix(-0.9917 0.1286 -0.1286 -0.9917 334.4558 368.1439)" fill="#855D42" cx="155.339" cy="194.873" rx="1.017" ry="1.144"/>
			<path fill="#855D42" d="M152.823,207.504c-0.082-0.626,0.303-1.193,0.862-1.265c0.559-0.072,1.076,0.375,1.157,1.002
				c0.08,0.628-0.307,1.194-0.862,1.267C153.42,208.58,152.903,208.131,152.823,207.504z"/>
			
				<ellipse transform="matrix(-0.9916 0.1293 -0.1293 -0.9916 335.4487 371.3992)" fill="#855D42" cx="155.669" cy="196.588" rx="1.018" ry="1.142"/>
			
				<ellipse transform="matrix(-0.9917 0.1286 -0.1286 -0.9917 330.3623 387.2286)" fill="#855D42" cx="152.676" cy="204.283" rx="1.017" ry="1.144"/>
			<path fill="#855D42" d="M154.663,199.246c-0.081-0.627,0.307-1.193,0.866-1.265c0.555-0.073,1.074,0.377,1.154,1.001
				c0.081,0.627-0.304,1.195-0.861,1.268C155.264,200.322,154.745,199.873,154.663,199.246z"/>
			
				<ellipse transform="matrix(-0.9916 0.1292 -0.1292 -0.9916 326.6564 371.0299)" fill="#855D42" cx="151.291" cy="196.113" rx="1.018" ry="1.144"/>
			
				<ellipse transform="matrix(-0.9916 0.1293 -0.1293 -0.9916 335.9051 444.5407)" fill="#855D42" cx="153.517" cy="233.178" rx="1.017" ry="1.143"/>
			
				<ellipse transform="matrix(-0.9917 0.1286 -0.1286 -0.9917 330.2212 433.1245)" fill="#855D42" cx="151.123" cy="227.227" rx="1.017" ry="1.142"/>
			<path fill="#855D42" d="M153.367,223.31c-0.081-0.626,0.302-1.193,0.86-1.266c0.558-0.072,1.074,0.377,1.155,1.004
				c0.082,0.626-0.303,1.192-0.859,1.265C153.964,224.386,153.449,223.936,153.367,223.31z"/>
			
				<ellipse transform="matrix(-0.9917 0.1288 -0.1288 -0.9917 330.461 405.3619)" fill="#855D42" cx="152.127" cy="213.363" rx="1.016" ry="1.143"/>
			
				<ellipse transform="matrix(-0.9917 0.1289 -0.1289 -0.9917 333.2212 382.6442)" fill="#855D42" cx="154.229" cy="202.104" rx="1.015" ry="1.145"/>
			<path fill="#855D42" d="M151.906,198.78c-0.082-0.627,0.305-1.194,0.861-1.267c0.559-0.072,1.076,0.376,1.158,1.004
				c0.082,0.627-0.305,1.192-0.865,1.265C152.507,199.854,151.987,199.405,151.906,198.78z"/>
		</g>
		<g>
			<path fill="#855D42" d="M152.496,186.93c-0.004-0.038-0.012-0.111-0.016-0.149c-0.054-0.553,0.164-0.612,0.46-0.642
				c0.295-0.029,0.858-0.01,1.265-0.05c1.33-0.13,3.569-0.498,4.566-0.596l4.033-0.36c1.034-0.102,2.518-0.172,3.368-0.255
				c0.556-0.055,0.681,0.082,0.713,0.415c0.015,0.147-0.001,0.373,0.024,0.632l0.462,4.319l0.182,1.847
				c0.011,0.111,0.021,0.222,0.028,0.296c0.036,0.37,0.01,0.484-0.506,0.535c-0.556,0.054-3.053,0.076-3.755,0.145l-3.917,0.385
				c-0.554,0.054-1.105,0.145-1.543,0.225l-0.771,0.151c-0.015,0.226,0.007,0.447,0.028,0.668l0.12,1.219
				c0.04,0.407,0.036,0.743,0.027,1.042l-0.027,0.487l0.813-0.08c0.48-0.047,1.03-0.137,1.475-0.181l2.66-0.261
				c1.479-0.146,2.574-0.403,3.423-0.487c0.665-0.065,0.761,0.149,0.783,0.371c0.036,0.369,0.021,0.594-0.08,1.09
				c0.003,0.409-0.183,0.428-0.478,0.457c-0.333,0.033-0.927,0.054-1.482,0.109c-0.516,0.051-2.741,0.193-3.443,0.263l-1.958,0.192
				c-0.444,0.043-0.925,0.09-1.438,0.179l0.352,3.584c0.185,1.885,0.296,3.776,0.313,4.334c0.012,0.484,0.044,1.19,0.112,1.891
				c0.095,0.962,0.219,1.844,0.252,2.178c0.059,0.591-0.316,0.589-0.796,0.637l-2.55,0.251c-0.595,0.021-0.496-0.474-0.607-1.247
				c-0.066-0.292-0.169-0.954-0.245-1.729c-0.101-1.035-0.188-2.295-0.268-3.108c-0.141-1.441-0.385-5.447-0.466-6.259
				c-0.076-0.777-0.311-1.648-0.467-3.238c-0.148-1.515-0.107-2.228-0.209-3.263l-0.326-3.325
				C152.54,188.903,152.564,187.631,152.496,186.93z"/>
			<path fill="#855D42" d="M171.76,198.47c0.082,0.849,0.266,1.205,0.35,2.055l0.469,4.393c0.062,0.628,0.089,1.298,0.145,1.852
				c-0.004,0.336,0.024,0.632,0.054,0.927c0.483-0.01,0.965-0.057,1.407-0.101c0.779-0.04,1.704-0.13,2.406-0.199
				c1.367-0.135,2.594-0.18,3.925-0.31c1.33-0.131,2.576-0.365,3.572-0.463c0.999-0.098,1.966-0.119,2.373-0.158
				c0.406-0.04,0.424,0.145,0.465,0.551c0.032,0.333-0.002,0.746,0.038,1.153c0.032,0.333-0.179,0.466-0.731,0.521
				c-0.187,0.018-0.407,0.04-0.669,0.027c-0.674-0.008-2.339,0.118-4.04,0.286c-0.923,0.091-1.848,0.181-2.657,0.297
				c-0.623,0.099-1.326,0.168-2.064,0.241c-1.959,0.193-4.072,0.326-4.849,0.401c-0.738,0.073-0.872-0.138-0.905-0.471
				c-0.018-0.184,0.002-0.374-0.021-0.595c0.022-0.152,0.012-0.263,0.004-0.336c-0.025-0.259-0.121-0.472-0.28-2.099
				c-0.222-2.254-0.689-5.118-0.933-7.593s-0.307-6.164-0.455-7.679c-0.145-1.478-0.421-4.286-0.666-5.642
				c-0.245-1.357,1.702-0.914,2.847-1.026c1.146-0.113,4.192-0.637,6.188-0.833c1.92-0.188,5.663-0.444,6.439-0.52
				c0.777-0.076,0.687,0.53,0.726,0.936c0.011,0.111,0.021,0.223,0.041,0.407c0.036,0.369,0.082,0.85-0.065,0.864
				c-0.406,0.04-0.491-0.064-1.192,0.005l-5.913,0.581l-4.585,0.415c-0.555,0.055-1.176,0.189-1.652,0.274l-0.844,0.157l0.026,1.005
				c0.017,0.559,0.078,1.187,0.133,1.74c0.102,1.035,0.344,1.98,0.427,2.831l0.146,1.478c0.028,0.296,0.058,0.592,0.127,0.921
				c0.337,0.003,0.67-0.029,1.001-0.062l1.479-0.146c0.628-0.062,1.389-0.285,2.534-0.398c1.184-0.116,2.455-0.092,2.897-0.136
				c0.442-0.043,1.023-0.211,1.911-0.299c0.665-0.065,1.821-0.067,2.56-0.14c0.222-0.022,0.407-0.04,0.552-0.091
				c0.072-0.007,0.143-0.052,0.218-0.059c0.406-0.04,0.513,0.286,0.49,0.436c-0.018,0.19,0.065,1.039,0.057,1.339
				c-0.005,0.335,0.039,0.406-0.515,0.46c-0.519,0.05-3.734-0.043-5.139,0.095c-1.368,0.134-3.142,0.308-4.609,0.564
				c-0.728,0.184-1.544,0.227-2.172,0.288c-0.37,0.036-0.702,0.069-1.038,0.064l-0.054,0.603
				C171.712,197.616,171.719,198.063,171.76,198.47z"/>
			<path fill="#855D42" d="M189.559,193.998c-0.279-2.845-0.489-3.086-0.707-5.303c-0.218-2.218-0.358-4.405-0.422-5.444
				c-0.069-0.701,0.214-0.842,0.621-0.881c0.185-0.019,0.374,0.001,0.56-0.018c0.553-0.054,1.229-0.008,2.893-0.172
				c1.589-0.156,4.069-0.736,5.511-0.878c1.515-0.148,3.414-0.186,4.115-0.255s0.81,0.256,0.878,0.958
				c0.076,0.777,0.312,1.648,0.424,2.794c0.032,0.333,0.072,0.739,0.022,1.378c0.007,0.448-0.203,0.58-0.463,0.605
				c-0.259,0.025-0.605-0.089-0.831-0.105c-0.564-0.056-1.673,0.053-3.226,0.206c-0.924,0.091-1.892,0.111-2.815,0.202
				c-0.333,0.033-0.664,0.066-0.994,0.135c-0.551,0.092-1.249,0.198-1.951,0.267c-0.886,0.087-1.741,0.133-1.963,0.155
				c-0.406,0.04-0.352,0.221-0.296,0.774c0.057,0.591,0.11,2.265,0.237,3.559l0.215,2.18c0.039,0.407,0.075,0.776,0.153,1.179
				c0.297,0.007,0.631-0.025,1.001-0.062c0.632-0.024,1.555-0.115,2.59-0.217c1.366-0.134,3.016-0.445,3.901-0.532
				c0.888-0.087,1.415-0.028,1.822-0.067c0.406-0.04,0.499,0.138,0.524,0.397c0.024,0.259-0.03,0.45,0.039,1.152
				c0.068,0.702,0.138,1.03,0.229,1.955c0.047,0.479-0.054,0.602-0.274,0.624c-0.148,0.014-0.417-0.072-0.677-0.046
				c-0.591,0.058-1.374,0.062-3.701,0.29c-2.366,0.232-3.926,0.683-4.332,0.723c-0.26,0.026-0.407,0.04-0.484,0.012
				c-0.11,0.011-0.186,0.019-0.224-0.016l0.362,3.695c0.11-0.011,0.258-0.025,0.402-0.077c0.258-0.025,0.624-0.098,1.031-0.138
				c0.849-0.083,2.692-0.302,4.355-0.465c1.22-0.12,3.188-0.238,4.664-0.384c0.664-0.065,1.217-0.156,1.548-0.188
				c0.629-0.062,0.771,0.259,0.814,0.703c0.022,0.222,0.016,0.521,0.037,0.744c0.072,0.738,0.112,1.517,0.218,2.589
				c0.101,1.035-0.512,0.871-1.695,0.987c-1.219,0.12-4.773,0.395-6.511,0.565c-1.772,0.174-5.344,0.675-5.824,0.722
				c-0.073,0.007-0.145,0.05-0.217,0.058c-0.333,0.033-0.325-0.266-0.359-0.598c-0.075-0.402-0.127-0.92-0.17-1.365
				c-0.043-0.443-0.153-0.805-0.229-1.581l-0.497-5.062C189.646,197.535,189.838,196.843,189.559,193.998z"/>
			<path fill="#855D42" d="M214.063,179.913c3.437-0.337,11.418,1.155,12.594,13.128c1.092,11.122-9.211,12.582-10.615,12.72
				c-1.44,0.141-4.094,0.477-5.018,0.567c-0.591,0.058-0.759-0.522-0.825-1.188c-0.032-0.332-0.028-0.669-0.057-0.964
				c-0.088-0.887-0.381-2.724-0.457-3.5c-0.072-0.739-0.435-2.532-0.722-5.45c-0.282-2.882-0.169-4.759-0.458-7.715
				c-0.295-2.993-0.615-5.5-0.691-6.275c-0.072-0.74,1.534-0.709,2.421-0.796l1.323-0.206
				C212.331,180.122,213.214,179.997,214.063,179.913z M217.619,196.353c0.836-0.978,1.623-2.472,1.434-4.394
				c-0.186-1.885-1.185-2.944-2.141-3.558c-0.557-0.356-1.178-0.593-1.823-0.716c0.077,0.403,0.153,0.806,0.197,1.249
				c0.127,1.294,0.117,2.712,0.233,3.895c0.083,0.85,0.162,2.037,0.23,3.111c0.024,0.632,0.089,1.297,0.151,1.925
				C216.571,197.463,217.118,196.962,217.619,196.353z"/>
			<path fill="#855D42" d="M229.072,179.67c-0.116-1.182,0.19-1.473,0.598-1.514c0.073-0.007,0.184-0.018,0.298,0.008
				c0.632-0.025,1.841-0.255,2.925-0.25c0.635,0.012,0.837,0.179,0.869,0.511c0.022,0.222-0.025,0.488-0.03,0.824
				c-0.028,0.861-0.115,2.997,0.191,6.511c0.058,0.963,0.159,1.999,0.253,2.958c0.259,2.624,0.565,4.982,0.627,5.61
				c0.065,0.665,0.404,2.982,0.535,4.311c0.04,0.408,0.068,0.704,0.046,0.854c-0.021,0.152,0.011,0.484,0.047,0.854
				c0.102,1.035,0.328,2.581,0.383,3.134c0.104,0.699-0.482,0.793-1.039,0.811l-3.363,0.331c-0.847,0.12-0.901-0.433-1-1.058
				c-0.168-0.58,0.041-1.869-0.087-3.163c-0.135-1.367-0.285-7.844-0.383-8.842c-0.095-0.961-0.451-6.112-0.538-6.999
				c-0.044-0.443-0.09-1.296-0.122-2.002l-0.057-1.337L229.072,179.67z"/>
			<path fill="#855D42" d="M248.239,176.557c-0.105-1.072,1.012-1.106,1.787-1.183s3.019-0.408,4.035-0.694
				c1.024-0.213,1.086,0.415,1.051,1.575c-0.02,0.561,0.308,3.887,0.647,7.361c0.338,3.436,0.697,7.095,0.82,8.351
				c0.309,3.14,1.329,10.875,1.166,9.212c0.044,0.443-0.164,0.614-0.533,0.65c-0.111,0.011-0.259,0.025-0.446,0.006
				c-0.151-0.022-0.373-0.001-0.595,0.021c-0.813,0.08-2.018,0.347-2.831,0.427c-0.998,0.098-1.371-0.276-1.909-1.193
				c-0.614-0.946-1.796-3.106-3.091-4.882c-0.645-0.868-1.827-2.655-2.878-4.231l-1.927-2.907l0.138,1.405
				c0.084,0.85,0.134,1.74,0.254,2.586c0.164,1.662,0.8,7.758,1.082,8.737c0.056,0.18,0.07,0.328,0.081,0.438
				c0.054,0.555-0.205,0.58-0.651,0.587c-0.592,0.058-2.059,0.314-2.86,0.505c-0.766,0.187-0.901-0.061-0.98-1.247
				c-0.112-1.145-0.806-6.301-1.355-10.761c-0.309-3.141-0.526-7.26-0.795-9.994c-0.105-1.073-0.229-1.957-0.355-2.466
				c-0.067-0.328-0.131-0.583-0.156-0.842c-0.102-1.034,0.328-1.226,0.848-1.24c0.596-0.022,1.002-0.062,2.159-0.436
				c0.398-0.114,0.621-0.135,0.805-0.153c0.407-0.04,0.636,0.012,1.708-0.093c1.552-0.152,2.528,1.804,3.346,2.917
				c0.395,0.595,0.862,1.184,1.242,1.632l0.638,0.795l-0.2-2.033C248.376,178.335,248.256,177.115,248.239,176.557z"/>
			<path fill="#855D42" d="M270.384,189.344c-0.637-0.013-0.731-0.228-0.754-0.449c-0.032-0.332,0.043-0.712,0.155-1.471
				c0.171-0.911,0.437-0.863,0.848-0.866c0.336,0.003,1.572,0.069,3.065,0.072c1.607,0.027,3.717,0.232,4.866,0.156
				c0.558-0.018,0.772,0.261,0.915,0.582c0.055,0.181,0.114,0.399,0.1,0.625c0.384,9.998-4.587,12.576-7.728,12.885
				c-2.328,0.229-10.347-0.886-11.439-12.01c-1.259-12.822,5.934-14.797,8.595-15.059c5.506-0.541,8.032,3.913,8.254,4.264
				c0.226,0.389,0.52,1.106,0.7,1.423c0.044,0.072,0.051,0.145,0.055,0.182c0.021,0.222-0.163,0.24-0.618,0.546
				c-0.562,0.353-1.821,1.224-2.527,1.628c-0.661,0.476-1.312,1.061-1.9,1.529c-0.271,0.289-0.481,0.421-0.656,0.55
				c-0.103,0.086-0.173,0.129-0.283,0.14c-0.107,0.048-0.179,0.092-0.29,0.103c-0.295,0.03-0.371-0.374-0.619-0.611
				c-0.29-0.307-0.75-1.194-1.675-1.104c-1.626,0.16-2.053,3.411-1.843,5.554c0.204,2.068,0.403,5.63,2.88,5.387
				c1.183-0.116,1.683-1.097,1.888-2.051c0.131-0.571,0.146-1.17,0.078-1.873l-0.755-0.075
				C271.244,189.371,270.793,189.34,270.384,189.344z"/>
		</g>
	</g>
	<ellipse fill="#5E5E5E" cx="249.098" cy="450.322" rx="189.83" ry="3.025"/>
	<g>
		<path fill="#894C39" d="M240.144,278.746c3.71-0.059,4.355-6.432,5.986-11.535c1.124-3.513,6.168,0.281,7.212-1.742
			c0,0-7.42-10.064-11.04-8.049c-5.463,3.044-11.486,11.635-10.104,14.156C234.498,275.764,237.937,278.779,240.144,278.746z"/>
		<path fill="#E17A5A" d="M240.779,275.725c2.644-0.141,2.576-6.069,3.556-9.749c0.676-2.532,4.885-0.083,5.555-1.554
			c0,0-5.822-5.479-8.33-3.945c-3.783,2.313-7.766,8.592-6.691,10.35C236.653,273.749,239.212,275.807,240.779,275.725z"/>
		<path fill="#894C39" d="M207.496,278.895c-4.759-0.355-4.606-6.746-5.912-11.955c-0.9-3.587-7.967-0.211-8.994-2.309
			c0,0,11.082-9.428,15.42-7.131c6.549,3.465,12.959,12.494,10.795,14.892C215.208,276.377,210.324,279.104,207.496,278.895z"/>
		<path fill="#E17A5A" d="M207.964,276.781c-3.836-0.285-2.866-7.119-3.919-11.315c-0.725-2.89-6.609-0.038-7.438-1.727
			c0,0,8.273-6.046,11.771-4.196c5.277,2.793,10.442,10.069,8.698,12C214.176,274.755,210.242,276.952,207.964,276.781z"/>
		<path fill="#FDD5B9" d="M161.084,423.926c-28.924-12.489-16.444-59.502-16.444-59.502c-47.639,46.535,8.24,97.502,51.857,64.754
			C196.497,429.178,186.989,435.112,161.084,423.926z"/>
		<path fill="#F3BEA6" d="M186.404,430.714c-36.815,11.553-72.613-26.124-43.575-64.456c-44.35,46.024,10.624,95.24,53.668,62.92
			C196.497,429.178,193.528,431.026,186.404,430.714z"/>
		<path fill="#EC7C42" d="M161.084,423.926c-3.475-1.5-6.347-3.504-8.721-5.859c-3.336,5.693-7.584,9.108-12.212,9.108
			c-1.375,0-2.718-0.306-4.013-0.88c13.416,14.648,38.436,19.345,60.358,2.883C196.497,429.178,186.989,435.112,161.084,423.926z"/>
		<path fill="#DB6C3B" d="M146.241,425.111c-1.915,1.334-3.962,2.063-6.09,2.063c-1.375,0-2.718-0.306-4.013-0.88
			c13.364,14.593,38.241,19.303,60.107,3.064C178.104,438.191,159.049,434.966,146.241,425.111z"/>
		<path fill="#C76746" d="M170.744,390.8c-9.074,12.863-1.873,47.091,9.592,57.58h27.802
			C189.635,400.555,198.932,353.537,170.744,390.8z"/>
		<path fill="#A4593B" d="M239.341,444.919l-5.011,3.461h24.671C264.784,435.165,239.341,444.919,239.341,444.919z"/>
		<path fill="#F79756" d="M243.604,298.613l-37.395-5.036c-53.97,88.413-15.034,154.803-15.034,154.803h55.897
			C275.987,372.865,243.604,298.613,243.604,298.613z"/>
		<path fill="#A4593B" d="M260.915,387.943c10.914,12.645-3.86,49.374-10.538,60.437h-37.601
			C229.303,414.777,250,375.303,260.915,387.943z"/>
		<path fill="#A4593B" d="M177.961,382.188c-1.962,10.538-4.753,55.703,6.714,66.192h27.804
			C193.973,400.555,183.851,377.319,177.961,382.188z"/>
		<path fill="#EC7C42" d="M240.303,298.613l-30.322-5.036c-34.55,43.089-31.813,69.127-6.813,154.803h39.951
			C266.564,372.865,240.303,298.613,240.303,298.613z"/>
		<polygon fill="#DB6C3B" points="195.316,397.773 192.011,345.878 202.754,356.149 203.994,406.807 		"/>
		<polygon fill="#DB6C3B" points="239.015,408.933 235.708,357.036 246.453,367.309 247.692,417.966 		"/>
		<path fill="#BF4F2A" d="M233.176,298.613l-22.27-5.036c-20.032,84.005,0.112,154.803,0.112,154.803h25.103
			C243.25,380.505,233.176,298.613,233.176,298.613z"/>
		<path fill="#DB6C3B" d="M222.797,417.699c7.341,0,11.197-9.182,13.017-20.987c7.696-50.026-2.638-98.743-2.638-98.743
			l-22.27-4.392c-10.911,39.909-13.317,77.161-5.156,101.274C208.702,403.576,217.681,417.699,222.797,417.699z"/>
		<path fill="#FDD5B9" d="M188.477,391.744c-0.384,3.461,11.564,41.847,14.264,56.949h8.493l-7.721-44.993
			C203.513,403.7,188.862,388.283,188.477,391.744z"/>
		<path fill="#FDD5B9" d="M252.857,398.352c0.377,3.463-5.637,35.239-8.281,50.342h-8.324l2.34-43.104
			C238.592,405.589,252.478,394.892,252.857,398.352z"/>
		<path fill="#FDD5B9" d="M221.549,409.363c0,0-40.773-45.936-37.607-72.051c3.168-26.115,24.561-66.076,25.353-67.018
			c0.793-0.945,24.591-3.883,27.758-2.309c3.166,1.573,31.698,51.077,31.611,72.785C268.6,356.311,221.549,409.363,221.549,409.363z
			"/>
		<path fill="#F2C3A3" d="M253.179,295.02c1.551,5.327-38.013,6.528-38.026,10.475c-0.066,15.538,2.479,72.266,2.479,72.266
			s-22.697-15.332-33.578-33.311c3.441,26.542,37.496,64.914,37.496,64.914s36.513-48.125,36.575-63.662
			C258.171,334.414,261.019,310.691,253.179,295.02z"/>
		<path fill="#A56151" d="M200.067,299.828c1.447-6.908,3.164-24.884,9.227-29.533c6.063-4.652,25.277-4.297,28.171-3.412
			c2.893,0.887,10.745,24.975,10.745,24.975L200.067,299.828z"/>
		<path fill="#894C39" d="M204.51,351.28c4.028-9.687-7.438-29.364-7.127-37.841c0.31-8.477-3.1-32.392,18.596-43.289
			c21.691-10.896,6.507,42.078,6.507,42.078C208.228,323.732,215.979,338.869,204.51,351.28z"/>
		<path fill="#A56151" d="M206.384,349.003c2.088-10.192-6.728-27.8-6.061-35.58c0.729-8.458-9.294-30.157,17.515-43.308
			c1.196-0.588,5.503-0.184,6.489-0.38c-1.818-1.437-5.948-2.661-9.797-0.727c-21.693,10.897-16.838,35.954-17.147,44.431
			c-0.311,8.477,11.155,28.154,7.127,37.841C205.202,350.53,205.822,349.771,206.384,349.003z"/>
		<path fill="#E45E3A" d="M210.763,339.078c2.512-6.48-5.399-19.34-5.329-24.96c0.068-5.62-2.574-21.412,11.623-28.966
			c14.199-7.551,4.988,27.78,4.988,27.78C212.783,320.77,217.216,325.146,210.763,339.078z"/>
		<path fill="#894C39" d="M253.32,346.184c-5.373-9.054,3.308-30.086,1.812-38.44c-1.496-8.355-1.444-32.505-24.603-40.384
			c-20.44-7.119-0.601,42.559-0.601,42.559C245.756,319.396,240.146,335.432,253.32,346.184z"/>
		<path fill="#A56151" d="M222.753,270.543c30.412,1.652,27.839,27.1,30.208,35.307c2.236,7.753-4.843,30.494-0.145,39.898
			c0.17,0.145,0.328,0.293,0.504,0.436c-5.373-9.054,3.308-30.086,1.812-38.44c-1.496-8.355,0.327-32.362-22.833-40.24
			c-5.501-1.872-8.574-0.532-10.02,1.417C222.875,269.007,222.049,270.504,222.753,270.543z"/>
		<path fill="#E45E3A" d="M245.473,334.732c-3.578-6.062,2.981-19.915,2.111-25.475c-0.867-5.555-0.306-21.568-16.41-27.047
			c-16.105-5.476-1.351,28.218-1.351,28.218C240.741,316.887,236.448,327.458,245.473,334.732z"/>
		<path fill="#C76746" d="M176.318,442.83c-1.672,0.378-2.279,5.55-2.279,5.55h21.175
			C191.886,437.865,182.771,441.37,176.318,442.83z"/>
		<path fill="#FDD5B9" d="M199.502,445.143c-1.041,0.236-1.417,3.451-1.417,3.451h13.165
			C209.182,442.054,203.516,444.234,199.502,445.143z"/>
		<path fill="#FDD5B9" d="M237.519,445.143c-1.041,0.236-1.419,3.451-1.419,3.451h13.167
			C250.895,442.232,241.532,444.234,237.519,445.143z"/>
		<path fill="#F69795" d="M232.093,340.255c-1.396,4.251-5.113,9.563-7.283,7.704c-2.17-1.86,1.55-15.809,1.55-15.809
			L232.093,340.255z"/>
		<path fill="#E86B6B" d="M225.041,338.262c1.817,0,3.333,3.48,3.707,8.129c1.372-1.629,2.648-4.014,3.345-6.136l-5.733-8.104
			c0,0-0.757,2.837-1.386,6.121C224.996,338.27,225.019,338.262,225.041,338.262z"/>
		<path fill="#F68D51" d="M210.504,312.253c10.903,13.126,25.094,33.894,26.29,42.155l4.476-0.769c0,0-3.63-35.681,3.685-47.94
			c5.79-9.702-6.66-32.882-23.741-28.023C212.734,280.087,191.291,289.125,210.504,312.253z"/>
		<path fill="#F5814D" d="M227.444,300.004c-9.4,0-18.009-1.88-24.687-5c-0.121,4.611,1.963,10.289,7.746,17.249
			c10.903,13.126,25.094,33.894,26.29,42.155l4.476-0.769c0,0-3.63-35.681,3.685-47.94c1.344-2.25,1.694-5.23,1.243-8.418
			C240.649,299.014,234.256,300.004,227.444,300.004z"/>
		<g>
			<path fill="#F37042" d="M203.038,292.574c-1.047,5.001,0.624,11.443,7.466,19.679c10.903,13.126,25.094,33.894,26.29,42.155
				l0.229-0.039C232.711,335.074,219.387,320.461,203.038,292.574z"/>
			<path fill="#F37042" d="M241.263,353.576c-0.136-1.369-3.477-35.861,3.691-47.877c2.333-3.905,1.699-10-0.995-15.566
				C238.134,307.904,234.752,335.921,241.263,353.576z"/>
		</g>
		<path fill="#894C39" d="M226.448,287.619c1.182-4.909,2.958-10.464,9.775-7.098c0,0-4.656-9.176-10.714-8.378
			C225.51,272.144,225.414,283.732,226.448,287.619z"/>
		<path fill="#894C39" d="M225.923,287.193c-2.518-4.549-5.606-10.391-14.181-5.699c0,0,4.628-9.143,10.917-9.553
			C222.659,271.941,225.902,283.207,225.923,287.193z"/>
		<path fill="#FFDDA6" d="M230.542,309.834c-5.422-13.151-3.255-43.571-3.255-43.571l-6.662,0.531c0,0,7.284,18.331,4.495,43.173
			c-2.198,19.572,12.239,41.446,12.239,41.446l3.101,0.131C240.924,341.716,233.941,318.073,230.542,309.834z"/>
		<path fill="#80513C" d="M237.676,354.559c-3.353,0.072-1.326-6.628-1.489-12.116C238.164,347.855,246.471,354.369,237.676,354.559
			z"/>
		<path fill="#F36F40" d="M215.176,300.999c1.502,0,2.809,0.995,3.555,2.48c0.095-0.441,0.162-0.896,0.162-1.378
			c0-2.921-1.884-5.285-4.205-5.285c-2.325,0-4.208,2.364-4.208,5.285c0,1.034,0.246,1.99,0.653,2.805
			C211.616,302.658,213.233,300.999,215.176,300.999z"/>
		<path fill="#F36F40" d="M236.323,298.814c1.493,0.119,2.685,1.26,3.258,2.873c0.145-0.455,0.264-0.925,0.317-1.428
			c0.329-3.049-1.277-5.668-3.592-5.851c-2.313-0.184-4.455,2.138-4.783,5.187c-0.117,1.078,0.017,2.095,0.334,2.978
			C232.591,300.266,234.39,298.66,236.323,298.814z"/>
		<path fill="#5C403A" d="M217.604,302.506c-0.091-1.244-1.303-2.148-2.703-2.016c-1.396,0.129-2.454,1.244-2.36,2.486
			c0.093,1.248,1.302,2.148,2.701,2.02C216.64,304.865,217.699,303.75,217.604,302.506z"/>
		<path fill="#FDD5B9" d="M216.523,302.18c-0.041-0.452-0.386-0.779-0.775-0.733c-0.387,0.046-0.667,0.448-0.627,0.897
			c0.041,0.451,0.387,0.779,0.775,0.733C216.281,303.031,216.564,302.628,216.523,302.18z"/>
		<path fill="#5C403A" d="M238.168,299.82c-0.221-1.149-1.452-1.859-2.751-1.59c-1.299,0.269-2.177,1.419-1.958,2.571
			c0.221,1.149,1.451,1.861,2.753,1.59C237.51,302.123,238.387,300.973,238.168,299.82z"/>
		<path fill="#FDD5B9" d="M237.52,299.654c-0.039-0.449-0.387-0.777-0.773-0.732c-0.388,0.047-0.67,0.447-0.63,0.898
			c0.04,0.45,0.388,0.777,0.775,0.732C237.279,300.507,237.561,300.104,237.52,299.654z"/>
		<path fill="#F68D51" d="M200.093,298.742c0.155-8.236,6.896-20.656,17.976-18.798
			C208.791,282.797,204.076,288.714,200.093,298.742z"/>
		<path fill="#FDD5B9" d="M204.186,332.015c3.352,5.052,5.202,16.312-3.439,24.131C206.144,346.383,206.229,339.848,204.186,332.015
			z"/>
		<path fill="#FDD5B9" d="M212.05,317.844c4.051,4.658,7.501,15.639,0.046,24.311C216.053,331.896,215.199,325.401,212.05,317.844z"
			/>
		<path fill="#A56151" d="M250.854,313.236c1.991-7.982,2.022-21.045-4.521-31.312C250.977,293.879,251.637,301.75,250.854,313.236z
			"/>
		<path fill="#894C39" d="M208.225,309.037c-2.904,4.102-4.269,11.658,1.557,19.326
			C206.121,320.216,206.232,315.483,208.225,309.037z"/>
		<path fill="#FDD5B9" d="M206.243,350.039c2.326-2.397,5.823-7.895,6.635-13.504c0.701-4.852-0.968-9.616-2.766-14.574
			c-0.115,5.252,1.277,9.829,0.751,14.574C210.337,341.279,207.891,346.192,206.243,350.039z"/>
		<path fill="#F2C3A3" d="M246,317.865c-1.568,2.813-3.384,8.879-2.563,14.488c0.71,4.85,3.695,9.117,6.856,13.545
			c-1.393-5.115-4.056-9.26-4.904-13.969C244.54,327.216,245.505,321.939,246,317.865z"/>
		<path fill="#F2C3A3" d="M252.047,318.993c-1.859,2.681-4.313,8.579-4.096,14.227c0.188,4.888,2.705,9.368,5.381,14.028
			c-0.84-5.205-3.05-9.539-3.392-14.296C249.598,328.193,251.121,323.015,252.047,318.993z"/>
		<path fill="#F68D51" d="M202.962,286.065c2.052-2.608,5.761-6.049,9.683-6.984c2.822-0.671,5.831,0.31,8.055,2.159
			C214.405,279.962,209.343,281.771,202.962,286.065z"/>
		<path fill="#F68D51" d="M246.573,289.586c-0.815-5.889-7.931-14.464-17.389-7.81C238.062,280.498,242.753,283.732,246.573,289.586
			z"/>
		<path fill="#F68D51" d="M241.983,279.486c-2.294-1.133-6.347-2.212-9.764-0.865c-2.57,1.02-4.439,3.719-5.163,6.682
			C231.303,280.455,235.949,279.217,241.983,279.486z"/>
	</g>
	<g>
		<path fill="#D3ADA0" d="M86.445,442.629c-12.942,6.14-17.889-5.031-17.889-5.031c2.177,13.195,14.702,10.834,18.973,9.992
			L86.445,442.629z"/>
		<path fill="#553B33" d="M146.382,373.466c-2.374,1.766-9.168-14.241-10.086-17.058c-0.918-2.817,10.358-2.594,16.437,2.365
			C158.809,363.732,148.664,371.766,146.382,373.466z"/>
		<path fill="#D3ADA0" d="M130.984,442.193c2.74-20.668-9.214-36.107-17.929-27.89c-8.715,8.219-5.977,22.661-1.991,34.364h26.644
			C144.431,440.699,130.984,442.193,130.984,442.193z"/>
		<path fill="#D3ADA0" d="M143.435,448.668c-2.159-4.317-12.616-17.432-13.613-22.08c-0.903-4.222-10.125-18.427-4.648-27.225
			c2.238-3.594,11.915-10.513,14.111-1.992c2.823,10.956,0.831,24.236,1.495,26.729c0.663,2.488,10.791,24.568,10.791,24.568
			H143.435z"/>
		<path fill="#F0D2C6" d="M87.739,440.45c-9.589-25.275,5.782-34.038,7.971-37.128c2.822-3.984,8.498-26.838,19.503-32.348
			c9.957-4.983,37.85-1.493,27.89,13.779c-2.32,3.559-3.487,19.184-4.151,31.875c-0.921,17.653-5.775,32.776-26.81,32.039
			C97.947,448.17,87.739,440.45,87.739,440.45z"/>
		<path fill="#F8DAD2" d="M104.539,383.39c-4.546,8.104-7.894,17.327-9.578,19.708c-1.1,1.551-5.328,4.59-8.058,10.426l6.527,8.14
			C99.424,415.765,106.512,398.447,104.539,383.39z"/>
		<path fill="#E0B7A9" d="M98.819,409.955c-5.902-0.7-10.726,10.392-10.726,10.392c-2.17,7.138,8.268,25.713,8.268,25.713
			l15.486-17.085C111.848,428.975,104.721,410.652,98.819,409.955z"/>
		<path fill="#E0B7A9" d="M137.845,370.684c-1.473,17.42-12.542,49.195-21.442,54.496c-11.212,6.679-24.69,4.717-30.11-4.379
			c-0.415-0.697-0.771-1.494-1.08-2.355c-1.254,5.432-1.046,12.586,2.527,22.005c0,0,10.208,7.72,24.402,8.218
			c21.034,0.737,27.578-14.23,27.539-32.115c-0.026-12.708,1.102-28.24,3.422-31.799
			C147.787,377.571,144.102,372.998,137.845,370.684z"/>
		<g>
			<path fill="#E4BDB4" d="M138.714,412.752c0.037,17.885-4.388,34.934-25.421,34.195c-9.945-0.349-22.533-6.665-26.424-8.965
				c0.266,0.807,0.549,1.627,0.87,2.468c0,0,10.208,7.72,24.402,8.218c21.034,0.737,28.785-14.301,28.747-32.187
				c-0.019-9.22-0.638-19.854,0.573-26.394C139.064,396.623,138.699,406.107,138.714,412.752z"/>
			<path fill="#E0B7A9" d="M86.196,420.615c-0.371-0.654-0.701-1.383-0.984-2.17c-0.079,0.339-0.15,0.684-0.216,1.036
				C85.375,419.881,85.776,420.258,86.196,420.615z"/>
		</g>
		<path fill="#E0B7A9" d="M108.866,385.668c0,0,13.866,15.795,26.952,18.125l1.464-7.479L108.866,385.668z"/>
		<path fill="#F8DAD2" d="M104.92,442.193c2.74-20.668-6.474-42.582-15.188-34.363c-8.717,8.218-13.198,29.135-9.213,40.838h31.124
			C117.575,442.491,104.92,442.193,104.92,442.193z"/>
		<g>
			<path fill="#F0D2C6" d="M79.926,446.597c0.171,0.716,0.366,1.411,0.593,2.071h2.652C82.035,448.223,80.948,447.52,79.926,446.597
				z"/>
			<path fill="#F0D2C6" d="M104.92,442.193c1.726-13.018-1.292-26.521-5.94-32.688c0.957,3.681,1.497,7.824,1.497,12.209
				c0,13.297-4.938,24.389-11.502,26.953h22.668C117.575,442.491,104.92,442.193,104.92,442.193z"/>
		</g>
		<path fill="#F0D2C6" d="M135.915,399.074c-13.113-0.191-37.841-14.212-28.919-22.787c5.726-5.505,11.287-23.479,23.904-23.095
			c12.618,0.384,22.548,10.483,23.046,18.938C154.255,377.369,149.784,399.277,135.915,399.074z"/>
		<path fill="#F8DAD2" d="M122.705,372.479c1.518-12.289,19.631-9.245,19.127,3.648C141.832,376.127,120.27,392.186,122.705,372.479
			z"/>
		<path fill="#E0B7A9" d="M155.14,372.986c-0.283-4.793-3.979-10.386-9.425-14.402c0.114,3.117-1.061,8.436-1.682,10.854
			c-3.354,13.045-15.82,4.559-22.313,19.343c-1.432,3.257-5.834,3.279-8.897,1.974c6.929,5.086,16.883,9.602,23.679,9.701
			C150.371,400.658,155.448,378.224,155.14,372.986z"/>
		<path fill="#E0B7A9" d="M111.161,377.743c6.178,1.816,16.442-14.92,21.643-19.652c2.033-1.847-10.165-9.063-16.476-3.243
			c-5.68,5.237-4.648,7.854-4.645,12.779C111.685,371.378,110.241,377.472,111.161,377.743z"/>
		<path fill="#D6A69A" d="M125.316,372.576c1.211-9.708,15.908-7.273,15.521,2.912C140.837,375.488,123.374,388.144,125.316,372.576
			z"/>
		<path fill="#D6A69A" d="M153.579,379.09c2.981-11.252-8.945-11.187-11.492-3.506C142.087,375.584,149.946,392.787,153.579,379.09z
			"/>
		<path fill="#BC857B" d="M123.625,389.027c1.942-4.791,11.16-10.53,18.923-8.71c4.808,1.126,7.233,10.71,5.491,14.094
			c-1.763,3.419-9.153,8.003-12.85,6.942C128.834,399.531,122.165,392.631,123.625,389.027z"/>
		<path fill="#8F594D" d="M145.33,382.105c-2.609-0.025-3.807,1.391-3.715,3.498c0.413,9.533-11.223,11.467-14.813,9.088
			c-0.999-0.662-1.955-1.494-2.854-2.42c1.582,3.535,6.499,7.723,11.241,9.082c3.696,1.061,11.087-3.523,12.85-6.942
			C149.401,391.766,148.213,385.325,145.33,382.105z"/>
		<path fill="#714038" d="M135.016,394.834c0.522,1.467,4.907,4.563,8.95,1.126c0.203-5.187-2.625-7.616-2.625-7.616
			C139.813,391.545,138.872,393.02,135.016,394.834z"/>
		<path fill="#8F594D" d="M135.498,394.605c0.698,1.393,5.424,3.936,9.022,0.034c-0.429-5.176-3.528-7.243-3.528-7.243
			C139.862,390.758,139.105,392.337,135.498,394.605z"/>
		<path fill="#714038" d="M138.29,392.494c1.163,1.037,6.495,1.648,8.396-3.307c-2.309-4.646-5.956-5.42-5.956-5.42
			C140.924,387.308,140.804,389.054,138.29,392.494z"/>
		<path fill="#6C524A" d="M107.327,371.723c5.729,3.238,13.033-9.297,25.315-13.531c2.448-0.842-7.304-11.584-14.772-7.721
			c-6.895,3.57-6.476,6.477-7.638,11.373C109.351,365.562,106.461,371.232,107.327,371.723z"/>
		<path fill="#7B5E57" d="M122.922,356.365c3.456-0.321,6.771-0.22,9.787,0.229c-1.591-3.09-8.928-9.183-14.839-6.123
			c-5.663,2.934-6.393,5.42-7.115,8.928C114.222,357.872,118.385,356.785,122.922,356.365z"/>
		<path fill="#553B33" d="M131.111,354.463c0.248,0.633,0.997,2.58,0.555,2.695c-11.552,3.004-18.714,12.662-24.159,12.594
			c-0.334,1.056-0.917,2.12-0.018,2.725c5.456,3.676,13.275-9.79,25.561-14.023C133.949,358.143,132.791,356.232,131.111,354.463z"
			/>
		<path fill="#85574F" d="M134.176,373.277c0.119-1.064-0.624-2.002-1.66-2.094c-1.035-0.094-1.973,0.691-2.092,1.755
			c-0.12,1.064,0.624,2.001,1.66,2.097C133.119,375.127,134.057,374.34,134.176,373.277z"/>
		<path fill="#E0B7A9" d="M122.707,400.229l-13.734,6.555c-4.207,6.162,0.196,27.01,0.196,27.01l19.889-11.67L122.707,400.229z"/>
		<path fill="#F0D2C6" d="M123.689,448.668c-2.205-3.812-11.882-16.564-12.929-20.666c-0.95-3.73-6.349-16.711-0.967-24.48
			c2.197-3.17,13.171-8.794,13.267-1.027c0.099,7.77-2.55,21.842-1.86,24.04c0.692,2.199,8.809,22.134,8.809,22.134H123.689z"/>
		<path fill="#E8C5BA" d="M121.2,426.534c-0.689-2.198,1.959-16.271,1.86-24.04c-0.034-2.769-1.454-3.83-3.364-3.914
			c0.628,3.059,0.987,6.582,0.987,10.338c0,11.674-3.458,21.139-7.72,21.139c-0.559,0-1.103-0.166-1.626-0.474
			c2.233,5.131,9.328,15.679,11.301,19.085h8.134C130.772,448.668,121.893,428.733,121.2,426.534z"/>
		<path fill="#E8C5BA" d="M124.571,448.668h11.622c0,0-1.453-4.622-3.006-5.037C131.633,443.216,124.571,448.668,124.571,448.668z"
			/>
		<path fill="#D3ADA0" d="M143.673,448.668h11.62c0,0-1.45-4.622-3.006-5.037C150.733,443.216,143.673,448.668,143.673,448.668z"/>
		<path fill="#AD736B" d="M148.455,394.584c0.375-2.684,0.966-14.232-6.218-10.293l-0.622,1.313
			c-0.553,1.795-2.348,8.633,0.413,12.918C143.101,400.184,148.078,397.265,148.455,394.584z"/>
		<path fill="#82635A" d="M141.615,386.327c-2.383-0.62-5.276-5.292-4.041-6.423c1.242-1.141,9.119,0.621,9.43,3.107
			C147.183,384.438,143.015,386.693,141.615,386.327z"/>
		<path fill="#63463F" d="M144.127,380.604c3.603,1.961-0.75,3.945-2.719,3.082c-0.718-0.314-4.249-3.816-3.72-1.403
			c0.757,1.696,2.337,3.97,3.824,4.357c1.399,0.364,5.67-2.202,5.491-3.628C146.885,382.063,145.662,381.221,144.127,380.604z"/>
		<path fill="#B28375" d="M130.424,448.658h-0.913c0,0-0.575-1.62-0.171-1.658C129.782,446.959,130.424,448.658,130.424,448.658z"/>
		<path fill="#B28375" d="M132.307,448.659l-1.013,0.001c0,0-0.614-2.012-0.183-2.073
			C131.594,446.514,132.307,448.659,132.307,448.659z"/>
		<path fill="#B28375" d="M134.673,448.659h-1.544c0,0-0.898-2.688-0.271-2.804C133.574,445.723,134.673,448.659,134.673,448.659z"
			/>
		<path fill="#B28375" d="M105.503,448.657h-1.556c0,0,0.727-2.331,1.504-2.28C106.228,446.429,105.503,448.657,105.503,448.657z"/>
		<path fill="#B28375" d="M108.249,448.657h-1.556c0,0,0.727-2.331,1.504-2.28C108.974,446.429,108.249,448.657,108.249,448.657z"/>
		<path fill="#B28375" d="M110.839,448.657h-1.555c0,0,0.726-2.331,1.503-2.28C111.564,446.429,110.839,448.657,110.839,448.657z"/>
		<path fill="#E0B7A9" d="M133.121,367.301c-3.187-0.41-6.132,1.817-6.51,5.002c-0.387,3.201,1.981,6.038,5.207,6.318
			c3.148,0.275,5.926-2.008,6.267-5.072C138.427,370.495,136.232,367.709,133.121,367.301z M137.338,373.953
			c-0.3,2.697-2.743,4.703-5.512,4.461c-2.83-0.251-4.905-2.736-4.567-5.545c0.331-2.795,2.914-4.756,5.712-4.402
			C135.707,368.818,137.64,371.269,137.338,373.953z"/>
		<path fill="#E0B7A9" d="M132.186,377.388c2.115-0.006,3.84-1.742,3.805-3.89c-0.034-2.157-1.83-3.832-3.96-3.736
			c-2.078,0.094-3.687,1.854-3.638,3.916C128.441,375.735,130.121,377.39,132.186,377.388z M128.846,373.344
			c-0.045-1.814,1.371-3.362,3.197-3.445c1.868-0.082,3.444,1.389,3.472,3.281c0.032,1.883-1.478,3.411-3.335,3.423
			C130.364,376.607,128.886,375.152,128.846,373.344z"/>
		<path fill="#E0B7A9" d="M145.341,377.788c0.65,1.64,2.523,2.45,4.178,1.769c1.666-0.682,2.42-2.586,1.696-4.209
			c-0.707-1.586-2.563-2.299-4.149-1.633C145.482,374.379,144.711,376.187,145.341,377.788z M147.463,373.964
			c1.396-0.587,3.025,0.044,3.647,1.435c0.634,1.428-0.027,3.094-1.488,3.693c-1.45,0.599-3.099-0.108-3.672-1.547
			C145.393,376.137,146.07,374.549,147.463,373.964z"/>
		<path fill="#E0B7A9" d="M152.983,378.152c0.691-2.526-0.731-5.24-3.202-6.008c-2.481-0.779-4.994,0.73-5.588,3.31
			c-0.578,2.514,0.904,5.101,3.285,5.821C149.853,381.996,152.306,380.616,152.983,378.152z M147.245,380.609
			c-2.094-0.634-3.399-2.909-2.889-5.119c0.523-2.262,2.728-3.586,4.905-2.902c2.168,0.672,3.42,3.053,2.817,5.273
			C151.486,380.029,149.332,381.243,147.245,380.609z"/>
		<path fill="#5C403A" d="M133.77,373.236c0.096-0.833-0.486-1.566-1.301-1.641c-0.813-0.072-1.548,0.544-1.643,1.376
			c-0.096,0.835,0.488,1.568,1.301,1.642C132.94,374.688,133.676,374.068,133.77,373.236z"/>
		
			<ellipse transform="matrix(0.9407 -0.3392 0.3392 0.9407 -118.5495 67.2211)" fill="#D6A69A" cx="133.014" cy="372.727" rx="0.311" ry="0.544"/>
		<path fill="#85574F" d="M150.393,376.645c0.119-1.063-0.624-2-1.66-2.096c-1.035-0.09-1.974,0.693-2.092,1.758
			c-0.12,1.064,0.625,2,1.661,2.096C149.336,378.495,150.273,377.707,150.393,376.645z"/>
		<path fill="#5C403A" d="M149.987,376.604c0.095-0.832-0.487-1.566-1.302-1.641c-0.813-0.072-1.549,0.545-1.643,1.377
			c-0.096,0.833,0.488,1.568,1.302,1.642C149.157,378.057,149.893,377.438,149.987,376.604z"/>
		
			<ellipse transform="matrix(0.9404 -0.3401 0.3401 0.9404 -119.0163 73.1748)" fill="#D6A69A" cx="149.231" cy="376.095" rx="0.312" ry="0.543"/>
		<ellipse fill="#BE9A91" cx="142.081" cy="382.856" rx="0.933" ry="0.466"/>
		<path fill="#E48C83" d="M138.416,392.485c-1.076,0.888-0.932,2.712,0.446,2.972c1.83,0.346,1.633-2.328,1.633-2.328
			L138.416,392.485z"/>
	</g>
	<g>
		<path fill="#F7A27C" d="M344,228.465c0.842,1.55-3.828,4.504-1.764,10.449c0.355,1.006,1.014,2.527,1.62,4.064
			c1.069,2.735,0.881,5.942-0.451,6.072c-1.102,0.11-0.875-2.21-1.596-4.174c-0.634-1.711-0.805-2.316-1.283-2.222
			c-0.332,0.077,0.008,2.367,0.298,4.929c0.361,3.292,0.009,5.516-1.334,5.6c-1.295,0.071-0.907-2.101-1.554-5.051
			c-0.563-2.558-0.639-3.683-1.933-3.625c-0.597,0.018-0.449,1.743-0.807,4.412c-0.417,3.109-1.497,4.97-2.577,4.771
			c-1.541-0.283-0.245-1.584-0.271-5.203c-0.047-4.673,0.597-9.096-1.407-11.375c-1.852-2.113-7.188,1.044-7.565-1.208
			c-0.286-1.78,5.174-2.519,11.676-4.185C340.282,230.393,343.104,226.825,344,228.465z"/>
		<polygon fill="#EF9070" points="364.088,128.595 360.844,111.453 371.012,97.632 384.778,125.102 		"/>
		<path fill="#C49674" d="M353.314,128.135c12.637-1.917,11.279,85.274,6.362,85.834c-4.915,0.563-13.658-2.504-14.165-10.385
			C345.002,195.705,340.164,130.131,353.314,128.135z"/>
		<path fill="#DDB491" d="M319.148,238.209c-6.121-6.295,25.703-33.596,30.263-35.279c7.782-2.868,14.8,9.521,10.174,14.573
			C355.619,221.835,326.973,246.241,319.148,238.209z"/>
		<path fill="#C49674" d="M349.411,202.93c-0.772,0.285-2.334,1.314-4.349,2.839c4.4,2.807-2.234,9.021-4.753,12.388
			c-2.315,3.098-5.499,15.877-16.305,21.643c11.112-0.522,34.438-18.685,37.807-22.363
			C366.436,212.389,357.193,200.063,349.411,202.93z"/>
		<path fill="#60423B" d="M412.074,347.684c5.813-22.023,11.537-97.441,8.309-110.124c-3.226-12.681-58.104-0.667-58.104-0.667
			c-7.743,28.698-16.785,102.782-16.785,110.79c0,8.011,10.978,54.063,18.721,99.444h5.812c0,0,0.431-54.95-0.213-61.627
			c-0.646-6.674-9.087-30.478-7.797-37.817c1.291-7.34,21.57-56.729,25.442-57.396c3.874-0.668,6.452,40.045,6.452,57.396
			c0,17.354,12.917,99.444,12.917,99.444h5.809c0,0,0-51.612,1.936-61.627C416.509,375.491,406.265,369.709,412.074,347.684z"/>
		<polygon fill="#4D312D" points="381.296,283.566 379.493,263.725 383.57,264.287 382.523,283.228 		"/>
		<path fill="#4D312D" d="M355.555,270.338l7.216-1.654c0,0,4.961,4.209,8.417,5.863l7.969-9.922l9.62,11.576
			c0,0,7.064-3.158,12.175-7.066l16.688,3.908l0.301-7.815l-41.038-8.72l-20.897,8.269L355.555,270.338z"/>
		<g>
			<path fill="#4D312D" d="M412.074,347.684c5.813-22.023,11.537-97.441,8.309-110.124c-1.213-4.765-9.719-6.041-19.866-5.782
				c8.061,0.216,14.33,1.746,15.358,5.782c3.227,12.683-2.498,88.1-8.311,110.124c-5.808,22.025,4.436,27.808,2.499,37.817
				c-1.938,10.015-1.938,61.627-1.938,61.627h4.511c0,0,0-51.612,1.936-61.627C416.509,375.491,406.265,369.709,412.074,347.684z"/>
			<path fill="#4D312D" d="M387.347,290.341c-0.397-1.521-0.868-2.361-1.429-2.265c-3.872,0.668-27.119,52.268-28.41,59.607
				c-1.292,7.34,7.15,31.144,7.796,37.817c0.644,6.677,0.214,61.627,0.214,61.627h4.509c0,0,0.431-54.95-0.213-61.627
				c-0.646-6.674-9.087-30.478-7.797-37.817C363.297,340.406,383.23,291.83,387.347,290.341z"/>
		</g>
		<path fill="#FEEBAB" d="M356.88,258.472c-0.694,4.233,3.416,12.364,11.581,16.442c0,0,21.745-29.673,13.538-26.733
			C373.791,251.119,363.223,255.042,356.88,258.472z"/>
		<path fill="#FEEBAB" d="M407.711,256.938c-1.861,9.045-14.601,14.57-21.842,18.818c0,0-14.992-20.076-12.444-23.911
			C387.255,245.951,406.604,244.052,407.711,256.938z"/>
		<path fill="#DDB491" d="M353.698,267.597c-3.225-2.657,5.364-20.8,7.117-36.789c1.746-15.989-22.87-87.813-10.093-101.314
			c12.774-13.5,40.372-8.8,47.96,0.496c7.593,9.293,28.95,118.545,21.56,140.919c-0.967,2.926-22.03-9.254-42.642-8.551
			C365.668,262.766,357.166,270.459,353.698,267.597z"/>
		<polygon fill="#F2C8A8" points="352.998,185.03 411.775,171.502 413.279,191.645 355.254,196.156 		"/>
		<polygon fill="#F2C8A8" points="349.165,167.668 405.31,153.462 408.24,164.285 351.42,178.791 		"/>
		<path fill="#C49674" d="M402.104,137.824c9.162,30.704,23.216,110.695,17.01,129.476c-0.968,2.928-22.027-9.253-42.64-8.552
			c-11.432,0.392-19.703,7.445-23.428,5.521c-0.149,1.625,0.008,2.797,0.652,3.327c3.468,2.862,11.97-4.831,23.902-5.239
			c20.611-0.703,41.675,11.477,42.642,8.551C426.709,251.338,411.177,165.301,402.104,137.824z"/>
		<polygon fill="#C49674" points="359.763,126.63 359.313,133.507 365.514,125.84 375.885,132.153 384.678,122.346 381.184,120.542 
			365.514,122.346 		"/>
		<path fill="#C49674" d="M398.735,129.986c-2.123-2.605-9.33,17.35-11.112,20.467c-4.061,7.44,6.798,68.508,18.457,116.964
			c8.044,2.617,13.621,4.976,14.11,3.504C427.599,248.553,406.319,139.285,398.735,129.986z"/>
		<path fill="#DDB491" d="M391.173,127.549c14.567-10.358,30.828,78.083,26.063,80.714c-4.76,2.627-17.938,7.434-20.162,0.301
			C394.854,201.427,379.102,136.131,391.173,127.549z"/>
		<path fill="#C49674" d="M398.618,129.792c10.667,18.896,18.47,77.534,14.688,79.622c-1.438,0.795-3.768,1.792-6.367,2.605
			c4.45-0.672,9.196-2.527,11.557-3.833C422.464,205.998,410.979,144.382,398.618,129.792z"/>
		<g>
			<g>
				
					<ellipse transform="matrix(-0.994 -0.1093 0.1093 -0.994 590.4983 540.1476)" fill="#855D42" cx="310.06" cy="253.883" rx="1.286" ry="1.448"/>
				
					<ellipse transform="matrix(-0.994 -0.1096 0.1096 -0.994 589.8206 550.4543)" fill="#855D42" cx="310.044" cy="259.011" rx="1.287" ry="1.445"/>
				<path fill="#855D42" d="M311.098,253.718c0.086-0.793,0.731-1.372,1.439-1.295c0.707,0.077,1.21,0.782,1.122,1.576
					c-0.086,0.796-0.731,1.376-1.438,1.298C311.515,255.22,311.01,254.514,311.098,253.718z"/>
				
					<ellipse transform="matrix(-0.9941 -0.1085 0.1085 -0.9941 592.5361 535.7308)" fill="#855D42" cx="310.839" cy="251.749" rx="1.287" ry="1.447"/>
				<path fill="#855D42" d="M305.552,245.902c0.088-0.794,0.73-1.377,1.435-1.3c0.708,0.078,1.212,0.786,1.123,1.58
					c-0.086,0.792-0.729,1.375-1.438,1.297C305.97,247.401,305.466,246.695,305.552,245.902z"/>
				<path fill="#855D42" d="M307.896,256.834c0.087-0.792,0.731-1.373,1.439-1.295c0.705,0.077,1.208,0.783,1.121,1.574
					c-0.087,0.797-0.73,1.377-1.437,1.301C308.312,258.338,307.809,257.631,307.896,256.834z"/>
				
					<ellipse transform="matrix(-0.994 -0.109 0.109 -0.994 592.4625 550.3942)" fill="#855D42" cx="311.271" cy="259.008" rx="1.286" ry="1.449"/>
				
					<ellipse transform="matrix(-0.9941 -0.1088 0.1088 -0.9941 592.2979 545.0118)" fill="#855D42" cx="311.019" cy="256.346" rx="1.288" ry="1.448"/>
				<path fill="#855D42" d="M316.113,258.984c0.085-0.795,0.729-1.376,1.435-1.299c0.703,0.078,1.208,0.784,1.122,1.58
					c-0.085,0.793-0.732,1.371-1.438,1.295C316.53,260.484,316.026,259.777,316.113,258.984z"/>
				
					<ellipse transform="matrix(-0.994 -0.1096 0.1096 -0.994 598.2717 550.7393)" fill="#855D42" cx="314.277" cy="258.921" rx="1.287" ry="1.447"/>
				<path fill="#855D42" d="M310.994,260.92c0.087-0.796,0.73-1.376,1.436-1.297c0.707,0.076,1.209,0.783,1.124,1.576
					c-0.09,0.793-0.731,1.375-1.44,1.297C311.41,262.419,310.906,261.712,310.994,260.92z"/>
				<path fill="#855D42" d="M307.37,271.615c0.085-0.795,0.729-1.377,1.438-1.301c0.704,0.077,1.204,0.786,1.118,1.582
					c-0.086,0.793-0.729,1.374-1.435,1.295C307.783,273.115,307.28,272.408,307.37,271.615z"/>
				<path fill="#855D42" d="M301.591,280.826c0.087-0.794,0.729-1.377,1.436-1.299c0.709,0.078,1.209,0.784,1.122,1.578
					c-0.087,0.796-0.73,1.376-1.435,1.299C302.004,282.326,301.504,281.621,301.591,280.826z"/>
				
					<ellipse transform="matrix(-0.9941 -0.1088 0.1088 -0.9941 569.3956 559.0982)" fill="#855D42" cx="299.958" cy="264.008" rx="1.287" ry="1.447"/>
				
					<ellipse transform="matrix(-0.9941 -0.1085 0.1085 -0.9941 570.3726 583.6892)" fill="#855D42" cx="301.062" cy="276.331" rx="1.287" ry="1.445"/>
				<path fill="#855D42" d="M300.314,289.979c0.086-0.794,0.733-1.377,1.436-1.299c0.708,0.077,1.211,0.785,1.124,1.58
					c-0.085,0.791-0.73,1.375-1.439,1.297C300.731,291.48,300.228,290.771,300.314,289.979z"/>
				<path fill="#855D42" d="M302.821,273.336c0.086-0.797,0.728-1.377,1.436-1.3c0.704,0.077,1.205,0.784,1.119,1.579
					c-0.087,0.794-0.729,1.374-1.436,1.297C303.234,274.832,302.733,274.128,302.821,273.336z"/>
				
					<ellipse transform="matrix(-0.994 -0.1091 0.1091 -0.994 577.6866 570.0189)" fill="#855D42" cx="304.431" cy="269.212" rx="1.285" ry="1.447"/>
				<path fill="#855D42" d="M305.59,267.953c0.086-0.793,0.729-1.375,1.434-1.297c0.711,0.076,1.212,0.783,1.125,1.577
					c-0.088,0.792-0.729,1.374-1.439,1.297C306.003,269.452,305.502,268.745,305.59,267.953z"/>
				
					<ellipse transform="matrix(-0.9941 -0.1085 0.1085 -0.9941 588.0126 553.1335)" fill="#855D42" cx="309.057" cy="260.567" rx="1.287" ry="1.447"/>
				<path fill="#855D42" d="M311.219,256.367c0.086-0.795,0.729-1.377,1.438-1.299c0.705,0.078,1.207,0.785,1.119,1.58
					c-0.085,0.794-0.728,1.374-1.438,1.297C311.633,257.867,311.132,257.161,311.219,256.367z"/>
				<path fill="#855D42" d="M309.635,250.924c0.085-0.793,0.731-1.374,1.439-1.296c0.705,0.077,1.206,0.784,1.118,1.576
					c-0.087,0.795-0.729,1.375-1.434,1.3C310.053,252.426,309.548,251.719,309.635,250.924z"/>
				
					<ellipse transform="matrix(-0.994 -0.109 0.109 -0.994 589.9072 530.9987)" fill="#855D42" cx="309.463" cy="249.38" rx="1.286" ry="1.448"/>
				
					<ellipse transform="matrix(-0.9941 -0.1089 0.1089 -0.9941 598.2545 545.3206)" fill="#855D42" cx="314.017" cy="256.326" rx="1.287" ry="1.446"/>
				
					<ellipse transform="matrix(-0.9941 -0.1085 0.1085 -0.9941 591.7822 541.8972)" fill="#855D42" cx="310.636" cy="254.847" rx="1.287" ry="1.448"/>
				<path fill="#855D42" d="M302.599,264.157c0.086-0.795,0.728-1.376,1.437-1.298c0.708,0.078,1.212,0.783,1.124,1.578
					c-0.089,0.797-0.733,1.377-1.438,1.3C303.011,265.658,302.509,264.951,302.599,264.157z"/>
				
					<ellipse transform="matrix(-0.9941 -0.1084 0.1084 -0.9941 589.6102 535.2352)" fill="#855D42" cx="309.357" cy="251.587" rx="1.288" ry="1.446"/>
				
					<ellipse transform="matrix(-0.994 -0.1089 0.1089 -0.994 576.6145 551.8071)" fill="#855D42" cx="303.379" cy="260.154" rx="1.286" ry="1.447"/>
				
					<ellipse transform="matrix(-0.9941 -0.1085 0.1085 -0.9941 587.2247 549.6411)" fill="#855D42" cx="308.562" cy="258.849" rx="1.287" ry="1.445"/>
				<path fill="#855D42" d="M309.106,264.455c0.086-0.793,0.732-1.375,1.439-1.297c0.705,0.078,1.205,0.785,1.117,1.578
					c-0.085,0.793-0.727,1.375-1.434,1.297C309.524,265.957,309.02,265.248,309.106,264.455z"/>
				<path fill="#855D42" d="M307.325,254.554c0.089-0.795,0.734-1.375,1.443-1.296c0.704,0.076,1.207,0.783,1.12,1.576
					c-0.087,0.794-0.73,1.377-1.438,1.3C307.743,256.057,307.239,255.348,307.325,254.554z"/>
				
					<ellipse transform="matrix(-0.9941 -0.1086 0.1086 -0.9941 579.3215 530.9338)" fill="#855D42" cx="304.116" cy="249.695" rx="1.288" ry="1.448"/>
				<path fill="#855D42" d="M294.502,295.789c0.088-0.793,0.729-1.377,1.437-1.299c0.706,0.076,1.21,0.785,1.123,1.578
					c-0.086,0.795-0.732,1.377-1.438,1.299C294.914,297.289,294.415,296.58,294.502,295.789z"/>
				
					<ellipse transform="matrix(-0.994 -0.1093 0.1093 -0.994 556.0132 606.2607)" fill="#855D42" cx="294.617" cy="287.896" rx="1.287" ry="1.444"/>
				
					<ellipse transform="matrix(-0.9941 -0.1086 0.1086 -0.9941 567.0573 598.6533)" fill="#855D42" cx="299.824" cy="283.892" rx="1.286" ry="1.447"/>
				
					<ellipse transform="matrix(-0.994 -0.109 0.109 -0.994 568.636 573.3929)" fill="#855D42" cx="299.992" cy="271.153" rx="1.285" ry="1.447"/>
				
					<ellipse transform="matrix(-0.994 -0.1091 0.1091 -0.994 581.9247 547.7018)" fill="#855D42" cx="305.939" cy="257.938" rx="1.285" ry="1.448"/>
				<path fill="#855D42" d="M304.076,253.158c0.086-0.797,0.731-1.377,1.438-1.3c0.707,0.077,1.209,0.783,1.123,1.58
					c-0.087,0.794-0.73,1.374-1.44,1.297C304.493,254.658,303.989,253.951,304.076,253.158z"/>
				<path fill="#855D42" d="M306.952,263.595c0.088-0.796,0.729-1.372,1.437-1.294c0.708,0.077,1.211,0.779,1.124,1.574
					c-0.088,0.795-0.731,1.375-1.438,1.297C307.368,265.095,306.864,264.39,306.952,263.595z"/>
			</g>
			<path fill="#FFE5BB" d="M398.202,185.616c-10.712-3.087-66.217-2.065-95.479,24.942c0,0-4.007,27.55,14.859,48.259
				c0,0,31.505-18.256,35.147-25.207c0,0,30.651,8.142,42.552,5.661C403.634,224.579,401.987,201.576,398.202,185.616z"/>
			<path fill="#F4D4A6" d="M355.203,219.917c30.829-1.399,42.11-21.324,43.367-32.644c3.51,15.862,5.628,39.917-2.441,54.118
				c-11.901,2.48-43.488-6.104-43.488-6.104c-3.643,6.949-34.888,25.687-34.888,25.687c-5.059-5.553-8.63-13.749-10.916-19.62
				C326.709,245.412,336.65,228.839,355.203,219.917z"/>
			<g opacity="0.4">
				<path fill="#BC9171" d="M365.394,233.082l20.996-3.896l0.058-0.492c1.106-9.683,3.229-35.176,3.246-35.435l0.061-0.681
					l-0.67-0.037c-6.404-0.356-19.582,0.46-19.713,0.468l-0.472,0.029l-0.124,0.463c-4.42,16.422-3.425,38.602-3.418,38.824
					L365.394,233.082z M385.199,228.053l-18.56,3.444c-0.129-3.974-0.493-22.738,3.277-37.187c2.316-0.133,12.612-0.706,18.415-0.47
					C387.991,197.914,386.211,218.99,385.199,228.053z"/>
			</g>
			<path fill="#FFE0B8" d="M395.496,240.019c0.586-3.354,8.5-25.794,2.75-52.048l4.922-0.804c0,0,5.733,26.53-1.585,54.122
				L395.496,240.019z"/>
			<path fill="#F4D4A6" d="M353.173,234.45c2.75-5.065,6.035-14.987,6.735-27.431c0,0-4.079,9.165-8.539,11.808L353.173,234.45z"/>
			<path fill="#F8DAB4" d="M318.307,257.904c0,0-5.977-7.585-8.17-13.639c0,0,22.984,2.742,31.188-1.948
				C341.324,242.318,327.84,255.148,318.307,257.904z"/>
			<g opacity="0.4">
				<path fill="#BC9171" d="M321.186,254.809l3.539-2.25c-0.117-0.209-11.522-21.1-14.386-44.263l-3.685,1.765
					C309.545,233.487,321.073,254.598,321.186,254.809z"/>
			</g>
			<path fill="#F4D4A6" d="M362.324,225.617c0,0-12.571-10.096-17.154-20.434c0,0,5.353,13.329,3.877,24.792L362.324,225.617z"/>
			<g opacity="0.4">
				<path fill="#BC9171" d="M326.922,245.211l17.606-12.305l-0.145-0.472c-2.897-9.278-11.236-33.378-11.32-33.62l-0.224-0.643
					l-0.627,0.246c-5.994,2.345-17.705,8.586-17.822,8.648l-0.414,0.226l0.072,0.472c2.585,16.794,12.436,36.576,12.531,36.773
					L326.922,245.211z M342.984,232.369l-15.566,10.879c-1.723-3.563-9.62-20.493-12-35.222c2.063-1.092,11.236-5.91,16.635-8.113
					C333.383,203.765,340.256,223.694,342.984,232.369z"/>
			</g>
		</g>
		<path fill="#DDB491" d="M375.14,225.109c-7.609-5.66,28.691-28.214,31.832-28.493c6.067-0.536,14.318,7.859,10.762,12.08
			C414.173,212.914,383.06,230.998,375.14,225.109z"/>
		<path fill="#C49674" d="M410.285,195.079c-0.247,0.022,9.587,6.451,2.171,13.604c-3.212,3.099-24.209,15.53-36.452,16.929
			c9.123,4.242,39.377-11.984,42.822-16.063C422.382,205.33,416.352,194.544,410.285,195.079z"/>
		<polygon fill="#FEEBAB" points="358.108,132.588 366.188,122.346 362.138,118.121 359.531,122.536 		"/>
		<polygon fill="#FEEBAB" points="374.709,130.137 363.559,122.043 382.065,117.874 384.674,121.553 		"/>
		<path fill="#EFDAB9" d="M354.352,448.693c2.707-2.779,7.239-4.813,12.059-5.744c4.94-0.958,5.979,5.744,5.979,5.744H354.352z"/>
		<path fill="#EFDAB9" d="M401.854,448.693c0.602-2.479,3.005-6.087,6.313-6.087c5.036,0,5.715,6.087,5.715,6.087H401.854z"/>
		<path fill="#4D312D" d="M376.45,284.918c0,0,9.02,5.563,18.339,0.451c0,0-5.41,6.615-10.223,5.264
			C379.758,289.277,376.45,284.918,376.45,284.918z"/>
		<path fill="#F7A27C" d="M376.951,221.558c0.177,1.757-5.272,2.672-5.67,8.952c-0.063,1.066-0.046,2.724-0.081,4.376
			c-0.074,2.935-1.489,5.819-2.768,5.422c-1.059-0.324,0.05-2.376,0.145-4.465c0.078-1.825,0.155-2.447-0.322-2.547
			c-0.335-0.057-0.91,2.186-1.635,4.661c-0.94,3.176-2.127,5.088-3.398,4.646c-1.22-0.436-0.021-2.288,0.523-5.257
			c0.471-2.577,0.838-3.644-0.377-4.092c-0.557-0.215-1.09,1.434-2.451,3.756c-1.589,2.705-3.306,4.004-4.226,3.401
			c-1.312-0.858,0.389-1.556,1.766-4.903c1.766-4.327,4.07-8.155,3.105-11.034c-0.888-2.665-7.031-1.82-6.507-4.042
			c0.426-1.753,5.746-0.318,12.386,0.662C372.777,221.897,376.76,219.699,376.951,221.558z"/>
		<path opacity="0.5" fill="#BD5643" d="M356.154,145.119c13.307-2.739,20.779-18.426,37.481-19.245
			c-1.098-1.05-7.913-3.226-7.913-3.226c-0.009,0.028-0.016,0.057-0.022,0.083c-0.367-0.1-0.736-0.196-1.105-0.29l0.083-0.097
			l-0.576-0.299l0.572-0.494l-2.608-3.679l-0.819,0.184l-10.234-20.426l-10.168,13.821l-0.515,11.344
			c-4.653,1.297-6.321,3.226-9.606,6.696c-0.126,0.136-0.23,0.312-0.35,0.458c-0.229,0.263-0.445,0.554-0.658,0.866
			c-0.04,0.063-0.08,0.12-0.121,0.183c-0.562,0.87-1.069,1.929-1.525,3.131C346.629,141.336,347.598,146.881,356.154,145.119z"/>
		<path fill="#784827" d="M323.092,78.994c-10.199,3.434-26.128-2.9-19.248-19.333c6.877-16.434,23.675-11.5,23.675-11.5
			s4.591-9.637,23.095-8.655c18.503,0.98,31.784,27.47,20.876,61.805L323.092,78.994z"/>
		<path fill="#643A1E" d="M355.745,40.471c0.298,0.744,0.585,1.493,0.807,2.276c4.403,15.579-33.544-3.605-27.938,38.357
			c0.027,0.214-0.414,0.093-0.62,0.15l43.495,20.057C381.359,70.25,371.427,45.613,355.745,40.471z"/>
		<path fill="#FDCD9D" d="M365.579,80.715c0,0,9.501,19.95,7.366,24.815c-2.141,4.87-8.229,16.119-18.646,23.886
			c0,0-18.77-17.054-21.11-26.213c-3.156-12.331-8.782-6.994-11.279-13.869c-0.575-1.583-4.782-24.768,0.748-28.129
			C334.432,54.071,358.197,54.442,365.579,80.715z"/>
		<path fill="#F7A27C" d="M369.214,107.042c2.14-4.869-7.362-24.816-7.362-24.816c-2.961-10.533-8.403-18.224-14.613-23.253
			c7.773,2.815,14.873,9.389,18.341,21.742c0,0,9.501,19.95,7.366,24.815c-1.708,3.887-5.984,11.824-12.914,18.829
			C365.04,117.665,367.722,110.448,369.214,107.042z"/>
		<path fill="#643A1E" d="M365.451,100.753c-5.659-15.265-33.477-41.393-24.032-46.657c15.693-8.748,26.437,17.315,26.437,17.315
			l3.655,20.206L365.451,100.753z"/>
		<path fill="#FDCD9D" d="M364.138,89.764c-1.487-8.276-1.517-15.104,2.749-14.238c4.264,0.865,9.575,9.087,3.789,18.714
			S364.858,93.744,364.138,89.764z"/>
		<path fill="#EF9070" d="M365.751,89.279c-0.985-5.462-1.005-9.965,1.813-9.392c2.822,0.575,6.332,5.999,2.508,12.344
			C366.245,98.577,366.226,91.902,365.751,89.279z"/>
		<path fill="#FDCD9D" d="M366.846,92.496c-0.646-3.369-0.689-6.148,1.045-5.794c1.739,0.352,3.933,3.701,1.629,7.617
			C367.214,98.237,367.157,94.116,366.846,92.496z"/>
		<path fill="#92542A" d="M327.772,88.638c0.89-0.607-0.372-3.094-1.972-2.63c-1.599,0.462-4.72,3.977-4.609,4.668
			c0.072,0.419,0.421,2.113,2.198,1.875C324.451,92.41,324.594,90.809,327.772,88.638z"/>
		<path fill="#92542A" d="M333.343,85.389c-1.407,0.667-4.329-1.466-2.721-2.877c1.597-1.398,8.36-3.132,9.272-2.779
			c0.573,0.229,2.771,1.169,1.483,2.778C340.604,83.489,338.243,83.053,333.343,85.389z"/>
		<path fill="#EF9070" d="M340.766,102.598c0,3.495-2.134,12.326,7.472,4.231C342.982,109.523,341.088,108.657,340.766,102.598z"/>
		<path fill="#C46A52" d="M356.426,101.74l-0.348,0.648c2.826,4.071-2.867,9.106-6.266,11.599l-1.037,1.917
			C348.775,115.904,362.833,107.443,356.426,101.74z"/>
		<path fill="#8A6152" d="M341.048,89.426l3.156-2.952c0,0,5.219,4.169,2.257,6.624C344.659,94.583,341.048,89.426,341.048,89.426z"
			/>
		<path fill="#8A6152" d="M331.351,96.19l3.101-2.686c0,0,4.944,4.509,1.836,6.759C334.399,101.627,331.351,96.19,331.351,96.19z"/>
		<path fill="#F7D7BF" d="M380.305,225.805c0.601-2.65-1.864-6.292-4.08-7.063l-2.396,1.297c-1.113,2.321,0.147,5.44,3.488,6.239
			L380.305,225.805z"/>
	</g>
	<g>
		<path fill="#F69166" d="M339.742,377.957c0,0,10.741,2.706,10.432,15.658c-0.172,7.045-9.582,10.781-9.582,10.781l-3.222-1.145
			c5.951-2.428,9.421-7.392,8.168-13.466C344.291,383.707,341.787,379.223,339.742,377.957z"/>
		<path fill="#FDCD9D" d="M345.023,387.609c-1.346-4.959-3.487-8.541-5.281-9.652c0,0,9.946,2.513,10.412,14.254
			C348.875,389.904,347.074,388.243,345.023,387.609z"/>
		<path fill="#C05C37" d="M312.488,448.625l-1.76,0.036c0,0-1.081-13.462-2.103-17.905c-1.025-4.441-5.383-11.696-3.896-15.615
			c1.484-3.919,4.376-5.826,6.028-3.088c2.53,4.185,3.802,10.223,3.46,16.521C313.83,435.738,312.488,448.625,312.488,448.625z"/>
		<path fill="#C05C37" d="M333.555,448.302c2.033-7.095,4.877-13.545,4.511-17.571c-0.598-6.572,2.688-18.023-1.232-25.829
			c-1.454-2.896-10.164,1.267-7.696,14.413c0.54,2.88,5.095,9.068,5.148,12.439c0.055,3.372-3.371,16.588-3.371,16.588
			L333.555,448.302z"/>
		<path fill="#DF8157" d="M344.071,417.318c-2.196,0.143-12.347,12.743-22.024,13.225c0,0-16.818,1.473-17.704-12.819
			c-0.885-14.298,1.343-19.508,1.343-19.508l13.962-1.21c0,0,1.472,9.667,6.317,9.699c4.845,0.033,16.838-10.345,20.874-2.421
			C349.567,409.635,344.071,417.318,344.071,417.318z"/>
		<polygon fill="#D27146" points="316.639,428.354 318.114,417.322 321.27,428.83 		"/>
		<polygon fill="#D27146" points="336.469,422.537 338.834,411.821 341.053,420.041 		"/>
		<path fill="#F69166" d="M327.714,418.82c-8.049,1.686-10.484-4.723-11.594-9.392c-1.222-5.126-2.19-10.234-1.626-11.974
			l5.153-0.449c0,0,1.472,9.667,6.317,9.699c4.127,0.027,13.43-7.484,18.594-4.826C350.492,404.484,335.406,417.213,327.714,418.82z
			"/>
		<path fill="#D27146" d="M305.686,398.216l2.621-0.224c-0.4,3.104-0.662,7.789-0.247,14.441
			c0.883,14.299,16.273,15.245,16.273,15.245c8.409-0.419,18.597-12.403,22.195-15c-1.039,2.653-2.457,4.64-2.457,4.64
			c-2.196,0.143-12.208,13.215-21.889,13.699c0,0-17.142,1.701-18.026-12.596C303.269,404.127,305.686,398.216,305.686,398.216z"/>
		<path fill="#F69166" d="M343.458,448.146c2.031-7.296,4.872-13.927,4.504-18.067c-0.601-6.76,4.581-19.788-1.243-26.561
			c-4.663-5.423-10.164,1.296-7.693,14.813c0.547,2.965,5.102,9.332,5.155,12.799c0.057,3.465-3.363,17.059-3.363,17.059
			L343.458,448.146z"/>
		<path fill="#F69166" d="M322.109,448.48l-1.87,0.029c0,0,0.573-12.555,0.175-16.842s-4.147-11.711-2.116-15.486
			c2.034-3.773,5.183-5.605,6.449-2.966c1.933,4.046,1.261,10.221,0.594,16.833C324.636,437.061,322.109,448.48,322.109,448.48z"/>
		<path fill="#C05C37" d="M312.452,448.635l-3.777,0.059c0,0-0.947-2.506,1.787-2.053
			C313.191,447.09,312.452,448.635,312.452,448.635z"/>
		<path fill="#C05C37" d="M333.336,448.305l-3.779,0.061c0,0-0.948-2.51,1.782-2.055
			C334.072,446.762,333.336,448.305,333.336,448.305z"/>
		<path fill="#F1835C" d="M314.755,384.275c2.955-14.576,13.826-13.427,12.984-20.348c0,0,7.754,10.361,4.062,19.584
			c-3.691,9.22-8.33,9.871-8.33,9.871L314.755,384.275z"/>
		<path fill="#FDCD9D" d="M321.179,378.291c-1.799,0.298-3.491,0.764-5.037,1.351c4.026-9.778,12.338-9.628,11.598-15.714
			c0,0,5.549,7.418,5.022,15.289C329.72,377.973,325.582,377.563,321.179,378.291z"/>
		<path fill="#F9A884" d="M317.916,382.97c2.281-11.007,10.332-10.479,9.753-15.634c0,0,5.679,7.52,2.883,14.537
			c-2.792,7.018-6.239,7.648-6.239,7.648L317.916,382.97z"/>
		<path fill="#F79973" d="M319.543,380.194c-0.251,0.101-0.493,0.21-0.737,0.319c3.096-7.764,9.371-7.354,9.121-11.781
			c0,0,3.615,5.396,2.723,10.961C327.767,378.494,323.641,378.576,319.543,380.194z"/>
		<path fill="#F1835C" d="M306.856,384.017c-4.284-14.247-15.104-12.116-14.882-19.082c0,0-6.849,11.024-2.308,19.87
			c4.542,8.85,9.263,9.075,9.263,9.075L306.856,384.017z"/>
		<path fill="#FDCD9D" d="M299.864,378.644c1.832,0.132,3.576,0.438,5.184,0.888c-4.931-9.373-13.269-8.471-13.073-14.597
			c0,0-4.901,7.892-3.66,15.682C291.256,379.101,295.376,378.316,299.864,378.644z"/>
		<path fill="#F9A884" d="M303.564,383.002c-3.288-10.75-11.326-9.495-11.21-14.684c0,0-5.024,8.007-1.583,14.742
			c3.443,6.734,6.956,7.048,6.956,7.048L303.564,383.002z"/>
		<path fill="#F79973" d="M301.678,380.388c0.263,0.077,0.513,0.165,0.77,0.253c-3.809-7.454-10.076-6.475-10.229-10.906
			c0,0-3.143,5.703-1.74,11.163C293.268,379.441,297.418,379.149,301.678,380.388z"/>
		<polygon fill="#D27146" points="307.374,418.371 321.661,403.724 304.341,404.136 		"/>
		<path fill="#F1835C" d="M310.148,408.164c7.982,0.283,16.146-6.323,16.184-11.953c0.059-8.899-0.291-15.453-16.485-15.449
			c-10.43,0.002-15.343,5.361-13.082,16.179C297.652,401.18,302.219,407.883,310.148,408.164z"/>
		<g>
			<path fill="#F69166" d="M310.747,396.744c5.829-0.094,2.967,6.779,14.871,2.447c-2.153,4.736-9.218,7.604-15.816,7.363
				c-6.2-0.223-9.994-2.76-11.931-6.587C306.129,404.082,305.266,396.83,310.747,396.744z"/>
			<path fill="#F69166" d="M310.441,391.357c-4.128-8.715-11.58-4.883-14.183-0.21c0.419-6.942,5.231-10.391,13.597-10.388
				c12.465,0.007,15.538,3.89,16.263,9.739C322.987,388.367,314.791,381.023,310.441,391.357z"/>
		</g>
		<path fill="#FDCD9D" d="M310.014,385.254c1.206-0.058,2.958,1.758,3.397,2.313c1.306,2.674-1.789,10.416,8.25,16.157
			c-3.966,3.79-9.706,5.222-11.43,5.185c-2.707-0.066-5.917-1.129-8.804-4.387c5.228-5.392,2.803-13.921,4.903-17.421
			C307.003,385.975,308.104,385.342,310.014,385.254z"/>
		<path fill="#FCBA83" d="M310.068,395.654c-3.042,0.049-4.081,4.953-6.519,5.385c2.149-4.811,0.974-13.217,2.968-14.135
			c0.889,0.426,2.133,1.271,3.619,2.693c1.364-1.402,2.667-1.967,3.107-2.195c1.313,0.776-0.42,8.121,3.945,12.865
			C315.615,400.155,311.808,395.627,310.068,395.654z"/>
		<path fill="#E5A26B" d="M310.08,403.414c2.685-0.045-0.762,3.863,2.98,3.859c1.47,0,6.463-1.918,8.601-3.55
			c-3.966,3.79-9.706,5.222-11.43,5.185c-2.707-0.066-5.917-1.129-8.804-4.387c1.87,1.53,4.984,3.463,6.955,2.883
			C310.607,406.746,307.54,403.453,310.08,403.414z"/>
		<path fill="#A5655A" d="M310.236,406.551c1.285-0.105,5.089-3.865,3.997-5.139c-1.094-1.271-8.491-1.072-8.688,0.225
			C305.354,402.929,308.842,406.667,310.236,406.551z"/>
		<g>
			<path fill="#DF8157" d="M348.129,407.806c-0.374-1.476-0.827-2.856-1.332-4.116C347.41,404.98,347.84,406.362,348.129,407.806z"
				/>
			<path fill="#DF8157" d="M338.607,414.668c1.819,6.039,4.891,10.193,7.425,9.668c0.922-0.191,1.974-1.178,2.508-2.404
				c-0.247,2.982-0.773,5.934-0.578,8.146c0.368,4.141-2.473,10.771-4.504,18.067l-2.641,0.042c0,0,3.42-13.594,3.363-17.059
				c-0.054-3.467-4.608-9.834-5.155-12.799C338.786,417.024,338.654,415.805,338.607,414.668z"/>
		</g>
		<path fill="#DF8157" d="M320.414,431.668c-0.398-4.287-4.147-11.711-2.116-15.486c0.152-0.281,0.31-0.543,0.472-0.802
			c-0.074,0.78-0.108,1.593-0.095,2.426c0.088,5.747,2.258,10.371,4.843,10.325c0.774-0.008,1.496-0.452,2.13-1.203
			c-0.094,1.024-0.198,2.066-0.307,3.121c-0.705,7.012-3.231,18.432-3.231,18.432l-1.87,0.029
			C320.239,448.51,320.813,435.955,320.414,431.668z"/>
		<path fill="#FDCD9D" d="M323.767,440.285c-0.838,4.486-1.432,8.194-1.432,8.194l-2.439-0.214c0,0,0.76-8.861,0.635-14.21
			C320.615,434.031,321.063,443.664,323.767,440.285z"/>
		<path fill="#F6B981" d="M322.417,448.479l-4.252,0.065c0,0-1.061-2.505,2.013-2.06
			C323.252,446.934,322.417,448.479,322.417,448.479z"/>
		<path opacity="0.4" fill="#FFFFFF" d="M315.817,430.375c-6.942-0.469-10.08-5.622-11.032-8.579l3.143-10.119
			c0,0,4.025,9.264,8.568,9.357C314.778,427.334,315.817,430.375,315.817,430.375z"/>
		<path fill="#FDCD9D" d="M340.287,448.194c0,0,2.808-9.063,3.615-14.275c0.17-0.038,0.337-0.052,0.491-0.009
			c1.318,0.352,1.685,3.507,1.071,7.68c-0.668,2.084-1.375,4.29-2.007,6.556L340.287,448.194z"/>
		<path fill="#F6B981" d="M343.32,448.148l-3.779,0.061c0,0-0.945-2.508,1.784-2.056C344.06,446.602,343.32,448.148,343.32,448.148z
			"/>
		<path fill="#A36159" d="M316.428,394.041c-0.022-1.475,1.214-2.688,2.766-2.715c1.548-0.023,2.822,1.154,2.848,2.627
			c0.023,1.474-1.213,2.688-2.763,2.713C317.725,396.688,316.453,395.514,316.428,394.041z"/>
		<path fill="#642E29" d="M317.034,394.031c-0.022-1.172,0.951-2.136,2.169-2.152c1.215-0.018,2.215,0.913,2.232,2.082
			c0.017,1.171-0.951,2.133-2.168,2.15C318.052,396.133,317.053,395.2,317.034,394.031z"/>
		
			<ellipse transform="matrix(-0.8801 -0.4749 0.4749 -0.8801 411.0687 890.8062)" fill="#F3B882" cx="318.034" cy="393.489" rx="0.533" ry="0.772"/>
		
			<ellipse transform="matrix(-0.4516 -0.8922 0.8922 -0.4516 113.104 855.0062)" fill="#F3B882" cx="319.33" cy="392.742" rx="0.404" ry="0.483"/>
		<path fill="#A36159" d="M297.775,394.334c-0.023-1.476,1.214-2.688,2.764-2.714c1.552-0.023,2.826,1.153,2.849,2.628
			c0.024,1.471-1.218,2.685-2.765,2.709C299.073,396.98,297.798,395.808,297.775,394.334z"/>
		
			<ellipse transform="matrix(-0.9999 0.016 -0.016 -0.9999 607.4251 783.7255)" fill="#642E29" cx="300.582" cy="394.289" rx="2.2" ry="2.115"/>
		<path fill="#F3B882" d="M298.917,393.531c0.198-0.377,0.573-0.568,0.831-0.428c0.26,0.141,0.306,0.558,0.102,0.933
			c-0.202,0.376-0.576,0.567-0.834,0.427C298.756,394.322,298.712,393.904,298.917,393.531z"/>
		<path fill="#F3B882" d="M300.495,392.678c0.238-0.123,0.513-0.059,0.614,0.142c0.099,0.198-0.013,0.456-0.25,0.575
			c-0.238,0.121-0.512,0.06-0.613-0.141C300.146,393.057,300.256,392.795,300.495,392.678z"/>
		<path fill="#FDCD9D" d="M309.962,385.107c1.054-0.449,2.88-3.35,0.441-3.748C307.964,380.963,308.205,384.326,309.962,385.107z"/>
		<path fill="#8D4B42" d="M305.674,401.396c0.447,1.021,2.681,1.768,5.366,1.727c1.221-0.019,2.34-0.201,3.245-0.488
			c-0.605,1.609-3.063,3.834-4.049,3.916c-1.395,0.116-4.883-3.622-4.691-4.914C305.558,401.553,305.604,401.471,305.674,401.396z"
			/>
		<path fill="#612C27" d="M311.584,404.991c0.825,0.146,2.821-2.384,1.97-2.433c-0.855-0.047-2.824,0.472-2.822,1.035
			C310.735,404.153,311,404.888,311.584,404.991z"/>
		<path fill="#612C27" d="M308.508,405.236c-0.813,0.065-2.457-2.643-1.631-2.605c0.832,0.037,2.672,0.749,2.606,1.307
			C309.419,404.493,309.078,405.193,308.508,405.236z"/>
		<path fill="#FCBA83" d="M310.525,409.539c1.252-0.02,3.229-0.854,1.978-1.632c-0.373-0.232-1.306-0.812-2.072-0.784
			c-1.1,0.033-2.214,0.867-2.476,1.105C307.512,408.637,308.726,409.566,310.525,409.539z"/>
	</g>
	<g>
		<path fill="#593424" d="M152.94,433.74c0.936-5.301,1.714-12.312,11.218-11.221c9.505,1.092,10.129,8.414,10.129,8.414
			L152.94,433.74z"/>
		<path fill="#593424" d="M175.566,424.65c-0.028-1.219-1.11-2.188-2.42-2.158c-1.31,0.027-2.349,1.041-2.321,2.262
			c0.025,1.223,1.108,2.187,2.417,2.158C174.555,426.883,175.594,425.869,175.566,424.65z"/>
		
			<ellipse transform="matrix(0.9998 -0.0218 0.0218 0.9998 -9.3014 3.9395)" fill="#593424" cx="175.845" cy="428.13" rx="2.372" ry="2.211"/>
		<path fill="#593424" d="M174.477,427.766c-0.024-1.221-1.109-2.188-2.423-2.158c-1.308,0.027-2.345,1.044-2.321,2.264
			c0.027,1.22,1.11,2.185,2.422,2.156C173.468,429.998,174.505,428.983,174.477,427.766z"/>
		<path fill="#593424" d="M172.917,425.117c-0.024-1.219-1.107-2.186-2.419-2.158c-1.307,0.029-2.349,1.043-2.321,2.262
			c0.026,1.224,1.109,2.188,2.42,2.158C171.905,427.351,172.945,426.336,172.917,425.117z"/>
		<path fill="#593424" d="M171.983,422.159c-0.024-1.223-1.109-2.188-2.421-2.16c-1.31,0.027-2.348,1.044-2.321,2.263
			c0.025,1.221,1.107,2.189,2.42,2.16C170.972,424.391,172.012,423.377,171.983,422.159z"/>
		<path fill="#593424" d="M165.438,422.004c-0.023-1.223-1.106-2.188-2.418-2.159c-1.31,0.028-2.349,1.042-2.32,2.26
			c0.025,1.222,1.107,2.187,2.417,2.161C164.429,424.232,165.469,423.223,165.438,422.004z"/>
		
			<ellipse transform="matrix(0.9998 -0.0218 0.0218 0.9998 -9.1779 3.7239)" fill="#593424" cx="166.029" cy="422.366" rx="2.372" ry="2.212"/>
		<path fill="#593424" d="M161.233,423.248c-0.023-1.219-1.108-2.188-2.42-2.158c-1.308,0.029-2.349,1.044-2.321,2.264
			c0.026,1.222,1.111,2.187,2.42,2.158C160.223,425.482,161.265,424.467,161.233,423.248z"/>
		
			<ellipse transform="matrix(0.9997 -0.0224 0.0224 0.9997 -9.4189 3.7034)" fill="#593424" cx="160.265" cy="421.432" rx="2.371" ry="2.212"/>
		<path fill="#593424" d="M158.742,423.562c-0.027-1.222-1.109-2.188-2.418-2.16c-1.314,0.027-2.353,1.044-2.323,2.263
			c0.026,1.221,1.111,2.189,2.418,2.16C157.727,425.793,158.769,424.778,158.742,423.562z"/>
		<path fill="#593424" d="M156.87,420.912c-0.027-1.222-1.106-2.188-2.416-2.159c-1.313,0.03-2.352,1.044-2.323,2.263
			c0.026,1.223,1.11,2.186,2.417,2.156C155.857,423.143,156.899,422.131,156.87,420.912z"/>
		<path fill="#593424" d="M155.972,426.803c-0.024-1.221-1.109-2.186-2.417-2.156c-1.313,0.025-2.35,1.041-2.327,2.261
			c0.03,1.22,1.113,2.188,2.422,2.157C154.96,429.034,156.002,428.021,155.972,426.803z"/>
		<ellipse fill="#593424" cx="154.225" cy="424.828" rx="2.371" ry="2.209"/>
		<ellipse fill="#593424" cx="155.001" cy="428.723" rx="2.372" ry="2.21"/>
		<path fill="#593424" d="M153.48,426.23c0-1.218-1.061-2.211-2.368-2.211c-1.315,0-2.378,0.993-2.378,2.211
			c0,1.221,1.063,2.209,2.378,2.209C152.42,428.439,153.48,427.451,153.48,426.23z"/>
		<path fill="#593424" d="M153.325,429.189c0-1.221-1.062-2.21-2.373-2.21c-1.311,0-2.372,0.989-2.372,2.21
			c0,1.225,1.062,2.211,2.372,2.211C152.264,431.4,153.325,430.414,153.325,429.189z"/>
		<ellipse fill="#593424" cx="147.682" cy="427.943" rx="2.373" ry="2.209"/>
		<ellipse fill="#593424" cx="145.309" cy="430.7" rx="3.426" ry="3.196"/>
		<path fill="#F16887" d="M127.396,448.693h64.5l-7.773-16.652c-1.232-2.641-3.958-4.258-6.867-4.074l-35.491,2.241
			c-2.549,0.161-4.843,1.6-6.098,3.823L127.396,448.693z"/>
		<path fill="#EF4F77" d="M167.275,445.733c-13.073-0.391-22.782-7.878-25.039-15.555l-0.475,0.028
			c-2.549,0.162-4.842,1.6-6.101,3.823l-8.266,14.663h64.496l-3.843-8.23C182.432,443.535,175.38,445.977,167.275,445.733z"/>
		<path fill="#FBD9E1" d="M141.643,433.31c-2.001,0-3.636-0.975-0.891-1.754c2.737-0.78,32.754-2.804,33.573-1.558
			C175.149,431.242,145.614,433.31,141.643,433.31z"/>
		
			<ellipse transform="matrix(0.9897 0.1429 -0.1429 0.9897 63.2575 -21.0351)" fill="#FBD9E1" cx="178.063" cy="429.844" rx="2.064" ry="0.703"/>
		<path fill="#F16887" d="M140.948,447.603c0,0-4.284-10.204-4.751-13.241l-7.01,13.163L140.948,447.603z"/>
		<polygon fill="#F16887" points="193.294,445.423 126.34,446.59 127.159,448.577 191.892,448.577 		"/>
	</g>
	<g>
		<path fill="#805130" d="M297.381,440.531c0.882-4.577,1.615-10.631,10.572-9.688c8.958,0.942,9.546,7.264,9.546,7.264
			L297.381,440.531z"/>
		<path fill="#805130" d="M318.704,432.684c-0.026-1.053-1.047-1.89-2.28-1.864c-1.234,0.024-2.214,0.898-2.188,1.952
			c0.023,1.057,1.045,1.889,2.277,1.864C317.75,434.61,318.729,433.734,318.704,432.684z"/>
		<path fill="#805130" d="M321.2,435.643c-0.023-1.055-1.044-1.889-2.279-1.863c-1.237,0.023-2.214,0.898-2.189,1.953
			c0.024,1.053,1.046,1.889,2.28,1.863C320.246,437.568,321.223,436.697,321.2,435.643z"/>
		<path fill="#805130" d="M317.676,435.373c-0.022-1.054-1.045-1.89-2.282-1.864c-1.232,0.024-2.209,0.901-2.188,1.955
			c0.024,1.054,1.046,1.886,2.281,1.861C316.726,437.301,317.704,436.424,317.676,435.373z"/>
		<path fill="#805130" d="M316.207,433.086c-0.023-1.053-1.044-1.888-2.28-1.863c-1.231,0.024-2.213,0.899-2.188,1.953
			c0.024,1.056,1.046,1.889,2.28,1.863S316.234,434.139,316.207,433.086z"/>
		<path fill="#805130" d="M315.326,430.532c-0.021-1.057-1.045-1.891-2.281-1.866c-1.233,0.023-2.212,0.902-2.187,1.954
			c0.023,1.054,1.044,1.892,2.279,1.865S315.354,431.583,315.326,430.532z"/>
		<path fill="#805130" d="M309.16,430.397c-0.023-1.056-1.044-1.89-2.28-1.864c-1.233,0.023-2.213,0.899-2.187,1.951
			c0.023,1.055,1.044,1.888,2.277,1.865C308.208,432.322,309.188,431.449,309.16,430.397z"/>
		<path fill="#805130" d="M311.951,430.666c-0.025-1.055-1.046-1.891-2.283-1.865c-1.233,0.025-2.211,0.9-2.187,1.954
			c0.023,1.055,1.048,1.888,2.28,1.863C310.996,432.594,311.977,431.717,311.951,430.666z"/>
		<path fill="#805130" d="M305.196,431.473c-0.021-1.053-1.045-1.889-2.28-1.865c-1.232,0.025-2.214,0.902-2.188,1.956
			c0.024,1.055,1.048,1.888,2.279,1.862C304.243,433.4,305.225,432.524,305.196,431.473z"/>
		<path fill="#805130" d="M306.518,429.858c-0.023-1.056-1.045-1.89-2.28-1.864c-1.234,0.025-2.215,0.902-2.188,1.955
			c0.024,1.053,1.047,1.887,2.28,1.861C305.563,431.787,306.546,430.91,306.518,429.858z"/>
		<path fill="#805130" d="M302.849,431.742c-0.025-1.055-1.046-1.89-2.278-1.865c-1.24,0.023-2.219,0.901-2.189,1.953
			c0.023,1.055,1.047,1.893,2.278,1.867C301.892,433.668,302.873,432.793,302.849,431.742z"/>
		<path fill="#805130" d="M301.084,429.455c-0.026-1.055-1.043-1.889-2.276-1.864c-1.238,0.025-2.217,0.901-2.189,1.954
			c0.024,1.055,1.046,1.886,2.276,1.861C300.131,431.381,301.111,430.508,301.084,429.455z"/>
		<path fill="#805130" d="M300.238,434.541c-0.024-1.054-1.046-1.888-2.279-1.861c-1.235,0.021-2.214,0.898-2.192,1.951
			c0.028,1.053,1.049,1.89,2.283,1.863C299.283,436.468,300.266,435.594,300.238,434.541z"/>
		<ellipse fill="#805130" cx="298.591" cy="432.837" rx="2.235" ry="1.907"/>
		<ellipse fill="#855D42" cx="299.575" cy="435.772" rx="2.235" ry="1.431"/>
		<ellipse fill="#805130" cx="295.653" cy="434.047" rx="2.236" ry="1.909"/>
		<path fill="#855D42" d="M297.994,436.074c0-0.79-0.999-1.43-2.234-1.43c-1.236,0-2.236,0.64-2.236,1.43
			c0,0.793,1,1.431,2.236,1.431C296.995,437.505,297.994,436.867,297.994,436.074z"/>
		<path fill="#805130" d="M294.661,435.525c0-1.053-1.003-1.906-2.235-1.906c-1.237,0-2.237,0.854-2.237,1.906
			c0,1.056,1,1.91,2.237,1.91C293.658,437.436,294.661,436.581,294.661,435.525z"/>
		<ellipse fill="#855D42" cx="290.44" cy="437.052" rx="3.229" ry="2.067"/>
		<path fill="#FDC26B" d="M273.56,448.693h60.784l-7.325-10.773c-1.163-1.709-3.73-2.756-6.472-2.637l-33.447,1.45
			c-2.402,0.104-4.563,1.035-5.746,2.474L273.56,448.693z"/>
		<path fill="#FCB85B" d="M311.142,446.778c-12.319-0.253-21.47-5.097-23.597-10.063l-0.447,0.018
			c-2.403,0.105-4.563,1.035-5.749,2.475l-7.789,9.486h60.782l-3.622-5.324C325.426,445.356,318.78,446.936,311.142,446.778z"/>
		<path fill="#FFD983" d="M286.985,438.74c-1.886,0-3.426-0.631-0.84-1.135c2.581-0.505,30.868-1.814,31.641-1.008
			C318.563,437.402,290.728,438.74,286.985,438.74z"/>
		<path fill="#FFD983" d="M323.233,436.689c0.053-0.25-0.767-0.535-1.83-0.642c-1.063-0.104-1.966,0.011-2.02,0.259
			c-0.053,0.248,0.767,0.534,1.831,0.64S323.185,436.937,323.233,436.689z"/>
		<path fill="#FAA642" d="M286.33,447.987c0,0-4.036-6.602-4.477-8.567l-6.605,8.518L286.33,447.987z"/>
		<polygon fill="#FAA642" points="335.662,446.578 272.564,447.333 273.336,448.618 334.342,448.618 		"/>
	</g>
	<g>
		<path fill="#593424" d="M218.33,433.314c1.281-7.625,5.072-18.336,18.085-16.767s11.14,12.729,11.14,12.729L218.33,433.314z"/>
		<path fill="#593424" d="M248.864,420.242c-0.028-1.754-1.137-3.146-2.478-3.104c-1.341,0.038-2.405,1.497-2.378,3.251
			c0.025,1.761,1.136,3.146,2.476,3.104C247.828,423.451,248.894,421.993,248.864,420.242z"/>
		<path fill="#593424" d="M251.579,425.171c-0.026-1.755-1.135-3.145-2.479-3.104c-1.344,0.04-2.405,1.497-2.379,3.251
			c0.025,1.756,1.137,3.148,2.478,3.105C250.541,428.377,251.604,426.926,251.579,425.171z"/>
		<path fill="#593424" d="M247.749,424.721c-0.024-1.755-1.136-3.146-2.481-3.104c-1.34,0.041-2.402,1.503-2.378,3.257
			c0.026,1.754,1.137,3.142,2.48,3.1C246.717,427.932,247.777,426.473,247.749,424.721z"/>
		<path fill="#593424" d="M246.151,420.911c-0.024-1.751-1.135-3.144-2.479-3.103c-1.338,0.041-2.405,1.499-2.377,3.253
			c0.027,1.76,1.136,3.146,2.479,3.104C245.114,424.123,246.181,422.665,246.151,420.911z"/>
		<path fill="#593424" d="M245.194,416.657c-0.023-1.758-1.136-3.147-2.479-3.106c-1.342,0.04-2.404,1.503-2.378,3.255
			c0.028,1.755,1.136,3.149,2.479,3.106C244.158,419.867,245.224,418.408,245.194,416.657z"/>
		<path fill="#593424" d="M238.492,416.434c-0.024-1.76-1.134-3.146-2.479-3.104c-1.34,0.041-2.404,1.499-2.376,3.251
			c0.026,1.756,1.135,3.145,2.476,3.105C237.457,419.639,238.521,418.187,238.492,416.434z"/>
		<path fill="#593424" d="M241.525,416.88c-0.027-1.756-1.136-3.146-2.48-3.105c-1.341,0.042-2.403,1.499-2.377,3.255
			c0.026,1.758,1.139,3.145,2.479,3.103C240.487,420.092,241.554,418.633,241.525,416.88z"/>
		<path fill="#593424" d="M234.186,418.225c-0.025-1.752-1.137-3.146-2.48-3.104c-1.34,0.04-2.405,1.501-2.378,3.257
			c0.027,1.755,1.139,3.144,2.479,3.103C233.148,421.437,234.217,419.977,234.186,418.225z"/>
		<path fill="#593424" d="M235.565,417.23c-0.025-1.758-1.136-3.146-2.479-3.104c-1.34,0.041-2.404,1.501-2.377,3.257
			c0.026,1.754,1.138,3.142,2.479,3.101C234.528,420.443,235.597,418.982,235.565,417.23z"/>
		<path fill="#593424" d="M231.633,418.674c-0.027-1.756-1.138-3.147-2.477-3.106c-1.347,0.04-2.41,1.501-2.381,3.254
			c0.027,1.757,1.14,3.149,2.478,3.108C230.593,421.883,231.66,420.426,231.633,418.674z"/>
		<path fill="#593424" d="M229.715,414.863c-0.028-1.756-1.134-3.146-2.475-3.104c-1.345,0.042-2.409,1.501-2.379,3.255
			c0.026,1.756,1.137,3.143,2.476,3.101C228.678,418.073,229.746,416.617,229.715,414.863z"/>
		<path fill="#593424" d="M228.794,423.337c-0.024-1.755-1.136-3.146-2.476-3.103c-1.343,0.037-2.404,1.496-2.384,3.252
			c0.031,1.754,1.142,3.146,2.481,3.102C227.758,426.545,228.825,425.09,228.794,423.337z"/>
		<ellipse fill="#593424" cx="227.005" cy="420.497" rx="2.429" ry="3.177"/>
		<ellipse fill="#593424" cx="227.801" cy="426.098" rx="2.43" ry="3.178"/>
		<path fill="#593424" d="M226.243,422.515c0-1.753-1.087-3.182-2.426-3.182c-1.347,0-2.435,1.429-2.435,3.181
			c0,1.756,1.088,3.176,2.435,3.176C225.156,425.689,226.243,424.27,226.243,422.515z"/>
		<path fill="#593424" d="M227.864,426.951c0-2.227-1.485-4.029-3.319-4.029c-1.836,0-3.322,1.803-3.322,4.029
			c0,2.23,1.486,4.029,3.322,4.029C226.379,430.98,227.864,429.182,227.864,426.951z"/>
		<path fill="#593424" d="M222.733,424.977c0-1.754-1.089-3.176-2.429-3.176c-1.345,0-2.432,1.422-2.432,3.176
			c0,1.757,1.087,3.18,2.432,3.18C221.645,428.156,222.733,426.733,222.733,424.977z"/>
		<path fill="#593424" d="M221.383,428.941c0-2.535-1.571-4.596-3.51-4.596c-1.94,0-3.51,2.061-3.51,4.596s1.569,4.592,3.51,4.592
			C219.812,433.533,221.383,431.477,221.383,428.941z"/>
		<path fill="#91D4D0" d="M199.525,448.693h66.065l-7.962-17.057c-1.263-2.705-4.054-4.361-7.034-4.174l-36.353,2.296
			c-2.61,0.165-4.961,1.639-6.246,3.917L199.525,448.693z"/>
		<path fill="#76CABF" d="M240.374,445.661c-13.392-0.399-23.336-8.068-25.648-15.933l-0.486,0.03
			c-2.611,0.166-4.959,1.638-6.248,3.915l-8.466,15.02h66.063l-3.937-8.43C255.897,443.41,248.674,445.911,240.374,445.661z"/>
		<path fill="#D1ECF2" d="M214.117,432.936c-2.05,0-3.723-0.998-0.911-1.797c2.804-0.799,33.548-2.871,34.388-1.594
			C248.438,430.818,218.186,432.936,214.117,432.936z"/>
		
			<ellipse transform="matrix(0.9897 0.143 -0.143 0.9897 63.9738 -31.5354)" fill="#D1ECF2" cx="251.422" cy="429.386" rx="2.114" ry="0.72"/>
		<path fill="#63C5B3" d="M213.406,447.576c0,0-4.389-10.453-4.867-13.563l-7.18,13.483L213.406,447.576z"/>
		<polygon fill="#63C5B3" points="267.023,445.344 198.443,446.539 199.283,448.574 265.588,448.574 		"/>
	</g>
</g>
</svg>
