<?xml version="1.0" encoding="utf-8"?>
<!-- Generator: Adobe Illustrator 16.0.3, SVG Export Plug-In . SVG Version: 6.00 Build 0)  -->
<!DOCTYPE svg PUBLIC "-//W3C//DTD SVG 1.1//EN" "http://www.w3.org/Graphics/SVG/1.1/DTD/svg11.dtd">
<svg version="1.1" id="Layer_1" xmlns="http://www.w3.org/2000/svg" xmlns:xlink="http://www.w3.org/1999/xlink" x="0px" y="0px" viewBox="0 0 500 500" enable-background="new 0 0 500 500" xml:space="preserve">
<g>
	<g id="XMLID_3_">
		<g>
			<path fill="#010101" d="M384.313,255.25c0.807-0.318,1.576-0.431,2.308-0.375c-0.45,0.432-0.938,0.825-1.407,1.145
				L384.313,255.25z"/>
			<path fill="#010101" d="M378.63,239.436c-0.188,1.37-0.338,2.495-0.45,3.264c-1.107-0.863-1.857-1.407-1.857-1.407l1.481-2.589
				C377.804,238.705,378.123,238.986,378.63,239.436z"/>
			<path fill="#010101" d="M373.978,261.348l-0.301-0.563c1.37-0.713,2.646-1.669,2.646-1.669l3.32-3.002
				c0,0,4.465-2.363,6.51-4.296c1.52-1.444-4.728-6.604-7.973-9.117c0.112-0.769,0.263-1.895,0.45-3.264
				c2.401,2.214,9.267,8.686,9.755,11.519c0.263,1.482-0.638,2.851-1.764,3.92c-0.731-0.056-1.501,0.057-2.308,0.375l0.9,0.77
				c-1.031,0.731-1.913,1.163-1.913,1.163s-3.658,1.726-5.909,3.864c-2.232,2.157-2.833,0-2.833,0S374.559,261.047,373.978,261.348z
				"/>
			<path fill="#010101" d="M368.855,227.974c-0.956,1.013-2.213,1.05-3.657,0.431l1.95-1.819
				C368.218,227.468,368.855,227.974,368.855,227.974z"/>
			<path fill="#010101" d="M366.398,286.635l-5.478,8.367l-2.533-1.014l0.188-0.281h2.346l5.084-9.867l5.083,5.571l4.071-8.592
				l1.838,7.091l4.784-14.388l1.52,2.72l2.045-13.244h7.935l-8.066-6.979c0.47-0.319,0.957-0.713,1.407-1.145
				c5.591,0.413,9.005,10.506,8.292,10.693c-0.826,0.206-8.161-1.501-7.954,0.225c0.206,1.707-3.452,16.959-3.452,16.959
				l-1.726-4.503l-5.402,14.183l-0.92-7.091c0,0-3.151,7.954-3.958,9.661C370.676,296.728,366.398,286.635,366.398,286.635z"/>
			<path fill="#010101" d="M363.284,238.517c0.413,0.075,0.751,0.319,1.051,0.656C363.097,239.549,362.271,239.905,363.284,238.517z
				"/>
			<path fill="#010101" d="M362.121,238.592l-1.2,1.632l-0.488-1.182C360.921,238.854,361.483,238.705,362.121,238.592z"/>
			<polygon fill="#010101" points="358.575,293.707 358.388,293.988 357.656,293.707 			"/>
			<path fill="#010101" d="M360.921,240.224c-1.183-0.413-2.439,1.369-3.246,2.814c0-0.019,0-0.038-0.019-0.038
				c0-1.914,0.9-3.227,2.776-3.958L360.921,240.224z"/>
			<path fill="#010101" d="M353.998,254.838c0.301-0.582,0.582-1.295,0.807-2.157c0,0-0.075-0.77-0.206-2.083l3.058-0.713
				c0,0,4.277-1.069,5.909-1.069c1.633,0.019,0.395-3.658-1.632-7.522c-0.319-0.601-0.676-0.938-1.013-1.069l1.2-1.632
				c0.188-0.038,0.395-0.056,0.619-0.094c0.206-0.019,0.375-0.019,0.544,0.019c-1.013,1.388-0.188,1.032,1.051,0.656
				c1.707,2.083,1.444,8.048,2.27,7.71c1.032-0.432,1.839,0.206,1.632-5.59c-0.112-3.001-2.345-2.551-3.901-2.12
				c-0.3-0.337-0.638-0.582-1.051-0.656c0.15-0.244,0.395-0.525,0.676-0.882c4.07-4.953,6.716,6.022,6.716,6.022
				s0.206,1.932,3.058-0.657c2.852-2.57,5.29-27.501,5.29-27.501c1.576,5.497,0.413,17.446-0.394,23.937
				c-0.507-0.45-0.826-0.731-0.826-0.731l-1.481,2.589c0,0,0.75,0.544,1.857,1.407c-0.094,0.75-0.169,1.163-0.169,1.163
				s5.797,3.001,5.703,4.953c-0.075,1.294-2.458,1.707-4.69,1.5c-2.232-0.225-5.703,0.863-10.168,3.002
				c-4.483,2.157-5.103,1.501-8.967,1.538s-5.891,0-5.891,0V254.838z"/>
			<path fill="#ED6755" d="M357.656,243c-1.932-3.095-4.502-5.778-4.502-5.778c-0.319-2.814-0.656-5.703-0.994-8.367l7.522,8.348
				l0.75,1.838C358.557,239.774,357.656,241.087,357.656,243z"/>
			<path fill="#010101" d="M357.656,243c0.019,0,0.019,0.019,0.019,0.038c0,0.019-0.019,0.038-0.019,0.038
				C357.656,243.057,357.656,243.019,357.656,243z"/>
			<path fill="#010101" d="M357.656,243.076c-0.019,2.495-0.807,1.65-0.807,1.65S357.169,243.976,357.656,243.076z"/>
			<path fill="#010101" d="M357.656,243.076c-0.487,0.9-0.807,1.65-0.807,1.65S357.638,245.57,357.656,243.076
				c0,0,0.019-0.019,0.019-0.038c0.995,1.576,1.802,3.245,2.008,4.69l-5.834-4.071c-0.207-2.007-0.45-4.202-0.694-6.435
				c0,0,2.57,2.683,4.502,5.778C357.656,243.019,357.656,243.057,357.656,243.076z"/>
			<path fill="#010101" d="M354.599,250.598c0.131,1.313,0.206,2.083,0.206,2.083c-0.225,0.862-0.506,1.575-0.807,2.157v-4.09
				L354.599,250.598z"/>
			<path fill="#010101" d="M353.154,237.223c0.244,2.232,0.487,4.427,0.694,6.435l-1.688-1.182L353.154,237.223z"/>
			<path fill="#010101" d="M350.716,218.97c0.394,1.875,0.919,5.59,1.444,9.886L350.716,218.97z"/>
			<path fill="#010101" d="M352.16,228.856c-0.525-4.296-1.051-8.011-1.444-9.886l-0.038-0.207
				c-0.131-0.638-0.263-1.032-0.356-1.107l0.244-0.225c6.247,6.979,12.794,12.682,12.794,12.682l1.839-1.708
				c1.444,0.619,2.701,0.582,3.657-0.431c0,0-0.638-0.506-1.707-1.388l11.875-11.087l-16.902,23.093
				c-0.638,0.113-1.2,0.263-1.688,0.45l-0.75-1.838L352.16,228.856z"/>
			<path fill="#010101" d="M344.693,223.81c2.908-3.733,5.253-6.472,5.628-6.153c0.094,0.075,0.226,0.469,0.356,1.107
				L344.693,223.81z"/>
			<path fill="#010101" d="M346.27,118.569c-0.713,4.033-2.008,5.928-1.332,2.176c0.487-2.683,0.338-5.252-0.15-7.785
				c0.169-2.401,0.244-4.033,0.244-4.033C346.138,110.896,346.42,114.498,346.27,118.569z"/>
			<path fill="#010101" d="M341.786,131.063c1.688-2.814,2.589-12.531,3.001-18.103c0.488,2.533,0.638,5.103,0.15,7.785
				c-0.676,3.752,0.619,1.857,1.332-2.176c-0.319,7.991-2.308,17.821-2.889,20.56c-0.957-2.307-1.896-4.352-2.721-6.003
				C340.923,132.582,341.279,131.907,341.786,131.063z"/>
			<path fill="#ED6755" d="M318.993,209.702c6.903,2.364,25.663,14.145,25.663,14.145c-4.765,6.153-11.012,14.951-12.193,16.752
				c-1.876-0.6-6.379-2.495-12.457-8.123c-8.142-7.523-18.121-16.978-18.121-16.978s-6.266-4.071,1.951-4.071
				c2.757,0,21.404,10.637,19.247,8.911C318.187,216.475,314.378,208.126,318.993,209.702z"/>
			<path fill="#010101" d="M346.307,205.613c-4.858-7.729-5.346-33.729-4.934-39.883c0.263-3.827,0.582-8.854,0.807-12.1
				c0.338,0.638,0.676,1.294,1.014,1.951c-0.02,6.472,0.037,22.549,0.825,31.347c1.013,11.162,2.232,11.818,4.915,19.547
				c2.157,6.247,13.807,16.415,18.215,20.11l-1.95,1.819C359.27,225.817,350.19,211.841,346.307,205.613z"/>
			<path fill="#010101" d="M342.386,150.366l0.826,2.401c0,0-0.019,1.051-0.019,2.814c-0.338-0.656-0.676-1.313-1.014-1.951v-0.019
				C342.292,151.661,342.386,150.366,342.386,150.366z"/>
			<path fill="#010101" d="M342.18,153.611c-0.675-1.257-1.351-2.514-2.025-3.695l0.206-2.308c0.769,0.976,1.444,1.914,2.025,2.758
				C342.386,150.366,342.292,151.661,342.18,153.611z"/>
			<path fill="#ED6755" d="M338.315,171.245l1.839-21.329c0.675,1.182,1.351,2.438,2.025,3.695v0.019
				c-0.225,3.245-0.544,8.273-0.807,12.1c-0.412,6.153,0.075,32.154,4.934,39.883c3.884,6.228,12.963,20.204,18.892,22.792
				l-1.839,1.708c0,0-6.547-5.703-12.794-12.682c-5.29-5.928-10.374-12.794-11.03-17.821
				C338.109,188.654,338.315,171.245,338.315,171.245z"/>
			<path fill="#010101" d="M343.212,139.879l-3.039-4.521c0,0-0.488-0.169,0.487-2.232c0.825,1.651,1.764,3.696,2.721,6.003
				C343.268,139.617,343.212,139.879,343.212,139.879z"/>
			<path fill="#010101" d="M335.989,243.882l4.146,4.915c-0.037-0.019-0.094-0.075-0.206-0.112
				c-0.206-0.169-0.581-0.432-1.088-0.788c-0.019-0.019-0.038-0.019-0.057-0.038c-1.951-1.632-2.889-3.62-3.188-4.333
				C335.689,243.638,335.82,243.751,335.989,243.882z"/>
			<path fill="#010101" d="M337.546,110.896c0-1.088,0.826-1.97,1.857-1.97c1.032,0,1.857,0.882,1.857,1.97
				s-0.825,1.951-1.857,1.951C338.372,112.847,337.546,111.984,337.546,110.896z"/>
			<path fill="#010101" d="M338.841,247.896c0.507,0.356,0.882,0.619,1.088,0.788C339.535,248.44,339.179,248.178,338.841,247.896z"
				/>
			<path fill="#DB8042" d="M337.546,110.896c0,1.088,0.826,1.951,1.857,1.951c1.032,0,1.857-0.863,1.857-1.951
				s-0.825-1.97-1.857-1.97C338.372,108.926,337.546,109.808,337.546,110.896z M334.563,102.698c0,0.525,0.3,0.957,0.676,0.957
				c0.375,0,0.675-0.431,0.675-0.957c0-0.544-0.3-0.976-0.675-0.976C334.863,101.723,334.563,102.154,334.563,102.698z
				 M338.222,113.335c-5.797-8.067-8.854-8.386-10.374-11.931c-0.638-1.463-1.839-3.865,0.9-5.159
				c2.758-1.276,9.773-1.276,12.213,5.159c1.481,3.902,3.058,7.691,3.826,11.556c-0.412,5.572-1.313,15.289-3.001,18.103
				c-0.507,0.844-0.863,1.52-1.126,2.063c-0.206-0.413-0.412-0.825-0.581-1.201C340.454,130.856,343.699,120.932,338.222,113.335z"
				/>
			<path fill="#010101" d="M337.115,129.336l1.2-0.638c0,0,0.713,1.201,1.764,3.227c-0.02,0.057-0.038,0.094-0.038,0.094
				l-2.738-1.932C337.303,130.087,337.246,129.806,337.115,129.336z"/>
			<path fill="#010101" d="M337.49,132.15c-0.132-0.731-0.413-1.576-0.957-2.495l0.582-0.319c0.131,0.469,0.188,0.75,0.188,0.75
				l2.738,1.932c0,0,0.019-0.037,0.038-0.094c0.169,0.375,0.375,0.788,0.581,1.201c-0.976,2.063-0.487,2.232-0.487,2.232
				l3.039,4.521c0,0,0.056-0.263,0.169-0.75c2.157,5.271,4.352,11.95,4.971,18.572c1.051,10.956-0.412,7.522-0.412,7.522
				s-2.139-4.596-4.746-9.643c0-1.763,0.019-2.814,0.019-2.814l-0.826-2.401c2.721,3.958,3.678,6.472,3.678,6.472
				s0.619-3.639-1.839-11.387C342.461,139.917,339.348,134.89,337.49,132.15z"/>
			<path fill="#010101" d="M337.49,132.15c-0.957-1.369-1.576-2.157-1.576-2.157l0.619-0.337
				C337.077,130.575,337.358,131.419,337.49,132.15z"/>
			<path fill="#010101" d="M335.521,243.338l0.469,0.544c-0.169-0.131-0.3-0.244-0.394-0.356
				C335.558,243.451,335.539,243.395,335.521,243.338z"/>
			<path fill="#010101" d="M335.239,101.723c0.375,0,0.675,0.432,0.675,0.976c0,0.525-0.3,0.957-0.675,0.957
				c-0.376,0-0.676-0.431-0.676-0.957C334.563,102.154,334.863,101.723,335.239,101.723z"/>
			<path fill="#010101" d="M335.521,243.338c0.019,0.057,0.037,0.113,0.075,0.188c-0.132-0.131-0.207-0.263-0.226-0.356l0.132,0.15
				L335.521,243.338z"/>
			<path fill="#010101" d="M335.37,243.15c-0.037-0.263-0.019-0.206,0.132,0.169l-0.132-0.15V243.15z"/>
			<path fill="#010101" d="M344.656,223.847l0.037-0.038l5.984-5.046l0.038,0.207l1.444,9.886c0.338,2.664,0.675,5.553,0.994,8.367
				l-0.994,5.252l1.688,1.182c0.318,2.851,0.581,5.328,0.75,6.941l-0.601,0.15v4.09v0.019c-1.557,2.945-3.864,2.157-5.064,0
				c-1.426-2.57-4.709-3.677-8.779-6.041l-0.02-0.019l-4.146-4.915c2.232,1.913,9.924,6.115,11.48,6.866
				c1.839,0.844,3.677,0.432,3.677,0.432s-2.138-28.89-2.213-29.453c0.019,0.694-10.374,13.845-14.67,19.285
				c-0.113,0.15-0.244,0.3-0.338,0.432l-0.488-0.582c0,0-0.337-0.056-0.975-0.263C333.645,238.798,339.892,230,344.656,223.847z"/>
			<path fill="#010101" d="M333.231,139.879l1.839,1.069l5.29,6.66l-0.206,2.308c-1.558-2.777-3.096-5.215-4.24-6.51
				c-1.22-1.37-2.101-2.551-2.738-3.508C333.213,139.879,333.231,139.879,333.231,139.879z"/>
			<path fill="#010101" d="M333.926,241.443c-0.938,1.163-1.501,1.876-1.501,1.876s-1.838,0.112,0-2.683
				c0-0.019,0.019-0.019,0.038-0.038c0.638,0.207,0.975,0.263,0.975,0.263L333.926,241.443z"/>
			<path fill="#010101" d="M333.231,139.879c0,0-0.019,0-0.056,0.019c-1.389-2.139-1.576-3.283-1.576-3.283
				s4.652,5.722,8.761,10.993l-5.29-6.66L333.231,139.879z"/>
			<path fill="#010101" d="M321.882,147.927c-2.063,2.852-3.752,5.234-3.752,5.234c-0.112-0.375-0.169-0.619-0.169-0.619
				s-7.053-14.126-9.173-15.776l8.366,4.652v-10.355c0,0,5.703,4.296,5.497,3.433c-0.206-0.863,0.807-10.524,1.013-8.817
				c0.206,1.726,3.265,5.815,5.29,8.179c2.045,2.364-1.125-7.748-1.125-7.748s3.376,5.384,3.771,7.522
				c0.413,2.158,3.677,1.088,3.471-2.57c-0.207-3.658-5.009-7.973-5.216-8.442c-3.357-7.354,2.965,1.782,6.06,6.078
				c0.244,0.338,0.45,0.657,0.619,0.957l-0.619,0.337c0,0,0.619,0.788,1.576,2.157c0.338,2.27-0.9,3.733-1.576,4.465
				c-0.957,1.051-4.314,0-4.314,0s0,0-2.438,2.176c-0.47,0.431-1.201,1.238-2.045,2.27c-0.226-0.075-0.432-0.188-0.601-0.338
				c-0.487-0.45-0.3,0.038,0.112,0.957C325.165,143.5,323.42,145.845,321.882,147.927z"/>
			<path fill="#010101" d="M325.202,337.229c0.657-2.12,1.257-4.165,1.727-5.909c1.895-7.147,2.476-10.374,2.626-11.181
				c-0.225,1.463-1.538,10.562-3.358,19.697L325.202,337.229z"/>
			<path fill="#010101" d="M326.628,141.68c-0.412-0.919-0.6-1.407-0.112-0.957c0.169,0.15,0.375,0.263,0.601,0.338
				C326.966,141.249,326.797,141.455,326.628,141.68z"/>
			<path fill="#ED6755" d="M332.425,252.681c0,0-9.492-12.082-16.489-18.104l0.769-0.844c3.152,2.589,6.098,4.652,8.386,5.834
				c5.459,2.795,11.144,6.566,13.694,8.292c0.019,0.019,0.038,0.019,0.057,0.038c0.338,0.282,0.694,0.544,1.088,0.788
				c0.112,0.038,0.169,0.094,0.206,0.112l0.02,0.019c4.07,2.364,7.354,3.47,8.779,6.041c1.2,2.157,3.508,2.945,5.064,0
				c0,0,2.026,0.037,5.891,0s4.483,0.619,8.967-1.538c4.465-2.139,7.936-3.227,10.168-3.002c2.232,0.207,4.615-0.206,4.69-1.5
				c0.094-1.951-5.703-4.953-5.703-4.953s0.075-0.413,0.169-1.163c3.245,2.514,9.492,7.673,7.973,9.117
				c-2.045,1.933-6.51,4.296-6.51,4.296l-3.32,3.002c0,0-1.275,0.956-2.646,1.669c-1.406,0.751-2.889,1.257-3.208,0.263
				c-0.6-1.932,0-6.866-4.258-3.433c-4.277,3.433-8.555,5.384-8.555,5.384s0.207-5.591-5.496-1.088
				c-5.703,4.521-4.483,2.157-4.483,2.157l-3.452-6.453c0,0-2.852-0.207-3.058-1.275c-0.206-1.089-5.703-7.429-5.703-7.429
				L332.425,252.681z"/>
			<path fill="#010101" d="M319.556,361.485l-0.225,0.45C319.387,361.805,319.462,361.654,319.556,361.485z"/>
			<path fill="#010101" d="M318.58,163.498c0,0-0.074,0.675-0.243-0.206C318.486,163.423,318.58,163.498,318.58,163.498z"/>
			<path fill="#010101" d="M318.993,238.93c-4.896-5.384-9.567-7.522-9.567-7.522c1.22-0.75,3.658,0.713,6.51,3.17
				c6.997,6.022,16.489,18.104,16.489,18.104l3.039-3.771c0,0,5.497,6.34,5.703,7.429c0.206,1.068,3.058,1.275,3.058,1.275
				l3.452,6.453c0,0-1.22,2.363,4.483-2.157c5.703-4.503,5.496,1.088,5.496,1.088s4.277-1.951,8.555-5.384
				c4.258-3.434,3.658,1.501,4.258,3.433c0.319,0.994,1.802,0.488,3.208-0.263l0.301,0.563c-0.582,0.3-1.764,0.881-4.108,2.063
				c-4.69,2.363-2.852-2.776-2.852-2.776s-5.29,3.207-9.361,4.934c-4.07,1.726-3.058-2.157-3.058-2.157l-8.142,3.02l-2.852-5.158
				c0,0-1.819,0.862-3.245-1.295c-1.426-2.139-4.483-7.954-4.483-7.954s-0.807,1.295-2.232,3.884
				c-0.507,0.9-1.651,0.019-2.945-1.501c-2.383-2.776-5.196-7.748-5.196-7.748S323.87,244.295,318.993,238.93z"/>
			<path fill="#010101" d="M309.97,106.244c0.77,0,1.389,0.657,1.389,1.444c0,0.807-0.619,1.463-1.389,1.463
				c-0.75,0-1.369-0.657-1.369-1.463C308.601,106.9,309.22,106.244,309.97,106.244z"/>
			<path fill="#010101" d="M319.8,158.564l-11.181-21.893l0.169,0.094c2.12,1.65,9.173,15.776,9.173,15.776s0.057,0.244,0.169,0.619
				l0.132,0.394L319.8,158.564z"/>
			<path fill="#010101" d="M297.401,213.567c-6.304-9.23-4.259-27.07-4.259-27.07c0.994-6.472,1.895-11.725,2.72-15.964
				c2.102-10.712,3.715-15.026,4.935-16.846c0.3,0.825,0.787,1.52,1.5,2.082v-0.638c0,0-0.094-1.125-0.094-2.758
				c0.038-0.019,0.057-0.019,0.094-0.037c1.501-0.601,14.126,9.436,16.04,10.956c0.169,0.881,0.243,0.206,0.243,0.206
				s-0.094-0.075-0.243-0.206c-0.094-0.507-0.226-1.576-0.376-3.658c-0.394-5.459-10.692-23.018-9.473-23.018
				c0.037,0,0.074,0.019,0.112,0.038l0.019,0.019l11.181,21.893l-1.538-5.009c0.432,1.238,1.388,3.039,2.964,1.782
				c3.264-2.57,0.807-7.297,0.807-7.297s2.251,0.863,5.496,0.431c2.271-0.3,0.094-4.671-0.9-6.791
				c0.169-0.225,0.338-0.431,0.488-0.619c1.895,0.656,5.608-0.957,6.06-1.163c0.638,0.957,1.519,2.138,2.738,3.508
				c1.145,1.294,2.683,3.733,4.24,6.51l-1.839,21.329c0,0-0.206,17.409,1.22,28.365c0.656,5.027,5.74,11.894,11.03,17.821
				l-0.244,0.225c-0.375-0.319-2.72,2.42-5.628,6.153l-0.037,0.038c0,0-18.76-11.781-25.663-14.145
				c-4.615-1.576-0.807,6.772,4.09,10.637c2.157,1.726-16.49-8.911-19.247-8.911c-8.217,0-1.951,4.071-1.951,4.071
				s9.979,9.455,18.121,16.978c6.078,5.627,10.581,7.522,12.457,8.123c-0.02,0.019-0.038,0.019-0.038,0.038
				c-1.838,2.795,0,2.683,0,2.683s0.563-0.713,1.501-1.876l1.444,1.707v0.019c0.019,0.094,0.094,0.225,0.226,0.356
				c0.3,0.713,1.237,2.701,3.188,4.333c-2.551-1.726-8.235-5.496-13.694-8.292c-2.288-1.182-5.233-3.245-8.386-5.834
				C309.745,228.049,301.753,219.926,297.401,213.567z"/>
			<path fill="#010101" d="M302.109,112.041c0.957,0,1.727,0.731,1.727,1.613c0,0.9-0.77,1.613-1.727,1.613
				c-0.956,0-1.726-0.713-1.726-1.613C300.384,112.772,301.153,112.041,302.109,112.041z"/>
			<path fill="#010101" d="M302.203,152.373c0,1.632,0.094,2.758,0.094,2.758v0.638c-0.713-0.563-1.2-1.257-1.5-2.082
				c0.019-0.019,0.019-0.038,0.037-0.056C301.359,152.861,301.81,152.542,302.203,152.373z"/>
			<path fill="#010101" d="M307.287,136.09c-1.069,2.458-2.383,5.328-3.451,7.26c-1.37,2.514-1.633,6.416-1.633,9.023
				c-0.394,0.169-0.844,0.488-1.369,1.257c-0.019,0.019-0.019,0.037-0.037,0.056c-2.57-6.847,7.916-21.611,8.61-22.568
				C309.257,131.475,308.394,133.576,307.287,136.09z"/>
			<ellipse fill="#010101" cx="295.018" cy="130.631" rx="1.838" ry="1.933"/>
			<path fill="#010101" d="M293.18,108.926c1.107,0,1.989,0.694,1.989,1.557s-0.882,1.557-1.989,1.557
				c-1.088,0-1.97-0.694-1.97-1.557S292.092,108.926,293.18,108.926z"/>
			<path fill="#ED6755" d="M294.512,172.671c0.169-0.769,0.319-1.538,0.47-2.307l0.881,0.169c-0.825,4.239-1.726,9.492-2.72,15.964
				c0,0-2.045,17.84,4.259,27.07c4.352,6.359,12.344,14.482,19.303,20.167l-0.769,0.844c-2.852-2.457-5.29-3.92-6.51-3.17
				c0,0,4.671,2.138,9.567,7.522c4.877,5.365,6.51,7.729,6.51,7.729s2.813,4.971,5.196,7.748l-1.182,0.094
				c-0.92-0.919-1.839-1.407-2.589-0.957c-2.758,1.595-6.716-0.656-6.716-0.656l-7.936-16.434l-13.751-12.569
				c0,0-9.154-14.501-7.936-27.407C291.079,191.243,292.749,181.901,294.512,172.671z"/>
			<path fill="#010101" d="M289.672,143.406c0.845,0,1.538,0.731,1.538,1.613c0,0.9-0.693,1.613-1.538,1.613
				c-0.844,0-1.52-0.713-1.52-1.613C288.152,144.138,288.828,143.406,289.672,143.406z"/>
			<path fill="#010101" d="M286.577,118.175c0.862,0,1.575,0.431,1.575,0.957c0,0.544-0.713,0.976-1.575,0.976
				c-0.863,0-1.576-0.432-1.576-0.976C285.001,118.606,285.714,118.175,286.577,118.175z"/>
			<path fill="#010101" d="M278.397,128.699c0.845,0,1.538,0.732,1.538,1.632c0,0.881-0.693,1.613-1.538,1.613
				c-0.863,0-1.538-0.732-1.538-1.613C276.859,129.431,277.534,128.699,278.397,128.699z"/>
			<path fill="#010101" d="M278.397,136.615c0.845,0,1.538,0.732,1.538,1.632s-0.693,1.632-1.538,1.632
				c-0.863,0-1.538-0.731-1.538-1.632S277.534,136.615,278.397,136.615z"/>
			<path fill="#010101" d="M277.01,160.984c0.769,0,1.388,0.638,1.388,1.444s-0.619,1.463-1.388,1.463
				c-0.77,0-1.37-0.657-1.37-1.463S276.24,160.984,277.01,160.984z"/>
			<path fill="#010101" d="M275.564,150.366c0.788,0,1.445,0.694,1.445,1.538s-0.657,1.538-1.445,1.538
				c-0.807,0-1.463-0.694-1.463-1.538S274.758,150.366,275.564,150.366z"/>
			<path fill="#DB8042" d="M272.169,388.48l-2.588,1.801l-2.026-2.908c0.338,0,0.581-7.973,11.743-19.734
				c14.032-14.839,13.639-13.751,13.639-13.751s-3.865,11.387-5.909,19.322c-2.026,7.954-1.014,4.314-1.014,4.314l20.354-21.704
				l17.502-22.137l1.332,3.546c-2.42,8.029-5.608,17.296-5.608,17.296l-1.22-4.296c0,0-4.483,9.023-5.703,10.956
				c-1.219,1.932-5.496,24.706-5.496,24.706l-4.071-20.523c0,0-14.238,17.521-18.309,23.318c-4.071,5.797-6.322,13.319-6.322,13.319
				s0,0-1.819-2.795C274.814,396.416,272.169,388.48,272.169,388.48z"/>
			<path fill="#010101" d="M268.755,136.615c0.77,0,1.389,0.657,1.389,1.444c0,0.807-0.619,1.463-1.389,1.463
				c-0.75,0-1.369-0.657-1.369-1.463C267.386,137.272,268.005,136.615,268.755,136.615z"/>
			<path fill="#010101" d="M265.866,283.184c0.131-1.37,0.112-0.338,0,1.632C265.829,284.215,265.81,283.671,265.866,283.184z"/>
			<path fill="#010101" d="M247.745,119.15c3.245-2.589,7.973-6.454,12.532-10.224l-6.998,10.205
				C253.278,119.131,251.084,119.075,247.745,119.15z"/>
			<path fill="#010101" d="M255.718,127.967c0.75-0.807,1.444-1.932,1.895-2.795c0.375-0.694,0.619-1.201,0.619-1.201
				s0,0,1.838-4.202c1.82-4.183,3.958-0.319,3.958-0.319l1.52-4.183l3.059,0.638c0,0,1.838-2.251,3.677-5.159
				c1.819-2.889,6.097-3.546,8.836-6.753c2.757-3.227,1.538-4.84,0-3.227c-1.52,1.613-2.12,3.227-10.074,3.545
				c-7.936,0.319-13.807,13.207-17.766,14.82l6.998-10.205c7.26-5.965,14.125-11.706,14.125-11.706s7.954-4.446,15.271-10.88
				c7.335-6.453,4.184-4.577,7.185-8.123c3.002-3.545,3.921-8.216,17.521-4.033c15.327,4.69,18.835,17.465,18.835,17.465
				s8.967,5.571,12.325,14.914c1.5,4.165,1.294,8.761,0.731,12.006c0.15-4.071-0.132-7.673-1.238-9.643c0,0-0.075,1.632-0.244,4.033
				c-0.769-3.864-2.345-7.654-3.826-11.556c-2.439-6.435-9.455-6.435-12.213-5.159c-2.739,1.294-1.538,3.695-0.9,5.159
				c1.52,3.545,4.577,3.864,10.374,11.931c5.478,7.597,2.232,17.521,1.857,18.59c-1.051-2.026-1.764-3.227-1.764-3.227l-1.2,0.638
				c-0.47-1.707-1.896-6.021-5.009-9.567c-3.959-4.502-8.536-1.275-15.871,2.27c-7.316,3.546-16.189,23.843-16.189,23.843
				s-2.589,11.819-5.064,24.481c-0.15,0.769-0.301,1.538-0.47,2.307l-3.771-0.713c3.039-15.608,5.703-33.598,11.763-43.259
				c8.46-13.507,14.031-18.91,14.351-23.093c0.3-4.202-6.828-5.14-13.019-4.84c-2.721,0.131-11.013,3.864-16.603,6.772
				c-3.564,1.838-2.139,0.957-5.797,4.184c-3.677,3.227-7.936,8.047-7.936,8.047s0,0,1.22-5.234c1.22-5.252-2.139,0.094-5.196,5.234
				c-3.058,5.159-6.416,6.772-5.797,4.671c0.601-2.083-0.919-2.72-0.919-2.72s1.219-2.27-2.139,2.72
				C259.169,126.673,257.237,127.573,255.718,127.967z"/>
			<path fill="#010101" d="M255.718,127.967c-0.694,0.75-1.426,1.201-2.064,0.844c-0.262-0.15-0.394-0.244-0.394-0.319
				C253.26,128.286,254.311,128.342,255.718,127.967z"/>
			<path fill="#010101" d="M252.003,378.351l-1.632-1.727C250.671,376.925,251.309,377.581,252.003,378.351z"/>
			<path fill="#DB8042" d="M251.74,127.761c-0.225,0.263-4.521,5.497-5.103,3.621c-0.337-1.05-1.838-1.632-3.151-1.932
				c2.945-4.071,7.091-9.229,9.792-10.318c3.959-1.613,9.83-14.501,17.766-14.82c7.954-0.319,8.555-1.932,10.074-3.545
				c1.538-1.613,2.757,0,0,3.227c-2.739,3.208-7.017,3.864-8.836,6.753c-1.839,2.908-3.677,5.159-3.677,5.159l-3.059-0.638
				l-1.52,4.183c0,0-2.138-3.864-3.958,0.319c-1.838,4.202-1.838,4.202-1.838,4.202s-0.244,0.507-0.619,1.201
				c-0.45,0.863-1.145,1.989-1.895,2.795c-1.407,0.375-2.458,0.319-2.458,0.525l-1.857-0.113
				C251.571,128.08,251.684,127.854,251.74,127.761z"/>
			<path fill="#010101" d="M241.441,129.13l-1.838,2.251c0,0-1.726-0.394-3.583-0.807l-0.225-0.244c0,0,6.003-6.81,8.104-8.198
				c0.563-0.375,1.951-1.463,3.846-2.982c3.339-0.075,5.534-0.019,5.534-0.019c-2.701,1.088-6.847,6.247-9.792,10.318
				C242.398,129.187,241.441,129.13,241.441,129.13z"/>
			<path fill="#010101" d="M247.538,134.289c-2.139,2.57-4.877-2.908-4.877-2.908l-2.739,3.189c0.207-0.319,1.632-2.495,3.564-5.121
				c1.313,0.3,2.814,0.882,3.151,1.932c0.582,1.876,4.878-3.358,5.103-3.621c-0.057,0.094-0.169,0.319-0.338,0.619
				C250.708,129.618,249.133,132.357,247.538,134.289z"/>
			<path fill="#010101" d="M243.486,129.449c-1.933,2.626-3.358,4.802-3.564,5.121c-0.019,0.019-0.019,0.038-0.019,0.038
				l-0.038-0.038l-3.846-3.996c1.857,0.413,3.583,0.807,3.583,0.807l1.838-2.251C241.441,129.13,242.398,129.187,243.486,129.449z"
				/>
			<path fill="#DB8042" d="M309.97,109.151c0.77,0,1.389-0.657,1.389-1.463c0-0.788-0.619-1.444-1.389-1.444
				c-0.75,0-1.369,0.657-1.369,1.444C308.601,108.495,309.22,109.151,309.97,109.151z M289.672,146.633
				c0.845,0,1.538-0.713,1.538-1.613c0-0.882-0.693-1.613-1.538-1.613c-0.844,0-1.52,0.731-1.52,1.613
				C288.152,145.92,288.828,146.633,289.672,146.633z M293.18,108.926c-1.088,0-1.97,0.694-1.97,1.557s0.882,1.557,1.97,1.557
				c1.107,0,1.989-0.694,1.989-1.557S294.287,108.926,293.18,108.926z M295.019,132.563c1.013,0,1.838-0.863,1.838-1.933
				s-0.825-1.932-1.838-1.932s-1.839,0.863-1.839,1.932S294.006,132.563,295.019,132.563z M278.397,131.944
				c0.845,0,1.538-0.732,1.538-1.613c0-0.9-0.693-1.632-1.538-1.632c-0.863,0-1.538,0.732-1.538,1.632
				C276.859,131.212,277.534,131.944,278.397,131.944z M278.397,136.615c-0.863,0-1.538,0.732-1.538,1.632s0.675,1.632,1.538,1.632
				c0.845,0,1.538-0.731,1.538-1.632S279.242,136.615,278.397,136.615z M237.652,142.731c0.976-1.351,1.82-2.795,2.57-4.371
				c1.238-2.664-4.409-4.408-4.409-4.408l-2.926-1.276c0,0,2.757-1.932,4.877,0c1.613,1.444,2.007,1.82,2.101,1.895l0.038,0.038
				c0,0,0-0.019,0.019-0.038l2.739-3.189c0,0,2.739,5.478,4.877,2.908c1.595-1.932,3.17-4.671,3.864-5.909l1.857,0.113
				c0,0.075,0.132,0.168,0.394,0.319c0.639,0.356,1.37-0.094,2.064-0.844c1.52-0.394,3.451-1.294,4.952-3.527
				c3.357-4.99,2.139-2.72,2.139-2.72s1.52,0.638,0.919,2.72c-0.619,2.101,2.739,0.488,5.797-4.671
				c3.058-5.14,6.416-10.486,5.196-5.234c-1.22,5.234-1.22,5.234-1.22,5.234s4.259-4.821,7.936-8.047
				c3.658-3.227,2.232-2.345,5.797-4.184c5.59-2.908,13.882-6.641,16.603-6.772c6.19-0.3,13.318,0.638,13.019,4.84
				c-0.319,4.183-5.891,9.586-14.351,23.093c-6.06,9.661-8.724,27.651-11.763,43.259c-2.813,14.313-5.946,26.639-12.362,28.721
				c-1.389,0.45-4.277-4.202-4.277-4.202l-1.52,6.772l-3.058-3.545l-2.214,6.453c0,0-4.803-10.637-5.121-3.227
				c-0.3,7.41-4.259-2.57-5.478-8.048c-1.238-5.478-4.953,6.116-4.953,6.116l-2.588-19.66l-4.071,7.448c0,0-0.3-12.288,1.538-18.722
				c1.82-6.453-5.497,3.864-5.497,3.864l7.016-13.938c0,0-2.007,0.038-4.277,1.482c3.564-5.196,7.879-11.8,7.879-11.8
				s-6.678,0.769-12.7,9.229l-2.345,0.057c0.188-0.263,0.356-0.675,0.45-1.294c0.601-4.033,1.52-7.129,1.52-7.129
				s0.619,0.188,2.139-1.745c1.538-1.932,3.058-4.84,3.058-4.84s11.912-9.342,0-3.864c0,0-2.026,1.069-3.602,3.358L237.652,142.731z
				 M303.836,113.654c0-0.882-0.77-1.613-1.727-1.613c-0.956,0-1.726,0.731-1.726,1.613c0,0.9,0.77,1.613,1.726,1.613
				C303.066,115.267,303.836,114.554,303.836,113.654z M288.152,119.131c0-0.525-0.713-0.957-1.575-0.957
				c-0.863,0-1.576,0.431-1.576,0.957c0,0.544,0.713,0.976,1.576,0.976C287.439,120.107,288.152,119.675,288.152,119.131z
				 M278.397,162.428c0-0.807-0.619-1.444-1.388-1.444c-0.77,0-1.37,0.638-1.37,1.444s0.601,1.463,1.37,1.463
				C277.778,163.892,278.397,163.235,278.397,162.428z M277.01,151.904c0-0.844-0.657-1.538-1.445-1.538
				c-0.807,0-1.463,0.694-1.463,1.538s0.656,1.538,1.463,1.538C276.353,153.442,277.01,152.749,277.01,151.904z M270.144,138.06
				c0-0.788-0.619-1.444-1.389-1.444c-0.75,0-1.369,0.657-1.369,1.444c0,0.807,0.619,1.463,1.369,1.463
				C269.524,139.523,270.144,138.866,270.144,138.06z"/>
			<path fill="#010101" d="M239.809,243.226l-8.554,11.818l3.058-18.591c3.452-6.359,0.206,10.843,0.206,10.843l7.316-7.729
				l-0.394,14.145l1.613-1.257l1.125,6.453l6.416-6.453c0,0,3.057,12.044,4.071,13.976c1.013,1.933,4.689-7.747,4.689-7.747
				l4.071,7.316l9.961-15.477l2.438,13.113c0,0,1.839-5.365,3.884-6.885c2.025-1.501,6.716,11.818,4.877,12.044
				c-1.838,0.206-4.483-8.16-4.483-8.16l-4.877,8.16l-3.265-12.044c0,0,0,0-2.232,3.884c-2.251,3.864-6.716,10.354-6.716,10.354
				l-3.471-8.647l-3.451,8.16c0,0,1.632,1.088-1.632,0c-3.246-1.069-5.084-15.026-5.084-15.026s-4.69,7.729-5.196,8.592
				s-2.532-7.954-2.532-7.954l-1.032,2.363L239.809,243.226z"/>
			<path fill="#010101" d="M229.229,178.111c0,0,0,0,6.584-13.676c1.032-2.139,2.12-3.958,3.246-5.534
				c6.021-8.46,12.7-9.229,12.7-9.229s-4.314,6.604-7.879,11.8c2.27-1.444,4.277-1.482,4.277-1.482l-7.016,13.938
				c0,0,7.316-10.317,5.497-3.864c-1.838,6.435-1.538,18.722-1.538,18.722l4.071-7.448l2.588,19.66c0,0,3.715-11.594,4.953-6.116
				c1.219,5.478,5.178,15.458,5.478,8.048c0.318-7.41,5.121,3.227,5.121,3.227l2.214-6.453l3.058,3.545l1.52-6.772
				c0,0,2.889,4.652,4.277,4.202c6.416-2.083,9.549-14.408,12.362-28.721l3.771,0.713c-1.763,9.23-3.433,18.572-3.921,23.806
				c-1.219,12.906,7.936,27.407,7.936,27.407l13.751,12.569l7.936,16.434c0,0,3.958,2.251,6.716,0.656
				c0.75-0.45,1.669,0.038,2.589,0.957c2.457,2.457,5.046,8.066,5.046,8.066l8.235,4.184l5.497,1.933l2.138,3.545
				c0,0,5.178,1.295,7.316-1.613c2.139-2.889,5.196,0,5.196,0s3.658-3.864,5.196-4.502c1.464-0.638,0.094,5.684,0.02,6.097
				c0.544-0.45,9.229-7.785,11.894-9.98c2.738-2.251,1.819,1.933,0,4.521c-1.839,2.57-4.597,1.933-4.597,1.933l-3.958,3.864
				c0,0-3.358,1.613-5.496,3.396c-2.045,1.707-0.169-4.465-0.02-4.972c-0.243,0.281-2.232,2.683-3.958,4.521
				c-1.819,1.988-1.819-3.265-1.819-3.265s-2.758,4.184-3.677,3.077c-0.92-1.089-3.658,0-3.658,0s-1.22-0.826-3.358-0.075
				c-2.139,0.75-3.977-3.978-3.977-3.978s-2.739,0.976-3.658-0.956c-0.919-1.933-4.277-2.908-4.277-2.908s0.319,9.999,0,7.41
				c-0.188-1.632-2.363-4.709-3.902-6.716c-0.9-1.163-1.594-1.97-1.594-1.97v5.478l-9.455-10.637l-1.538,2.251l-7.616-8.066v8.066
				l-8.555-14.82c0,0,0,9.98-2.401,10.299c-2.401,0.338-4.934-15.458-4.934-15.458l-0.601,12.568c0,0,0.919,2.57-1.838,0
				c-2.739-2.588-7.017-23.524-7.017-23.524l-2.438,9.661l-4.277-9.661l-1.538,7.729l-15.871-20.317l-2.138,13.544
				c0,0-4.578-11.931-5.178-18.084c-0.619-6.153-4.953-3.827-4.953-3.827v3.546c0,0,1.576,0.638-2.588,0
				c-4.165-0.638-5.59-14.82-5.59-14.82s-1.838,11.913-2.139,10.618c-0.3-1.276-2.139-23.843-2.758-15.777
				c-0.6,8.048-2.87,7.729-2.87,7.729s-1.407-0.976-1.407-9.661c0-8.705,0.619-18.047,1.388-19.341
				c-0.638,1.051-9.324,15.496-9.868,16.396L229.229,178.111z"/>
			<path fill="#FFFFFF" d="M232.193,136.615c0.506,0,0.919,0.394,0.919,0.882c0,0.469-0.413,0.863-0.919,0.863
				s-0.938-0.394-0.938-0.863C231.255,137.009,231.687,136.615,232.193,136.615z"/>
			<path fill="#010101" d="M250.371,376.624l1.632,1.727C251.309,377.581,250.671,376.925,250.371,376.624z M217.223,280.819
				l0.601,13.545c0,0,1.426,3.227-4.277-7.092c-5.684-10.317-8.536-33.298-8.536-33.298l4.934-1.819
				c2.514,7.804,5.44,16.846,5.44,16.846s2.439-13.319,2.439-11.387c0,1.351,5.196,14.106,7.447,20.223
				c0.038,1.125,0.225,2.101,0.638,2.776c0.75,1.22,0.319-0.169-0.638-2.776c-0.15-3.902,1.463-9.755,2.195-12.213
				c-0.788,4.972,6.003,23.524,4.821,16.283c-1.238-7.522,3.452-15.907,3.452-15.907s0.413-3.658,0.413,4.727
				c0,8.386,5.083,19.342,5.083,19.342s1.426-9.023,2.945-6.454c1.482,2.515,10.524,12.457,11.087,13.076
				c-0.319-0.938-6.623-19.623-3.246-15.214c3.452,4.502,8.142,21.479,7.335,15.457c-0.825-6.021,4.671-16.977,4.671-16.977
				l1.22,16.339c0,0,0.45-7.522,0.619-11.424c0.338,4.464,2.852,11.424,2.852,11.424l7.316-15.477l2.045,6.66l3.657-15.89
				l12.007,19.341l7.747-8.816c0,0-1.031-3.002,4.053,6.885c4.952,9.586,1.463,33.954,1.257,35.38
				c0.281-1.275,5.083-23.056,5.478-19.697c0.394,3.433-4.277,21.479-2.664,19.116c1.576-2.271,6.716-13.92,7.11-14.783
				c-0.301,0.845-3.884,10.938,0.019,6.622c4.07-4.521,7.936-17.84,7.936-17.84v15.252l15.27-18.047l-0.206,7.729l10.58-9.436
				l-0.807,3.864l7.129-6.66l-1.839,4.935l6.116-5.159l-2.346,3.433h-0.919l0.731,0.281l-2.157,3.171l-4.671,7.297v-4.934
				l-6.115,9.437l-1.426-7.504l-10.993,25.138l-3.452-1.933l-3.264,15.458l-0.113-0.281c1.82-9.136,3.134-18.234,3.358-19.697
				c-0.15,0.807-0.731,4.033-2.626,11.181c-0.47,1.744-1.069,3.789-1.727,5.909l-1.332-3.546l-17.502,22.137l-20.354,21.704
				c0,0-1.013,3.64,1.014-4.314c2.044-7.936,5.909-19.322,5.909-19.322s0.394-1.088-13.639,13.751
				c-11.162,11.762-11.405,19.734-11.743,19.734c-0.075,0-0.169-0.544-0.469-1.688c-1.426-5.591,0-26.227,0-26.227l-8.142,26.227
				l-6.885-7.261c1.726,1.97,3.732,4.784,1.801,5.328c-3.058,0.863-14.051-1.088-27.952-5.159
				c-13.92-4.089-27.22-23.205-27.22-23.205l-2.026,0.432l-7.729-5.591l-5.103-2.363c0,0,3.864-15.908,5.909-12.682
				c2.026,3.227,10.993,14.183,10.993,14.183s0.413-12.025,2.438-7.729c2.026,4.296,12.419,11.818,12.419,11.818l-1.838-22.567
				l4.69,3.433l6.509,4.521l0.957-10.956l11.049,7.936l-2.439-14.182l-5.909-15.89l-0.807,3.658c0,0,0,0-4.69-7.091
				C218.442,295.227,217.223,280.819,217.223,280.819z"/>
			<path fill="#010101" d="M227.728,264.799c0.019-0.075,0.038-0.131,0.057-0.169C227.766,264.687,227.747,264.742,227.728,264.799z
				"/>
			<path fill="#010101" d="M227.597,265.137c0.038-0.112,0.075-0.226,0.113-0.3c-0.056,0.206-0.131,0.469-0.244,0.787
				C227.503,265.437,227.541,265.268,227.597,265.137z"/>
			<path fill="#010101" d="M225.271,277.837c0.957,2.607,1.388,3.996,0.638,2.776C225.496,279.938,225.308,278.962,225.271,277.837z
				"/>
			<path fill="#010101" d="M222.513,159.99c0-3.283,3.396-5.253,3.396-5.253s3.02,2.758,6.19-0.431c3.17-3.17,2.626,1.895,2.926,0
				c0.3-1.876,2.739-5.516,2.739-5.516s0,0,1.538-3.545c0.281-0.675,0.619-1.257,0.976-1.801c1.576-2.289,3.602-3.358,3.602-3.358
				c11.912-5.478,0,3.864,0,3.864s-1.52,2.908-3.058,4.84c-1.52,1.933-2.139,1.745-2.139,1.745s-0.919,3.096-1.52,7.129
				c-0.094,0.619-0.263,1.032-0.45,1.294c-1.125,1.463-3.545-1.801-3.545-1.801l-1.069,2.833c0,0-1.951-1.857-6.19-2.326
				c-2.439-0.263-3.208,1.632-3.415,2.664C222.513,160.233,222.513,160.121,222.513,159.99z"/>
			<path fill="#010101" d="M222.494,160.384C222.476,161.303,222.382,161.04,222.494,160.384L222.494,160.384z"/>
			<path fill="#010101" d="M232.099,124.403c4.577-3.864-1.951,5.046,0,5.365c0.863,0.15,2.439,0.469,3.921,0.807l3.846,3.996
				c-0.094-0.075-0.488-0.45-2.101-1.895c-2.12-1.932-4.877,0-4.877,0l2.926,1.276c0,0,5.646,1.745,4.409,4.408
				c-0.75,1.576-1.595,3.021-2.57,4.371c-2.195,2.945-5.065,5.346-9.042,7.354c-5.797,2.889-5.797,2.57-5.797,2.57l-1.913,3.001
				c0.037-0.131,0.056-0.244,0.075-0.375c1.557-2.908,4.033-7.898,4.934-11.875c1.351-5.965,0-6.791,0-6.791s4.54-3.302,4.239-7.166
				c-0.319-3.864-3.058,0-3.058,0l-1.182,2.739l-2.795-2.739l-2.12,2.739l-3.677-2.739l-4.878,5.478
				c0.207-4.239,1.051-6.453,2.12-7.522c2.176-2.176,5.196,0.432,5.196,0.432s2.139-3.865,3.058-3.339
				C223.732,125.041,227.522,128.267,232.099,124.403z M232.193,136.615c-0.506,0-0.938,0.394-0.938,0.882
				c0,0.469,0.432,0.863,0.938,0.863s0.919-0.394,0.919-0.863C233.112,137.009,232.699,136.615,232.193,136.615z"/>
			<path fill="#010101" d="M220.9,155.656c-0.169,0.938-0.563,1.538-1.257,2.007v-0.019l0.112-0.188L220.9,155.656z"/>
			<path fill="#010101" d="M219.755,157.457c0.188-0.356,0.638-1.125,1.219-2.176c-0.019,0.131-0.038,0.244-0.075,0.375
				L219.755,157.457z"/>
			<path fill="#010101" d="M219.643,157.645v0.019c-0.019,0-0.019,0-0.019,0L219.643,157.645z"/>
			<path fill="#DB8042" d="M219.755,127.836c0,0-3.02-2.607-5.196-0.432l-0.882-1.125c0.75-0.6,1.539-1.219,2.401-1.838
				c5.965-4.315,22.849-5.159,31.666-5.29c-1.895,1.52-3.283,2.607-3.846,2.982c-2.101,1.388-8.104,8.198-8.104,8.198l0.225,0.244
				c-1.482-0.337-3.058-0.657-3.921-0.807c-1.951-0.319,4.577-9.229,0-5.365s-8.367,0.638-9.286,0.094
				C221.894,123.971,219.755,127.836,219.755,127.836z"/>
			<path fill="#010101" d="M219.624,157.664c-0.938,0.656-2.438,1.069-4.746,1.763c-0.994,0.3-1.726,0.45-2.251,0.525
				c0.244-1.37,0.3-2.495,0.281-3.339c2.87-2.063,8.292-3.227,8.066-1.388c0,0.019,0,0.038,0,0.057
				c-0.582,1.05-1.032,1.819-1.219,2.176l-0.112,0.188L219.624,157.664z"/>
			<path fill="#010101" d="M211.22,159.427c-0.206-0.994,0.525-1.97,1.688-2.814c0.019,0.844-0.038,1.97-0.281,3.339
				C210.863,160.177,211.22,159.427,211.22,159.427z"/>
			<path fill="#010101" d="M209.944,252.155l-4.934,1.819c0,0-0.206,15.026-4.071,7.729c-3.864-7.316-6.115-25.251-6.115-25.251
				l-3.246,18.159c0,0-0.825,0.638-0.413-25.775c0.413-26.432,14.445-36.543,12.418-32.679c-2.044,3.883-5.103,29.021-5.103,29.021
				l4.896-6.453l0.6,26c0,0,2.251-4.521,2.458-3.658C206.511,241.425,208.125,246.452,209.944,252.155z"/>
			<path fill="#010101" d="M184.957,166.199c0,0-1.838-8.067-7.335,3.208c0,0,0.694-5.89,2.551-8.948
				c0.525-0.844,1.125-1.482,1.838-1.688c3.246-0.957,4.465,2.588,4.465,2.588l4.577-8.385v3.227c0,0,8.798-10.637,8.986-8.385
				c0.188,2.27,0.188,2.27,0.188,2.27l8.536-9.999l-8.704,19.003l-0.019,0.019c0,0,0,0,0.019-0.019
				c0.488-0.375,8.123-6.454,8.704-6.753c0.619-0.319-2.739,5.159-3.039,7.729c-0.319,2.589,7.016-5.309,7.016-5.309
				s0.15,0.675,0.169,1.857c-1.163,0.844-1.895,1.82-1.688,2.814c0,0-0.356,0.75,1.407,0.525c-0.244,1.426-0.675,3.095-1.407,4.953
				c-2.458,6.115-2.458,6.115-2.458,6.115l5.497-3.864v16.114l11.65-11.593l-13.47,17.109l-1.538-13.563l-3.958,6.116l-0.919-4.84
				l-2.139,4.521v-10.318c0,0-5.571-0.638-3.846-4.84c1.707-4.183-4.39,0.657-4.39,0.657s-0.619-4.84,0.9-9.023
				c1.539-4.202-6.716,3.864-7.016,4.821C189.234,163.292,184.957,166.199,184.957,166.199z"/>
			<path fill="#DB8042" d="M179.16,159.99l0.919-7.973l1.932,2.289l7.522-9.718l3.977,3.546l5.497-13.207l6.097,0.319
				c0,0,2.214-3.883,8.573-8.967l0.882,1.125c-1.069,1.069-1.914,3.283-2.12,7.522l4.878-5.478l3.677,2.739l2.12-2.739l2.795,2.739
				l1.182-2.739c0,0,2.739-3.864,3.058,0c0.3,3.864-4.239,7.166-4.239,7.166s1.351,0.826,0,6.791
				c-0.901,3.977-3.377,8.967-4.934,11.875c0-0.019,0-0.038,0-0.057c0.225-1.838-5.196-0.675-8.066,1.388
				c-0.019-1.182-0.169-1.857-0.169-1.857s-7.335,7.897-7.016,5.309c0.3-2.57,3.658-8.047,3.039-7.729
				c-0.582,0.3-8.216,6.378-8.704,6.753l8.704-19.003l-8.536,9.999c0,0,0,0-0.188-2.27c-0.188-2.251-8.986,8.385-8.986,8.385v-3.227
				l-4.577,8.385c0,0-1.219-3.545-4.465-2.588c-0.713,0.206-1.313,0.844-1.838,1.688L179.16,159.99z"/>
			<path fill="#010101" d="M176.702,204.881l5.309-9.68v17.409l7.522-9.68v18.046l-2.138-14.069l-6.716,11.181v-19.022
				c0,0-7.016,16.752-6.097,7.842c0.9-8.93,6.097-18.122,6.097-18.122L176.702,204.881z"/>
			<path fill="#010101" d="M164.997,197.771l-2.945,13.544v-9.023v-8.705h3.358c0,0,0.319-0.638,1.838-4.184
				c1.538-3.564,0,9.661,0,9.661L164.997,197.771z"/>
			<path fill="#010101" d="M161.451,366.775c0,0,0.075-0.019,0.019,0.019h-0.019V366.775z"/>
			<path fill="#010101" d="M160.625,258.046c0-4.935-2.439-1.707-3.152,2.363c-0.712,4.09,0-15.102,0-15.102l-2.345,1.351
				l4.896-14.182l-1.013,20.41l3.039-3.79c0,0,1.426,17.109,2.045,19.698c0.6,2.57,0.9,3.433,0.9,3.433s1.669-9.661,2.926-12.25
				c1.257-2.57,1.257-2.57,1.257-2.57s2.645,15.684,4.071,20.842c1.426,5.159,1.426,5.159,1.426,5.159s1.426-5.29,3.865-7.166
				c2.438-1.857,2.438-1.857,2.438-1.857s-0.188,10.73,0,13.525c0.207,2.796,6.322-6.865,6.322-6.865s3.658-2.364,2.232,2.569
				c-1.426,4.935-0.807,16.546-0.807,16.546l9.155-18.909l3.058,27.933c0,0,2.645-6.865,3.865-4.728
				c1.219,2.158,2.026,5.815,2.026,5.815l2.439-1.95c0,0-3.452,7.091-4.071,3.658c-0.601-3.434-1.407-4.521-1.407-4.521
				l-3.677,7.316l-3.246-25.138l-8.967,14.819l-1.013-18.478c0,0-4.277,5.159-5.909,7.522c-1.613,2.363-2.026-13.544-2.026-13.544
				l-3.264,7.091c0,0-1.632,2.589-2.439,0c-0.807-2.57-5.328-21.479-5.328-21.479s-1.801,7.598-1.801,10.674
				S160.625,262.998,160.625,258.046z"/>
			<path fill="#010101" d="M141.922,251.799c0.469-2.232,1.707-7.091,3.452-6.435c2.232,0.863,4.877,3.733,4.877,3.733l2.232-3.79
				h1.632c0,0-2.026,4.578-2.851,6.51c-0.807,1.933-6.097-3.864-6.097-3.864S142.673,249.792,141.922,251.799z"/>
			<path fill="#010101" d="M141.697,252.887c0-0.356,0.075-0.731,0.225-1.088C141.772,252.455,141.697,252.887,141.697,252.887z"/>
			<path fill="#010101" d="M137.833,311.304v0.037l-0.244,0.376C137.664,311.585,137.739,311.454,137.833,311.304z"/>
			<path fill="#010101" d="M109.844,196.477c5.196-29.959,45.135-17.203,44.272-5.478c-0.15,2.176-12.231,6.022-6.097,5.815
				c9.455-0.337,9.229,2.57,9.229,2.57s0.844-2.251-0.694,11.931c-1.52,14.182-18.309,29.002-15.871,23.206
				c1.107-2.645,3.32-8.385,3.32-8.385l-10.092,9.436c1.651-1.632,10.505-10.674,1.895-6.847
				c-9.474,4.183-19.547-9.361-19.547-9.361s9.155,0.976,17.109,0c7.935-0.957,13.732-9.661,8.835-9.661
				c-4.877,0-8.536-1.294-7.316-2.589c1.22-1.275,4.878-5.14,4.878-5.14l-8.854-3.545l4.896-3.227h-13.432
				c0,0,5.796-3.545,2.139-3.864C120.836,190.999,109.844,196.477,109.844,196.477z"/>
			<path fill="#010101" d="M125.827,340.774l24.631,38.457c0,0,0.413-8.385,6.097-10.523c3.883-1.482,4.746-1.839,4.896-1.914h0.019
				c0.863,0.676,28.496,22.53,29.49,22.962c1.013,0.432-0.619-6.003,2.852-6.866c3.452-0.862,3.452-0.862,3.452-0.862v-17.841
				c0,0,7.542,17.784,10.993,23.187c3.471,5.403,8.142,10.993,8.142,10.993s-1.219-12.681,0-13.976
				c1.219-1.294,3.864,0.206,7.729,5.365c3.883,5.159,5.103,7.748,5.103,7.748l1.219,1.707c0,0,4.69-8.367,7.936-9.661
				c3.264-1.295,3.264-1.295,3.264-1.295l-1.032,9.887c0,0,7.542-2.57,10.787-4.296c3.059-1.613,5.216-2.664,5.479-2.776
				c-0.132,0.243-3.189,5.59-1.407,6.641c1.838,1.069,7.129-2.57,7.129-2.57l6.979-4.858l2.588-1.801c0,0,2.646,7.936,4.484,10.73
				c1.819,2.795,1.819,2.795,1.819,2.795s2.251-7.522,6.322-13.319c4.07-5.797,18.309-23.318,18.309-23.318l4.071,20.523
				c0,0,4.277-22.774,5.496-24.706c1.22-1.933,5.703-10.956,5.703-10.956l1.22,4.296c0,0,3.188-9.267,5.608-17.296l0.994,2.607
				c-1.388,7.054-3.076,14.126-4.765,17.69c-0.75,1.575-1.275,2.683-1.632,3.451l-2.045-5.815c0,0-3.658,6.247-4.465,10.75
				c-0.825,4.521-4.689,27.501-4.689,27.501s-1.22,1.933-3.265-3.433c-2.025-5.365-4.671-17.841-4.671-17.841
				s-11.405,11.612-15.477,20.204c-4.07,8.592-3.864,10.524-3.864,10.524l0.206,2.363c0,0-1.426,1.295-3.058,0
				c-1.613-1.294-7.729-12.024-7.729-12.024s-12.007,10.955-15.064,8.16s-2.852-5.365-2.852-5.365l-14.857,5.571v-8.366
				c0,0-6.922,7.091-6.922,10.092c0,3.002-12.194-17.84-12.006-12.249c0.207,5.59,0,12.024,0,12.024s-16.49-15.252-17.709-21.255
				c-1.219-6.021-1.613,3.865-1.613,3.865s-4.69-2.627-5.29,1.688c-0.619,4.334-2.458,6.904-2.458,6.904l-31.741-25.363
				c0,0-5.909,1.726-6.509,6.885c-0.619,5.159-1.632,10.317-1.632,10.317l-24.631-36.956l0.807,5.797
				c0,0-10.956-8.555-11.687-21.086l1.651-1.801l6.172,15.364L125.827,340.774z"/>
			<path fill="#DB8042" d="M123.388,326.387c0,0,6.303,18.891,14.445,25.775c8.142,6.866,14.051,12.024,14.051,12.024
				s-0.807-8.592,2.026-12.888c2.852-4.296,2.852-4.296,2.852-4.296s1.013,9.887,6.322,14.613c5.29,4.728,4.465,3.434,4.465,3.434
				l-2.026-7.729l10.168,9.887l-3.058-7.954c0,0,12.625,14.82,16.302,16.978c3.564,2.082-2.533-8.066-2.833-8.573l5.665,5.984
				v-16.978l-2.833-6.435l7.729,5.591l2.026-0.432c0,0,13.3,19.116,27.22,23.205c13.9,4.071,24.894,6.022,27.952,5.159
				c1.932-0.544-0.075-3.358-1.801-5.328l6.885,7.261l8.142-26.227c0,0-1.426,20.636,0,26.227c0.3,1.144,0.394,1.688,0.469,1.688
				l2.026,2.908l-6.979,4.858c0,0-5.291,3.64-7.129,2.57c-1.782-1.051,1.275-6.397,1.407-6.641c-0.263,0.112-2.42,1.163-5.479,2.776
				c-3.245,1.726-10.787,4.296-10.787,4.296l1.032-9.887c0,0,0,0-3.264,1.295c-3.246,1.294-7.936,9.661-7.936,9.661l-1.219-1.707
				c0,0-1.219-2.589-5.103-7.748c-3.865-5.159-6.51-6.659-7.729-5.365c-1.219,1.295,0,13.976,0,13.976s-4.671-5.59-8.142-10.993
				c-3.452-5.402-10.993-23.187-10.993-23.187v17.841c0,0,0,0-3.452,0.862c-3.471,0.863-1.838,7.298-2.852,6.866
				c-0.994-0.432-28.627-22.286-29.49-22.962c0.056-0.037-0.019-0.019-0.019-0.019v0.019c-0.15,0.075-1.013,0.432-4.896,1.914
				c-5.684,2.139-6.097,10.523-6.097,10.523l-24.631-38.457l-1.426,6.66l-6.172-15.364L123.388,326.387z"/>
			<path fill="#010101" d="M120.537,172.296l-2.439-3.527c0,0,12.513,2.551,15.57,3.527c3.058,0.994-1.838-5.14-1.838-5.14
				s23.806,9.098,25.644,10.843c1.839,1.726,0-8.254,0-8.254l7.523-0.657l-2.945-2.889l8.854-5.215v-6.678l6.716,2.851v-9.342
				l3.058,1.857l8.854-9.586l3.058,3.545l5.796-11.274h5.196c0,0,9.924-12.907,18.854-14.182c8.93-1.294,37.838-9.249,37.838-9.249
				c-4.559,3.771-9.287,7.635-12.532,10.224c-8.817,0.131-25.701,0.975-31.666,5.29c-0.863,0.619-1.651,1.238-2.401,1.838
				c-6.359,5.084-8.573,8.967-8.573,8.967l-6.097-0.319l-5.497,13.207l-3.977-3.546l-7.522,9.718l-1.932-2.289l-0.919,7.973h-4.671
				l-1.444,2.982l-6.716,3.546l1.595,4.502l-7.091,1.276l-0.601,10.974l-22.905-10.974l1.219,3.564l-14.351-1.933l-3.658,1.933
				h3.358c0,0-2.401,0.769-5.384,1.895l-0.168-0.432c0,0,1.013-0.582-0.919-0.337l-5.74-2.101L120.537,172.296z"/>
			<path fill="#DB8042" d="M265.866,284.815c0.112-1.97,0.131-3.002,0-1.632C265.81,283.671,265.829,284.215,265.866,284.815z
				 M234.519,247.296c0,0,3.246-17.203-0.206-10.843l-3.058,18.591l8.554-11.818l0.807,15.251l1.032-2.363
				c0,0,2.026,8.817,2.532,7.954s5.196-8.592,5.196-8.592s1.838,13.957,5.084,15.026c3.264,1.088,1.632,0,1.632,0l3.451-8.16
				l3.471,8.647c0,0,4.465-6.49,6.716-10.354c2.232-3.884,2.232-3.884,2.232-3.884l3.265,12.044l4.877-8.16
				c0,0,2.646,8.366,4.483,8.16c1.839-0.226-2.852-13.545-4.877-12.044c-2.045,1.52-3.884,6.885-3.884,6.885l-2.438-13.113
				L263.428,266l-4.071-7.316c0,0-3.677,9.68-4.689,7.747c-1.014-1.932-4.071-13.976-4.071-13.976l-6.416,6.453l-1.125-6.453
				l-1.613,1.257l0.394-14.145L234.519,247.296z M222.494,160.384C222.382,161.04,222.476,161.303,222.494,160.384L222.494,160.384z
				 M227.728,264.799c0.019-0.057,0.038-0.112,0.057-0.169C227.766,264.668,227.747,264.724,227.728,264.799z M182.011,195.201
				l-5.309,9.68l3.977-16.096c0,0-5.196,9.192-6.097,18.122c-0.919,8.911,6.097-7.842,6.097-7.842v19.022l6.716-11.181l2.138,14.069
				V202.93l-7.522,9.68V195.201z M162.051,211.315l2.945-13.544l2.251,1.294c0,0,1.538-13.225,0-9.661
				c-1.52,3.546-1.838,4.184-1.838,4.184h-3.358v8.705V211.315z M160.625,258.046c0,4.952,5.497,21.272,5.497,18.196
				s1.801-10.674,1.801-10.674s4.521,18.909,5.328,21.479c0.807,2.589,2.439,0,2.439,0l3.264-7.091c0,0,0.413,15.907,2.026,13.544
				c1.632-2.363,5.909-7.522,5.909-7.522l1.013,18.478l8.967-14.819l3.246,25.138l3.677-7.316c0,0,0.807,1.088,1.407,4.521
				c0.619,3.433,4.071-3.658,4.071-3.658l-2.439,1.95c0,0-0.807-3.657-2.026-5.815c-1.22-2.138-3.865,4.728-3.865,4.728
				l-3.058-27.933l-9.155,18.909c0,0-0.619-11.611,0.807-16.546c1.426-4.934-2.232-2.569-2.232-2.569s-6.115,9.661-6.322,6.865
				c-0.188-2.795,0-13.525,0-13.525s0,0-2.438,1.857c-2.439,1.876-3.865,7.166-3.865,7.166s0,0-1.426-5.159
				c-1.426-5.158-4.071-20.842-4.071-20.842s0,0-1.257,2.57c-1.257,2.589-2.926,12.25-2.926,12.25s-0.3-0.862-0.9-3.433
				c-0.619-2.589-2.045-19.698-2.045-19.698l-3.039,3.79l1.013-20.41l-4.896,14.182l2.345-1.351c0,0-0.712,19.191,0,15.102
				C158.187,256.339,160.625,253.111,160.625,258.046z M145.374,245.364c-1.745-0.657-2.983,4.202-3.452,6.435
				c-0.15,0.356-0.225,0.731-0.225,1.088c0,0,0.075-0.432,0.225-1.088c0.75-2.007,3.245-3.846,3.245-3.846s5.291,5.797,6.097,3.864
				c0.825-1.932,2.851-6.51,2.851-6.51h-1.632l-2.232,3.79C150.251,249.097,147.606,246.227,145.374,245.364z M108.324,191.975
				c0,0-3.977-5.834-0.3-9.023c2.045-1.782,6.734-3.771,10.486-5.196c2.983-1.125,5.384-1.895,5.384-1.895h-3.358l3.658-1.933
				l14.351,1.933l-1.219-3.564l22.905,10.974l0.601-10.974l7.091-1.276l-1.595-4.502l6.716-3.546l1.444-2.982h4.671l1.013,0.469
				c-1.857,3.058-2.551,8.948-2.551,8.948c5.497-11.274,7.335-3.208,7.335-3.208s4.277-2.908,4.577-3.883
				c0.3-0.957,8.555-9.023,7.016-4.821c-1.52,4.184-0.9,9.023-0.9,9.023s6.097-4.84,4.39-0.657c-1.726,4.202,3.846,4.84,3.846,4.84
				v10.318l2.139-4.521l0.919,4.84l3.958-6.116l1.538,13.563l13.47-17.109l-11.65,11.593v-16.114l-5.497,3.864c0,0,0,0,2.458-6.115
				c0.732-1.857,1.163-3.527,1.407-4.953c0.525-0.075,1.257-0.225,2.251-0.525c2.308-0.694,3.808-1.107,4.746-1.763c0,0,0,0,0.019,0
				c0.694-0.469,1.088-1.069,1.257-2.007l1.913-3.001c0,0,0,0.319,5.797-2.57c3.977-2.007,6.847-4.408,9.042-7.354l2.626,0.713
				c-0.356,0.544-0.694,1.125-0.976,1.801c-1.538,3.545-1.538,3.545-1.538,3.545s-2.439,3.64-2.739,5.516
				c-0.3,1.895,0.244-3.17-2.926,0c-3.17,3.189-6.19,0.431-6.19,0.431s-3.396,1.97-3.396,5.253c0,0.131,0,0.244-0.019,0.337
				c0.207-1.032,0.976-2.926,3.415-2.664c4.239,0.469,6.19,2.326,6.19,2.326l1.069-2.833c0,0,2.42,3.264,3.545,1.801l2.345-0.057
				c-1.126,1.576-2.214,3.396-3.246,5.534c-6.584,13.676-6.584,13.676-6.584,13.676l-3.302,11.894
				c0.544-0.9,9.229-15.345,9.868-16.396c-0.77,1.294-1.388,10.637-1.388,19.341c0,8.686,1.407,9.661,1.407,9.661
				s2.27,0.319,2.87-7.729c0.619-8.066,2.458,14.501,2.758,15.777c0.3,1.294,2.139-10.618,2.139-10.618s1.426,14.182,5.59,14.82
				c4.165,0.638,2.588,0,2.588,0v-3.546c0,0,4.334-2.326,4.953,3.827c0.6,6.153,5.178,18.084,5.178,18.084l2.138-13.544
				l15.871,20.317l1.538-7.729l4.277,9.661l2.438-9.661c0,0,4.277,20.936,7.017,23.524c2.757,2.57,1.838,0,1.838,0l0.601-12.568
				c0,0,2.532,15.796,4.934,15.458c2.401-0.319,2.401-10.299,2.401-10.299l8.555,14.82v-8.066l7.616,8.066l1.538-2.251l9.455,10.637
				v-5.478c0,0,0.693,0.807,1.594,1.97c1.539,2.007,3.715,5.084,3.902,6.716c0.319,2.589,0-7.41,0-7.41s3.358,0.976,4.277,2.908
				c0.919,1.932,3.658,0.956,3.658,0.956s1.838,4.728,3.977,3.978c2.139-0.751,3.358,0.075,3.358,0.075s2.738-1.089,3.658,0
				c0.919,1.106,3.677-3.077,3.677-3.077s0,5.253,1.819,3.265c1.726-1.839,3.715-4.24,3.958-4.521
				c-0.149,0.507-2.025,6.679,0.02,4.972c2.138-1.782,5.496-3.396,5.496-3.396l3.958-3.864c0,0,2.758,0.638,4.597-1.933
				c1.819-2.589,2.738-6.772,0-4.521c-2.664,2.195-11.35,9.53-11.894,9.98c0.074-0.413,1.444-6.734-0.02-6.097
				c-1.538,0.638-5.196,4.502-5.196,4.502s-3.058-2.889-5.196,0c-2.139,2.908-7.316,1.613-7.316,1.613l-2.138-3.545l-5.497-1.933
				l-8.235-4.184c0,0-2.589-5.609-5.046-8.066l1.182-0.094c1.294,1.52,2.438,2.401,2.945,1.501c1.426-2.589,2.232-3.884,2.232-3.884
				s3.058,5.815,4.483,7.954c1.426,2.157,3.245,1.295,3.245,1.295l2.852,5.158l8.142-3.02c0,0-1.013,3.883,3.058,2.157
				c4.071-1.727,9.361-4.934,9.361-4.934s-1.839,5.14,2.852,2.776c2.345-1.183,3.526-1.764,4.108-2.063
				c0.581-0.301,0.581-0.301,0.581-0.301s0.601,2.157,2.833,0c2.251-2.139,5.909-3.864,5.909-3.864s0.882-0.432,1.913-1.163
				l8.066,6.979h-7.935l-2.045,13.244l-1.52-2.72l-4.784,14.388l-1.838-7.091l-4.071,8.592l-5.083-5.571l-5.084,9.867h-2.346
				l2.346-3.433l-6.116,5.159l1.839-4.935l-7.129,6.66l0.807-3.864l-10.58,9.436l0.206-7.729l-15.27,18.047v-15.252
				c0,0-3.865,13.319-7.936,17.84c-3.902,4.315-0.319-5.777-0.019-6.622c-0.395,0.863-5.534,12.513-7.11,14.783
				c-1.613,2.363,3.058-15.684,2.664-19.116c-0.395-3.358-5.196,18.422-5.478,19.697c0.206-1.426,3.695-25.794-1.257-35.38
				c-5.084-9.887-4.053-6.885-4.053-6.885l-7.747,8.816l-12.007-19.341l-3.657,15.89l-2.045-6.66l-7.316,15.477
				c0,0-2.514-6.96-2.852-11.424c-0.169,3.901-0.619,11.424-0.619,11.424l-1.22-16.339c0,0-5.496,10.955-4.671,16.977
				c0.807,6.022-3.883-10.955-7.335-15.457c-3.376-4.409,2.927,14.275,3.246,15.214c-0.563-0.619-9.605-10.562-11.087-13.076
				c-1.52-2.569-2.945,6.454-2.945,6.454s-5.083-10.956-5.083-19.342c0-8.385-0.413-4.727-0.413-4.727s-4.689,8.385-3.452,15.907
				c1.182,7.241-5.609-11.312-4.821-16.283c0.113-0.318,0.188-0.581,0.244-0.787c-0.038,0.074-0.075,0.188-0.113,0.3
				c-0.056,0.131-0.094,0.3-0.131,0.487c-0.731,2.458-2.345,8.311-2.195,12.213c-2.251-6.116-7.447-18.872-7.447-20.223
				c0-1.933-2.439,11.387-2.439,11.387s-2.926-9.042-5.44-16.846c-1.82-5.703-3.433-10.73-3.508-11.087
				c-0.206-0.863-2.458,3.658-2.458,3.658l-0.6-26l-4.896,6.453c0,0,3.058-25.138,5.103-29.021
				c2.026-3.864-12.006,6.247-12.418,32.679c-0.413,26.413,0.413,25.775,0.413,25.775l3.246-18.159c0,0,2.251,17.935,6.115,25.251
				c3.865,7.297,4.071-7.729,4.071-7.729s2.852,22.98,8.536,33.298c5.703,10.318,4.277,7.092,4.277,7.092l-0.601-13.545
				c0,0,1.22,14.407,5.891,21.499c4.69,7.091,4.69,7.091,4.69,7.091l0.807-3.658l5.909,15.89l2.439,14.182l-11.049-7.936
				l-0.957,10.956l-6.509-4.521l-4.69-3.433l1.838,22.567c0,0-10.393-7.522-12.419-11.818c-2.026-4.296-2.438,7.729-2.438,7.729
				s-8.967-10.956-10.993-14.183c-2.045-3.227-5.909,12.682-5.909,12.682s-6.716-19.772-7.936-24.068
				c-1.219-4.296,1.838,20.635,1.838,20.635l-4.689-19.997l-2.852,15.045c0,0-3.039-26.639-3.039-28.14
				c0-1.5-10.787,6.435-12.832,13.319c-2.026,6.866-2.438-27.501-2.438-28.157c0-0.639-6.51,2.588-11.8,11.181
				c-1.051,1.688-1.764,2.851-2.251,3.62v-23.824l-5.29,5.815l4.071-23.862l-5.703,5.59l5.103-20.203l3.039,0.862l1.425-9.886
				l-3.245,6.022l-6.322-6.885l-1.013,9.887l-8.948-12.457c0,0-4.728-9.455-9.249-11.443c0.356-0.169,0.6-0.263,0.6-0.263
				s-2.063-2.026-2.457-2.908c-1.22-2.72-1.82-11.931-1.82-11.931l-3.058,2.27l1.52-15.477l-3.658,2.27L108.324,191.975z
				 M122.375,195.201h13.432l-4.896,3.227l8.854,3.545c0,0-3.658,3.865-4.878,5.14c-1.219,1.294,2.439,2.589,7.316,2.589
				c4.896,0-0.9,8.705-8.835,9.661c-7.954,0.976-17.109,0-17.109,0s10.074,13.544,19.547,9.361c8.611-3.827-0.244,5.215-1.895,6.847
				l10.092-9.436c0,0-2.213,5.74-3.32,8.385c-2.438,5.797,14.351-9.023,15.871-23.206c1.538-14.182,0.694-11.931,0.694-11.931
				s0.225-2.908-9.229-2.57c-6.134,0.207,5.947-3.639,6.097-5.815c0.863-11.725-39.076-24.481-44.272,5.478
				c0,0,10.993-5.478,14.67-5.14C128.171,191.656,122.375,195.201,122.375,195.201z"/>
			<path fill="#010101" d="M117.422,176.986c1.932-0.244,0.919,0.337,0.919,0.337L117.422,176.986z"/>
			<path fill="#010101" d="M118.229,332.07l-1.651,1.801c-0.094-1.65,0-3.357,0.3-5.14L118.229,332.07z"/>
			<path fill="#010101" d="M109.844,230.544c0.6-0.056,1.238,0.075,1.857,0.375c-0.413,0.188-0.994,0.488-1.576,0.919
				L109.844,230.544z"/>
			<path fill="#010101" d="M108.024,182.951c-3.677,3.189,0.3,9.023,0.3,9.023l-5.497,12.907l3.658-2.27l-1.52,15.477l3.058-2.27
				c0,0,0.6,9.211,1.82,11.931c0.394,0.882,2.457,2.908,2.457,2.908s-0.244,0.094-0.6,0.263c-0.619-0.3-1.257-0.432-1.857-0.375
				l0.281,1.294c-1.201,0.826-2.42,2.139-2.42,3.977c0,3.545-3.039-8.704-2.439-11.931c0.619-3.227-4.877,0-6.097,4.502
				c-1.219,4.521,2.739-14.82,3.358-17.071c0.6-2.251-5.196,0-5.196,0s4.577-15.477,5.796-17.09c1.22-1.613-5.796,0-5.796,0
				s6.716-14.294,14.97-16.227c2.626-0.619,4.202-0.9,5.122-1.013l0.919,0.337l0.168,0.432
				C114.758,179.181,110.069,181.169,108.024,182.951z"/>
			<path fill="#010101" d="M106.879,290.949c-0.431,0.47-8.911,9.343-8.123,5.554c0.807-3.865,5.083-16.753,5.083-16.753
				l-4.671,3.434l7.729-12.457l-12.625,8.592c0,0,0,0,2.195-5.158c2.195-5.159,10.637-14.614,10.018-14.614
				c-0.6,0-9.755,7.316-5.89,1.933c3.864-5.365,7.935-9.455,7.935-9.455s-15.871-1.275-11.199-1.707
				c4.69-0.431,14.257-12.043,14.257-12.043l-1.463-6.435c0.582-0.431,1.163-0.731,1.576-0.919
				c4.521,1.988,9.249,11.443,9.249,11.443l8.948,12.457l1.013-9.887l6.322,6.885l3.245-6.022l-1.425,9.886l-3.039-0.862
				l-5.103,20.203l5.703-5.59l-4.071,23.862l5.29-5.815v23.824c-0.094,0.15-0.168,0.281-0.244,0.413l0.244-0.376v-0.037
				c0.488-0.77,1.201-1.933,2.251-3.62c5.29-8.593,11.8-11.819,11.8-11.181c0,0.656,0.413,35.023,2.438,28.157
				c2.045-6.885,12.832-14.819,12.832-13.319c0,1.501,3.039,28.14,3.039,28.14l2.852-15.045l4.689,19.997
				c0,0-3.058-24.931-1.838-20.635c1.22,4.296,7.936,24.068,7.936,24.068l5.103,2.363l2.833,6.435v16.978l-5.665-5.984
				c0.3,0.507,6.397,10.655,2.833,8.573c-3.677-2.157-16.302-16.978-16.302-16.978l3.058,7.954l-10.168-9.887l2.026,7.729
				c0,0,0.825,1.294-4.465-3.434c-5.309-4.727-6.322-14.613-6.322-14.613s0,0-2.852,4.296c-2.833,4.296-2.026,12.888-2.026,12.888
				s-5.91-5.158-14.051-12.024c-8.142-6.885-14.445-25.775-14.445-25.775l-5.159,5.684l-1.351-3.339
				c-0.3,1.782-0.394,3.489-0.3,5.14l-2.758,3.039v-18.478c0,0-1.838,18.478-3.977,11.387c-2.139-7.091-3.752-26.863-3.752-26.863
				l-3.264,16.114c0,0,0,0,0.112-10.956C103.034,297.516,106.654,291.344,106.879,290.949z"/>
		</g>
		<g>
		</g>
	</g>
</g>
</svg>
