<?xml version="1.0" encoding="utf-8"?>
<!-- Generator: Adobe Illustrator 16.0.3, SVG Export Plug-In . SVG Version: 6.00 Build 0)  -->
<!DOCTYPE svg PUBLIC "-//W3C//DTD SVG 1.1//EN" "http://www.w3.org/Graphics/SVG/1.1/DTD/svg11.dtd">
<svg version="1.1" id="Layer_1" xmlns="http://www.w3.org/2000/svg" xmlns:xlink="http://www.w3.org/1999/xlink" x="0px" y="0px" viewBox="0 0 500 500" enable-background="new 0 0 500 500" xml:space="preserve">
<g>
	<g>
		<path fill="#F68C57" d="M335.177,116.451c-0.763,0.033-1.537,0.051-2.161,0.412c0.069,0.166,0.199,0.275,0.285,0.428
			c-0.427,0.349-0.709,0.892-1.029,1.277c0.913,0.118,1.89,0.194,2.698-0.131c-0.132,0.11-0.262,0.228-0.422,0.344
			c0.871,0.579,1.893,0.929,2.867,1.247c-0.28,0.152-0.499,0.513-0.771,0.676c0.638,1.227,4.235,2.229,5.274,1.47
			c-0.041-0.062-0.094-0.106-0.141-0.159c1.17-0.05,2.28-0.374,2.5-1.241c0.178-0.718-0.211-1.231-0.815-1.552
			c0.479-0.155,0.827-0.446,0.878-0.95c0.158-1.72-3.603-2.856-4.678-3.215l0.702-0.569
			C339.593,114.948,332.468,114.061,335.177,116.451z"/>
		<path fill="#EC753F" d="M417.501,196.772c-0.055-0.328-0.104-0.665-0.296-0.894c-0.068,0.052-0.111,0.123-0.174,0.177
			c-0.176-0.144-0.429-0.199-0.616-0.289c-0.004,0.413,0.014,0.848,0.202,1.164c-0.057-0.045-0.114-0.088-0.174-0.144
			c-0.21,0.453-0.311,0.942-0.397,1.409c-0.082-0.102-0.252-0.154-0.34-0.251c-0.507,0.43-0.758,2.129-0.365,2.488
			c0.023-0.026,0.039-0.053,0.061-0.081c0.085,0.505,0.285,0.95,0.679,0.937c0.325-0.007,0.531-0.242,0.64-0.546
			c0.094,0.191,0.239,0.308,0.465,0.264c0.766-0.142,1.065-1.927,1.167-2.443l0.288,0.236
			C418.395,198.519,418.409,195.292,417.501,196.772z"/>
		<path fill="#F68C57" d="M408.713,187.627c-0.025-0.548-0.041-1.104-0.297-1.562c-0.116,0.046-0.194,0.138-0.306,0.193
			c-0.247-0.314-0.636-0.531-0.909-0.767c-0.082,0.648-0.134,1.346,0.1,1.938c-0.08-0.099-0.163-0.196-0.247-0.314
			c-0.41,0.611-0.656,1.333-0.878,2.024c-0.111-0.204-0.369-0.369-0.485-0.566c-0.874,0.423-1.58,2.98-1.033,3.745
			c0.042-0.03,0.073-0.064,0.109-0.099c0.04,0.842,0.271,1.646,0.89,1.822c0.511,0.149,0.876-0.119,1.103-0.543
			c0.11,0.346,0.316,0.606,0.677,0.652c1.225,0.158,2.023-2.511,2.278-3.273l0.407,0.518
			C409.79,190.833,410.408,185.744,408.713,187.627z"/>
		<path fill="#F68C57" d="M420.612,180.246c0.086-0.543,0.182-1.092,0.022-1.591c-0.123,0.021-0.218,0.094-0.337,0.128
			c-0.179-0.359-0.517-0.651-0.736-0.937c-0.211,0.62-0.401,1.293-0.293,1.92c-0.057-0.111-0.119-0.224-0.178-0.357
			c-0.523,0.517-0.911,1.175-1.267,1.809c-0.067-0.223-0.287-0.436-0.36-0.654c-0.94,0.239-2.145,2.604-1.764,3.466
			c0.047-0.022,0.084-0.05,0.127-0.075c-0.131,0.833-0.064,1.668,0.506,1.967c0.47,0.249,0.88,0.059,1.188-0.311
			c0.038,0.36,0.19,0.657,0.532,0.775c1.167,0.402,2.485-2.055,2.887-2.751l0.295,0.589
			C421.024,183.607,422.649,178.74,420.612,180.246z"/>
		<path fill="#F68C57" d="M426.469,145.674c-0.546-0.053-1.099-0.117-1.589,0.07c0.028,0.122,0.107,0.213,0.147,0.331
			c-0.347,0.199-0.618,0.552-0.892,0.79c0.631,0.173,1.315,0.324,1.936,0.179c-0.108,0.064-0.218,0.133-0.347,0.199
			c0.547,0.492,1.228,0.841,1.879,1.158c-0.217,0.081-0.418,0.311-0.631,0.398c0.294,0.923,2.726,1.988,3.563,1.558
			c-0.023-0.045-0.053-0.082-0.081-0.122c0.839,0.082,1.669-0.033,1.935-0.62c0.221-0.484,0.007-0.883-0.381-1.169
			c0.358-0.06,0.646-0.227,0.744-0.576c0.332-1.188-2.197-2.36-2.917-2.721l0.571-0.328
			C429.801,145.067,424.849,143.729,426.469,145.674z"/>
		<path fill="#F68C57" d="M267.676,161.26c-0.415-4.33-3.42-2.108-4.152-5.163c-2.246-0.561-3.356,1.509-3.929,3.173
			c-0.146-0.385-0.032-0.74-0.14-1.132c-3.543-0.103-5.635,10.464,0.404,6.939c-0.344,0.595-0.023,1.43-0.283,2.233
			c1.493,0.571,2.869,0.352,3.145-1.112C266.183,165.876,267.979,164.422,267.676,161.26z"/>
		<g>
			<path fill="#F68C57" d="M277.499,149.946c-0.019,0.133-0.09,0.305-0.205,0.47c-0.616,0.774-3.836,4.673-9.632,3.817
				c-5.842-0.863-10.373-8.731-9.004-18.006s7.743-14.803,12.739-14.066c4.949,0.73,6.941,4.214,7.325,4.999
				c0.215,0.397,0.398,0.697,0.354,1.009c-0.026,0.178-0.194,0.383-0.597,0.641c-0.945,0.544-2.557,1.583-3.357,2.376
				c-0.583,0.551-1.108,1.021-1.554,0.953c-0.225-0.032-0.426-0.198-0.648-0.551c-0.709-1.06-1.284-2.102-2.399-2.267
				c-1.961-0.29-5.151,1.563-6.232,8.876c-1.071,7.269,2.731,9.29,3.979,9.474c1.248,0.184,2.815-0.861,3.379-1.28
				c0.359-0.266,0.525-0.468,0.748-0.435c0.134,0.019,0.306,0.091,0.509,0.258l3.48,2.654
				C277.006,149.28,277.564,149.5,277.499,149.946z"/>
			<path fill="#F68C57" d="M307.271,143.314c-0.447,3.033-3.264,16.242-15.259,14.469c-6.02-0.889-8.332-5.604-9.252-10.16
				c-0.517-2.673-0.632-5.606-0.284-8.881c1.186-8.028,7.966-14.454,13.808-13.591c2.454,0.362,4.606,0.589,6.015,1.846
				C307.645,131.844,307.62,140.951,307.271,143.314z M303.57,142.768c1.072-7.269-1.431-14.063-6.737-14.846
				c-1.649-0.243-2.88-0.562-4.331,0.637c-1.485,1.103-6.21,4.096-7.244,11.095c-1.034,7.003,0.256,14.62,6.899,15.599
				C298.847,156.242,302.49,150.082,303.57,142.768z"/>
			<path fill="#F68C57" d="M314.536,143.751c-0.223,1.516-1.071,6.95-1.482,8.801c-0.135,0.619-0.273,1.555-0.418,2.536
				c-0.283,1.918-0.563,4.109-0.624,4.511c-0.006,0.045-0.013,0.089-0.019,0.134c-0.078,0.536-0.334,0.724-0.729,0.62
				c-0.336-0.186-1.108-0.208-1.413-0.3c-0.179-0.026-0.209-0.123-0.178-0.344c0.026-0.179,0.11-0.439,0.163-0.796
				c0.139-0.936,1.438-11.27,1.787-13.632c0.342-2.318,1.345-8.186,1.71-9.727c0.363-1.542,1.031-5.132,1.169-6.069
				c0.007-0.045,0.02-0.133,0.027-0.179c0.124-0.846,0.372-0.672,0.677-0.584c0.09,0.013,0.223,0.033,0.356,0.052
				c0.313,0.047,0.714,0.105,1.122,0.122c0.492,0.074,0.738,0.564,0.7,1.424c-0.095,1.583,0.276,3.686,0.592,5.557
				c0.323,1.825,2.377,11.059,2.941,13.1c0.25,1.086,0.604,3.005,0.896,4.734l0.533,3.178l0.73-0.94l1.609-2.269
				c1.22-1.777,5.589-7.603,7.028-9.943c1.438-2.339,3.641-5.521,4.433-6.864c0.7-1.354,2.347-4.8,3.017-4.703
				c0.269,0.04,0.298,0.455,0.206,1.079c-0.14,0.937-0.527,2.337-0.821,3.706c-0.478,2.3-1.089,6.447-1.398,8.543
				c-0.303,2.052-1.319,8.326-1.71,10.043l-1.119,7.264c-0.006,0.043-0.013,0.088-0.019,0.134c-0.048,0.312-0.244,0.419-0.558,0.372
				c-0.356-0.052-1.204-0.178-1.554-0.276c-0.171-0.071-0.203-0.166-0.17-0.388c0.026-0.179,0.109-0.441,0.156-0.752
				c0.119-0.803,1.583-9.79,2.089-11.993c0.203-1.065,0.48-2.938,0.71-4.498c0.138-0.937,0.276-1.873,0.377-2.859
				c-0.506,0.653-1.006,1.265-1.417,1.885c-0.834,1.016-1.61,2.269-2.227,3.043c-1.091,1.526-4.294,6.247-5.218,7.568
				c-1.059,1.302-4.133,5.769-4.589,6.385c-0.41,0.621-1.108,1.338-1.508,1.279c-0.492-0.072-0.447-0.384-0.571-1.086
				c-0.13-0.655-1.021-5.436-1.4-6.859c-0.383-1.422-1.591-6.204-1.794-7.919c-0.185-0.893-0.458-2.756-0.755-4.44
				c-0.176-0.983-0.38-2.061-0.541-3.132l-0.333,1.636C314.819,141.834,314.648,142.993,314.536,143.751z"/>
			<path fill="#F68C57" d="M359.859,161.381c-0.934,6.331-9.576,4.691-11.361,4.427c-1.738-0.257-6.039-0.754-7.064-0.907
				c-1.071-0.159-1.13-0.986-0.999-1.879l1.507-9.893c0.126-0.848,0.218-1.471,0.315-2.141c0.126-0.846,0.252-1.693,0.588-3.056
				c0.506-2.478,1.513-9.299,1.83-10.529c0.097-0.35,0.162-0.795,0.229-1.241c0.145-0.981,0.207-2.021,0.195-2.249
				c-0.029-0.097-0.017-0.186-0.011-0.23c0.026-0.179,0.18-0.292,0.549-0.328c0.421-0.077,3.571-0.111,5.934,0.237
				c4.815,0.711,9.002,2.606,7.987,9.473c-0.521,3.522-2.104,5.293-3.574,6.307c-0.857,0.558-1.776,0.921-2.761,1.096
				C354.152,150.968,360.88,154.469,359.859,161.381z M357.057,160.918c0.718-4.861-1.546-7.426-3.93-8.871
				c-1.429-0.804-3.085-1.322-5.008-1.561c-0.064,0.127-0.078,0.216-0.098,0.35c-0.079,0.217-0.125,0.529-0.197,1.02
				c-0.145,0.981-0.479,4.485-0.598,5.289c-0.125,0.846-0.233,0.968-0.393,2.037c-0.157,1.072-0.396,3.907-0.513,4.709
				c-0.132,0.893,0.385,0.785,1.231,0.91C353.573,165.689,356.609,163.953,357.057,160.918z M348.418,148.754
				c-0.045,0.313-0.058,0.4,0.254,0.448c0.358,0.052,8.176,0.796,9.183-6.026c1.014-6.866-3.04-7.784-7.099-8.384l-0.512,2.84
				c-0.282,1.6-0.609,3.51-0.793,4.759l-0.752,5.083C348.595,148.187,348.466,148.442,348.418,148.754z"/>
			<path fill="#F68C57" d="M368.896,143.349c-0.355,2.408-1.838,9.981-2.173,12.254c-0.343,2.318-1.361,10.141-1.392,11.277
				c0.005,0.274-0.021,0.453-0.049,0.632c-0.072,0.49-0.264,0.553-0.55,0.646c-0.296,0.14-0.874,0.055-1.409-0.025
				c-1.472-0.217-1.096,0.021-0.794-2.031c0.25-1.694,1.989-12.235,2.423-15.178c0.436-2.945,2.158-11.529,2.185-12.62
				c0.045-0.312,0.047-0.631,0.094-0.942c0.092-0.624,0.305-1.141,0.884-1.054c0.313,0.045,0.974,0.19,1.644,0.29
				c0.356,0.052,0.406,0.333,0.354,0.688c-0.047,0.313-0.196,0.701-0.248,1.058C369.599,139.215,369.304,140.903,368.896,143.349z"
				/>
			<path fill="#F68C57" d="M387.063,139.426c0.192-1.295,1.517-1.005,2.453-0.868c0.937,0.137,3.674,0.405,4.956,0.366
				c1.269,0.051,1.158,0.81,0.774,2.165c-0.187,0.656-0.78,4.67-1.398,8.862c-0.612,4.146-1.266,8.56-1.488,10.078
				c-0.56,3.788-1.633,13.198-1.336,11.191c-0.078,0.537-0.371,0.676-0.818,0.609c-0.134-0.021-0.312-0.046-0.527-0.124
				c-0.173-0.071-0.438-0.11-0.706-0.15c-0.982-0.146-2.48-0.184-3.462-0.33c-1.203-0.177-1.533-0.727-1.895-1.966
				c-0.448-1.295-1.206-4.186-2.209-6.66c-0.503-1.211-1.37-3.665-2.145-5.829l-1.415-3.989l-0.25,1.695
				c-0.152,1.023-0.355,2.089-0.462,3.12c-0.296,2.006-1.338,9.371-1.294,10.607c0.013,0.229-0.014,0.409-0.033,0.542
				c-0.099,0.667-0.41,0.622-0.94,0.5c-0.714-0.106-2.517-0.235-3.518-0.248c-0.957-0.005-1.043-0.335-0.787-1.756
				c0.203-1.383,0.902-7.658,1.566-13.074c0.56-3.79,1.514-8.707,2.001-12.006c0.19-1.293,0.304-2.371,0.306-3.009
				c0.016-0.407,0.018-0.726,0.063-1.039c0.186-1.247,0.746-1.347,1.363-1.211c0.708,0.151,1.198,0.223,2.672,0.122
				c0.503-0.016,0.771,0.023,0.993,0.056c0.49,0.073,0.744,0.202,2.039,0.392c1.873,0.276,2.447,2.867,3.082,4.418
				c0.291,0.818,0.668,1.649,0.985,2.286l0.517,1.126l0.362-2.453C386.703,141.56,386.92,140.088,387.063,139.426z"/>
			<path fill="#F68C57" d="M409.389,160.993c-0.745-0.202-0.796-0.481-0.757-0.748c0.061-0.401,0.26-0.828,0.614-1.687
				c0.47-1.024,0.77-0.889,1.254-0.772c0.393,0.104,1.833,0.544,3.59,0.985c1.884,0.506,4.31,1.366,5.685,1.615
				c0.663,0.144,0.834,0.532,0.907,0.953c0.013,0.231,0.017,0.505-0.066,0.766c-2.486,11.889-9.097,13.465-12.888,12.906
				c-2.809-0.415-11.927-4.086-9.944-17.509c2.286-15.472,11.338-15.685,14.55-15.211c6.643,0.981,8.311,6.97,8.467,7.447
				c0.15,0.525,0.287,1.457,0.405,1.884c0.032,0.095,0.02,0.184,0.014,0.229c-0.039,0.268-0.264,0.236-0.89,0.462
				c-0.766,0.25-2.504,0.905-3.454,1.175c-0.919,0.366-1.858,0.864-2.689,1.244c-0.401,0.258-0.689,0.353-0.933,0.454
				c-0.148,0.069-0.243,0.101-0.377,0.082c-0.141,0.024-0.236,0.056-0.37,0.037c-0.356-0.053-0.328-0.551-0.55-0.903
				c-0.253-0.446-0.535-1.626-1.649-1.791c-1.963-0.291-3.42,3.413-3.803,6c-0.367,2.497-1.179,6.75,1.809,7.191
				c1.428,0.211,2.307-0.798,2.827-1.86c0.321-0.636,0.517-1.336,0.643-2.183l-0.867-0.312
				C410.394,161.279,409.872,161.11,409.389,160.993z"/>
		</g>
	</g>
	<ellipse fill="#5E5E5E" cx="248.533" cy="446.055" rx="209.33" ry="3.673"/>
	<g>
		<path fill="#D3ACAC" d="M410.349,281.856l1.221-0.422c-1.926,12.732-16.035,17.174-16.035,17.174l-1.459-2.447
			C409.428,293.146,410.349,281.856,410.349,281.856z"/>
		<path fill="#BF8F8F" d="M271.753,285.821c6.381,11.616,23.107,14.087,26.517,3.637c3.407-10.454-11.523-39.499-7.746-43.725
			c3.773-4.227,6.392-7.789,3.176-11.18c-3.216-3.389-30.38-15.741-34.428,6.233C255.227,262.763,266.605,276.454,271.753,285.821z"
			/>
		<path fill="#BF8F8F" d="M381.899,446.081H361.69c0,0-3.776-7.187,9.699-60.271c2.021-7.96-21.421-71.264-7.274-77.326
			c14.145-6.065,17.784,1.518,20.613,6.443c2.827,4.928,7.68,48.52,10.507,68.99C396.397,392.32,390.386,425.235,381.899,446.081z"
			/>
		<path fill="#BF8F8F" d="M287.775,446.081H267.57c0,0-0.66-6.637,10.96-60.605c5.965-27.701-10.343-66.072,3.93-72.174
			c14.27-6.098,17.716-2.968,20.474,6.479c5.159,17.663,0.136,63.994,0.13,64.931C303.022,393.224,296.701,425.116,287.775,446.081z
			"/>
		<path fill="#E5C1C1" d="M400.136,325.538c-16.167-1.513-33.547-20.089-65.477,24.64c0,0-53.173,13.629-59.411-39.042
			c-1.213-10.233,12.934-18.572,6.87-40.181l13.744-5.686c0,0,5.693,29.073,18.186,32.979
			c31.523,9.854,107.508-25.398,93.359,18.193L400.136,325.538z"/>
		<path fill="#EFD0D0" d="M315.067,297.31c20.093,6.281,57.229-4.822,78.595-3.093c-8.013,4.943-27.082,15.462-45.579,16.831
			c-27.052,2-41.63-1.846-48.807-12.919c-3.302-5.095-0.103-11.343,2.672-13.838C304.867,290.691,309.892,295.692,315.067,297.31z"
			/>
		<polygon fill="#D3ACAC" points="308.453,318.738 298.968,328.478 309.734,334.118 		"/>
		<polygon fill="#D3ACAC" points="392.033,309.689 382.431,317.354 392.652,320.817 		"/>
		<path fill="#D3ACAC" d="M282.118,270.955l12.003-4.968c-0.354,11.176-13.504,42.703-3.149,53.88
			c10.704,11.549,31.783,13.841,51.473,5.227c16.564-7.246,54.175-10.516,66.145-13.112c-0.282,1.389-0.662,2.863-1.182,4.46
			l-7.271,9.097c-15.757-0.135-34.326-16.3-66.612,26.318c0,0-52.613,11.452-58.855-41.218
			C273.457,300.404,288.182,292.563,282.118,270.955z"/>
		<path fill="#F9DEDE" d="M411.425,446.081h-20.208c0,0-3.774-7.187,9.701-60.271c2.02-7.96-21.421-71.264-7.272-77.326
			c14.141-6.065,17.779,1.518,20.609,6.443c2.831,4.928,7.68,48.52,10.507,68.99C425.926,392.32,419.912,425.232,411.425,446.081z"
			/>
		<path fill="#EFD0D0" d="M390.743,311.346c-0.488,8.433,0.785,19.258,3.969,30.683c6.61,23.727,18.938,41.03,27.534,38.636
			c0.695-0.196,1.345-0.526,1.948-0.96c0.198,1.489,0.388,2.899,0.567,4.213c1.164,8.403-4.85,41.315-13.337,62.164h-20.208
			c0,0-3.774-7.187,9.701-60.271C402.759,378.552,383.435,325.275,390.743,311.346z"/>
		<path fill="#E2BABA" d="M392.781,308.483c5.056-2.012,8.858-2.518,11.806-2.123c-2.22,0.257-4.794,0.915-7.824,2.123
			c-15.247,6.063,10.014,69.366,7.836,77.326c-14.521,53.085-10.451,60.271-10.451,60.271h-3.978c0,0-4.07-7.187,10.451-60.271
			C402.799,377.85,377.539,314.546,392.781,308.483z"/>
		<path fill="#F9DEDE" d="M320.918,446.081h-20.209c0,0-0.799-6.601,9.7-60.271c5.391-27.542-11.72-65.702,2.426-71.766
			c14.146-6.063,17.656-2.95,20.611,6.444c5.528,17.56,1.468,63.633,1.483,64.564C335.063,393.521,329.406,425.235,320.918,446.081z
			"/>
		<path fill="#EFD0D0" d="M310.409,385.81c5.194-26.554-10.506-62.958,1.028-70.979c-0.673,8.278-0.369,17.735,1.092,27.669
			c3.482,23.691,12.467,42.93,21.94,49.055c-1.5,12.86-6.564,37.367-13.552,54.526h-20.209
			C300.709,446.081,299.91,439.48,310.409,385.81z"/>
		<path fill="#E2BABA" d="M309.587,385.81c5.559-28.4-12.318-65.335,3.222-71.841c-6.501,12.028,7.397,47.45,2.627,71.841
			c-10.501,53.671-9.702,60.271-9.702,60.271h-5.846C299.888,446.081,299.091,439.48,309.587,385.81z"/>
		<path fill="#F2D1D1" d="M301.249,261.984c-11.048,8.341-41.015,24.018-51.393,25.531c-2.925,0.429-4.114-3.291-4.114-3.291
			s17.783-21.986,18.862-28.56c1.08-6.568-7.956-11.226,9.698-17.69C307.446,225.846,304.634,259.43,301.249,261.984z"/>
		<path fill="#E5C1C1" d="M257.558,285.225c12.265-7.513,19.953-17.279,17.172-21.822c-1.672-2.729-6.761-2.929-13.208-1.035
			c1.65-2.758,2.829-5.157,3.083-6.702c1.08-6.568-7.956-11.226,9.698-17.69c33.144-12.129,30.331,21.455,26.946,24.01
			c-9.034,6.822-30.721,18.546-43.997,23.422C257.353,285.341,257.453,285.289,257.558,285.225z"/>
		<path fill="#D3ACAC" d="M284.923,248.604c-0.77,0.311-11.997,4.771-21.532,0.153c0,0-1.999-5.228,1.383-9.073
			c3.387-3.844,21.532,1.692,21.532,1.692L284.923,248.604z"/>
		<path fill="#D3ACAC" d="M317.521,292.898c-3.584,12.809-17.478,17.314-26.08,10.582c-10.725-8.394-0.83-39.955-3.068-43.844
			c-2.879-4.988-11.292-6.723-5.298-15.187c2.756-3.881,26.246-17.82,35.871,2.089C328.571,266.441,320.414,282.566,317.521,292.898
			z"/>
		<path fill="#D3ACAC" d="M246.58,285.129c15.349,2.234,43.998-18.758,55.184-26.912c0.336-0.246,0.641-0.823,0.884-1.635
			c-0.306,2.8-1.053,6.908-1.808,7.48c-11.049,8.338-40.989,22.016-51.367,23.531c-2.041,0.296-3.232-1.414-3.77-2.485
			C245.978,285.154,246.27,285.084,246.58,285.129z"/>
		<path fill="#EFD0D0" d="M274.303,247.33c-8.081,0.503-22.363-4.047-25.326-14.405c-2.963-10.36,30.445-37.654,49.848-30.073
			c19.397,7.58,18.32,35.633,2.693,36.896S282.389,246.825,274.303,247.33z"/>
		<path fill="#E7C4C4" d="M251.477,224.621c0.008,0.462,0.047,0.914,0.166,1.327c2.962,10.364,17.245,14.91,25.329,14.408
			c8.081-0.504,11.587-6.319,27.213-7.582c3.877-0.315,6.857-2.28,8.855-5.174c-1.028,6.422-5.004,11.621-11.522,12.147
			c-15.627,1.263-18.354,8.25-26.44,8.757c-8.081,0.501-23.138-5.222-26.101-15.58C248.354,230.744,249.352,227.815,251.477,224.621
			z"/>
		<path fill="#EFD0D0" d="M320.647,289.781c-2.672,12.848-16.243,17.367-25.327,10.613c-11.32-8.417-1.079-40.938-6.199-43.973
			c-5.115-3.031-8.865-5.741-6.732-9.854c2.13-4.11,25.326-23.247,36.374-3.285C329.81,263.246,322.801,279.42,320.647,289.781z"/>
		<path fill="#E7C4C4" d="M280.82,245.836c0.487-0.938,3.644-1.927,5.926-3.785c0.407,2.63,3.467,4.722,7.298,6.991
			c5.118,3.031-5.123,35.551,6.196,43.969c6.112,4.547,14.244,3.969,19.733-0.801c-3.775,10.96-16.929,14.689-25.412,8.38
			c-11.324-8.418-0.32-41.133-5.44-44.168C284.006,253.391,278.689,249.951,280.82,245.836z"/>
		<path fill="#967271" d="M250.326,280.18c0.971,1.822-0.973,5.506-2.697,6.318c-1.078,0.505-3.637-1.393-3.502-5.308
			C244.196,279.152,249.383,278.41,250.326,280.18z"/>
		<path fill="#755252" d="M244.646,280.186c0.092,2.069,2.369,3.72,5.204,3.781c-0.579,1.147-1.415,2.152-2.222,2.531
			c-1.078,0.505-3.637-1.393-3.502-5.308C244.141,280.809,244.334,280.473,244.646,280.186z"/>
		<path fill="#513131" d="M247.398,285.572c0.797,0.023,3.402-2.861,1.977-3.213c-1.428-0.354-3.004,0.318-2.914,0.987
			C246.549,284.012,246.613,285.547,247.398,285.572z"/>
		<path fill="#EFD0D0" d="M405.433,293.42c13.532,6.716,33.682-6.822,38.261-27.041c4.579-20.216-1.348-33.861-17.515-33.608
			c-16.168,0.249-36.642,14.909-18.861,33.862C407.317,266.633,391.69,286.598,405.433,293.42z"/>
		<path fill="#D3ACAC" d="M408.883,304.896l-14.61-10.765C394.272,294.132,408.422,294.132,408.883,304.896z"/>
		<path fill="#E0B6B6" d="M407.259,285.648c12.852,4.146,29.026-10.313,36.127-32.299c0.52-1.621,0.973-3.237,1.369-4.844
			c0.822,5.032,0.478,11.076-1.062,17.873c-4.579,20.219-24.729,33.757-38.261,27.041c-5.576-2.771-6.313-7.701-5.228-12.586
			C402.165,283.105,404.521,284.762,407.259,285.648z"/>
		<path fill="#E0B6B6" d="M401.449,276.901c2.22-5.596,5.868-10.269,5.868-10.269c-3.389-3.615-5.383-7.07-6.285-10.305
			c4.775,8.477,17.388,6.734,17.388,6.734C412.514,266.072,404.865,273.44,401.449,276.901z"/>
		<path fill="#F9DEDE" d="M407.755,244.606c-0.635-3.511,5.237-8.921,12.717-10.46c7.477-1.54,13.725,1.376,14.361,4.886
			c0.637,3.512-4.912,7.601-12.389,9.143C414.967,249.715,408.393,248.117,407.755,244.606z"/>
		<path fill="#8A6161" d="M278.155,256.911c1.615,0.305,1.54-3.18-0.204-2.874C276.207,254.347,274.36,256.193,278.155,256.911z"/>
		<path fill="#8A6161" d="M266.895,256.296c-1.451,0.306-1.383-3.18,0.182-2.872C268.643,253.731,270.301,255.58,266.895,256.296z"
			/>
		<path fill="#F9DEDE" d="M272.484,211.836c0-4.95,8.149-10.448,17.819-10.448c9.672,0,17.206,5.498,17.206,10.448
			c0,4.951-8.223,4.523-17.894,4.523S272.484,216.787,272.484,211.836z"/>
		<path fill="#F9DEDE" d="M301.406,234.902c4.075-2.811,13.229,0.775,18.72,8.734c5.489,7.962,8.064,34.399-0.343,40.55
			c-3.995,2.923-6.882-24.652-12.372-32.611C301.917,243.614,297.333,237.715,301.406,234.902z"/>
		<path fill="#F9DEDE" d="M316.034,285.432c0-1.834,1.161-3.318,2.593-3.318c1.429,0,2.591,1.484,2.591,3.318
			c0,1.828-1.162,3.316-2.591,3.316C317.195,288.748,316.034,287.26,316.034,285.432z"/>
		<ellipse fill="#F9DEDE" cx="320.193" cy="280.441" rx="2.591" ry="3.316"/>
		<path fill="#F9DEDE" d="M313.244,281.826c0-1.832,1.16-3.317,2.593-3.317c1.429,0,2.594,1.485,2.594,3.317
			c0,1.831-1.165,3.316-2.594,3.316C314.404,285.143,313.244,283.657,313.244,281.826z"/>
		<ellipse fill="#F9DEDE" cx="312.298" cy="273.827" rx="2.592" ry="3.317"/>
		<ellipse fill="#F9DEDE" cx="315.529" cy="276.442" rx="2.592" ry="3.315"/>
		<ellipse fill="#F9DEDE" cx="309.683" cy="265.678" rx="2.592" ry="3.318"/>
		<path fill="#F9DEDE" d="M303.751,211.424c-0.698-1.696-0.43-3.413,0.596-3.839c1.024-0.422,2.423,0.606,3.118,2.304
			c0.698,1.693,0.432,3.41-0.595,3.835C305.843,214.147,304.448,213.117,303.751,211.424z"/>
		<path fill="#F9DEDE" d="M305.98,214.922c-0.697-1.695-0.427-3.412,0.596-3.836c1.023-0.422,2.423,0.604,3.119,2.301
			c0.698,1.694,0.432,3.411-0.596,3.835C308.074,217.648,306.678,216.615,305.98,214.922z"/>
		<path fill="#F9DEDE" d="M303.661,217.234c-1.825-0.164-3.222-1.197-3.126-2.301c0.1-1.105,1.657-1.867,3.481-1.706
			c1.824,0.166,3.225,1.194,3.125,2.303C307.047,216.637,305.487,217.397,303.661,217.234z"/>
		<path fill="#F9DEDE" d="M298.434,219.231c-1.823-0.164-3.224-1.193-3.129-2.298c0.101-1.108,1.658-1.869,3.481-1.706
			c1.825,0.166,3.225,1.195,3.128,2.301C301.815,218.633,300.255,219.396,298.434,219.231z"/>
		<path fill="#F9DEDE" d="M292.896,218.618c-1.825-0.163-3.226-1.196-3.127-2.301c0.096-1.105,1.655-1.867,3.481-1.705
			c1.826,0.164,3.224,1.194,3.125,2.303C296.278,218.021,294.72,218.781,292.896,218.618z"/>
		<path fill="#F9DEDE" d="M282.9,219.694c-1.825-0.164-3.225-1.195-3.127-2.3c0.097-1.106,1.656-1.867,3.48-1.706
			c1.825,0.166,3.224,1.195,3.126,2.301C286.283,219.095,284.723,219.859,282.9,219.694z"/>
		<path fill="#F9DEDE" d="M287.513,218.771c-1.824-0.162-3.223-1.195-3.129-2.3c0.101-1.107,1.658-1.871,3.485-1.708
			c1.823,0.167,3.222,1.195,3.125,2.305C290.896,218.173,289.337,218.938,287.513,218.771z"/>
		<path fill="#F9DEDE" d="M276.899,218.618c-1.822-0.163-3.223-1.196-3.126-2.301c0.099-1.105,1.656-1.867,3.482-1.705
			c1.822,0.164,3.224,1.194,3.126,2.303C280.285,218.021,278.727,218.781,276.899,218.618z"/>
		<path fill="#F9DEDE" d="M270.903,216.463c-1.822-0.162-3.224-1.192-3.129-2.3c0.099-1.107,1.657-1.868,3.484-1.705
			c1.823,0.164,3.224,1.195,3.125,2.302C274.286,215.865,272.726,216.628,270.903,216.463z"/>
		<path fill="#F9DEDE" d="M272.111,212.648c-1.712,0.653-3.423,0.343-3.822-0.692c-0.396-1.04,0.667-2.405,2.377-3.061
			c1.711-0.655,3.422-0.346,3.819,0.689C274.886,210.623,273.82,211.989,272.111,212.648z"/>
		<path fill="#F9DEDE" d="M277.712,223.237c-1.826-0.129-3.25-1.129-3.174-2.234c0.076-1.11,1.615-1.906,3.443-1.781
			c1.83,0.127,3.25,1.128,3.177,2.239C281.084,222.569,279.537,223.363,277.712,223.237z"/>
		<path fill="#F9DEDE" d="M290.49,225.383c-1.823,0.166-3.386-0.596-3.487-1.704c-0.104-1.104,1.291-2.134,3.117-2.3
			c1.825-0.166,3.386,0.593,3.488,1.702C293.713,224.186,292.314,225.216,290.49,225.383z"/>
		
			<ellipse transform="matrix(0.092 0.9958 -0.9958 0.092 480.8236 -90.9921)" fill="#F9DEDE" cx="290.305" cy="218.152" rx="2.011" ry="3.316"/>
		<path fill="#F9DEDE" d="M297.104,220.923c-1.825,0.166-3.387-0.598-3.488-1.701c-0.102-1.106,1.292-2.135,3.118-2.303
			c1.825-0.164,3.386,0.595,3.488,1.704C300.325,219.729,298.929,220.757,297.104,220.923z"/>
		<path fill="#F9DEDE" d="M304.024,226c-1.825,0.164-3.385-0.6-3.489-1.704c-0.102-1.104,1.293-2.134,3.119-2.301
			c1.824-0.166,3.386,0.595,3.487,1.701C307.246,224.8,305.849,225.832,304.024,226z"/>
		<path fill="#F9DEDE" d="M304.794,220c-1.825,0.166-3.385-0.599-3.49-1.703c-0.1-1.104,1.293-2.135,3.122-2.301
			c1.822-0.165,3.383,0.596,3.485,1.704C308.015,218.805,306.618,219.835,304.794,220z"/>
		<path fill="#F9DEDE" d="M267.113,221.229c-1.824,0.168-3.385-0.595-3.489-1.7c-0.103-1.105,1.291-2.135,3.118-2.304
			c1.827-0.164,3.386,0.598,3.487,1.705C270.334,220.036,268.937,221.065,267.113,221.229z"/>
		<path fill="#F9DEDE" d="M271.883,218.923c-1.825,0.167-3.389-0.597-3.49-1.701c-0.104-1.106,1.292-2.135,3.117-2.302
			c1.826-0.164,3.386,0.596,3.49,1.704C275.101,217.726,273.707,218.759,271.883,218.923z"/>
		<path fill="#F9DEDE" d="M283.26,222.156c-1.822,0.163-3.382-0.6-3.486-1.704c-0.101-1.105,1.292-2.136,3.119-2.303
			c1.824-0.164,3.385,0.596,3.487,1.701C286.482,220.958,285.088,221.988,283.26,222.156z"/>
		<path fill="#F9DEDE" d="M288.646,222.156c-1.823,0.163-3.386-0.6-3.49-1.704c-0.103-1.105,1.294-2.136,3.12-2.303
			c1.827-0.164,3.386,0.596,3.489,1.701C291.866,220.958,290.468,221.988,288.646,222.156z"/>
		<path fill="#F9DEDE" d="M285.722,219.845c-1.823,0.169-3.383-0.595-3.487-1.699c-0.104-1.106,1.292-2.136,3.119-2.304
			c1.824-0.163,3.386,0.597,3.489,1.704C288.944,218.651,287.55,219.68,285.722,219.845z"/>
		
			<ellipse transform="matrix(0.0913 0.9958 -0.9958 0.0913 492.0828 -99.8714)" fill="#F9DEDE" cx="300.764" cy="219.69" rx="2.011" ry="3.317"/>
		<path fill="#F9DEDE" d="M268.188,229.538c-1.824,0.165-3.385-0.598-3.489-1.704c-0.101-1.105,1.294-2.133,3.12-2.301
			c1.822-0.166,3.386,0.599,3.489,1.706C271.412,228.341,270.014,229.37,268.188,229.538z"/>
		<ellipse fill="#F9DEDE" cx="313.067" cy="269.061" rx="2.592" ry="3.32"/>
		<ellipse fill="#F9DEDE" cx="309.838" cy="259.522" rx="2.592" ry="3.315"/>
		<path fill="#F9DEDE" d="M309.245,263.525c0-1.836,1.16-3.318,2.592-3.318c1.43,0,2.593,1.482,2.593,3.318
			c0,1.83-1.163,3.315-2.593,3.315C310.405,266.841,309.245,265.355,309.245,263.525z"/>
		<path fill="#F9DEDE" d="M302.634,256.449c0-1.832,1.157-3.318,2.593-3.318c1.43,0,2.588,1.486,2.588,3.318
			c0,1.831-1.158,3.314-2.588,3.314C303.791,259.764,302.634,258.28,302.634,256.449z"/>
		<ellipse fill="#F9DEDE" cx="308.3" cy="255.064" rx="2.591" ry="3.316"/>
		<path fill="#F9DEDE" d="M299.864,248.759c0-1.832,1.158-3.318,2.592-3.318c1.431,0,2.589,1.487,2.589,3.318
			s-1.158,3.316-2.589,3.316C301.022,252.075,299.864,250.591,299.864,248.759z"/>
		<ellipse fill="#F9DEDE" cx="306.146" cy="250.604" rx="2.592" ry="3.319"/>
		<ellipse fill="#F9DEDE" cx="300.762" cy="242.914" rx="2.591" ry="3.317"/>
		<path fill="#F9DEDE" d="M297.711,238.301c0-1.833,1.161-3.318,2.593-3.318c1.428,0,2.592,1.485,2.592,3.318
			s-1.164,3.314-2.592,3.314C298.872,241.615,297.711,240.134,297.711,238.301z"/>
		<path fill="#F9DEDE" d="M404.992,243.324c1.124-1.136,2.713-1.38,3.557-0.546c0.838,0.833,0.61,2.425-0.514,3.559
			c-1.12,1.136-2.715,1.379-3.553,0.547C403.642,246.049,403.871,244.457,404.992,243.324z"/>
		<path fill="#F9DEDE" d="M407.301,239.786c1.121-1.134,2.712-1.379,3.553-0.546c0.843,0.832,0.611,2.427-0.512,3.559
			c-1.119,1.133-2.713,1.377-3.555,0.545C405.948,242.513,406.177,240.918,407.301,239.786z"/>
		<path fill="#F9DEDE" d="M407.913,245.168c1.124-1.133,2.718-1.377,3.556-0.546c0.841,0.833,0.613,2.427-0.51,3.561
			c-1.123,1.131-2.716,1.379-3.553,0.544C406.563,247.895,406.792,246.303,407.913,245.168z"/>
		
			<ellipse transform="matrix(-0.7106 -0.7036 0.7036 -0.7106 530.6036 714.3521)" fill="#F9DEDE" cx="412.204" cy="248.061" rx="2.141" ry="2.89"/>
		<path fill="#F9DEDE" d="M408.686,252.856c1.122-1.134,2.712-1.376,3.553-0.542c0.841,0.83,0.613,2.426-0.513,3.557
			c-1.12,1.135-2.712,1.379-3.554,0.545C407.331,255.587,407.559,253.991,408.686,252.856z"/>
		
			<ellipse transform="matrix(-0.7107 -0.7034 0.7034 -0.7107 534.8157 718.4952)" fill="#F9DEDE" cx="415.128" cy="249.291" rx="2.141" ry="2.888"/>
		<path fill="#F9DEDE" d="M421.297,252.242c1.122-1.133,2.712-1.378,3.551-0.544c0.843,0.832,0.614,2.422-0.509,3.56
			c-1.125,1.131-2.713,1.377-3.556,0.545C419.942,254.971,420.173,253.377,421.297,252.242z"/>
		<path fill="#F9DEDE" d="M417.142,247.631c1.124-1.136,2.716-1.379,3.558-0.546c0.838,0.833,0.608,2.425-0.514,3.56
			s-2.713,1.375-3.554,0.543C415.79,250.354,416.022,248.764,417.142,247.631z"/>
		
			<ellipse transform="matrix(-0.7107 -0.7035 0.7035 -0.7107 551.1708 720.6057)" fill="#F9DEDE" cx="423.74" cy="246.983" rx="2.142" ry="2.889"/>
		
			<ellipse transform="matrix(-0.7107 -0.7034 0.7034 -0.7107 567.3015 735.235)" fill="#F9DEDE" cx="434.813" cy="250.982" rx="2.141" ry="2.891"/>
		<path fill="#F9DEDE" d="M427.446,244.553c1.122-1.131,2.717-1.379,3.555-0.546c0.84,0.835,0.613,2.427-0.51,3.56
			c-1.123,1.136-2.715,1.378-3.557,0.546C426.097,247.28,426.324,245.688,427.446,244.553z"/>
		<path fill="#F9DEDE" d="M432.213,241.479c1.126-1.136,2.716-1.381,3.557-0.546c0.841,0.832,0.611,2.423-0.511,3.558
			c-1.123,1.135-2.714,1.379-3.555,0.544C430.862,244.205,431.094,242.609,432.213,241.479z"/>
		
			<ellipse transform="matrix(-0.7106 -0.7036 0.7036 -0.7106 575.8798 714.2086)" fill="#F9DEDE" cx="434.813" cy="238.678" rx="2.142" ry="2.889"/>
		
			<ellipse transform="matrix(-0.7104 -0.7038 0.7038 -0.7104 552.4146 726.8081)" fill="#F9DEDE" cx="425.739" cy="249.751" rx="2.14" ry="2.889"/>
		<path fill="#F9DEDE" d="M431.292,244.553c1.122-1.131,2.712-1.379,3.557-0.546c0.837,0.835,0.609,2.427-0.514,3.56
			c-1.123,1.136-2.714,1.378-3.554,0.546C429.94,247.28,430.17,245.688,431.292,244.553z"/>
		<path fill="#F9DEDE" d="M414.033,235.472c1.489-0.57,3.258-0.562,3.946,0.018c0.69,0.581,0.043,1.509-1.445,2.078
			c-1.491,0.569-3.26,0.561-3.951-0.018S412.543,236.041,414.033,235.472z"/>
		<path fill="#F9DEDE" d="M409.785,237.813c1.288-0.932,2.997-1.379,3.812-1c0.819,0.382,0.437,1.445-0.855,2.375
			c-1.29,0.931-3.001,1.379-3.817,0.999C408.106,239.806,408.489,238.743,409.785,237.813z"/>
		<path fill="#F9DEDE" d="M417.625,234.479c1.438-0.683,3.201-0.809,3.935-0.284c0.733,0.524,0.159,1.5-1.279,2.175
			c-1.441,0.683-3.201,0.807-3.936,0.285C415.612,236.13,416.183,235.156,417.625,234.479z"/>
		<path fill="#F9DEDE" d="M424.942,233.184c1.551-0.347,3.299-0.082,3.896,0.59c0.599,0.672-0.173,1.495-1.725,1.84
			c-1.555,0.346-3.301,0.081-3.904-0.587C422.61,234.353,423.386,233.527,424.942,233.184z"/>
		<path fill="#F9DEDE" d="M430.522,233.476c1.584-0.164,3.286,0.301,3.806,1.036c0.518,0.74-0.344,1.469-1.926,1.629
			c-1.587,0.165-3.289-0.301-3.81-1.034C428.073,234.366,428.938,233.638,430.522,233.476z"/>
		<ellipse fill="#F9DEDE" cx="302.764" cy="242.914" rx="2.591" ry="3.317"/>
	</g>
	<g>
		<g>
			<polygon fill="#AF6446" points="79.185,233.495 126.451,233.495 127.766,238.329 80.495,238.329 			"/>
			<polygon fill="#AF6446" points="75.238,218.26 122.509,218.257 123.819,223.095 76.549,223.095 			"/>
			<polygon fill="#AF6446" points="66.787,184.572 114.056,184.572 117.729,202.318 70.46,202.318 			"/>
			<polygon fill="#AF6446" points="115.507,184.572 153.546,320.794 141.711,326.944 111.278,184.572 			"/>
			<polygon fill="#AF6446" points="67.747,184.572 105.784,320.794 93.95,326.944 63.52,184.572 			"/>
		</g>
		<g>
			<polygon fill="#824731" points="113.117,319.657 113.117,445.479 117.393,445.479 123.374,319.657 			"/>
			<polygon fill="#824731" points="179.772,319.657 179.772,445.479 175.5,445.479 169.52,319.657 			"/>
			<rect x="93.182" y="314.202" fill="#AF6446" width="108.233" height="20.454"/>
			<polygon fill="#AF6446" points="93.182,317.614 86.342,445.479 90.614,445.479 103.431,317.614 			"/>
			<polygon fill="#AF6446" points="202.562,317.614 209.391,445.479 205.122,445.479 192.307,317.614 			"/>
		</g>
	</g>
	<g>
		<path fill="#B67041" d="M137.791,90.432c4.965-5.389-2.938-28.444-15.436-27.296c-12.497,1.155-18.511,6.673-18.031,25.96
			c0.228,9.273-5.882,33.853-18.013,36.069c6.809,3.535,24.317,4.136,33.874-9.5C136.896,91.831,137.791,90.432,137.791,90.432z"/>
		<path fill="#944B22" d="M129.344,87.21c-10.738-0.457-19.814-5.005-23.954-11.207c-1.778,4.525-2.663,10.253-2.491,17.271
			c0.231,9.265-4.456,29.675-16.586,31.892c6.809,3.535,24.317,4.136,33.874-9.5c16.709-23.834,17.605-25.233,17.605-25.233
			c0.834-0.909,1.299-2.33,1.444-4.043C136.147,87.049,132.82,87.357,129.344,87.21z"/>
		<path fill="#F9AD86" d="M153.494,197.633c1.502,6.209,12.549,39.436,16.802,38.622c10.007-1.886-8.572-43.958-8.572-43.958
			L153.494,197.633z"/>
		<path fill="#FDCD9D" d="M169.88,236.137c6.748,0.972,51.443-23.298,46.965-23.176c-5.656,0.158-45.877,11.688-47.518,15.063
			C167.679,231.403,167.348,235.772,169.88,236.137z"/>
		<path fill="#DD9564" d="M210.672,324.547c0,0,0.125-27.404-7.47-31.269c-11.459,0-17.747,31.269-17.747,31.269H210.672z"/>
		<path fill="#FDCD9D" d="M230.297,314.738c-1.387-6.434-68.846-22.773-82.717-4.55c-13.871,18.213,71.042,12.822,73.732,15.228
			c5.654,5.062-0.601,12.731,3.333,30.559c2.572,11.637,15.926,38.202,28.256,84.755h4.111
			c-9.758-43.262-9.937-58.355-15.154-84.247C238.517,339.911,236.85,345.099,230.297,314.738z"/>
		<path fill="#F9AD86" d="M216.827,308.166c-20.747-6.202-59.159-11.228-69.248,2.022c-11.674,15.326,46.61,13.939,66.975,14.544
			C210.179,318.214,212.47,311.987,216.827,308.166z"/>
		<path fill="#FEE8A9" d="M189.912,324.547c0,0-2.156-24.253,13.459-31.393c0,0-54.434-9.563-60.125-4.817
			c-9.964,8.306-17.605,29.729-9.634,36.21C156.032,324.547,189.912,324.547,189.912,324.547z"/>
		<path fill="#FFD298" d="M195.788,299.435c-8.94-1.283-35.306-7.451-34.559-11.958c-8.842-0.709-16.095-0.713-17.983,0.86
			c-9.964,8.306-17.605,29.729-9.634,36.21c22.42,0,56.3,0,56.3,0S188.568,309.306,195.788,299.435z"/>
		<path fill="#FDCD9D" d="M208.783,216.576c-0.305-1.74,5.583-2.587,5.406-9.037c-0.131-5.161,4.932-4.433,8.95-3.035
			c8.424,3.008,5.469,1.298,5.01,10.671c-0.161,3.294-2.292,3.055-9.419,1.972C213.076,216.281,209.087,218.413,208.783,216.576z"/>
		<path fill="#DD9564" d="M190.245,324.547c0,0-0.375-27.47-7.971-31.329c-11.46,0-22.918,31.329-22.918,31.329H190.245z"/>
		<path fill="#FDCD9D" d="M207.182,312.718c-2.57-6.074-72.441-18.66-86.313-0.443c-13.873,18.216,73.146,9.922,72.634,13.468
			c-0.517,3.541-8.416,20.117-14.07,30.232c-5.652,10.117-0.51,37.699-12.327,84.248h4.111
			C174.299,419.476,209.75,318.785,207.182,312.718z"/>
		<path fill="#F9AD86" d="M184.026,324.721c-3.649-5.609-0.94-17.152,5.438-18.381c-20.767-5.473-57.907-8.104-68.595,5.935
			C109.899,326.677,161.981,324.505,184.026,324.721z"/>
		<path fill="#FEE8A9" d="M161.347,324.547c0,0,7.971-18.934,20.927-31.393c0,0-61.574-14.873-67.263-10.135
			c-9.966,8.309-17.939,35.047-9.966,41.527C127.466,324.547,161.347,324.547,161.347,324.547z"/>
		<path fill="#FFD298" d="M120.292,314.771c0,0,26.113-22.965,43.141-27.217l-34.626-1.104l-19.649,13.751L120.292,314.771z"/>
		<path fill="#FFD298" d="M114.564,297.58c0-2.869-1.492-7.786-1.611-12.549c-8.947,9.949-15.323,33.487-7.908,39.516
			c22.421,0,56.302,0,56.302,0s3.712-8.805,10.18-18.354C161.953,306.756,114.564,306.714,114.564,297.58z"/>
		<path fill="#E8E5C8" d="M156.209,230.249c5.623-0.544,19.871-8.219,20.396-11.254c0.52-3.039-18.33-52.963-23.116-48.852
			C148.699,174.252,145.805,207.016,156.209,230.249z"/>
		<path fill="#DCD4B2" d="M157.458,176.259c-2.417-4.117-2.779-7.14-3.97-6.116c-4.79,4.109-7.684,36.873,2.721,60.105
			c3.191-0.306,9.155-2.916,13.815-5.662C160.933,207.788,156.364,186.827,157.458,176.259z"/>
		<path fill="#F8F4D9" d="M156.25,226.746c0,0,12.327-3.941,19.541-12.523l3.016,3.892c-5.213,7.038-12.238,10.446-20.644,12.847
			L156.25,226.746z"/>
		<path fill="#80D0D8" d="M104.715,298.132c14.615,6.627,36.878-10.674,58.799-10.378c0,0-5.112-28.133-3.993-47.442
			c0.998-17.159,12.955-24.392,12.955-24.392s-12.575-40.42-16.278-45.171c-3.986-5.12-25.569-9.148-28.894-4.217
			c-7.309,10.842-9.306,36.437-8.973,68.662C118.657,266.756,104.715,298.132,104.715,298.132z"/>
		<path fill="#D0EDF3" d="M131.754,164.471c0.742,4.261,9.304,23.529,19.605,22.917c10.301-0.611,0.396-19.687,0.396-19.687
			C143.869,163.65,137.973,163.163,131.754,164.471z"/>
		<path fill="#5FC5C7" d="M172.042,216.208c-0.883,0.096-1.803,0.168-2.792,0.168c-13.745,0-25.214,0.652-28-9.664
			c-2.203-8.161-6.55-39.134-9.987-42.121c-1.859,0.33-3.293,0.946-3.958,1.94c-7.309,10.842-9.306,36.437-8.973,68.662
			c0.325,31.563-13.617,62.938-13.617,62.938c4.609,2.092,9.984,1.795,15.866,0.433c0.097-0.98,0.204-1.971,0.368-3.03
			c3.184-20.983,18.519-58.699,28.243-57.222c9.544,1.448,9.064,29.083,12.342,49.469c0.659-0.027,1.321-0.029,1.981-0.027
			c0,0-5.112-28.133-3.993-47.442C160.408,225.065,169.928,217.671,172.042,216.208z"/>
		<path fill="#FDCD9D" d="M122.652,212.602c0.997,6.311,9.334,40.49,13.619,39.861c9.816-1.455-4.627-50.191-4.627-50.191
			L122.652,212.602z"/>
		<path fill="#F9AD86" d="M137.931,228.378c-2.369-12.879-6.287-26.106-6.287-26.106l-8.992,10.331
			c0.676,4.288,4.747,21.449,8.63,31.809C131.439,236.506,134.229,229.982,137.931,228.378z"/>
		<path fill="#E8E5C8" d="M117.672,225.707c5.637,0.355,20.289-2.979,21.286-5.893c0.994-2.914-5.543-57.301-10.923-54.003
			C122.658,169.108,111.084,201.119,117.672,225.707z"/>
		<path fill="#DCD4B2" d="M124.06,195.155c-1.242-8.539-1.25-16.576-0.276-23.249c-5.387,11.118-11.231,34.695-6.111,53.801
			c3.55,0.221,10.673-1.017,15.714-2.696C129.193,216.399,125.708,206.515,124.06,195.155z"/>
		<path fill="#6FBFE0" d="M251.85,445.479h21.355c0,0-17.17-8.239-18.845-7.677C252.687,438.356,251.85,445.479,251.85,445.479z"/>
		<path fill="#6FBFE0" d="M162.645,445.479h24.71c0,0-17.172-8.236-18.847-7.677C166.831,438.356,162.645,445.479,162.645,445.479z"
			/>
		<path fill="#EF9070" d="M133.632,164.185c0.722,3.793,8.122,20.578,16.606,20.035c8.483-0.543-0.181-17.508-0.181-17.508
			C143.163,162.763,138.661,162.575,133.632,164.185z"/>
		<path fill="#EF9070" d="M147.59,145.896l-12.652-5.401l-1.4,23.646c3.524,4.876,14.488,4.467,16.113,2.709L147.59,145.896z"/>
		<path fill="#B67041" d="M136.208,149.619c-9.592-9.602-35.102-41.62-2.076-68.072c34.609-27.72,72.149,19.475,51.863,45.528
			C165.711,153.132,136.208,149.619,136.208,149.619z"/>
		<path fill="#944B22" d="M174.774,109.793c-22.007-0.933-39.775-12.373-42.718-26.502c-34.75,25.798-5.239,56.926,4.151,66.329
			c0,0,29.503,3.513,49.787-22.544c4.363-5.605,6.044-12.18,5.673-18.768C186.425,109.496,180.721,110.048,174.774,109.793z"/>
		<path opacity="0.5" fill="#BD5643" d="M155.085,194.594c6.026-1.203,8.304-5.561,8.28-10.917
			c-2.15-4.542-4.249-8.469-6.027-10.952c-0.435-0.884-0.821-1.57-1.139-1.977c-0.818-1.051-2.402-2.049-4.391-2.938
			c-0.031-0.063-0.052-0.109-0.052-0.109c-0.543-0.276-1.054-0.499-1.574-0.743c-0.08-0.148-0.124-0.246-0.124-0.246
			c-0.151-0.086-0.29-0.149-0.442-0.233l-2.025-20.583l-12.652-5.401l-1.4,23.646c0.006,0.004,0.014,0.011,0.015,0.015
			c-0.596,0.095-1.196,0.188-1.8,0.316c0.002,0.016,0.007,0.035,0.01,0.051c-0.168,0.022-0.337,0.044-0.5,0.069
			c-0.002,0-0.002,0-0.002,0c-0.37,0.065-0.704,0.149-1.034,0.241c-0.15,0.037-0.296,0.081-0.441,0.124
			c-0.256,0.082-0.5,0.173-0.73,0.278c-0.206,0.084-0.387,0.188-0.565,0.292c-0.153,0.086-0.313,0.169-0.441,0.264
			c-0.067,0.052-0.127,0.102-0.189,0.152c-0.882,0.623-1.911,1.978-2.995,3.9C133.351,167.702,143.003,197.013,155.085,194.594z"/>
		<path fill="#FDCD9D" d="M156.038,171.537c7.642-3.748,23.424-15.657,29.119-38.659c2.156-8.716,4.713-18.748,1.47-27.629
			c-11.828-32.3-39.552-10.35-49.434,2.247C127.313,120.075,131.522,162.304,156.038,171.537z"/>
		<path fill="#F9AD86" d="M134.575,112.118c3.344-3.868,6.032,0.063,5.75,5.216c-2.671,18.752,0.334,45.032,15.849,54.138
			c-0.044,0.018-0.094,0.046-0.135,0.065C131.522,162.304,124.688,124.698,134.575,112.118z"/>
		<path fill="#542D24" d="M165.252,153.886c0.624,0.246,1.073,0.772,1.221,1.42c0.147,0.647-0.031,1.323-0.483,1.826
			c-2.321,2.579-6.354,6.261-9.161,4.531c-2.521-1.553-2.504-5.484-2.097-8.329c0.114-0.805,0.58-1.509,1.278-1.925
			c0.693-0.417,1.531-0.485,2.281-0.203L165.252,153.886z"/>
		<path fill="#FFF5EC" d="M164.78,153.907c0.531,0.205,0.934,0.595,1.074,1.086c0.135,0.497,0,1.003-0.379,1.365
			c-1.938,1.89-3.188,1.61-5.809,0.627c-2.647-0.98-4.178-1.552-3.891-3.689c0.095-0.596,0.477-1.123,1.061-1.424
			c0.589-0.294,1.302-0.334,1.949-0.103L164.78,153.907z"/>
		<path fill="#7D4D41" d="M154.689,130.482c0.745-2.794,2.686-4.697,4.334-4.251c1.651,0.455,2.388,3.088,1.651,5.88
			c-0.741,2.802-2.679,4.707-4.328,4.252C154.691,135.92,153.953,133.284,154.689,130.482z"/>
		<path fill="#7D4D41" d="M173.607,135.642c1.024-2.715,3.06-4.418,4.57-3.833c1.492,0.595,1.886,3.264,0.869,5.973
			c-1.017,2.703-3.063,4.426-4.56,3.831C172.984,141.019,172.593,138.344,173.607,135.642z"/>
		<path fill="#7D4D41" d="M181.7,136.975c0,0-3.651-4.78-8.127-5.506c0,0,1.715-1.581,4.678-0.045
			C181.213,132.972,181.7,136.975,181.7,136.975z"/>
		<path fill="#7D4D41" d="M153.252,127.14c0,0,5.822-1.503,9.924,0.737c0,0-0.478-2.357-3.813-2.995
			C156.021,124.235,153.252,127.14,153.252,127.14z"/>
		<path fill="#EF9070" d="M162.881,142.828c-0.034,0.081-0.099,0.139-0.114,0.223c-0.345,1.636,1.155,3.33,3.335,3.787
			c1.288,0.271,2.482,0.006,3.357-0.559c-0.483,1.49-2.388,2.352-4.463,1.919c-2.185-0.455-3.676-2.149-3.34-3.791
			C161.799,143.738,162.275,143.225,162.881,142.828z"/>
		<g>
			<path fill="#AE7045" d="M185.062,130.941l0.529-0.562c-0.96-4.463-5.439-7.573-7.851-8.238l-0.864,1.744
				C178.889,124.143,183.572,127.03,185.062,130.941z"/>
		</g>
		<g>
			<path fill="#AE7045" d="M154.264,121.059c5.072-1.98,12.632-0.518,14.358,0.121l0.521-1.887
				c-1.974-0.659-9.175-1.618-15.125,0.988L154.264,121.059z"/>
		</g>
		<path fill="#B67041" d="M130.308,134.561c16.266-24.845,51.159-27.879,48.757-46.568c-2.402-18.676-37.452,10.004-37.452,10.004
			C123.741,107.668,127.781,122.769,130.308,134.561z"/>
		<path fill="#944B22" d="M137.946,95.088c-17.06,9.685-10.13,27.838-7.639,39.473c8.331-12.721,21.536-19.723,32.123-26.039
			C153.463,106.258,142.994,99.394,137.946,95.088z"/>
		<path fill="#FCC398" d="M127.041,127.289c2.056,8.985,8.188,14.503,11.087,8.692c2.905-5.792,0.389-23.229-4.103-20.251
			C129.529,118.687,125.893,122.313,127.041,127.289z"/>
		<path fill="#EF9070" d="M128.8,127.66c1.527,6.586,6.033,10.626,8.175,6.352c2.13-4.269,0.28-17.06-3.018-14.857
			C130.639,121.332,127.963,124.017,128.8,127.66z"/>
		<path fill="#FCC398" d="M132.589,131.977c0.737,3.229,2.938,5.202,3.979,3.107c1.045-2.085,0.152-8.344-1.463-7.267
			C133.493,128.887,132.182,130.196,132.589,131.977z"/>
		<path fill="#F8F4D9" d="M117.182,224.07c0,0,12.932-0.327,22.264-6.554l1.804,4.588c-6.974,5.296-14.673,6.601-23.414,6.55
			L117.182,224.07z"/>
		<path fill="#FEE8A9" d="M135.682,296.521c-0.736,0.732-19.648,20.38-19.648,20.38l-3.191-6.14L135.682,296.521z"/>
		<path fill="#FDCD9D" d="M223.915,216.499c-0.079-0.879-1.79-1.438-3.816-1.25c-2.027,0.188-3.601,1.054-3.52,1.933
			c0.083,0.876,1.792,1.434,3.817,1.246S223.997,217.372,223.915,216.499z"/>
		
			<ellipse transform="matrix(0.9957 -0.093 0.093 0.9957 -18.8827 21.5106)" fill="#FDCD9D" cx="221.405" cy="213.4" rx="3.684" ry="1.597"/>
		
			<ellipse transform="matrix(0.9957 -0.0926 0.0926 0.9957 -18.4918 21.4518)" fill="#FDCD9D" cx="221.821" cy="209.909" rx="3.684" ry="1.598"/>
		<g>
			<path fill="#71554A" d="M213.49,208.803c0.115-1.582,4.223-3.258,9.182-1.313c6.158,2.413,6.653,5.425,6.307,6.143
				c-0.723,1.487-8.767,2.061-8.767,2.061S213.325,211.106,213.49,208.803z"/>
			<path fill="#5C4038" d="M219.39,216.142c3.827,1.395,4.767,0.982,5.064,0.16c0.3-0.82-0.157-1.739-3.987-3.132
				c-3.828-1.393-4.766-0.979-5.063-0.161C215.105,213.833,215.56,214.749,219.39,216.142z"/>
			<path fill="#5C4038" d="M228.979,213.632c0.133-0.275,0.141-0.885-0.243-1.668c-2.339,0.961-7.519,1.452-7.519,1.452
				s-5.373-3.52-6.668-5.937c-0.645,0.388-1.027,0.858-1.059,1.323c-0.165,2.303,6.498,7.173,6.498,7.173
				S228.255,215.119,228.979,213.632z"/>
			<path fill="#71554A" d="M204.997,221.988c-0.602,0.257,1.121-7.215,3.444-7.819c1.096-0.285,6.25-0.269,11.192,0.904
				c5.548,1.313,10.911,3.871,11.592,4.917c1.288,1.98-1.593,7.724-2.536,8.44c0,0,0.453-4.67-1.102-5.675
				c-1.475-0.954-16.503-5.522-19.728-4.99C207.022,217.903,205.468,221.783,204.997,221.988z"/>
			<path fill="#71554A" d="M209.132,216.606c0.027,0.979-1.534,5.412-1.195,5.519c0.336,0.108,2.803-4.982,2.803-4.982
				L209.132,216.606z"/>
			<path fill="#71554A" d="M210.881,216.977c0.026,0.979-1.538,5.415-1.197,5.519c0.338,0.108,2.806-4.983,2.806-4.983
				L210.881,216.977z"/>
			<path fill="#71554A" d="M214.475,217.865c0.029,0.976-1.538,5.411-1.198,5.518c0.336,0.109,2.804-4.983,2.804-4.983
				L214.475,217.865z"/>
			<path fill="#71554A" d="M218.066,218.751c0.026,0.976-1.537,5.411-1.199,5.519c0.339,0.107,2.803-4.985,2.803-4.985
				L218.066,218.751z"/>
			<path fill="#71554A" d="M221.654,219.638c0.032,0.975-1.532,5.411-1.195,5.519c0.339,0.105,2.805-4.984,2.805-4.984
				L221.654,219.638z"/>
			<path fill="#71554A" d="M225.248,220.521c0.025,0.978-1.533,5.414-1.198,5.52c0.342,0.108,2.808-4.984,2.808-4.984
				L225.248,220.521z"/>
			<path fill="#71554A" d="M228.838,221.41c0.029,0.974-1.534,5.414-1.192,5.517c0.334,0.109,2.801-4.982,2.801-4.982
				L228.838,221.41z"/>
			<path fill="#71554A" d="M207.808,215.655c0.028,0.976-1.534,5.412-1.197,5.518c0.34,0.109,2.808-4.981,2.808-4.981
				L207.808,215.655z"/>
			<path fill="#71554A" d="M212.443,217.615c0.02,0.965-1.546,5.349-1.207,5.456c0.329,0.104,2.795-4.927,2.795-4.927
				L212.443,217.615z"/>
			<path fill="#71554A" d="M216.122,218.741c0.02,0.96-1.554,5.289-1.226,5.392c0.329,0.106,2.79-4.872,2.79-4.872L216.122,218.741z
				"/>
			<path fill="#71554A" d="M219.75,219.856c0.011,0.947-1.565,5.22-1.244,5.325c0.325,0.104,2.782-4.813,2.782-4.813L219.75,219.856
				z"/>
			<path fill="#71554A" d="M223.325,220.952c0.005,0.94-1.577,5.162-1.259,5.262c0.321,0.1,2.775-4.754,2.775-4.754L223.325,220.952
				z"/>
			<path fill="#71554A" d="M226.846,222.036c-0.001,0.933-1.585,5.098-1.269,5.197c0.315,0.098,2.767-4.701,2.767-4.701
				L226.846,222.036z"/>
			<path fill="#71554A" d="M213.944,209.111c-0.11-0.853,2.063,1.106,4.589,4.429C216.736,212.55,214.061,210.047,213.944,209.111z"
				/>
			<path fill="#71554A" d="M228.017,213.723c0.37-0.546-1.845,0.002-4.776,1.349C224.848,215.058,227.61,214.321,228.017,213.723z"
				/>
			<path fill="#B27E6D" d="M222.081,209.734c1.879,0.74,3.551,0.97,3.729,0.509c0.183-0.465-1.195-1.435-3.07-2.177
				c-1.877-0.74-3.547-0.969-3.729-0.507C218.828,208.018,220.205,208.992,222.081,209.734z"/>
			
				<ellipse transform="matrix(-0.6566 0.7543 -0.7543 -0.6566 536.0215 178.5544)" fill="#B27E6D" cx="227.363" cy="211.303" rx="0.37" ry="0.742"/>
			<path opacity="0.3" fill="#FEEDCC" d="M211.236,223.07c0.271,0.085,1.992-3.322,2.592-4.521c0.175,0.042,0.347,0.083,0.526,0.123
				c-0.351,1.614-1.355,4.627-1.078,4.71c0.263,0.086,1.832-3.014,2.5-4.365c0.105,0.025,0.208,0.052,0.311,0.077
				c-0.226,1.382-1.489,4.946-1.191,5.039c0.29,0.091,2.198-3.688,2.682-4.647c0.121,0.031,0.241,0.063,0.364,0.096
				c-0.356,1.621-1.349,4.602-1.074,4.688c0.261,0.081,1.784-2.918,2.468-4.301c0.133,0.037,0.263,0.077,0.397,0.111
				c-0.167,1.263-1.527,5.003-1.226,5.101c0.292,0.093,2.301-3.856,2.709-4.666c0.097,0.03,0.195,0.057,0.289,0.088
				c-0.229,0.99-0.659,2.408-0.907,3.397l1.308-1.141c0.346-0.658,0.688-1.333,0.946-1.843c0.154,0.05,0.305,0.096,0.457,0.146
				c-0.019,0.155-0.064,0.351-0.115,0.58l4.541-3.964c-0.972-0.471-2.095-0.952-3.303-1.407c-1.525-0.574-3.184-1.099-4.854-1.495
				c-0.821-0.192-1.651-0.35-2.464-0.474l-4.843,4.224C211.881,220.257,210.972,222.99,211.236,223.07z"/>
			<path fill="#5C4038" d="M208.193,215.195c1.081-0.277,6.18-0.248,11.071,0.935c5.489,1.32,10.804,3.876,11.479,4.917
				c0.697,1.073,0.175,3.248-0.598,5.12c1.002-2.052,1.907-4.894,1.079-6.177c-0.682-1.047-5.896-3.888-11.44-5.202
				c-4.951-1.175-10.249-0.905-11.344-0.62c-1.783,0.463-3.21,4.972-3.508,6.926C205.434,218.928,206.68,215.584,208.193,215.195z"
				/>
			<path fill="#71554A" d="M220.286,215.494c2.031,0.573,3.581,1.176,3.631,1.002c0.052-0.174-1.557-0.779-3.592-1.347
				c-2.032-0.573-3.718-0.893-3.766-0.719C216.51,214.604,218.254,214.925,220.286,215.494z"/>
		</g>
		<path fill="#FDCD9D" d="M218.081,207.038c0.238-1.897,0.052-3.36-1.044-3.501c-1.099-0.142-2.178,1.283-2.418,3.181
			c-0.238,1.898,0.459,3.549,1.556,3.693C217.271,210.55,217.845,208.936,218.081,207.038z"/>
		<path fill="#FDCD9D" d="M222.807,207.914c0.239-1.896,0.05-3.357-1.044-3.5c-1.097-0.141-2.179,1.28-2.419,3.181
			c-0.237,1.897,0.46,3.551,1.555,3.691C221.996,211.427,222.568,209.815,222.807,207.914z"/>
		<path fill="#FDCD9D" d="M227.62,209.315c0.238-1.895,0.051-3.359-1.049-3.501c-1.096-0.142-2.173,1.28-2.416,3.181
			c-0.238,1.897,0.458,3.552,1.556,3.69C226.808,212.828,227.381,211.214,227.62,209.315z"/>
		<path fill="#FDCD9D" d="M214.297,215.202c-1.834-0.81,0.877-4.726,2.504-2.915C218.432,214.097,218.114,216.896,214.297,215.202z"
			/>
		<g>
			<path fill="#B65627" d="M210.495,230.231c-0.326-2.59,3.974-0.237,5.959,1.427c9.24,7.749,18.233,22.33,18.703,29.605
				c1.518,2.99,2.747,6.33,1.953,6.824c-1.069,0.67-2.634-0.918-2.634-0.918s1.687,2.744,0.905,3.005
				c-0.777,0.259-3.833-1.604-3.833-1.604s1.508,2.979,0.561,3.196c-0.639,0.145-1.908-1.004-2.65-1.753
				c1,1.874,1.654,3.178,0.874,3.539c-1.126,0.518-2.445-1.304-2.445-1.304s1.288,3.009,0.492,3.155
				c-0.791,0.154-3.527-2.164-3.527-2.164s1.084,3.215,0.135,3.301c-0.873,0.072-2.569-2.439-2.814-2.804
				c-0.006,0.005-0.015,0.008-0.021,0.012c0.069,0.416,0.467,3.062-0.457,3.076c-0.277,0.001-0.548-0.226-0.796-0.552
				c-0.011,0.359-0.062,0.633-0.171,0.757c-0.384,0.431-0.893-0.421-1.233-1.154c-0.084,0.298-0.202,0.544-0.356,0.679
				c-0.042,0.865-0.172,1.816-0.558,2.057c-0.688,0.432-1.196-2.091-1.282-2.549c-0.008,0.006-0.018,0.009-0.025,0.012
				c-0.083,0.533-0.584,3.529-1.25,3.88c-0.735,0.388-0.91-3.058-0.91-3.058s-1.34,3.432-1.977,3.682
				c-0.641,0.25-0.599-3.104-0.599-3.104s-0.429,2.294-1.433,2.371C209.159,279.994,215.133,266.952,210.495,230.231z"/>
			<path fill="#CF6A36" d="M170.236,249.681c-8.112-8.919-13.406-27.683-0.649-35.543c0,0-5.43-3.493-8.81,3.574
				c0,0-8.423-6.722-4.996,8.481c0,0-10.047-4.932-1.15,6.773c0,0-14.568-2.876-1.979,5.271c0,0-14.663-0.485,0.219,5.899
				c0,0-14.78,2.637,3.595,4.906c0,0-10.494,4.081,3.674,2.882C166.387,251.395,170.236,249.681,170.236,249.681z"/>
			<path fill="#EA753A" d="M229.086,274.132c0,0,5.867,5.987-1.8-8.344c0,0,8.025,9.276-1.418-9.122
				c-9.439-18.401-26.528-17.321-26.528-17.321s-11.095-3.23-16.137-1.646c-3.952,1.242-8.59,3.914-8.173,5.001
				c-3.374-0.296-8.925-0.239-6.324,2.176c-7.593-5.063-27.732-5.694-20.708-2.011c-13.577,4.66-8.463,5.221-2.771,4.85
				c-7.043,5.926-12.887,13.346-10.066,12.624c1.551-0.397,3.679-1.768,3.679-1.768s-7.479,15.197-5.538,15.379
				c1.944,0.186,3.482-2.353,3.482-2.353s-5.946,12.084-4.003,11.88c1.939-0.209,3.481-2.548,3.481-2.548
				s-5.935,14.022-3.412,13.813l88.203-0.552c0,0,3.108,0.176,2.317-2.54c0,0,4.883,4.243,3.688-0.219c0,0,3.702,1.532,1.718-4.865
				c0,0,4.692,4.436,0.546-5.832C229.322,280.736,235.586,288.08,229.086,274.132z"/>
			<path fill="#B65627" d="M229.086,274.132c0,0,5.867,5.987-1.8-8.344c0,0,8.025,9.276-1.418-9.122
				c-8.467-16.506-23.086-17.335-26.004-17.332c1.287,1.939,2.001,4.009,2.013,6.165c0.069,11.017-17.873,20.061-40.073,20.198
				c-9.198,0.058-17.68-1.427-24.47-3.963c-2.072,4.467-5.405,12.09-4.032,12.217c1.944,0.186,3.482-2.353,3.482-2.353
				s-5.946,12.084-4.003,11.88c1.939-0.209,3.481-2.548,3.481-2.548s-5.935,14.022-3.412,13.813l88.203-0.552
				c0,0,3.108,0.176,2.317-2.54c0,0,4.883,4.243,3.688-0.219c0,0,3.702,1.532,1.718-4.865c0,0,4.692,4.436,0.546-5.832
				C229.322,280.736,235.586,288.08,229.086,274.132z"/>
			<path fill="#CF6A36" d="M229.086,274.132c0,0,5.867,5.987-1.8-8.344c0,0,8.025,9.276-1.418-9.122
				c-8.467-16.506-23.086-17.335-26.004-17.332c1.287,1.939,2.001,4.009,2.013,6.165c0.069,11.017-17.873,20.061-40.073,20.198
				c-9.198,0.058-17.68-1.427-24.47-3.963c-2.072,4.467-5.405,12.09-4.032,12.217c1.944,0.186,3.482-2.353,3.482-2.353
				s-5.946,12.084-4.003,11.88c1.939-0.209,3.481-2.548,3.481-2.548s-5.935,14.022-3.412,13.813l2.961-0.019
				c9.05-3.757,24.725-3.512,42.854-4.263c21.822-0.902,40.765-1.58,48.48,2.678c0.145-0.303,0.144-0.84-0.087-1.707
				c0,0,3.702,1.532,1.718-4.865c0,0,4.692,4.436,0.546-5.832C229.322,280.736,235.586,288.08,229.086,274.132z"/>
			<path fill="#B65627" d="M181.648,294.441c-0.523-12.361-0.824-20.68,5.272-20.563c6.095,0.117,10.2,20.465,10.2,20.465
				L181.648,294.441z"/>
			<path fill="#B65627" d="M151.854,294.628c2.698-8.974,2.042-14.868,5.375-14.779c3.332,0.091,3.084,14.727,3.084,14.727
				L151.854,294.628z"/>
			<path fill="#B65627" d="M142.867,294.684c1.216-3.984,0.921-6.6,2.427-6.563c1.504,0.041,1.392,6.539,1.392,6.539
				L142.867,294.684z"/>
			<path fill="#B65627" d="M163.636,294.554c0.849-4.231,0.633-7.015,1.692-6.969c1.056,0.046,0.991,6.952,0.991,6.952
				L163.636,294.554z"/>
			<path fill="#B65627" d="M169.423,294.518c0.724-2.602,0.549-4.308,1.443-4.281c0.896,0.025,0.831,4.268,0.831,4.268
				L169.423,294.518z"/>
			<path fill="#B65627" d="M177.279,294.47c0.702-3.856-0.197-6.388,1.684-6.351c1.881,0.035,3.063,6.319,3.063,6.319
				L177.279,294.47z"/>
			<path fill="#EA753A" d="M186.098,289.591c-3.877,1.189-3.721,2.514-2.346,4.837l9.326-0.06
				C194.372,289.951,189.979,288.399,186.098,289.591z"/>
			<path fill="#EA753A" d="M154.552,290.477c-1.922,0.493-4.829,1.833-3.455,4.155l9.326-0.059
				C161.167,290.574,157.854,289.629,154.552,290.477z"/>
			<path fill="#EA753A" d="M141.438,253.563c-3.873,8.291-8.378,15.141-6.512,16.159c1.866,1.025,4.936-3.955,4.936-3.955
				s-3.464,8.082-2.016,8.276c1.449,0.199,7.4-6.656,7.4-6.656s-3.045,8.908-1.184,8.895c1.859-0.012,6.354-8.515,6.354-8.515
				s-1.807,8.69,0.256,8.474c2.069-0.221,4.494-8.711,4.494-8.711s-0.359,8.479,1.702,7.43c2.06-1.047,3.827-16.142,3.827-16.142
				L141.438,253.563z"/>
			<path fill="#EA753A" d="M161.93,260.874c-1.084,9.089-3.215,17.004-1.124,17.388c2.092,0.387,3.448-5.305,3.448-5.305
				s-0.756,8.764,0.678,8.496c1.437-0.269,4.94-8.643,4.94-8.643s-0.098,9.41,1.664,8.816c1.764-0.597,3.366-10.074,3.366-10.074
				s1.009,8.82,2.902,7.964c1.894-0.857,1.539-9.678,1.539-9.678s2.312,8.161,3.94,6.522c1.63-1.638-1.422-16.529-1.422-16.529
				L161.93,260.874z"/>
			<path fill="#B65627" d="M203.594,288.717c2.102,6.999,2.442,14.551,5.527,13.562c2.748-0.875,2.009-5.69,2.009-5.69
				s2.698,6.82,4.119,5.813c1.319-0.936,1.361-7.814,1.361-7.814s3.356,5.984,4.513,4.872c1.067-1.029-1.021-6.903-1.021-6.903
				s3.6,4.613,4.478,3.575c0.814-0.961-2.125-5.353-2.125-5.353s3.787,3.581,4.125,2.431c0.317-1.082-5.562-7.521-5.562-7.521
				L203.594,288.717z"/>
			<path fill="#B65627" d="M221.052,294.192c0,0,3.108,0.176,2.317-2.54c0,0,4.883,4.243,3.688-0.219c0,0,3.702,1.532,1.718-4.865
				c0,0,4.692,4.436,0.546-5.832c0,0,6.264,7.344-0.236-6.604c0,0,7.571,8.056-0.097-6.272c0,0,6.883,6.118-2.557-12.281
				c-4.115-8.022-10.246-11.248-15.217-13.567c-2.712,0.667-5.985,1.547-9.381,2.634c0.026,0.285,0.044,0.569,0.044,0.854
				c0.047,7.667-8.632,14.374-21.397,17.795c1.581,3.339,20.298,16.008,20.747,31.022L221.052,294.192z"/>
			<path fill="#B65627" d="M185.88,264.618c2.154,8.793,2.957,16.802,4.973,16.548c2.015-0.262,1.275-5.963,1.275-5.963
				s2.334,8.393,3.534,7.725c1.2-0.673,1.471-9.514,1.471-9.514s3.145,8.807,4.525,7.734c1.386-1.071-0.434-10.386-0.434-10.386
				s3.939,7.927,5.347,6.572c1.408-1.352-1.945-9.476-1.945-9.476s4.889,6.933,5.789,4.924c0.903-2.008-6.967-14.998-6.967-14.998
				L185.88,264.618z"/>
			<path fill="#DB6333" d="M196.621,261.014c3.492,7.789,15.431,10.953,24.075,1.619
				C229.345,253.293,192.462,251.758,196.621,261.014z"/>
			<path fill="#F89D5E" d="M184.261,251.681c0.807,4.853,2.39,20.11,18.686,15.929c0,0,4.094-8.494,8.372-7.938
				c4.277,0.555,2.589,10.472,6.28,10.256c3.69-0.217,12.751-11.735,5.327-17.907c-7.839-6.518,1.616-18.602-11.411-22.853
				c-3.503-1.144-20.417-2.982-23.879,3.258C184.179,238.662,183.336,246.118,184.261,251.681z"/>
			<path fill="#EC753F" d="M213.881,256.896c-10.311,0.064-22.03,4.741-22.067-1.307c-0.038-6.052,7.189-10.862,17.502-10.928
				c3.835-0.023,7.408,0.636,10.384,1.781c-0.862-4.088,0.061-8.712-1.76-12.354c-3.22,0.831-7.288,1.333-11.783,1.362
				c-7.646,0.049-14.533-1.293-18.335-3.309c-0.062,0.092-0.128,0.183-0.185,0.282c-3.457,6.238-4.3,13.694-3.375,19.256
				c0.807,4.853,2.792,22.265,19.009,17.788c2.173-0.602,3.623-9.391,7.902-8.834c4.277,0.557,2.736,9.508,6.427,9.292
				c2.583-0.149,7.792-5.841,8.141-11.36C223.574,258.386,219.779,256.859,213.881,256.896z"/>
			<path fill="#DB6333" d="M203.324,245.283c2.891-0.635,3.117-7.451-1.189-8.361c-13.763-2.912-15.192,17.459-8.909,13.181
				C197.514,247.182,201.282,245.735,203.324,245.283z"/>
			<path fill="#DB6333" d="M209.687,244.782c-2.453,0.006-3.496-6.301,0.03-7.916c9.358-4.277,10.934,9.446,8.603,9.049
				C218.106,245.878,211.42,244.78,209.687,244.782z"/>
			<path fill="#7B462F" d="M211.212,260.169c-3.063-0.216-7.54-3.641-5.851-5.354c1.692-1.713,10.488-1.346,10.782,0.359
				C216.44,256.875,213.058,260.297,211.212,260.169z"/>
			<path fill="#CF6A36" d="M212.75,288.734c-3.465,0.995-2.583,3.585-1.355,5.521l8.326-0.052
				C223.141,286.399,216.21,287.742,212.75,288.734z"/>
			<path fill="#B65627" d="M191.734,232.414c0.289-2.593-3.91-0.188-5.844,1.503c-8.991,7.859-17.654,22.554-18.029,29.83
				c-1.452,3.014-2.62,6.371-1.833,6.854c1.059,0.652,2.578-0.953,2.578-0.953s-1.626,2.766-0.852,3.017
				c0.765,0.249,3.75-1.651,3.75-1.651s-1.445,2.999-0.512,3.203c0.632,0.135,1.865-1.027,2.584-1.783
				c-0.96,1.884-1.588,3.196-0.816,3.547c1.114,0.504,2.387-1.336,2.387-1.336s-1.227,3.025-0.441,3.166
				c0.778,0.139,3.436-2.213,3.436-2.213s-1.023,3.23-0.087,3.303c0.858,0.063,2.498-2.469,2.731-2.839
				c0.006,0.005,0.015,0.009,0.021,0.015c-0.059,0.413-0.422,3.066,0.491,3.066c0.271,0,0.532-0.23,0.771-0.561
				c0.017,0.36,0.07,0.631,0.18,0.755c0.384,0.426,0.873-0.431,1.197-1.167c0.089,0.293,0.206,0.539,0.359,0.672
				c0.05,0.863,0.192,1.816,0.571,2.049c0.685,0.425,1.149-2.104,1.23-2.562c0.011,0.003,0.019,0.007,0.03,0.009
				c0.085,0.532,0.614,3.523,1.272,3.865c0.729,0.379,0.857-3.071,0.857-3.071s1.361,3.419,1.993,3.656
				c0.632,0.245,0.546-3.107,0.546-3.107s0.451,2.286,1.439,2.351C193.662,282.154,187.627,269.186,191.734,232.414z"/>
			<path fill="#F89D5E" d="M192.472,228.508c-2.145-1.153-3.89-0.169-6.015,1.394c-9.9,7.299-20.274,20.937-21.499,27.687
				c-1.804,2.796-3.36,5.906-2.632,6.358c0.985,0.604,2.688-0.886,2.688-0.886s-1.946,2.565-1.206,2.799
				c0.736,0.231,3.941-1.538,3.941-1.538s-1.794,2.784-0.885,2.974c0.613,0.128,1.982-0.95,2.792-1.655
				c-1.181,1.749-1.962,2.969-1.23,3.293c1.053,0.466,2.543-1.242,2.543-1.242s-1.582,2.806-0.814,2.938
				c0.76,0.129,3.695-2.057,3.695-2.057s-1.404,2.999-0.476,3.065c0.853,0.06,2.784-2.29,3.061-2.634
				c0.006,0.006,0.012,0.014,0.02,0.012c-0.111,0.389-0.779,2.848,0.133,2.848c0.267,0,0.558-0.214,0.836-0.52
				c-0.025,0.33-0.003,0.586,0.092,0.698c0.331,0.396,0.92-0.399,1.331-1.084c0.052,0.275,0.143,0.501,0.278,0.625
				c-0.047,0.802-0.017,1.684,0.335,1.901c0.634,0.394,1.396-1.952,1.528-2.378c0.009,0.001,0.017,0.005,0.026,0.009
				c0.027,0.494,0.202,3.268,0.82,3.584c0.686,0.35,1.217-2.846,1.217-2.846s0.96,3.164,1.561,3.391
				c0.606,0.223,0.914-2.889,0.914-2.889s0.181,2.123,1.162,2.184c0.897,0.054,1.692-5.246,2.044-8.953
				C190.995,254.16,194.242,229.459,192.472,228.508z"/>
			<path fill="#F68C57" d="M192.472,228.508c-0.507-0.271-0.992-0.419-1.462-0.475c0.689,3.711-0.685,9.247-4.159,15.184
				c-5.827,9.95-15.299,17.226-21.166,16.253c-0.583-0.098-1.092-0.293-1.559-0.539c-1.41,2.373-2.414,4.635-1.8,5.016
				c0.985,0.604,2.688-0.886,2.688-0.886s-1.946,2.565-1.206,2.799c0.736,0.231,3.941-1.538,3.941-1.538s-1.794,2.784-0.885,2.974
				c0.613,0.128,1.982-0.95,2.792-1.655c-1.181,1.749-1.962,2.969-1.23,3.293c1.053,0.466,2.543-1.242,2.543-1.242
				s-1.582,2.806-0.814,2.938c0.76,0.129,3.695-2.057,3.695-2.057s-1.404,2.999-0.476,3.065c0.853,0.06,2.784-2.29,3.061-2.634
				c0.006,0.006,0.012,0.014,0.02,0.012c-0.111,0.389-0.779,2.848,0.133,2.848c0.267,0,0.558-0.214,0.836-0.52
				c-0.025,0.33-0.003,0.586,0.092,0.698c0.331,0.396,0.92-0.399,1.331-1.084c0.052,0.275,0.143,0.501,0.278,0.625
				c-0.047,0.802-0.017,1.684,0.335,1.901c0.634,0.394,1.396-1.952,1.528-2.378c0.009,0.001,0.017,0.005,0.026,0.009
				c0.027,0.494,0.202,3.268,0.82,3.584c0.686,0.35,1.217-2.846,1.217-2.846s0.96,3.164,1.561,3.391
				c0.606,0.223,0.914-2.889,0.914-2.889s0.181,2.123,1.162,2.184c0.897,0.054,1.692-5.246,2.044-8.953
				C190.995,254.16,194.242,229.459,192.472,228.508z"/>
			<path fill="#7B462F" d="M199.661,245.966c-1.031,0.194-2.374,0.563-2.573-0.457c-0.248-1.289,0.293-2.874,1.927-3.059
				c1.464-0.167,2.584,0.798,2.777,1.908C201.987,245.476,201.908,245.54,199.661,245.966z"/>
			<path fill="#7B462F" d="M214.022,244.91c-0.879-0.159-2.057-0.277-1.9-1.146c0.197-1.094,1.11-2.184,2.459-1.836
				c1.214,0.312,1.809,1.417,1.622,2.357C216.015,245.228,215.932,245.252,214.022,244.91z"/>
			<path fill="#5B2F1F" d="M216.144,255.174c-0.028-0.174-0.149-0.332-0.341-0.48c-0.716,1.056-3.066,1.838-5.866,1.857
				c-2.028,0.012-3.821-0.381-4.935-0.991c-0.191,1.804,3.547,4.421,6.211,4.609C213.058,260.297,216.44,256.875,216.144,255.174z"
				/>
			<path fill="#442115" d="M209.682,259.303c-1.031,0.139-4.561-1.938-3.01-2.049C208.221,257.141,212.055,258.975,209.682,259.303z
				"/>
			<path fill="#442115" d="M215.441,256.7c-0.247,1.01-3.478,3.529-3.015,2.045C212.896,257.264,216.015,254.374,215.441,256.7z"/>
			<path fill="#D38F7D" d="M214.593,255.102c-0.056-0.299-0.825-0.417-1.725-0.256c-0.9,0.159-1.587,0.527-1.533,0.83
				c0.052,0.299,0.823,0.414,1.723,0.256S214.646,255.402,214.593,255.102z"/>
			<path fill="#D38F7D" d="M210.368,255.844c-0.005-0.163-0.405-0.267-0.892-0.233c-0.486,0.03-0.879,0.19-0.876,0.351
				c0.006,0.162,0.405,0.264,0.893,0.234C209.982,256.163,210.373,256.008,210.368,255.844z"/>
			<path fill="#D38F7D" d="M215.645,243.382c-0.002-0.417-0.254-0.755-0.557-0.754c-0.304,0.002-0.549,0.345-0.545,0.764
				c0.002,0.415,0.25,0.754,0.556,0.752C215.401,244.142,215.647,243.799,215.645,243.382z"/>
			<path fill="#D38F7D" d="M200.666,243.709c-0.14-0.395-0.486-0.633-0.772-0.531c-0.286,0.1-0.407,0.505-0.268,0.899
				c0.141,0.392,0.486,0.632,0.771,0.532C200.683,244.507,200.806,244.104,200.666,243.709z"/>
		</g>
		<path fill="#FDCD9D" d="M132.923,255.209c4.529,4.807,56.76,17.853,61.608,16.105c-1.726-1.807-54.879-23.922-58.343-22.608
			C132.772,250,131.215,253.395,132.923,255.209z"/>
		<g>
			<path fill="#F4AD7D" d="M198.329,271.18c-0.708-0.899-1.032-1.857-1.447-1.513c-0.417,0.342-0.581,1.661,0.136,2.556
				c0.712,0.887,1.739,1.348,2.157,1C199.587,272.881,199.044,272.068,198.329,271.18z"/>
			<path fill="#F4AD7D" d="M193.26,275.037c-0.408-1.349-0.547-2.564,0.106-2.838c0.658-0.27,1.517,0.603,1.926,1.951
				c0.405,1.354,0.204,2.666-0.453,2.943C194.185,277.359,193.663,276.387,193.26,275.037z"/>
			<path fill="#F4AD7D" d="M196.424,272.574c-0.937-1.097-1.375-2.288-1.904-1.852c-0.525,0.432-0.708,2.064,0.237,3.162
				c0.937,1.09,2.462,1.482,2.989,1.055C198.27,274.512,197.362,273.674,196.424,272.574z"/>
			<path fill="#FDCD9D" d="M180.532,269.607c3.731,0.735,9.523,7.899,11.497,5.062c1.782-2.54,1.038-9.047-10.623-7.979
				L180.532,269.607z"/>
			<path fill="#FDCD9D" d="M187.303,267.348c-3.402,4.308,1.593,8.143,3.469,8.972c2.063,0.899,5.493-1.714,5.676-3.551
				C196.624,270.925,188.609,265.703,187.303,267.348z"/>
			<path fill="#FDCD9D" d="M195.176,272.666c2.413,1.043,3.939,1.014,4.181,0.32c0.247-0.691-1.171-1.195-3.575-2.245
				c-2.412-1.042-5.175-2.991-5.418-2.298C190.121,269.141,192.773,271.616,195.176,272.666z"/>
			<path fill="#FDCD9D" d="M193.591,274.539c2.15,1.303,3.928,0.883,4.294,0.271c0.365-0.618-1.972-1.32-4.119-2.621
				c-2.147-1.311-3.63-2.033-3.993-1.424C189.408,271.383,191.455,273.232,193.591,274.539z"/>
			<path fill="#FDCD9D" d="M190.848,276.373c2.55,1.502,3.936,1.346,4.286,0.723c0.339-0.629-1.537-1.332-4.086-2.826
				c-2.548-1.51-4.359-2.525-4.701-1.904C186.002,272.998,188.297,274.865,190.848,276.373z"/>
			<path fill="#FDCD9D" d="M192.09,270.355c3.13-0.293,4.287-1.951,3.807-3.027c-0.162-0.363-8.247-1.404-8.686,0.283
				C186.9,268.799,188.948,270.652,192.09,270.355z"/>
			<path fill="#FDCD9D" d="M197.638,268.098c1.029,0.135,2.011-0.369,1.965,0.578c-0.032,0.751-1.226,1.229-2.252,1.067
				c-1.887-0.294-5.162-0.368-2.385-2.595C195.472,266.742,196.534,267.951,197.638,268.098z"/>
		</g>
	</g>
	<path fill="#CF6A36" d="M148.594,347.641c0.385-1.098,0.797-2.2,0.653-3.303c-0.263-0.005-0.487,0.113-0.749,0.14
		c-0.235-0.818-0.82-1.551-1.172-2.236c-0.675,1.215-1.333,2.545-1.346,3.894c-0.074-0.254-0.164-0.512-0.229-0.811
		c-1.289,0.875-2.352,2.103-3.337,3.286c-0.052-0.488-0.425-1.02-0.495-1.503c-2.047,0.145-5.459,4.611-5.004,6.546
		c0.106-0.021,0.198-0.068,0.296-0.104c-0.594,1.687-0.777,3.455,0.292,4.294c0.886,0.695,1.81,0.46,2.594-0.196
		c-0.057,0.771,0.144,1.443,0.809,1.82c2.271,1.28,5.958-3.336,7.062-4.633l0.388,1.34
		C148.157,354.804,153.41,345.286,148.594,347.641z"/>
	<path fill="#F89D5E" d="M237.229,239.5c-0.431-0.34-0.862-0.694-1.375-0.798c-0.044,0.117-0.025,0.236-0.053,0.356
		c-0.402-0.02-0.818,0.13-1.179,0.183c0.439,0.489,0.935,0.985,1.533,1.198c-0.125-0.005-0.252-0.005-0.397-0.021
		c0.193,0.711,0.58,1.373,0.958,1.995c-0.228-0.052-0.521,0.035-0.748-0.008c-0.248,0.938,1.225,3.149,2.16,3.241
		c0.006-0.052-0.001-0.099-0.001-0.15c0.661,0.524,1.423,0.877,1.963,0.526c0.445-0.291,0.481-0.74,0.308-1.19
		c0.335,0.144,0.667,0.157,0.937-0.084c0.921-0.822-0.577-3.177-0.987-3.87l0.658,0.032
		C240.363,240.789,236.915,236.983,237.229,239.5z"/>
	<path fill="#EC753F" d="M243.551,261.871c-0.285-0.469-0.563-0.951-1.006-1.231c-0.082,0.096-0.107,0.214-0.175,0.316
		c-0.369-0.16-0.813-0.166-1.168-0.241c0.238,0.609,0.525,1.248,1.012,1.658c-0.116-0.051-0.236-0.096-0.366-0.16
		c-0.069,0.733,0.058,1.486,0.192,2.2c-0.193-0.127-0.5-0.149-0.696-0.269c-0.564,0.79,0.033,3.375,0.877,3.788
		c0.022-0.046,0.033-0.093,0.05-0.139c0.435,0.721,1.022,1.317,1.653,1.179c0.518-0.113,0.712-0.521,0.71-1.004
		c0.262,0.251,0.568,0.381,0.906,0.251c1.15-0.444,0.582-3.175,0.441-3.966l0.605,0.262
		C246.026,264.176,244.143,259.408,243.551,261.871z"/>
	<path fill="#EC753F" d="M122.474,445.479h17.446c0.351-0.208,0.692-0.417,1.021-0.588c-1.392-0.389-2.925-0.737-4.504-0.519
		c0.302-0.109,0.607-0.23,0.962-0.344c-0.974-0.987-2.367-1.708-3.713-2.374c0.574-0.13,1.21-0.553,1.776-0.697
		c-0.084-1.78-5.176-4.023-7.464-3.286c0.028,0.09,0.075,0.161,0.111,0.242c-1.948-0.232-4.007-0.09-5.037,1
		c-0.849,0.896-0.612,1.677,0.123,2.255c-0.895,0.079-1.695,0.373-2.164,1.024C120.231,443.312,121.163,444.49,122.474,445.479z"/>
	<path fill="#CF6A36" d="M133.319,445.479h22.062c0.444-0.324,0.877-0.646,1.291-0.915c-1.761-0.602-3.698-1.145-5.695-0.806
		c0.382-0.171,0.768-0.36,1.216-0.536c-1.231-1.534-2.993-2.655-4.696-3.689c0.726-0.204,1.532-0.858,2.248-1.083
		c-0.106-2.77-6.545-6.258-9.439-5.11c0.035,0.138,0.094,0.249,0.14,0.375c-2.462-0.36-5.068-0.14-6.371,1.556
		c-1.073,1.396-0.772,2.605,0.158,3.507c-1.133,0.123-2.145,0.578-2.736,1.593C130.482,442.109,131.661,443.94,133.319,445.479z"/>
	<path fill="#CF6A36" d="M162.703,445.479h-16.775c-0.337-0.206-0.667-0.412-0.981-0.583c1.338-0.384,2.812-0.728,4.331-0.512
		c-0.291-0.109-0.584-0.23-0.925-0.342c0.937-0.977,2.276-1.69,3.57-2.35c-0.551-0.131-1.163-0.545-1.708-0.69
		c0.081-1.764,4.977-3.985,7.178-3.253c-0.027,0.086-0.072,0.157-0.108,0.237c1.873-0.229,3.854-0.088,4.845,0.991
		c0.816,0.889,0.587,1.66-0.121,2.231c0.863,0.08,1.632,0.369,2.081,1.017C164.862,443.333,163.965,444.5,162.703,445.479z"/>
	<path fill="#EA753A" d="M213.535,445.479h-15.065c-0.302-0.173-0.599-0.349-0.881-0.493c1.201-0.322,2.525-0.613,3.889-0.432
		c-0.261-0.092-0.525-0.194-0.83-0.289c0.839-0.825,2.044-1.427,3.206-1.981c-0.496-0.112-1.045-0.465-1.535-0.586
		c0.072-1.489,4.471-3.364,6.446-2.748c-0.024,0.076-0.063,0.135-0.095,0.201c1.683-0.194,3.461-0.073,4.351,0.837
		c0.732,0.752,0.526,1.401-0.108,1.885c0.773,0.066,1.464,0.313,1.868,0.858C215.472,443.667,214.667,444.651,213.535,445.479z"/>
	<path fill="#F89D5E" d="M150.969,437.116c-0.415-4.329-3.421-2.107-4.154-5.162c-2.245-0.562-3.355,1.509-3.929,3.171
		c-0.145-0.385-0.032-0.737-0.14-1.132c-3.542-0.104-5.635,10.464,0.404,6.938c-0.342,0.595-0.022,1.43-0.282,2.233
		c1.493,0.571,2.87,0.354,3.146-1.112C149.474,441.732,151.272,440.276,150.969,437.116z"/>
	<path fill="#F89D5E" d="M219.933,439.563c-0.415-4.33-3.42-2.108-4.153-5.162c-2.246-0.562-3.356,1.508-3.929,3.17
		c-0.145-0.384-0.032-0.737-0.14-1.131c-3.542-0.102-5.635,10.464,0.404,6.938c-0.343,0.598-0.022,1.43-0.282,2.233
		c1.493,0.571,2.869,0.354,3.144-1.111C218.439,444.18,220.236,442.727,219.933,439.563z"/>
</g>
</svg>
