<?xml version="1.0" encoding="utf-8"?>
<!-- Generator: Adobe Illustrator 16.0.3, SVG Export Plug-In . SVG Version: 6.00 Build 0)  -->
<!DOCTYPE svg PUBLIC "-//W3C//DTD SVG 1.1//EN" "http://www.w3.org/Graphics/SVG/1.1/DTD/svg11.dtd">
<svg version="1.1" id="Layer_1" xmlns="http://www.w3.org/2000/svg" xmlns:xlink="http://www.w3.org/1999/xlink" x="0px" y="0px" viewBox="0 0 500 500" enable-background="new 0 0 500 500" xml:space="preserve">
<g>
	<g id="XMLID_2_">
		<g>
			<path fill="#010101" d="M386.297,122.823c0,0,0.286,0.629-0.743-0.4L386.297,122.823z"/>
			<path fill="#010101" d="M381.684,193.591c-0.038-0.057-0.152-0.191-0.324-0.419c0.134,0.133,0.229,0.267,0.306,0.362
				C381.684,193.553,381.703,193.572,381.684,193.591z"/>
			<path fill="#010101" d="M380.54,147.226c0,0-0.248,1.735-0.629-0.61L380.54,147.226z"/>
			<path fill="#010101" d="M379.263,131.784c0.038-0.019,0.114,0.191,0.362,0.839l-0.19-0.171
				C379.435,132.451,379.263,131.879,379.263,131.784z"/>
			<path fill="#010101" d="M374.001,279.268c0.038,0.134,0.057,0.19,0.057,0.19S373.849,280.411,374.001,279.268z"/>
			<path fill="#010101" d="M373.619,162.097c1.125,0.114-0.209,0.324-1.811,0.534c0.114-0.362,0.247-0.725,0.381-1.125
				C372.8,161.849,373.295,162.059,373.619,162.097z"/>
			<path fill="#010101" d="M371.885,135.025l0.667,0.686C372.552,135.711,372.438,136.912,371.885,135.025z"/>
			<path fill="#010101" d="M372.494,261.118c0.306,2.841-0.152,0.781-0.896-3.127C372.056,258.964,372.38,260.013,372.494,261.118z"
				/>
			<path fill="#010101" d="M371.809,162.63c-0.229,0.648-0.42,1.22-0.61,1.716c-1.658-0.877-2.727-1.373-2.727-1.373
				S370.264,162.821,371.809,162.63z"/>
			<path fill="#010101" d="M370.569,166.081l-2.879-2.803l-0.076-2.288l-0.096-2.745c1.697,1.315,3.432,2.555,4.671,3.26
				c-0.134,0.4-0.267,0.763-0.381,1.125c-1.545,0.19-3.337,0.343-3.337,0.343s1.068,0.496,2.727,1.373
				C370.817,165.433,370.569,166.081,370.569,166.081z"/>
			<path fill="#010101" d="M381.665,193.534c-0.076-0.096-0.172-0.229-0.306-0.362c0.172,0.229,0.286,0.362,0.324,0.419
				C381.703,193.572,381.684,193.553,381.665,193.534z M366.031,164.728c-6.063-1.544-7.168-3.069-7.168-3.069l8.713-0.667h0.038
				l0.076,2.288l2.879,2.803c0,0,0.248-0.648,0.629-1.735c5.586,2.936,17.997,10.104,19.198,16.396c1.563,8.16,0,5.243,0,5.243
				s-2.46-2.593-10.962-6.882c-8.503-4.271-8.503-4.271-8.503-4.271s11.857,12.335,14.774,18.588
				c2.803,6.063,5.224,14.451,5.357,14.985l-2.688-3.012l-11.172-12.468c0,0,8.941,18.188,8.503,29.836
				c-0.457,11.648-0.457,8.999-0.457,8.999v2.65l-10.295-15.824c0,0,6.272,21.981,6.272,36.051c0,5.015,0,7.569,0,8.789
				l-8.236-21.391l-0.019-0.076c-0.02-0.038-0.02-0.057-0.02-0.057l0.763-0.477c1.944,3.107,3.718,6.005,4.156,7.054
				c1.125,2.631-3.813-24.402-5.377-27.701c-1.563-3.298-2.459-8.789-2.459-8.789l10.733,10.771c0,0,3.355,2.631-1.334-10.562
				c-4.69-13.174-7.607-21.124-7.607-21.124l-5.796-9.132c0,0,12.564,8.445,15.233,11.134c0.019,0.019,0.038,0.038,0.057,0.057
				c0.02,0.019,0,0-0.057-0.057c-2.46-3.203-15.233-20.266-15.233-20.266s10.505-0.725,15.424,3.069
				C386.374,179.674,372.075,166.271,366.031,164.728z"/>
			<path fill="#010101" d="M365.803,128.771l-1.582-1.64C364.221,127.132,364.983,127.437,365.803,128.771z"/>
			<path fill="#010101" d="M363.82,113.92l-3.852-2.383C359.969,111.537,361.646,112.147,363.82,113.92z"/>
			<path fill="#DB8042" d="M355.718,100.099c-3.069-2.669-8.503-3.317-15.557-3.832l0.057-0.61c0,0,27.015-0.991,33.669,5.071
				c6.653,6.063,3.546,5.205,3.546,5.205s-13.956-4.918-16.396-4.29c-2.44,0.648,12.411,6.005,19.274,14.565
				c2.954,3.68,4.461,5.415,5.242,6.215l-8.789-4.728c0,0,6.863,11.344,7.76,15.614c0.857,4.175-8.141-6.272-8.617-6.825
				c0.152,0.458,2.879,7.874,3.527,15.786c0.171,2.154,0.323,3.508,0.477,4.347l-8.236-7.893c0,0,0.438,10.181,0.21,15.004
				c-0.21,4.842-0.21,2.593-0.21,2.593l-4.442-6.749l0.286,8.674c-2.955-2.288-5.853-4.766-6.157-5.052l4.67,1.43l-4.709-5.51
				l4.709,2.86l-1.582-11.496l3.584,2.154c0,0,0.438,1.22-0.229-6.539c-0.324-3.813-1.201-6.024-2.002-7.321l6.082,6.253
				c0.553,1.887,0.667,0.686,0.667,0.686l-0.667-0.686c-0.286-0.915-0.648-2.555-1.163-5.415
				c-1.582-8.731-12.754-15.213-12.754-15.213c0.305,0.095,1.067,0.343,2.688,0.877c3.89,1.277,11.362,9.78,11.82,10.314
				c-0.134-0.267-0.82-1.411-3.336-5.529c-1.735-2.86-3.661-4.823-5.319-6.139l6.443,3.984c0,0,0,0-4.232-5.929
				c-4.251-5.929-16.128-8.789-10.313-7.912S359.53,103.396,355.718,100.099z"/>
			<path fill="#010101" d="M341.343,265.122c0.477,2.516-0.4-0.592-2.192-5.053C340.237,261.919,341.076,263.691,341.343,265.122z"
				/>
			<path fill="#DB8042" d="M336.691,302.24c0.667,1.277,4.651,2.25,9.799-8.674c4.671-9.838,5.776-28.063,5.968-31.515l3.87,0.115
				c-0.096,2.269-0.153,5.224-0.153,8.94c0,9.895-1.124,18.684-4.689,33.421c-3.584,14.718-22.82,29.455-22.82,29.455
				s3.89-14.928,5.814-23.278c0.286-1.296,0.534-2.44,0.725-3.336c0.458-2.346,0.534-4.156,0.267-5.186l1.163-0.076
				C336.653,302.146,336.672,302.202,336.691,302.24z"/>
			<path fill="#010101" d="M336.52,226.401c8.655,9.361,6.139,35.804,5.205,33.439c-0.02-0.076-0.058-0.172-0.096-0.286
				c-1.125-3.889-5.624-33.172-5.128-33.172L336.52,226.401z"/>
			<path fill="#010101" d="M333.526,124.577l-1.544-0.515C331.982,124.063,331.716,123.586,333.526,124.577z"/>
			<path fill="#010101" d="M354.06,183.105c-3.661-1.105-8.809-2.402-8.809-2.402l-8.808-2.135c0,0-6.082-3.107-8.313-4.385
				c-2.211-1.277,6.101,1.277,9.971,1.925c3.89,0.648,17.063,0.21,15.176-1.925c-1.868-2.135-5.414-3.432-5.414-3.432l-8.427-3.413
				l-5.319-3.317c0,0,7.512-3.203,10.505-3.527c3.013-0.324-0.305-1.83-5.738-4.728c-5.434-2.879-9.646-5.014-9.646-5.014
				l10.752-0.419c0,0-10.752-1.62-10.962-5.681c0,0,13.917,4.118,16.51,5.147c0.076,0.038,0.152,0.076,0.21,0.095
				c1.888,0.858-4.767,3.527-8.351,2.898c-3.604-0.648,10.905,4.804,12.888,7.473c2.002,2.688-9.074,4.08-9.074,4.08l12.525,5.929
				c0,0,4.137,2.936,3.984,4.385c-0.21,1.944-4.767,3.489-7.092,3.794c-2.326,0.324-1.659,0.724-1.659,0.724
				s9.189,1.506,10.848,3.927c1.659,2.421,1.659,2.421,1.659,2.421s0.553,3.946-7.854,3.413c-8.427-0.534-7.646,0.057-7.646,0.057
				s8.961,4.442,11.744,9.247c2.765,4.823,3.774,8.35,3.774,8.35s-0.896,0.744-6.996-2.993c-6.082-3.737-5.529-2.917-5.529-2.917
				s6.425,5.815,7.969,9.666c1.545,3.851,2.212,9.933,2.212,9.933s-13.174-7.588-13.898-8.007h-0.019
				c0.419,0.343,5.033,3.965,6.615,11.591c1.773,8.503,0.991,11.401,0.991,11.401s-1.888,2.345-5.758-1.182
				c-2.669-2.421-6.901-6.673-9.284-9.075c-1.087-1.106-1.792-1.83-1.792-1.83s-3.222-2.135-4.881,0.686
				c-1.658,2.841,0.668-8.598,7.321-1.544c6.635,7.054,10.962,12.087,11.953,11.229c1.011-0.858,2.326-5.243-1.658-12.183
				c-3.984-6.958-5.986-9.646-5.986-9.646l-1.773-2.135c0,0,14.966,5.891,15.729,7.168c0.782,1.296-4.651-10.162-7.969-14.432
				c-3.317-4.29-3.317-4.29-3.317-4.29s8.198,1.392,10.848,3.965c2.669,2.574-5.758-6.52-6.311-7.054
				c-0.553-0.553-17.482-10.066-18.588-10.485c-1.105-0.438,19.484,1.163,23.793,1.163
				C359.492,185.622,357.72,184.23,354.06,183.105z"/>
			<path fill="#DB8042" d="M339.15,260.069c1.792,4.461,2.669,7.568,2.192,5.053C341.076,263.691,340.237,261.919,339.15,260.069z
				 M348.969,200.683c0,0-0.553-0.82,5.529,2.917c6.101,3.737,6.996,2.993,6.996,2.993s-1.01-3.527-3.774-8.35
				c-2.783-4.805-11.744-9.247-11.744-9.247s-0.781-0.591,7.646-0.057c8.407,0.534,7.854-3.413,7.854-3.413s0,0-1.659-2.421
				c-1.658-2.421-10.848-3.927-10.848-3.927s-0.667-0.4,1.659-0.724c2.325-0.305,6.882-1.85,7.092-3.794
				c0.152-1.449-3.984-4.385-3.984-4.385l-12.525-5.929c0,0,11.076-1.392,9.074-4.08c-1.982-2.669-16.491-8.121-12.888-7.473
				c3.584,0.629,10.238-2.04,8.351-2.898c-0.058-0.019-0.134-0.057-0.21-0.095l2.765-0.038c5.396,2.764,19.274,11.229,19.274,11.229
				l-8.713,0.667c0,0,1.105,1.525,7.168,3.069c6.044,1.544,20.343,14.946,15.424,11.153c-4.919-3.794-15.424-3.069-15.424-3.069
				s12.773,17.063,15.233,20.266c-2.669-2.688-15.233-11.134-15.233-11.134l5.796,9.132c0,0,2.917,7.95,7.607,21.124
				c4.689,13.193,1.334,10.562,1.334,10.562l-10.733-10.771c0,0,0.896,5.49,2.459,8.789c1.563,3.298,6.502,30.332,5.377,27.701
				c-0.438-1.048-2.212-3.946-4.156-7.054c-2.955-4.709-6.349-9.875-6.349-9.875l0.438,4.957c0,0,2.402,14.069,3.794,21.485
				c-2.859-6.253-11.21-9.36-8.483-5.566c3.126,4.403,1.334,21.771,1.334,21.771s-0.229,3.069-0.438-4.843
				c-0.229-7.911-7.378-12.754-7.378-12.754s-0.172,1.812-0.305,5.567l-3.87-0.115c0.019-0.361,0.019-0.571,0.019-0.571
				s-2.631,7.054-6.311,17.006c-3.164,8.521-7.13,14.774-7.13,14.774s-0.515,4.652-0.019-5.948
				c0.495-10.58-2.555-22.991-2.555-22.991s0-4.328-2.917,4.861c-1.563,4.88-5.91,15.156-8.503,21.447
				c1.487-5.967,2.345-14.222,2.345-14.222l0.343-2.517c0,0,1.049-1.888,0.477-4.919c1.011-2.135,3.432-7.912,2.727-13.688
				c-0.877-7.283-0.877-7.283-0.877-7.283s5.72,6.387,9.056,12.011c0-0.038-0.019-0.076-0.038-0.115l2.555-0.343
				c0.038,0.114,0.076,0.21,0.096,0.286c0.934,2.364,3.45-24.079-5.205-33.439l-0.019-0.019l1.296-1.373
				c2.383,2.402,6.615,6.653,9.284,9.075c3.87,3.527,5.758,1.182,5.758,1.182s0.782-2.898-0.991-11.401
				c-1.582-7.626-6.196-11.248-6.615-11.591h0.019c0.725,0.419,13.898,8.007,13.898,8.007s-0.667-6.082-2.212-9.933
				C355.394,206.498,348.969,200.683,348.969,200.683z"/>
			<path fill="#010101" d="M323.537,341.608c0.477-1.524,9.608-30.503,9.817-31.151l1.125,0.248
				c-1.925,8.351-5.814,23.278-5.814,23.278s19.236-14.737,22.82-29.455c3.565-14.737,4.689-23.526,4.689-33.421
				c0-3.717,0.058-6.672,0.153-8.94c0.133-3.756,0.305-5.567,0.305-5.567s7.149,4.843,7.378,12.754
				c0.21,7.912,0.438,4.843,0.438,4.843s1.792-17.368-1.334-21.771c-2.727-3.794,5.624-0.687,8.483,5.566
				c0.743,3.908,1.201,5.968,0.896,3.127c-0.114-1.105-0.438-2.154-0.896-3.127c-1.392-7.416-3.794-21.485-3.794-21.485
				l-0.438-4.957c0,0,3.394,5.167,6.349,9.875l-0.763,0.477c0,0,0,0.019,0.02,0.057l0.019,0.076
				c0.4,1.621,4.347,17.807,2.421,28.864c-0.896,5.166-1.277,7.435-1.41,8.35c-0.515-2.059-4.69-18.626-5.529-20.875
				c-0.896-2.422-0.647,16.7-2.44,24.612c-1.811,7.911-5.604-16.053-5.604-16.053s0.667,29.436-6.044,40.989
				c-6.71,11.553-19.674,25.623-26.385,30.446C325.348,340.293,324.09,341.208,323.537,341.608z"/>
			<path fill="#010101" d="M328.379,245.428c4.499,0.954,8.351,8.77,10.695,14.47c0.02,0.039,0.038,0.077,0.038,0.115
				c-3.336-5.624-9.056-12.011-9.056-12.011s0,0,0.877,7.283c0.705,5.776-1.716,11.554-2.727,13.688
				c-0.057-0.305-0.114-0.629-0.209-0.953C330.305,247.773,320.524,243.788,328.379,245.428z"/>
			<path fill="#010101" d="M327.998,268.02c0.095,0.324,0.152,0.648,0.209,0.953c-0.267,0.553-0.438,0.858-0.438,0.858
				C327.864,269.221,327.94,268.61,327.998,268.02z"/>
			<path fill="#010101" d="M325.043,290.63c-0.496,1.926-1.029,3.622-1.64,4.709C322.431,297.093,323.365,294.69,325.043,290.63z"/>
			<path fill="#010101" d="M323.537,341.608c-0.02,0.038-0.02,0.058-0.02,0.058s-0.19,0.134-0.305,0.19
				C323.27,341.8,323.365,341.724,323.537,341.608z"/>
			<path fill="#010101" d="M321.059,326.948c0,0,0.247-0.515,0.667-1.392C321.459,329.026,321.059,326.948,321.059,326.948z"/>
			<path fill="#010101" d="M321.001,102.825c1.182,2.383-0.381,0.572-0.381,0.572S320.753,103.187,321.001,102.825z"/>
			<path fill="#DB8042" d="M314.92,96.171c3.031-2.574,9.284-7.759,10.275-7.435c1.335,0.438,0.61,4.766,0.61,4.766
				s28.807-8.331,35.002-4.899c2.727,1.487,3.565,2.001,3.661,2.135c-0.115,0-0.992-0.419-0.992-0.419s-14.203,1.811-17.749,3.184
				c-5.51,2.154-5.51,2.154-5.51,2.154l-0.057,0.61c-1.64-0.115-3.375-0.21-5.186-0.343c-8.026-0.534-12.678,5.071-13.975,6.901
				c-0.286-0.61-0.763-1.487-1.487-2.726C318.637,98.573,316.959,97.277,314.92,96.171z"/>
			<path fill="#010101" d="M311.679,94.684c1.62-2.326,4.175-5.357,7.568-7.473c6.196-3.851,18.97-3.527,18.97-3.527l-6.673,5.967
				c0.533-0.152,9.228-2.821,20.132-4.48c11.248-1.716,15.557,6.634,15.557,6.634l-14.146,1.697
				c0.629,0.076,14.069,1.583,19.465,3.87c5.548,2.345,7.76,10.905,7.76,10.905l-13.479-4.805c0.4,0.191,3.794,1.945,11.496,7.168
				c8.198,5.548,11.763,17.33,11.763,17.33s-9.341-6.425-7.11-3.736c2.211,2.669,3.355,14.489,3.355,14.489l-6.711-6.101
				c-0.248-0.648-0.324-0.858-0.362-0.839c0,0.095,0.172,0.667,0.172,0.667l0.19,0.171c0.209,0.61,0.571,1.64,1.125,3.26
				c2.173,6.406,0,19.693-1.106,16.052c-1.105-3.641-4.899-10.257-4.423-4.709c0.286,3.451-1.582,9.895-3.031,14.279
				c-1.239-0.705-2.974-1.944-4.671-3.26l-0.286-8.674l4.442,6.749c0,0,0,2.25,0.21-2.593c0.229-4.823-0.21-15.004-0.21-15.004
				l8.236,7.893c0.381,2.345,0.629,0.61,0.629,0.61l-0.629-0.61c-0.153-0.839-0.306-2.192-0.477-4.347
				c-0.648-7.912-3.375-15.328-3.527-15.786c0.477,0.553,9.475,11,8.617,6.825c-0.896-4.271-7.76-15.614-7.76-15.614l8.789,4.728
				c1.029,1.03,0.743,0.4,0.743,0.4l-0.743-0.4c-0.781-0.8-2.288-2.535-5.242-6.215c-6.863-8.56-21.715-13.917-19.274-14.565
				c2.439-0.629,16.396,4.29,16.396,4.29s3.107,0.858-3.546-5.205c-6.654-6.063-33.669-5.071-33.669-5.071s0,0,5.51-2.154
				c3.546-1.373,17.749-3.184,17.749-3.184s0.877,0.419,0.992,0.419c-0.096-0.134-0.935-0.648-3.661-2.135
				c-6.195-3.432-35.002,4.899-35.002,4.899s0.725-4.328-0.61-4.766c-0.991-0.324-7.244,4.861-10.275,7.435
				C313.909,95.618,312.804,95.123,311.679,94.684z"/>
			<path fill="#010101" d="M316.197,101.776c-0.286-0.209-2.67-1.201-5.739-2.44l-0.171-1.392l2.974-0.362
				c0,0,0.648-0.572,1.659-1.411c2.039,1.106,3.717,2.402,4.594,3.928c0.725,1.239,1.201,2.116,1.487,2.726
				c-0.248,0.362-0.381,0.572-0.381,0.572s1.563,1.811,0.381-0.572c1.297-1.83,5.948-7.435,13.975-6.901
				c1.811,0.133,3.546,0.229,5.186,0.343c7.054,0.515,12.487,1.163,15.557,3.832c3.813,3.298,5.814,4.842,0,3.965
				s6.063,1.982,10.313,7.912c4.232,5.929,4.232,5.929,4.232,5.929l-6.443-3.984c-2.174-1.773-3.852-2.383-3.852-2.383l3.852,2.383
				c1.658,1.315,3.584,3.279,5.319,6.139c2.516,4.118,3.202,5.262,3.336,5.529c-0.458-0.534-7.931-9.037-11.82-10.314
				c-1.62-0.534-2.383-0.782-2.688-0.877c0,0,11.172,6.482,12.754,15.213c0.515,2.86,0.877,4.5,1.163,5.415l-6.082-6.253
				c-0.819-1.334-1.582-1.64-1.582-1.64l1.582,1.64c0.801,1.296,1.678,3.508,2.002,7.321c0.667,7.759,0.229,6.539,0.229,6.539
				l-3.584-2.154l1.582,11.496l-4.709-2.86l4.709,5.51l-4.67-1.43c0.305,0.286,3.202,2.764,6.157,5.052l0.096,2.745h-0.038
				c0,0-13.879-8.465-19.274-11.229c-0.991-0.496-1.697-0.82-1.982-0.858c-1.773-0.229,8.731-2.421,8.731-2.421
				s-16.758-8.579-29.513-10.104c-12.754-1.544,19.446-2.421,19.446-2.421s0.229-1.754-6.691-6.387
				c-2.326-1.544-3.813-2.459-4.747-2.974l10.219,3.432c0,0-16.225-10.123-19.58-10.771c-3.355-0.667,10.791-0.667,10.791-0.667
				l-12.563-7.245l12.563,1.754c0,0-15.004-5.281-15.462-5.052c-0.457,0.21-22.172-7.34-22.172-7.34s11.63,0.763,17.901,2.803
				C315.815,101.7,316.12,101.776,316.197,101.776z"/>
			<path fill="#010101" d="M314.92,96.171c-1.011,0.839-1.659,1.411-1.659,1.411l-2.974,0.362l-0.668,0.076
				c0,0,0.706-1.411,2.06-3.336C312.804,95.123,313.909,95.618,314.92,96.171z"/>
			<path fill="#010101" d="M303.69,133.538c1.182,0.21,0.458,0.153-1.163-0.019C302.89,133.461,303.29,133.461,303.69,133.538z"/>
			<path fill="#010101" d="M321.059,326.948c0,0,0.4,2.078,0.667-1.392C321.306,326.434,321.059,326.948,321.059,326.948z
				 M318.37,319.685c0,0-11.744,21.962-14.966,27.491c-1.296,2.23-2.192,3.604-2.783,4.347c0.515-1.277,1.163-3.374,2.002-6.749
				v-0.019l18.168-31.609c0,0,1.239,4.251,1.03,10.409c-0.02,0.801-0.058,1.449-0.096,1.982c1.792-3.774,6.729-14.222,9.475-19.998
				c2.212-4.633,3.794-5.301,4.271-3.355c0.268,1.029,0.191,2.84-0.267,5.186c-0.19,0.896-0.438,2.04-0.725,3.336l-1.125-0.248
				c-0.229,0.324-7.53,16.225-12.734,21.543C315.243,337.491,318.37,319.685,318.37,319.685z"/>
			<path fill="#010101" d="M302.623,344.773c-0.839,3.375-1.487,5.472-2.002,6.749c0,0.019,0,0.019-0.02,0.038
				c-2.269,2.955,0.306-3.813,0.306-3.813L302.623,344.773z"/>
			<path fill="#010101" d="M303.29,314.918c0.667-4.327-1.982,6.425-1.982,6.425l-0.344-8.503l0.058-4.155
				c0,0,12.735-18.646,11.744-15.118c-0.992,3.546,14.622-17.158,14.622-17.158s-0.857,8.255-2.345,14.222
				c-1.678,4.061-2.612,6.463-1.64,4.709c0.61-1.087,1.144-2.783,1.64-4.709c2.593-6.291,6.939-16.567,8.503-21.447
				c2.917-9.189,2.917-4.861,2.917-4.861s3.05,12.411,2.555,22.991c-0.496,10.601,0.019,5.948,0.019,5.948s3.966-6.253,7.13-14.774
				c3.68-9.952,6.311-17.006,6.311-17.006s0,0.21-0.019,0.571c-0.191,3.451-1.297,21.677-5.968,31.515
				c-5.147,10.924-9.132,9.951-9.799,8.674c-0.02-0.038-0.038-0.095-0.058-0.133c-0.647-1.755-1.277-10.943-1.277-10.943
				s-4.461,7.054-7.702,13.479c-4.423,8.827-5.414,4.327-5.414,4.327l-3.488-9.303l-2.67,9.951c0,0-0.819-5.776-0.495-8.35
				c0.343-2.555-5.472,15.728-8.313,20.38c-2.821,4.651-2.821,4.651-2.821,4.651S302.623,319.246,303.29,314.918z"/>
			<path fill="#DB8042" d="M301.632,291.813c3.088-7.798,1.296-6.502,0.076-4.957l-2.574-2.269l3.107-8.561l-0.229,7.912
				l6.997-15.176l3.317,15.023c0,0,5.757-4.977,7.53-12.679c1.772-7.701,1.544-8.56,1.544-8.56s5.872,7.283,6.329,11.344
				l-0.343,2.517c0,0-15.614,20.704-14.622,17.158c0.991-3.527-11.744,15.118-11.744,15.118l3.774-15.748l2.479-8.503l-7.13,11.954
				C300.145,296.388,297.818,301.439,301.632,291.813z"/>
			<path fill="#010101" d="M294.501,140.401c-0.038,0.134-0.267,0.134-0.324,0.134C294.234,140.515,294.33,140.458,294.501,140.401z
				"/>
			<path fill="#FFFFFF" d="M287.867,142.689c0,0.858-0.706,1.544-1.602,1.544c-0.877,0-1.602-0.686-1.602-1.544
				s0.725-1.563,1.602-1.563C287.161,141.125,287.867,141.831,287.867,142.689z"/>
			<path fill="#010101" d="M279.479,191.723c0.896,0,1.64,0.725,1.64,1.602s-0.744,1.583-1.64,1.583c-0.915,0-1.64-0.706-1.64-1.583
				S278.563,191.723,279.479,191.723z"/>
			<path fill="#010101" d="M279.192,167.835c0,0.305-0.61,0.553-1.354,0.553c-0.763,0-1.373-0.248-1.373-0.553
				c0-0.324,0.61-0.572,1.373-0.572C278.582,167.263,279.192,167.511,279.192,167.835z"/>
			<path fill="#010101" d="M284.073,196.222c0,0-0.076-1.602-0.248-4.137l1.812-0.133l0.019,0.038
				c0.229,0.648,4.08,11.229,5.738,14.718c1.411,2.955,6.177,11.229,6.463,11.744l-7.054-3.394l3.68,14.336l-3.68-7.816
				c0,0-1.182,21.714,0.362,34.983c1.544,13.27,4.881,8.77,4.881,8.77l5.757-16.681l2.65,22.667c0,0,4.213-17.959,5.986-15.194
				c1.772,2.783,3.774,21.829,3.774,21.829s0.096-2.555,2.098-8.561c2.44-7.34,1.772-15.403,1.772-15.403s2.803,3.05,7.454,9.265
				c1.315,1.754,2.06,3.355,2.46,4.767c-0.058,0.591-0.134,1.201-0.229,1.812c0,0,0.172-0.306,0.438-0.858
				c0.572,3.031-0.477,4.919-0.477,4.919c-0.457-4.061-6.329-11.344-6.329-11.344s0.229,0.858-1.544,8.56
				c-1.773,7.702-7.53,12.679-7.53,12.679l-3.317-15.023l-6.997,15.176l0.229-7.912l-3.107,8.561l-1.772-10.486l-5.529,4.709
				l-8.636,12.831l1.982-15.404l-5.967,20.762l-0.458-8.561l-2.879-13.688l-4.651,17.33l-2.44,1.487l-2.65,5.356l1.106-13.593
				l0.877-10.791c0,0,3.107-7.282,4.88-10.924c1.735-3.546,9.876-51.779,9.933-52.618c-0.19,0.782-3.107,1.697-4.613,2.116
				c-0.096-0.152-0.19-0.305-0.286-0.477c0.458-0.572,1.335-1.64,2.937-3.584C284.512,204.782,284.073,196.222,284.073,196.222z"/>
			<path fill="#010101" d="M278.029,212.637c-0.591,0.706-0.591,0.706-0.591,0.706s0.343-0.076,0.877-0.229
				c0.591,1.03,0.877,1.678,0.877,1.678v1.277c0,0-0.896-1.029-2.307-2.498c0.457-0.991,0.725-1.601,0.725-1.601
				C277.763,212.217,277.896,212.427,278.029,212.637z"/>
			<path fill="#010101" d="M277.839,173.764c0.743,0,1.354,0.591,1.354,1.315c0,0.724-0.61,1.315-1.354,1.315
				c-0.763,0-1.373-0.591-1.373-1.315C276.466,174.355,277.076,173.764,277.839,173.764z"/>
			<path fill="#010101" d="M278.029,212.637c0.096,0.171,0.19,0.324,0.286,0.477c-0.534,0.153-0.877,0.229-0.877,0.229
				S277.438,213.342,278.029,212.637z"/>
			<path fill="#010101" d="M276.466,181.676c0.63,0,1.145,0.496,1.145,1.106c0,0.61-0.515,1.105-1.145,1.105
				c-0.629,0-1.144-0.496-1.144-1.105C275.322,182.171,275.837,181.676,276.466,181.676z"/>
			<path fill="#010101" d="M277.61,211.97c0,0-0.268,0.61-0.725,1.601c-0.725-0.782-1.602-1.678-2.555-2.612
				c0.172-0.724,0.286-1.144,0.286-1.144L277.61,211.97z"/>
			<path fill="#010101" d="M275.895,199.863c0.305,0,0.571,0.248,0.571,0.553c0,0.305-0.267,0.553-0.571,0.553
				c-0.324,0-0.572-0.248-0.572-0.553C275.322,200.111,275.57,199.863,275.895,199.863z"/>
			<path fill="#010101" d="M274.331,210.959c0.953,0.934,1.83,1.83,2.555,2.612c-1.277,2.822-4.004,8.808-5.91,12.831
				c0.058-0.667,0.076-1.029,0.076-1.029l-1.964,4.48C270.289,226.363,273.358,214.658,274.331,210.959z"/>
			<path fill="#010101" d="M283.729,152.259l0.458,5.452l-3.546-3.412l-5.319-5.357c0,0,1.315-0.209,3.984,2.345
				c2.65,2.573,2.879,1.296,2.879,1.296v-4.08l4.651,3.87l-2.001-3.87c0,0,5.548,2.993,10.199,2.574s-3.107-2.574-3.107-2.574
				s4.804,0.324,8.865,2.574c6.215,3.432,0.229,2.135-1.773,2.574c-2.002,0.419-10.429-1.277-10.429-1.277s1.525,4.918,0,3.622
				C287.066,154.718,283.729,152.259,283.729,152.259z"/>
			<path fill="#010101" d="M285.637,191.952l-1.812,0.133c-0.458-6.31-1.582-18.416-3.966-25.604
				c-2.497-7.531-7.092-14.165-9.246-17.006c-0.61-0.82-1.011-1.315-1.125-1.449c0.4,0.343,3.775,3.394,11.268,11.61
				c7.969,8.77,9.666,17.33,9.666,17.33l0.381-1.716l1.906,4.08l1.125-4.08l5.3,5.147l-3.317-10.485l6.654,5.338l-2.67-7.264
				l5.758,2.345l-8.197-7.054h7.188l-2.746-3.851h5.986l-3.24-1.296l7.587-1.697l-3.908-0.858c0,0,0,0,4.881-4.061
				c4.861-4.08,2.212-7.283,2.212-7.283c5.814,1.735,5.757,2.574,7.092,3.756c1.315,1.201-3.337,3.946-3.107,5.128
				c0.229,1.163,9.074,2.669,7.302,4.594c-1.754,1.926-13.498,1.506-11.516,2.784c2.002,1.277,10.639,0.648,10.639,0.648
				s0,0-3.547,2.555c-3.546,2.574-12.62,4.29-12.62,4.29l6.635,7.264l-7.302-1.277l9.513,14.337l-15.271-8.56l8.789,13.688
				l-10.791-8.979l0.438,14.336l-3.698-8.77l-1.392,8.77l-7.093-11.763l3.547,16.472l-7.283-11.515L285.637,191.952z"/>
			<path fill="#010101" d="M270.041,190.655c0.61,0,1.106,0.477,1.106,1.067c0,0.591-0.496,1.087-1.106,1.087
				c-0.609,0-1.105-0.496-1.105-1.087C268.936,191.132,269.432,190.655,270.041,190.655z"/>
			<path fill="#010101" d="M270.976,226.401c-1.449,3.069-2.421,4.995-1.906,3.508c0-0.019,0.019-0.038,0.019-0.057l1.964-4.48
				C271.052,225.372,271.033,225.734,270.976,226.401z"/>
			<path fill="#D85C45" d="M282.929,210.997c-0.057,0.839-8.197,49.072-9.933,52.618c-1.772,3.642-4.88,10.924-4.88,10.924
				l-0.877,10.791l-1.106-0.096v-32.009c0.515-0.61,1.201-2.174,2.098-5.224c1.448-4.957,2.479-17.882,2.745-21.6
				c1.906-4.022,4.633-10.009,5.91-12.831c1.41,1.468,2.307,2.498,2.307,2.498v-1.277c0,0-0.286-0.648-0.877-1.678
				C279.821,212.694,282.738,211.779,282.929,210.997z"/>
			<path fill="#010101" d="M268.021,136.741c-0.667-0.191-1.067-1.85-1.277-3.966C267.448,135.082,268.021,136.741,268.021,136.741z
				"/>
			<path fill="#010101" d="M267.64,197.29c0.705,0,1.296,0.553,1.296,1.239c0,0.687-0.591,1.239-1.296,1.239
				c-0.706,0-1.277-0.553-1.277-1.239C266.362,197.843,266.934,197.29,267.64,197.29z"/>
			<path fill="#010101" d="M267.64,233.169c0.038,1.83-0.038,0.076-0.038,0.076L267.64,233.169z"/>
			<path fill="#010101" d="M269.069,229.909c-0.515,1.487,0.457-0.438,1.906-3.508c-0.267,3.718-1.297,16.644-2.745,21.6
				c-0.896,3.05-1.583,4.614-2.098,5.224v-2.822c0,0-0.076-0.229-0.229-0.4c0.096-0.343,0.172-0.629,0.229-0.877
				c0.477-2.192,0.191-1.525-0.724,0.667l-0.02,0.019c-0.19,0.134-0.381,0.496-0.553,1.277c-0.058,0.114-0.096,0.229-0.152,0.362
				c-0.248-1.563-0.268-3.451-0.268-3.451s-2.669-21.829-4.994-24.079c-2.326-2.23-11.134-7.054-16.282-0.477
				c-4.461,5.72-3.87,36.757-3.87,36.757s-4.099-36.7-8.426-38.625c-4.023-1.792-14.813-0.438-17.482,14.127l-1.392-0.248
				c0.324-2.498,3.679-29.188,5.586-32.543c0.82-1.449,1.296-2.307,1.583-2.802c0.286-0.057,0.572-0.114,0.877-0.171l3.679,4.251
				l2.841-5.128c0.934-0.115,1.849-0.21,2.726-0.267l4.576,3.946l2.688-4.423c0.477-0.019,0.877-0.038,1.201-0.038l2.764,4.785
				l5.109-4.461c0.648,0.058,1.315,0.134,2.021,0.229l1.334,4.08l2.517-3.527c0.248,0.057,0.495,0.096,0.743,0.134l1.735,4.995
				l3.718-3.736c0.361,0.095,0.743,0.209,1.124,0.324c1.716,4.995,8.655,25.585,8.771,29.569c0.038,1.182,0.076,1.983,0.076,2.498
				l-0.038,0.076c0,0,0.076,1.754,0.038-0.076L269.069,229.909z"/>
			<path fill="#DB8042" d="M274.884,131.174c2.879-4.061,6.234-6.406,6.234-6.406s-5.129,9.627,1.296,5.986
				c6.425-3.642,12.411-3.222,12.411-3.222s-7.759,6.425-4.441,5.567c2.211-0.553,8.94,0.115,12.144,0.419
				c-2.859,0.343-4.48,3.794-3.488,3.222c0.343-0.191,1.64-0.267,3.26-0.286l0.038,2.822c-0.4,0-0.648,0.038-0.648,0.038
				s-0.667,2.574-2.44,1.22c-1.43-1.068-3.851-0.419-4.747-0.134c0.114-0.209-0.515-0.839-4.556-2.593
				c-6.425-2.783-14.623,2.727-14.623,2.727l-1.773-1.011c0,0-1.982,1.506-5.528,0.858c-3.546-0.648,1.982-3.069,1.982-3.069
				l-1.982-0.572c0,0-0.572-1.659-1.277-3.966c-0.477-4.251-0.286-10.371-0.286-10.371l3.337,6.749l2.211-3.965
				C272.005,125.188,272.005,135.253,274.884,131.174z"/>
			<path fill="#010101" d="M284.854,121.336c0,0-0.667,5.147-1.563,6.215c-0.877,1.068,7.073-2.745,12.411-2.574
				c6.425,0.21,3.984,1.602,3.984,1.602s-4.651,4.175-5.967,4.385c1.105-0.114,10.657-1.01,17.711,3.851
				c7.76,5.357-0.21,1.85-0.21,1.85s-5.3-0.267-8.922-0.21c-1.62,0.019-2.917,0.095-3.26,0.286
				c-0.992,0.572,0.629-2.879,3.488-3.222c1.621,0.172,2.345,0.229,1.163,0.019c-0.4-0.076-0.801-0.076-1.163-0.019
				c-3.203-0.305-9.933-0.972-12.144-0.419c-3.317,0.858,4.441-5.567,4.441-5.567s-5.986-0.419-12.411,3.222
				c-6.425,3.641-1.296-5.986-1.296-5.986s-3.355,2.345-6.234,6.406c-2.879,4.08-2.879-5.986-2.879-5.986l-2.211,3.965l-3.337-6.749
				c0,0-0.19,6.12,0.286,10.371c-1.163-3.755-2.707-9.265-2.727-12.068c-0.057-7.702,2.67-5.052,2.67-5.052s3.546,5.262,3.107,9.113
				c-0.458,3.851,2.211-3.851,3.526-4.709c1.335-0.858,0.458,4.499,0.896,6.52c0.438,2.04,3.164-2.669,6.901-3.946
				C284.854,121.336,284.854,121.336,284.854,121.336z"/>
			<path fill="#010101" d="M265.409,249.793c0.915-2.192,1.2-2.859,0.724-0.667c-0.057,0.248-0.133,0.534-0.229,0.877
				C265.771,249.832,265.6,249.679,265.409,249.793z"/>
			<path fill="#010101" d="M266.133,250.404v2.822c-0.515,0.629-0.877,0.324-1.124-0.4c0.381-1.106,0.686-2.078,0.896-2.822
				C266.057,250.175,266.133,250.404,266.133,250.404z"/>
			<path fill="#010101" d="M265.409,249.793c0.19-0.114,0.361,0.039,0.495,0.21c-0.21,0.744-0.515,1.715-0.896,2.822
				c-0.115-0.306-0.21-0.687-0.286-1.106c0,0,0,0,0-0.019c0.038-0.229,0.076-0.438,0.114-0.61c0.21-0.477,0.381-0.896,0.553-1.277
				L265.409,249.793z"/>
			<path fill="#010101" d="M265.39,249.813c-0.172,0.381-0.343,0.801-0.553,1.277C265.009,250.309,265.199,249.946,265.39,249.813z"
				/>
			<path fill="#010101" d="M264.685,251.452c0.057-0.134,0.095-0.248,0.152-0.362c-0.038,0.172-0.076,0.382-0.114,0.61
				C264.703,251.624,264.703,251.528,264.685,251.452z"/>
			<path fill="#010101" d="M264.723,251.719c0.076,0.42,0.171,0.801,0.286,1.106c-0.191,0.495-0.382,1.01-0.572,1.544
				C264.513,253.244,264.608,252.387,264.723,251.719z"/>
			<path fill="#010101" d="M264.913,189.359c0,0.4-0.343,0.706-0.743,0.706c-0.42,0-0.763-0.305-0.763-0.706
				s0.343-0.725,0.763-0.725C264.57,188.634,264.913,188.958,264.913,189.359z"/>
			<path fill="#010101" d="M263.407,274.006v3.203c0,0-0.496,0.934-1.277,2.192c0.305-1.411,0.553-2.879,0.763-4.347
				C263.216,274.406,263.407,274.006,263.407,274.006z"/>
			<path fill="#DB8042" d="M295.321,337.109c-4.214,11.782-10.409,25.681-9.762,23.221c0.668-2.479,0.896-16.147,0.896-16.147
				s-1.105,4.689-3.317,12.183c-2.211,7.492-8.255,20.723-8.255,20.723s-0.839,5.376,0-2.745s-1.944-25.471-1.944-25.471
				s-1.106,4.938-2.212,11.458c-1.105,6.521-9.971,22.992-9.971,22.992s-0.286,0.896-0.381,1.105
				c0.019-0.19,0.324-1.354,1.277-4.728c2.211-7.932,1.754-22.039,1.754-22.039l1.678-0.953c1.239,1.773,2.173,2.23,1.982-0.076
				c-0.458-5.548,1.964-15.156,2.307-16.396c-0.114,1.468-1.125,14.813,2.174,6.939c3.488-8.351,5.833-18.131,5.833-18.131
				s0.153,1.277,0.648,8.503c0.515,7.207-1.982,15.557,0.839,11.706c2.821-3.852,7.149-17.654,7.149-17.654l1.315,4.022
				c0,0,0.839-3.526,0.839-3.05s1.506,4.976,1.506,4.976s0,0,4.805-7.226c4.823-7.226,6.481-17.482,6.481-17.482l0.344,8.503
				c0,0,2.649-10.752,1.982-6.425c-0.667,4.328,1.163,11.382,1.163,11.382s0,0,2.821-4.651c2.841-4.652,8.655-22.935,8.313-20.38
				c-0.324,2.573,0.495,8.35,0.495,8.35l2.67-9.951l3.488,9.303c0,0,0.991,4.5,5.414-4.327c3.241-6.425,7.702-13.479,7.702-13.479
				s0.63,9.188,1.277,10.943l-1.163,0.076c-0.477-1.945-2.059-1.277-4.271,3.355c-2.745,5.776-7.683,16.224-9.475,19.998
				c0.038-0.533,0.076-1.182,0.096-1.982c0.209-6.158-1.03-10.409-1.03-10.409l-18.168,31.609
				c2.269-9.247-1.145-19.923-1.315-20.457C301.308,324.298,299.534,325.347,295.321,337.109z"/>
			<path fill="#010101" d="M263.369,286.397l-5.434,7.816c0,0-0.953-0.457-2.326-1.067c0.362-0.381,0.743-0.763,1.163-1.182
				c0.801-0.801,1.506-1.792,2.135-2.937C261.062,288.343,263.063,286.646,263.369,286.397z"/>
			<path fill="#010101" d="M285.56,360.33c-0.647,2.46,5.548-11.438,9.762-23.221c4.213-11.763,5.986-12.812,5.986-12.812
				c0.171,0.534,3.584,11.21,1.315,20.457v0.019l-1.716,2.975c0,0-2.574,6.768-0.306,3.813c-0.896,2.288-1.296,2.021-1.296,2.021
				s0-17.749,0.877-20.532c0.896-2.783-12.85,28.234-15.729,31.247c-2.573,2.688-1.43-1.678-1.163-2.612
				c-0.743,1.773-7.188,17.12-9.685,20.361c-2.65,3.432-1.773-14.546-1.773-14.546s-9.532,19.255-11.305,20.742
				c-1.659,1.41-9.266,25.756-12.773,18.358c0.362-0.209,0.801-1.506,1.239-3.508c2.002-2.001,5.128-6.005,7.111-12.696
				c3.107-10.486,7.302-32.734,7.302-32.734s0.457,14.107-1.754,22.039c-0.953,3.374-1.259,4.537-1.277,4.728
				c0.095-0.21,0.381-1.105,0.381-1.105s8.865-16.472,9.971-22.992c1.105-6.52,2.212-11.458,2.212-11.458s2.783,17.35,1.944,25.471
				s0,2.745,0,2.745s6.044-13.23,8.255-20.723c2.212-7.493,3.317-12.183,3.317-12.183S286.228,357.852,285.56,360.33z"/>
			<path fill="#010101" d="M258.431,200.016c0,0,0.134,0.4,0.362,1.086c-0.381-0.114-0.763-0.229-1.124-0.324L258.431,200.016z"/>
			<path fill="#010101" d="M258.374,142.498c-0.038,0-0.076,0.019-0.114,0.019c-2.384,0.324-3.928-0.458-4.881-1.315
				C255.19,141.583,256.868,142.041,258.374,142.498z"/>
			<path fill="#010101" d="M256.314,193.648c0.592,0,1.068,0.458,1.068,1.029c0,0.572-0.477,1.03-1.068,1.03
				c-0.591,0-1.048-0.458-1.048-1.03C255.267,194.106,255.724,193.648,256.314,193.648z"/>
			<path fill="#010101" d="M295.702,142.517c-2.879,2.135-1.544,6.043-11.286,5.415c-9.761-0.648-9.284-0.076-11.744-1.087
				c-1.982-0.801-4.003-1.544-7.32-4.328c-2.116-1.773-7.969-10.485-7.969-10.485s-2.879,1.506-4.442,0.438
				c-1.544-1.068-1.315-4.919,4.442-2.574c0,0,3.546,5.567,6.634,6.844c3.108,1.296,4.004,0,4.004,0l1.982,0.572
				c0,0-5.528,2.421-1.982,3.069c3.546,0.648,5.528-0.858,5.528-0.858l1.773,1.011c0,0,8.198-5.51,14.623-2.727
				c4.041,1.754,4.67,2.383,4.556,2.593c-0.171,0.057-0.267,0.114-0.324,0.134c0.058,0,0.286,0,0.324-0.134
				c0.896-0.286,3.317-0.934,4.747,0.134c1.773,1.354,2.44-1.22,2.44-1.22s0.248-0.038,0.648-0.038c1.144,0,3.546,0.343,5.338,3.031
				c2.44,3.641,2.44,3.641,2.44,3.641s-13.307-0.209-15.519,0C292.385,146.159,298.943,140.115,295.702,142.517z M286.266,141.125
				c-0.877,0-1.602,0.706-1.602,1.563s0.725,1.544,1.602,1.544c0.896,0,1.602-0.686,1.602-1.544S287.161,141.125,286.266,141.125z"
				/>
			<path fill="#010101" d="M250.958,134.396c11.744,0.21,5.987,4.309,5.987,4.309s5.872,3.127,1.43,3.794
				c-1.506-0.458-3.184-0.915-4.995-1.296c-0.896-0.82-1.258-1.678-1.258-1.678s5.262-1.277,1.048-1.735
				C248.956,137.332,250.958,134.396,250.958,134.396z"/>
			<path fill="#010101" d="M251.949,198.739l0.267,0.782c-0.248-0.038-0.495-0.077-0.743-0.134L251.949,198.739z"/>
			<path fill="#010101" d="M248.727,192.924c0.381,0,0.667,0.286,0.667,0.629c0,0.362-0.286,0.648-0.667,0.648
				c-0.362,0-0.648-0.286-0.648-0.648C248.079,193.21,248.365,192.924,248.727,192.924z"/>
			<path fill="#DB8042" d="M248.727,194.201c0.381,0,0.667-0.286,0.667-0.648c0-0.343-0.286-0.629-0.667-0.629
				c-0.362,0-0.648,0.286-0.648,0.629C248.079,193.916,248.365,194.201,248.727,194.201z M255.267,194.678
				c0,0.572,0.457,1.03,1.048,1.03c0.592,0,1.068-0.458,1.068-1.03c0-0.572-0.477-1.029-1.068-1.029
				C255.724,193.648,255.267,194.106,255.267,194.678z M264.17,190.064c0.4,0,0.743-0.305,0.743-0.706s-0.343-0.725-0.743-0.725
				c-0.42,0-0.763,0.324-0.763,0.725S263.75,190.064,264.17,190.064z M270.041,190.655c-0.609,0-1.105,0.477-1.105,1.067
				c0,0.591,0.496,1.087,1.105,1.087c0.61,0,1.106-0.496,1.106-1.087C271.147,191.132,270.651,190.655,270.041,190.655z
				 M266.362,198.529c0,0.687,0.571,1.239,1.277,1.239c0.705,0,1.296-0.553,1.296-1.239c0-0.686-0.591-1.239-1.296-1.239
				C266.934,197.29,266.362,197.843,266.362,198.529z M276.466,183.887c0.63,0,1.145-0.496,1.145-1.105
				c0-0.61-0.515-1.106-1.145-1.106c-0.629,0-1.144,0.496-1.144,1.106C275.322,183.392,275.837,183.887,276.466,183.887z
				 M279.479,194.907c0.896,0,1.64-0.706,1.64-1.583s-0.744-1.602-1.64-1.602c-0.915,0-1.64,0.725-1.64,1.602
				S278.563,194.907,279.479,194.907z M277.839,168.388c0.743,0,1.354-0.248,1.354-0.553c0-0.324-0.61-0.572-1.354-0.572
				c-0.763,0-1.373,0.248-1.373,0.572C276.466,168.14,277.076,168.388,277.839,168.388z M277.839,176.395
				c0.743,0,1.354-0.591,1.354-1.315c0-0.725-0.61-1.315-1.354-1.315c-0.763,0-1.373,0.591-1.373,1.315
				C276.466,175.804,277.076,176.395,277.839,176.395z M283.825,192.085c0.172,2.536,0.248,4.137,0.248,4.137
				s0.438,8.56-3.107,12.831c-1.602,1.944-2.479,3.012-2.937,3.584c-0.133-0.209-0.267-0.419-0.419-0.667
				c-2.154-3.355-6.615-8.884-13.86-11.782c-5.72-2.288-14.089-3.489-21.771-3.927v-4.747c0,0,14.127-0.648,20.876-4.804
				c7.816-4.823,10.542-8.503,11.267-14.775c0.591-5.052,1.697-14.794-3.984-22.077l0.477-0.381
				c2.154,2.841,6.749,9.475,9.246,17.006C282.243,173.669,283.367,185.775,283.825,192.085z M276.466,200.417
				c0-0.305-0.267-0.553-0.571-0.553c-0.324,0-0.572,0.248-0.572,0.553c0,0.305,0.248,0.553,0.572,0.553
				C276.199,200.969,276.466,200.721,276.466,200.417z"/>
			<path fill="#010101" d="M299.153,88.45c4.918,0.438-8.961-1.754-18.684-0.209c-9.723,1.525-9.723,1.525-9.723,1.525l4.022-6.806
				l-14.985,8.331l2.231-7.226l-8.046,7.226l-0.457-5.472l-4.232,7.245l-2.784-6.806l-7.188,9.399c0,0,0-0.019-0.019-0.038
				c-0.019-0.114-0.133-0.477-0.286-1.029c1.83-5.224,5.776-16.243,6.463-16.243c0.896,0,3.584,11.648,4.251,11.21
				c0.667-0.438,4.479-11.21,4.479-11.21s1.335,6.368,0.896,8.789c-0.457,2.421,4.938-8.579,9.837-8.789
				c4.919-0.229-0.495,6.158-1.144,7.035s11.877-6.596,16.682-6.158s-4.137,6.158-4.137,6.158s13.421-3.527,23.926,0
				c10.523,3.508,12.983,5.91,12.983,5.91h-14.089c0,0,6.691,1.049,12.525,3.394c-1.354,1.925-2.06,3.336-2.06,3.336l0.668-0.076
				l0.171,1.392c-6.253-2.517-15.347-6.043-15.347-6.043S294.254,88.011,299.153,88.45z"/>
			<path fill="#010101" d="M248.994,403.092c-0.438,2.002-0.877,3.299-1.239,3.508c-0.248-0.477-0.477-1.105-0.667-1.868
				C247.087,404.731,247.869,404.236,248.994,403.092z"/>
			<path fill="#010101" d="M247.755,406.6c-0.286,0.172-0.515-0.381-0.667-1.868C247.278,405.494,247.507,406.123,247.755,406.6z"/>
			<path fill="#010101" d="M247.126,197.29l0.496,1.544c-0.706-0.095-1.373-0.171-2.021-0.229L247.126,197.29z"/>
			<path fill="#010101" d="M242.836,324.851c0.095,0.134-0.019,0.02-0.019,0.02S242.817,324.87,242.836,324.851z"/>
			<path fill="#010101" d="M243.313,110.641c0.572-0.324,1.182-0.591,1.811-0.82C242.665,111.08,241.406,111.709,243.313,110.641z"
				/>
			<path fill="#010101" d="M241.979,196.26v1.029h-4.824h-2.307c0,0,0-0.572,0-1.239C237.079,196.051,239.5,196.108,241.979,196.26z
				"/>
			<path fill="#010101" d="M240.815,116.417c2.326-1.773,9.971-1.449,5.147,0c-4.804,1.449-7.378,4.976-7.378,4.976
				c2.726-7.702-0.191-10.6-1.277-14.928c-0.115-0.458-0.362-0.896-0.744-1.296c2.745-3.736,13.536-6.634,13.898-6.71
				c-0.705,0.724-13.974,14.317-8.312,9.78c5.814-4.651,13.956-4.175,13.956-4.175s-6.978,3.679-10.981,5.757
				c-0.629,0.229-1.239,0.496-1.811,0.82c-1.907,1.068-0.648,0.438,1.811-0.82c5.243-1.887,12.259-1.182,7.816-0.629
				C247.964,109.84,238.489,118.191,240.815,116.417z"/>
			<path fill="#010101" d="M239.29,95.618c0.019,0.019,0.019,0.038,0.019,0.038l-1.239,1.621c0,0,0.286-0.82,0.743-2.135
				L239.29,95.618z"/>
			<path fill="#010101" d="M239.29,95.618l-0.477-0.477c0.057-0.171,0.114-0.362,0.191-0.553
				C239.157,95.142,239.271,95.504,239.29,95.618z"/>
			<path fill="#010101" d="M263.75,200.188c7.245,2.898,11.706,8.427,13.86,11.782l-2.993-2.154c0,0-0.114,0.419-0.286,1.144
				c-3.107-3.05-7.092-6.596-10.085-7.893c-1.792-0.782-3.623-1.43-5.453-1.964c-0.229-0.686-0.362-1.086-0.362-1.086l-0.762,0.763
				c-1.869-0.515-3.699-0.916-5.453-1.258l-0.267-0.782l-0.477,0.648c-1.334-0.229-2.631-0.419-3.851-0.553l-0.496-1.544
				l-1.525,1.315c-4.194-0.4-7.016-0.343-7.016-0.343s-0.305,0-0.858,0.019l-0.572-0.992h4.824v-1.029
				C249.661,196.699,258.03,197.9,263.75,200.188z"/>
			<path fill="#010101" d="M237.155,197.29l0.572,0.992c-0.324,0-0.725,0.019-1.201,0.038L237.155,197.29z"/>
			<path fill="#010101" d="M237.308,106.466c1.086,4.328,4.003,7.226,1.277,14.928c-2.727-7.702-3.661-10.752-2.593-15.08
				c0.095-0.381,0.286-0.763,0.572-1.144C236.945,105.57,237.193,106.008,237.308,106.466z"/>
			<path fill="#010101" d="M237.651,175.957l0.934-24.879l-2.593,1.277c0,0,0.496,1.773-0.667,9.323
				c-1.163,7.53-12.792,16.033-11.172,15.557C225.754,176.757,237.651,175.957,237.651,175.957z M243.198,152.145
				c0,0-3.05,25.26-1.887,24.44c1.163-0.801,12.887,0.858,15.862,1.182c2.974,0.305,10.733-9.38,6.844-5.51
				c-2.097,2.097-11.4,3.699-16.052,0.477c-4.651-3.203-2.821-20.532-2.821-20.532C245.01,151.344,243.198,152.145,243.198,152.145z
				 M246.802,147.989c11.629,0.953,16.892,3.394,17.177,3.527c-0.896-0.744-21.657-17.73-46.879-0.782
				C217.938,150.543,233.609,146.94,246.802,147.989z M253.379,141.202c0.953,0.858,2.497,1.64,4.881,1.315
				c0.038,0,0.076-0.019,0.114-0.019c2.841,0.877,5.071,1.83,6.425,2.65c2.23,1.354,3.984,2.955,5.338,4.709
				c5.682,7.283,4.575,17.025,3.984,22.077c-0.725,6.272-3.45,9.952-11.267,14.775c-6.749,4.156-20.876,4.804-20.876,4.804v4.747
				c-2.479-0.152-4.9-0.209-7.13-0.209c0-0.572,0-1.201,0-1.64c0.019-0.973-0.515-3.527-0.515-3.527s-0.248,0.286-7.054-0.343
				c-6.806-0.648-9.227,0.019-19.522-10.257c-9.513-9.494-3.26-24.612-2.25-26.881c0.076-0.19,0.133-0.286,0.133-0.286
				C217.271,137.789,239.309,138.094,253.379,141.202z"/>
			<path fill="#010101" d="M234.295,109.116c-0.305-0.21-1.182-0.896-2.364-1.812c0.438,0.286,0.877,0.591,1.296,0.934
				C233.761,108.677,234.104,108.944,234.295,109.116z"/>
			<path fill="#010101" d="M232.065,110.641c1.887,1.048,0.686,0.458-1.697-0.782C230.959,110.088,231.531,110.336,232.065,110.641z
				"/>
			<path fill="#010101" d="M230.368,109.859c2.383,1.239,3.584,1.83,1.697,0.782C231.531,110.336,230.959,110.088,230.368,109.859z
				 M234.562,116.417c0.191,0.153,0.305,0.229,0.343,0.229c-0.038-0.19-8.045-6.882-12.468-7.454
				c-4.461-0.553,2.593-1.258,7.835,0.629c-3.908-2.021-11-5.757-11-5.757s6.997-0.419,12.659,3.241
				c1.182,0.915,2.059,1.602,2.364,1.812c-0.191-0.172-0.534-0.439-1.068-0.877c-0.419-0.343-0.858-0.648-1.296-0.934
				c-3.546-2.745-9.723-7.568-9.723-7.568s11.248,1.925,14.355,5.433c-0.286,0.381-0.477,0.763-0.572,1.144
				c-1.068,4.328-0.134,7.378,2.593,15.08c0,0-4.347-3.527-9.17-4.976C224.591,114.969,232.236,114.645,234.562,116.417z"/>
			<path fill="#DB8042" d="M281.861,308.665c-0.991-1.62-4.823,4.328-3.66,1.754c1.163-2.555,0-4.88,0-4.88
				s-7.302,12.258-6.311,10.333c0.991-1.926,0-5.777,0-5.777l-7.645,8.675l-2.002-4.328l-1.812,5.777c0,0-1.01-7.073-1.334-6.749
				c-0.344,0.324-3.832,13.002-3.832,13.002s0,0-0.82-1.563c-0.763-1.411-3.851-8.121-4.042-8.103c0,0.02,0,0.096,0.038,0.19
				c0.515,1.602-0.648,8.675-1.659,3.375c-0.991-5.3-1.697-7.054-1.697-7.054s-1.449,2.555-1.982,6.405
				c-0.496,3.604-2.078,4.976-2.269,5.128c-0.134-0.229-0.82-1.105-3.355-4.155c-4.156-4.977-2.822-9.8-4.976-7.55
				c-2.173,2.249-4.328,8.789-4.328,8.789s-1.487-1.087-3.489-5.243c-1.868-3.908-1.106-6.425-1.01-6.711l0.019-0.038l0.82-2.402
				c0,0,2.001-1.296,3.66,0c1.659,1.277,2.498,1.754,3.661,0c1.163-1.772,3.317-3.698,3.813-2.097
				c0.515,1.602,3.832-1.43,4.823-0.152c0.953,1.22,0.076,3.222,0.019,3.374c0.267-0.134,2.345-1.334,2.974-1.926
				c0.667-0.647,2.001-0.972,2.497-0.323c0.496,0.629,1.335-2.098,2.65-2.898c1.334-0.801,2.993-0.477,2.993-0.477
				s1.507-1.926,2.002-2.879c0.496-0.972,2.479-2.249,2.479-2.249l2.002,1.01c0,0,2.154-1.01,2.326-2.135
				c0.171-1.125,1.506-8.351,1.506-8.351l2.211-3.203l1.106,0.096l-1.106,13.593l2.65-5.356l2.44-1.487l4.651-17.33l2.879,13.688
				l0.458,8.561l5.967-20.762l-1.982,15.404l8.636-12.831l5.529-4.709l1.772,10.486l2.574,2.269
				c-0.286,0.362-0.534,0.743-0.687,1.01c-3.146,5.739-7.035,10.524-7.035,10.524s1.659-13.326,0.839-9.304
				c-0.819,3.87-5.834,15.69-6.139,16.414c0.114-0.629,1.64-7.893,1.487-7.435C290.002,298.542,282.853,310.267,281.861,308.665z"/>
			<path fill="#010101" d="M227.527,197.29l1.735,1.506c-0.877,0.057-1.792,0.152-2.726,0.267L227.527,197.29z"/>
			<path fill="#010101" d="M229.186,342.677c0,0-0.019,0.038-0.038,0.114c-0.095-0.4-0.172-0.648-0.172-0.763
				C229.053,342.257,229.186,342.677,229.186,342.677z"/>
			<path fill="#DB8042" d="M263.407,357.661c0,0-4.194,22.248-7.302,32.734c-1.983,6.691-5.109,10.695-7.111,12.696
				c1.258-5.776,2.573-17.405,2.23-26.004c-0.534-14.069-4.137,21.01-4.137,21.01s-13.364-38.949-17.12-40.875
				c-0.934-0.477-1.525,0.038-1.869,1.105l-0.858-0.019c0.115-0.248,0.115-0.801-0.057-1.678
				c-0.915-4.919,1.621-12.792,1.964-13.841c0.171,0.705,0.496,1.906,1.029,3.889c2.002,7.397,13.803,29.531,13.803,29.531
				s0.992-17.482,1.125-15.404c0.133,2.098,0,16.205,0,16.205s-0.133,1.125,1.982-6.101c2.135-7.206,0-20.686,0-20.686
				s0.039-2.249,2.536,8.503c2.498,10.753,4.823,15.557,4.823,15.557s1.163-1.124,3.813-12.506
				c2.135-9.151,1.696-19.122,1.696-19.465c0.02,0.114,0.058,0.629,0.134,1.64c0.305,3.832,3.031,9.933,4.995,12.754
				L263.407,357.661z"/>
			<path fill="#ED6755" d="M233.17,273.357l-2.326,3.852l-2.326-4.977l-2.326,4.805c0,0-10.771-20.38-14.375-25.165
				c0.248-2.765,0.591-6.807,1.087-12.697c0.095-1.239,0.248-2.383,0.458-3.47c2.669-14.565,13.459-15.919,17.482-14.127
				c4.328,1.925,8.426,38.625,8.426,38.625s-0.591-31.037,3.87-36.757c5.147-6.577,13.956-1.754,16.282,0.477
				c2.325,2.25,4.994,24.079,4.994,24.079s0.02,1.888,0.268,3.451c-1.735,3.966-4.729,10.409-8.579,15.48
				c-8.313,10.924-10.962,12.297-10.962,12.297l-2.822-6.845l-4.251,6.845L233.17,273.357z"/>
			<path fill="#D85C45" d="M262.13,279.401c-0.725,3.66-1.773,7.034-3.223,9.627c-0.953,0.286-1.925,0.382-2.802,0.058
				c-2.993-1.125-6.311-3.375-8.808-1.125s-4.156-0.324-6.482-1.125c-2.326-0.801-6.139,0.648-9.647,2.402
				c-3.432,1.735-9.094-0.534-11-1.85c2.898,0.725,5.7,0.4,5.7,0.4s2.65-2.078,5.3-3.031c2.669-0.972,5.167-0.647,6.902-0.171
				c1.735,0.477,3.088,0.324,5.395-0.801c2.326-1.106,6.482,0.972,10.486,2.402C256.753,287.198,260.28,282.375,262.13,279.401z"/>
			<path fill="#010101" d="M225.945,283.386l-0.133,0.4c0,0-0.019-0.114-0.057-0.324
				C225.812,283.442,225.888,283.424,225.945,283.386z"/>
			<path fill="#010101" d="M225.468,193.553c0,0.362-0.286,0.648-0.667,0.648c-0.362,0-0.648-0.286-0.648-0.648
				c0-0.343,0.286-0.629,0.648-0.629C225.183,192.924,225.468,193.21,225.468,193.553z"/>
			<path fill="#010101" d="M256.105,266.933c3.851-5.071,6.844-11.515,8.579-15.48c0.019,0.076,0.019,0.172,0.038,0.248
				c0,0.019,0,0.019,0,0.019c-0.114,0.668-0.21,1.525-0.286,2.65c-1.563,4.118-4.061,9.646-7.168,14.165
				c-5.263,7.702-11.992,12.888-11.992,12.888v-0.02l-3.47-5.471l-3.736,6.501l-5.071-6.024l0.171,6.577l-4.328-8.026l-2.898,8.427
				c-0.057,0.038-0.133,0.057-0.19,0.076c-0.229-1.125-1.125-4.957-3.222-8.827c-1.182-2.154-8.198-16.414-10.81-21.733
				c0.038-0.324,0.057-0.667,0.095-1.029c3.604,4.785,14.375,25.165,14.375,25.165l2.326-4.805l2.326,4.977l2.326-3.852l4.9,5.872
				l4.251-6.845l2.822,6.845C245.143,279.229,247.793,277.856,256.105,266.933z"/>
			<path fill="#010101" d="M222.57,350.569c-0.477-1.354-0.877-2.841-1.201-4.366c-0.324-1.544-0.458-2.249-0.458-2.345
				C221.045,344.163,221.846,347.462,222.57,350.569z"/>
			<path fill="#010101" d="M220.645,320.752c0.133,1.754-0.267,0.591-0.267,0.591L220.645,320.752z"/>
			<path fill="#010101" d="M256.105,289.086c0.877,0.324,1.849,0.229,2.802-0.058c-0.629,1.145-1.334,2.136-2.135,2.937
				c-0.42,0.419-0.801,0.801-1.163,1.182c-1.182-0.553-2.688-1.22-4.156-1.812c-3.165-1.296-3.165,2.078-5.814,1.277
				c-2.669-0.8-8.827-1.448-8.827-1.448s-3.966,0.648-7.302,2.897c-3.317,2.25-4.976,0.629-7.645-1.602
				c-1.506-1.277-3.451-3.412-4.861-4.994c-0.153-0.61-0.305-1.201-0.477-1.755c1.087,0.839,2.364,1.354,3.642,1.678
				c1.906,1.315,7.568,3.585,11,1.85c3.508-1.754,7.321-3.203,9.647-2.402c2.326,0.801,3.984,3.375,6.482,1.125
				S253.112,287.961,256.105,289.086z"/>
			<path fill="#010101" d="M219.539,199.387l0.477,0.553c-0.305,0.057-0.591,0.114-0.877,0.171
				C219.539,199.387,219.539,199.387,219.539,199.387z"/>
			<path fill="#D85C45" d="M245.639,292.612c2.65,0.801,2.65-2.573,5.814-1.277c1.469,0.592,2.975,1.259,4.156,1.812
				c-4.747,4.805-5.433,5.624-5.49,5.776c0,0,0,0-0.02,0l-2.974-1.334c0,0-2.993-1.716-4.652,0s-2.784,2.383-4.976,1.334
				c-1.239-0.591-6.33-4.385-8.484-2.611c-2.154,1.754-3.984,3.355-5.319,1.43c-1.315-1.926-1.163-4.48-3.641-4.48
				c-2.669,0-2.135-1.486-2.498-3.374c-0.172-0.858-0.343-1.659-0.553-2.421c1.411,1.582,3.355,3.717,4.861,4.994
				c2.669,2.23,4.328,3.852,7.645,1.602c3.336-2.249,7.302-2.897,7.302-2.897S242.97,291.813,245.639,292.612z"/>
			<path fill="#010101" d="M262.13,279.401c-1.85,2.974-5.377,7.797-8.179,6.787c-4.004-1.431-8.16-3.509-10.486-2.402
				c-2.307,1.125-3.66,1.277-5.395,0.801c-1.735-0.477-4.232-0.801-6.902,0.171c-2.65,0.953-5.3,3.031-5.3,3.031
				s-2.802,0.324-5.7-0.4c-0.038-0.019-0.076-0.057-0.114-0.076c-1.163-0.801-3.05-2.974-4.118-3.432
				c-0.286-0.915-0.61-1.772-0.915-2.611c0.801,1.258,1.944,2.611,3.031,2.517c2.002-0.152,1.83-0.801,3.66,0.801
				c1.525,1.334,2.002-0.344,4.042-1.125c0.038,0.21,0.057,0.324,0.057,0.324l0.133-0.4c0.362-0.114,0.763-0.21,1.239-0.248
				c3.336-0.305,5.986-0.152,5.986-0.152s2.612-0.229,4.9-0.553c0.591-0.076,1.144-0.172,1.639-0.268
				c2.44-0.457,2.097-1.43,4.595-0.953c0.305,0.058,0.629,0.134,0.972,0.19v0.02c2.536,0.553,6.082,1.525,7.836,2.364
				c2.002,0.972,2.154,0.591,4.823-1.621c1.964-1.64,4.003-5.3,4.957-7.11C262.683,276.522,262.435,277.99,262.13,279.401z"/>
			<path fill="#010101" d="M215.936,283.881c1.068,0.458,2.955,2.631,4.118,3.432c0.038,0.02,0.076,0.058,0.114,0.076
				c-1.277-0.323-2.555-0.839-3.642-1.678C216.336,285.063,216.146,284.473,215.936,283.881z"/>
			<path fill="#010101" d="M215.936,283.881c0.21,0.592,0.4,1.183,0.591,1.83c-0.496-0.419-0.972-0.877-1.354-1.43
				C215.25,283.786,215.536,283.71,215.936,283.881z"/>
			<path fill="#010101" d="M216.527,285.711c0.172,0.554,0.324,1.145,0.477,1.755c-1.03-1.183-1.773-2.078-1.773-2.078
				c-0.076-0.496-0.095-0.858-0.057-1.106C215.555,284.834,216.031,285.292,216.527,285.711z"/>
			<path fill="#010101" d="M215.936,283.881c-0.4-0.171-0.687-0.095-0.763,0.4c-0.877-1.239-1.373-2.859-1.277-5.052
				c0,0,0.458,0.991,1.125,2.04C215.326,282.108,215.65,282.966,215.936,283.881z"/>
			<path fill="#010101" d="M213.915,191.723c0.687,0,1.239,0.534,1.239,1.201c0,0.648-0.553,1.182-1.239,1.182
				c-0.667,0-1.22-0.534-1.22-1.182C212.695,192.257,213.248,191.723,213.915,191.723z"/>
			<path fill="#010101" d="M266.133,253.226v32.009l-2.211,3.203c0,0-1.335,7.226-1.506,8.351c-0.172,1.125-2.326,2.135-2.326,2.135
				l-2.002-1.01c0,0-1.982,1.277-2.479,2.249c-0.495,0.953-2.002,2.879-2.002,2.879s-1.658-0.324-2.993,0.477
				c-1.315,0.801-2.154,3.527-2.65,2.898c-0.496-0.648-1.83-0.324-2.497,0.323c-0.629,0.592-2.708,1.792-2.974,1.926
				c0.057-0.152,0.934-2.154-0.019-3.374c-0.992-1.277-4.309,1.754-4.823,0.152c-0.496-1.602-2.65,0.324-3.813,2.097
				c-1.163,1.754-2.002,1.277-3.661,0c-1.659-1.296-3.66,0-3.66,0s-0.496-2.249-1.163-4.347c-0.648-2.078-3.317-0.953-3.813-1.602
				c-0.496-0.629-4.48-2.669-4.48-2.669l-0.839-3.26c0,0-0.82,1.125-2.002,0c-0.991-0.991-2.974-10.047-3.794-16.434
				c-0.133-0.915-0.209-1.792-0.286-2.555c-0.4-4.709-0.553-4.729,0.267-20.628l0.877,1.792c0,0,0.019-0.134,0.153-1.506
				c0.324,4.861,0.686,11.572,1.639,17.673c0.438,2.897,1.163,5.052,1.945,7.264c-0.667-1.049-1.125-2.04-1.125-2.04
				c-0.095,2.192,0.4,3.813,1.277,5.052c-0.038,0.248-0.019,0.61,0.057,1.106c0,0,0.744,0.896,1.773,2.078
				c0.209,0.762,0.381,1.563,0.553,2.421c0.362,1.888-0.172,3.374,2.498,3.374c2.478,0,2.326,2.555,3.641,4.48
				c1.334,1.926,3.165,0.324,5.319-1.43c2.154-1.773,7.245,2.021,8.484,2.611c2.192,1.049,3.317,0.382,4.976-1.334s4.652,0,4.652,0
				l2.974,1.334c0.02,0,0.02,0,0.02,0c0.057-0.152,0.743-0.972,5.49-5.776c1.373,0.61,2.326,1.067,2.326,1.067l5.434-7.816
				c-0.306,0.248-2.308,1.945-4.462,2.631c1.449-2.593,2.498-5.967,3.223-9.627c0.781-1.259,1.277-2.192,1.277-2.192v-3.203
				c0,0-0.191,0.4-0.515,1.049c1.182-8.103,1.258-16.567,1.524-20.476c0-0.076,0.02-0.152,0.02-0.21
				c0.19-0.534,0.381-1.049,0.572-1.544C265.256,253.55,265.618,253.854,266.133,253.226z"/>
			<path fill="#010101" d="M212.6,345.574c-0.038-0.058-0.095-0.152-0.19-0.324c-0.172-0.305-0.324-0.705-0.438-1.163
				C212.371,344.983,212.6,345.498,212.6,345.574z"/>
			<path fill="#010101" d="M211.952,186.328c0,0.324-0.267,0.591-0.61,0.591c-0.324,0-0.61-0.267-0.61-0.591s0.286-0.591,0.61-0.591
				C211.685,185.737,211.952,186.003,211.952,186.328z"/>
			<path fill="#010101" d="M211.818,251.872c-0.038,0.362-0.057,0.705-0.095,1.029c-0.267-0.534-0.477-0.973-0.629-1.297
				c-0.038-0.247-0.076-0.457-0.095-0.648C211.208,251.09,211.475,251.414,211.818,251.872z"/>
			<path fill="#010101" d="M211.723,252.901c-0.133,1.582-0.229,2.669-0.286,3.394c-0.115-1.906-0.229-3.508-0.343-4.69
				C211.246,251.929,211.456,252.367,211.723,252.901z"/>
			<path fill="#010101" d="M211.094,251.604c-0.229-0.457-0.362-0.705-0.362-0.705c0.057-0.057,0.152-0.057,0.267,0.038v0.019
				C211.018,251.147,211.056,251.357,211.094,251.604z"/>
			<path fill="#010101" d="M211.094,251.604c0.114,1.183,0.229,2.784,0.343,4.69c0,0.019,0,0.038,0,0.038
				c-0.134,1.372-0.153,1.506-0.153,1.506l-0.877-1.792c0,0,0,0,0-0.02c0.095-1.849,0.21-3.927,0.324-6.253
				c0.095,0.229,0.19,0.629,0.267,1.163c-0.115-0.095-0.21-0.095-0.267-0.038C210.731,250.899,210.865,251.147,211.094,251.604z"/>
			<path fill="#010101" d="M209.988,132.756c-0.229,2.135-0.61,3.794-1.277,3.985C208.71,136.741,209.283,135.082,209.988,132.756z"
				/>
			<path fill="#010101" d="M208.634,199.501c0,0.534-0.438,0.953-0.991,0.953s-1.011-0.419-1.011-0.953
				c0-0.534,0.458-0.973,1.011-0.973S208.634,198.967,208.634,199.501z"/>
			<path fill="#010101" d="M207.243,331.009c-0.076-0.495-0.133-0.934-0.152-1.334c-0.02-0.324-0.02-0.554-0.02-0.668
				C207.128,329.274,207.186,329.998,207.243,331.009z"/>
			<path fill="#010101" d="M205.203,187.872c0.801,0,1.43,0.629,1.43,1.392c0,0.782-0.629,1.392-1.43,1.392s-1.449-0.61-1.449-1.392
				C203.754,188.501,204.402,187.872,205.203,187.872z"/>
			<path fill="#010101" d="M212.905,239.175c-0.496,5.891-0.839,9.933-1.087,12.697c-0.343-0.458-0.61-0.782-0.819-0.916v-0.019
				c-0.077-0.534-0.172-0.934-0.267-1.163c-0.114,2.326-0.229,4.404-0.324,6.253c0,0-4.48-9.799-5.147-18.13
				c-0.553-6.825-2.001-21.238-2.517-26.29c0.077-0.134,0.172-0.286,0.248-0.419c1.621,5.071,7.321,22.534,8.96,24.46
				c0,0,0-0.058,0.019-0.191l1.392,0.248C213.153,236.792,213,237.936,212.905,239.175z"/>
			<path fill="#010101" d="M202.991,211.188c-0.076,0.133-0.171,0.286-0.248,0.419c-0.114-1.125-0.19-1.792-0.19-1.792
				S202.705,210.311,202.991,211.188z"/>
			<path fill="#010101" d="M202.553,180.132c0,0.209-0.171,0.381-0.4,0.381c-0.209,0-0.381-0.171-0.381-0.381
				c0-0.21,0.172-0.381,0.381-0.381C202.381,179.75,202.553,179.922,202.553,180.132z"/>
			<path fill="#010101" d="M201.828,348.243c0,0,0-0.763,0.515,0.935C202.019,348.587,201.828,348.243,201.828,348.243z"/>
			<path fill="#010101" d="M200.437,198.586c0.744,0,1.334,0.572,1.334,1.277c0,0.706-0.591,1.277-1.334,1.277
				c-0.725,0-1.334-0.572-1.334-1.277C199.102,199.158,199.712,198.586,200.437,198.586z"/>
			<path fill="#010101" d="M201.008,172.696c0.419,0,0.763,0.324,0.763,0.725c0,0.419-0.343,0.744-0.763,0.744
				c-0.438,0-0.762-0.324-0.762-0.744C200.246,173.021,200.57,172.696,201.008,172.696z"/>
			<path fill="#010101" d="M234.848,197.29h2.307l-0.629,1.03c-1.678,0.057-4.232,0.19-7.264,0.477l-1.735-1.506l-0.991,1.773
				c-2.078,0.209-4.29,0.515-6.52,0.877l-0.477-0.553c0,0,0,0-0.4,0.725c-0.973,0.152-1.945,0.343-2.917,0.553
				c-6.349,1.354-10.733,6.52-13.231,10.524c-0.286-0.877-0.438-1.373-0.438-1.373s0.076,0.667,0.19,1.792
				c-1.544,2.517-2.307,4.461-2.307,4.461c-0.19-0.991-0.248-1.944-0.171-2.841c0.248,0.077,0.4,0.115,0.4,0.115s0,0-0.381-0.458
				c1.201-10.867,19.655-15.824,27.396-16.548c1.964-0.19,4.423-0.286,7.168-0.286C234.848,196.718,234.848,197.29,234.848,197.29z"
				/>
			<path fill="#010101" d="M200.284,212.885c0.381,0.458,0.381,0.458,0.381,0.458s-0.153-0.038-0.4-0.115
				C200.265,213.094,200.284,212.98,200.284,212.885z"/>
			<path fill="#010101" d="M199.102,206.593c0,0.305-0.362,0.553-0.82,0.553s-0.839-0.248-0.839-0.553s0.381-0.534,0.839-0.534
				S199.102,206.288,199.102,206.593z"/>
			<path fill="#010101" d="M198.225,188.634c0,0.4-0.343,0.744-0.782,0.744c-0.419,0-0.763-0.343-0.763-0.744
				c0-0.419,0.343-0.762,0.763-0.762C197.882,187.872,198.225,188.215,198.225,188.634z"/>
			<path fill="#DB8042" d="M197.443,187.872c-0.419,0-0.763,0.343-0.763,0.762c0,0.4,0.343,0.744,0.763,0.744
				c0.438,0,0.782-0.343,0.782-0.744C198.225,188.215,197.882,187.872,197.443,187.872z M198.282,207.146
				c0.458,0,0.82-0.248,0.82-0.553s-0.362-0.534-0.82-0.534s-0.839,0.229-0.839,0.534S197.825,207.146,198.282,207.146z
				 M201.771,173.421c0-0.4-0.343-0.725-0.763-0.725c-0.438,0-0.762,0.324-0.762,0.725c0,0.419,0.324,0.744,0.762,0.744
				C201.428,174.165,201.771,173.84,201.771,173.421z M201.771,199.863c0-0.705-0.591-1.277-1.334-1.277
				c-0.725,0-1.334,0.572-1.334,1.277c0,0.706,0.61,1.277,1.334,1.277C201.18,201.141,201.771,200.569,201.771,199.863z
				 M202.152,180.513c0.229,0,0.4-0.171,0.4-0.381c0-0.21-0.171-0.381-0.4-0.381c-0.209,0-0.381,0.171-0.381,0.381
				C201.771,180.341,201.943,180.513,202.152,180.513z M206.632,189.264c0-0.763-0.629-1.392-1.43-1.392s-1.449,0.629-1.449,1.392
				c0,0.782,0.648,1.392,1.449,1.392S206.632,190.045,206.632,189.264z M206.632,199.501c0,0.534,0.458,0.953,1.011,0.953
				s0.991-0.419,0.991-0.953c0-0.534-0.438-0.973-0.991-0.973S206.632,198.967,206.632,199.501z M211.341,186.918
				c0.343,0,0.61-0.267,0.61-0.591s-0.267-0.591-0.61-0.591c-0.324,0-0.61,0.267-0.61,0.591S211.018,186.918,211.341,186.918z
				 M213.915,191.723c-0.667,0-1.22,0.534-1.22,1.201c0,0.648,0.553,1.182,1.22,1.182c0.687,0,1.239-0.534,1.239-1.182
				C215.154,192.257,214.602,191.723,213.915,191.723z M224.801,194.201c0.381,0,0.667-0.286,0.667-0.648
				c0-0.343-0.286-0.629-0.667-0.629c-0.362,0-0.648,0.286-0.648,0.629C224.153,193.916,224.439,194.201,224.801,194.201z
				 M234.848,194.411c0,0.438,0,1.067,0,1.64c-2.745,0-5.205,0.095-7.168,0.286c-7.74,0.725-26.195,5.681-27.396,16.548
				c-0.4-0.496-1.296-1.563-3.165-3.832c-3.546-4.271-3.107-12.831-3.107-12.831s0.076-1.621,0.248-4.156
				c0.458-6.31,1.601-18.397,3.965-25.584c1.735-5.243,4.48-10.047,6.73-13.44l0.553,0.362c-1.011,2.269-7.264,17.387,2.25,26.881
				c10.295,10.276,12.716,9.608,19.522,10.257c6.806,0.629,7.054,0.343,7.054,0.343S234.867,193.438,234.848,194.411z"/>
			<path fill="#D85C45" d="M210.407,256.047c-0.82,15.899-0.667,15.919-0.267,20.628c0.076,0.763,0.152,1.64,0.286,2.555
				l-1.334,0.19l-0.686-4.613c0,0-1.544-7.55-3.317-11.191c-1.735-3.546-9.837-51.684-9.933-52.618
				c0.209,0.896,3.87,1.926,5.109,2.23c-0.077,0.896-0.019,1.85,0.171,2.841c0,0,0.763-1.944,2.307-4.461
				c0.515,5.052,1.964,19.465,2.517,26.29c0.667,8.331,5.147,18.13,5.147,18.13C210.407,256.047,210.407,256.047,210.407,256.047z"
				/>
			<path fill="#FFFFFF" d="M189.532,141.125c1.029,0,1.868,0.706,1.868,1.563s-0.839,1.544-1.868,1.544
				c-1.03,0-1.869-0.686-1.869-1.544S188.502,141.125,189.532,141.125z"/>
			<path fill="#DB8042" d="M211.971,344.087c0.114,0.458,0.267,0.858,0.438,1.163c0.095,0.172,0.152,0.267,0.19,0.324
				C212.6,345.498,212.371,344.983,211.971,344.087z M228.099,358.328c-1.029,3.185,0.096,11.306,0.096,11.306l-17.063-20.113
				l0.438,11.763l-11.077-18.816c0,0-3.107,6.405,0,14.337c3.107,7.911-11.305-22.478-13.078-28.254
				c-0.153-0.515-0.362-0.973-0.572-1.354l0.782-0.496c3.604,5.49,7.931,9.608,6.825,7.474c-1.659-3.203-0.82-12.525-0.648-12.03
				c0.152,0.477,4.48,12.831,4.48,12.831s0-14.604,0.991-5.777c0.992,8.827,8.808,14.928,8.808,14.928s-0.534-8.864-0.82-13.059
				c0.725,3.851,3.508,10.219,4.69,12.982c-0.972-3.622-0.706-11.152-0.706-11.152s0.153-1.125,1.315,6.577
				c1.163,7.702,11.305,16.682,11.305,16.682s-0.61-2.65-1.277-5.491c1.754,5.129,4.156,8.655,4.651,7.646L228.099,358.328z"/>
			<path fill="#010101" d="M181.772,140.573c0.209,0.076,0.343,0.133,0.343,0.133C182.039,140.706,181.811,140.706,181.772,140.573z
				"/>
			<path fill="#DB8042" d="M225.354,303.193c0.667,2.098,1.163,4.347,1.163,4.347l-0.82,2.402l-0.019,0.038l-5.033,10.771
				c-0.038-0.495-0.114-1.239-0.267-2.307c-0.667-4.805-3.832-9.476-3.832-9.476s2.993,15.729,1.011,12.526
				c-2.002-3.203-3.489-12.03-3.489-12.03l-4.995,4.004l-15.118-16.854c0,0-1.334,11.877-2.822,7.397
				c-1.487-4.499-8.808-20.38-9.475-19.675c-0.667,0.705-2.993,18.035-2.993,18.035l-8.846-19.885l0.496-5.814l5.757,7.264
				l-0.229-7.912l3.107,8.561l1.773-10.486l5.529,4.709c0,0,0,0,0.744,4.709c0.763,4.709,7.912,8.122,7.912,8.122l-2.001-15.404
				l5.986,20.762l0.438-8.561l2.879-13.688l4.652,17.33l2.44,1.487l2.65,5.356l-2.86-19.503l1.334-0.19
				c0.82,6.387,2.803,15.442,3.794,16.434c1.182,1.125,2.002,0,2.002,0l0.839,3.26c0,0,3.984,2.04,4.48,2.669
				C222.037,302.24,224.706,301.115,225.354,303.193z"/>
			<path fill="#010101" d="M201.771,149.361l-0.038,0.057l-5.281,5.3l-3.546,3.413l0.438-5.452c0,0-3.317,2.459-4.862,3.755
				c-1.525,1.277,0-3.641,0-3.641s-8.426,1.716-10.428,1.277c-1.983-0.419-7.969,0.858-1.773-2.574
				c4.061-2.23,8.865-2.555,8.865-2.555s-7.76,2.135-3.089,2.555c4.652,0.438,10.181-2.555,10.181-2.555l-1.983,3.851l4.652-3.851
				v4.061c0,0,0.21,1.277,2.879-1.277C200.437,149.152,201.771,149.361,201.771,149.361z"/>
			<path fill="#010101" d="M189.532,141.125c-1.03,0-1.869,0.706-1.869,1.563s0.839,1.544,1.869,1.544
				c1.029,0,1.868-0.686,1.868-1.544S190.561,141.125,189.532,141.125z M218.891,129.916c5.757-2.402,5.986,1.506,4.423,2.593
				c-1.544,1.086-4.423-0.419-4.423-0.419s-5.853,8.827-7.969,10.619c-3.336,2.821-5.338,3.584-7.321,4.404
				c-2.44,0.991-2.001,0.458-11.419,1.067c-0.114,0-0.21,0.019-0.324,0.019c-9.742,0.648-8.407-3.317-11.305-5.49
				c-3.241-2.44,3.336,3.698,1.125,3.489c-2.23-0.229-15.519,0-15.519,0s0,0,2.44-3.699c1.811-2.726,4.213-3.069,5.338-3.069
				c0.4,0,0.648,0.038,0.648,0.038s0.667,2.593,2.44,1.239c1.43-1.087,3.851-0.419,4.747-0.133c0.038,0.133,0.267,0.133,0.343,0.133
				c0,0-0.133-0.057-0.343-0.133c-0.115-0.21,0.496-0.839,4.556-2.631c6.425-2.821,14.623,2.765,14.623,2.765l1.773-1.029
				c0,0,0.381,2.859,3.908,2.211c3.546-0.667-1.544-4.938-1.544-4.938l3.165-0.095c0,0,0.896,1.296,3.984,0
				C215.345,135.559,218.891,129.916,218.891,129.916z"/>
			<path fill="#DB8042" d="M210.255,122.404c0,0,0.19,6.12-0.267,10.352c-0.705,2.326-1.277,3.985-1.277,3.985l-0.458,0.114
				l-3.165,0.095c0,0,5.09,4.271,1.544,4.938c-3.527,0.648-3.908-2.211-3.908-2.211l-1.773,1.029c0,0-8.198-5.586-14.623-2.765
				c-4.061,1.792-4.671,2.421-4.556,2.631c-0.896-0.286-3.317-0.954-4.747,0.133c-1.773,1.354-2.44-1.239-2.44-1.239
				s-0.248-0.038-0.648-0.038l0.039-2.993c1.83,0.019,3.336,0.095,3.717,0.305c0.972,0.572-0.648-2.879-3.489-3.222
				c3.203-0.305,9.914-0.972,12.125-0.419c3.317,0.858-4.423-5.567-4.423-5.567s5.967-0.419,12.392,3.222
				c6.425,3.641,1.296-5.986,1.296-5.986s3.355,2.345,6.234,6.406c2.898,4.08,2.898-5.986,2.898-5.986l2.211,3.965L210.255,122.404z
				"/>
			<path fill="#010101" d="M174.204,133.519c-1.621,0.172-2.345,0.229-1.163,0.019C173.441,133.461,173.841,133.461,174.204,133.519
				z"/>
			<path fill="#010101" d="M170.81,99.202l-3.641-0.438c0.705-0.324,1.449-0.629,2.192-0.934
				C170.276,98.688,170.81,99.202,170.81,99.202z"/>
			<path fill="#010101" d="M169.189,281.06l0.629,1.43l-0.172,2.098c0,0-0.038-0.02-0.133-0.038
				C169.342,282.451,169.189,281.06,169.189,281.06z"/>
			<path fill="#DB8042" d="M169.514,284.549c0.591,6.577,1.583,19.979-0.324,17.539c-1.754-2.288-5.109-13.917-6.92-20.494
				C165.491,283.48,168.809,284.377,169.514,284.549z"/>
			<path fill="#010101" d="M212.695,120.707c-0.02,2.803-1.544,8.293-2.708,12.049c0.458-4.232,0.267-10.352,0.267-10.352
				l-3.317,6.749l-2.211-3.965c0,0,0,10.066-2.898,5.986c-2.878-4.061-6.234-6.406-6.234-6.406s5.128,9.627-1.296,5.986
				c-6.425-3.642-12.392-3.222-12.392-3.222s7.74,6.425,4.423,5.567c-2.211-0.553-8.922,0.115-12.125,0.419
				c-0.362-0.057-0.763-0.057-1.163,0.019c-1.182,0.21-0.458,0.153,1.163-0.019c2.841,0.343,4.461,3.794,3.489,3.222
				c-0.381-0.21-1.887-0.286-3.717-0.305c-3.604-0.019-8.484,0.229-8.484,0.229s-3.069,1.354-3.546,1.086
				c-0.286-0.152,0.381-0.896,3.336-2.936c7.95-5.471,19.046-3.641,17.73-3.851c-1.335-0.209-5.986-4.385-5.986-4.385
				s-2.44-1.392,3.984-1.602c5.357-0.171,13.288,3.642,12.411,2.574c-0.896-1.067-1.563-6.215-1.563-6.215s0,0,3.737,1.296
				c3.736,1.277,6.463,5.986,6.901,3.946c0.458-2.021-0.438-7.378,0.896-6.52s3.984,8.56,3.546,4.709
				c-0.458-3.851,3.088-9.113,3.088-9.113S212.752,113.005,212.695,120.707z"/>
			<path fill="#DB8042" d="M147.437,127.056l1.468-0.477C148.905,126.579,149.172,126.122,147.437,127.056z M245.963,116.417
				c4.823-1.449-2.822-1.773-5.147,0c-2.326,1.773,7.149-6.577,12.125-7.225c4.442-0.553-2.574-1.258-7.816,0.629
				c4.003-2.078,10.981-5.757,10.981-5.757s-8.141-0.477-13.956,4.175c-5.662,4.538,7.607-9.056,8.312-9.78
				c-0.362,0.076-11.153,2.974-13.898,6.71c-3.107-3.508-14.355-5.433-14.355-5.433s6.177,4.823,9.723,7.568
				c-5.662-3.66-12.659-3.241-12.659-3.241s7.092,3.736,11,5.757c-5.243-1.887-12.296-1.182-7.835-0.629
				c4.423,0.572,12.43,7.264,12.468,7.454c-0.038,0-0.152-0.076-0.343-0.229c-2.326-1.773-9.971-1.449-5.147,0
				c4.824,1.449,9.17,4.976,9.17,4.976S241.159,117.867,245.963,116.417z M333.526,124.577c-1.811-0.991-1.544-0.515-1.544-0.515
				L333.526,124.577z M280.47,88.24c9.723-1.544,23.602,0.648,18.684,0.209c-4.899-0.438-4.042,4.843-4.042,4.843
				s9.094,3.527,15.347,6.043c3.069,1.239,5.453,2.23,5.739,2.44c-0.077,0-0.382-0.076-0.954-0.267
				c-6.271-2.04-17.901-2.803-17.901-2.803s21.715,7.55,22.172,7.34c0.458-0.229,15.462,5.052,15.462,5.052l-12.563-1.754
				l12.563,7.245c0,0-14.146,0-10.791,0.667c3.355,0.648,19.58,10.771,19.58,10.771l-10.219-3.432
				c0.934,0.515,2.421,1.43,4.747,2.974c6.92,4.633,6.691,6.387,6.691,6.387s-32.2,0.877-19.446,2.421
				c12.755,1.525,29.513,10.104,29.513,10.104s-10.505,2.192-8.731,2.421c0.285,0.038,0.991,0.362,1.982,0.858l-2.765,0.038
				c-2.593-1.029-16.51-5.147-16.51-5.147c0.21,4.061,10.962,5.681,10.962,5.681l-10.752,0.419c0,0,4.213,2.135,9.646,5.014
				c5.434,2.898,8.751,4.404,5.738,4.728c-2.993,0.324-10.505,3.527-10.505,3.527l5.319,3.317l8.427,3.413
				c0,0,3.546,1.296,5.414,3.432c1.888,2.135-11.286,2.574-15.176,1.925c-3.87-0.648-12.182-3.203-9.971-1.925
				c2.23,1.277,8.313,4.385,8.313,4.385l8.808,2.135c0,0,5.147,1.296,8.809,2.402c3.66,1.125,5.433,2.517,1.105,2.517
				c-4.309,0-24.898-1.601-23.793-1.163c1.105,0.419,18.035,9.933,18.588,10.485c0.553,0.534,8.979,9.627,6.311,7.054
				c-2.649-2.574-10.848-3.965-10.848-3.965s0,0,3.317,4.29c3.317,4.271,8.751,15.729,7.969,14.432
				c-0.763-1.277-15.729-7.168-15.729-7.168l1.773,2.135c0,0,2.002,2.688,5.986,9.646c3.984,6.94,2.669,11.325,1.658,12.183
				c-0.991,0.858-5.318-4.175-11.953-11.229c-6.653-7.054-8.979,4.385-7.321,1.544c1.659-2.821,4.881-0.686,4.881-0.686
				s0.705,0.724,1.792,1.83l-1.296,1.373c-0.496,0,4.003,29.284,5.128,33.172l-2.555,0.343c-2.345-5.7-6.196-13.516-10.695-14.47
				c-7.854-1.64,1.926,2.345-0.381,22.592c-0.4-1.411-1.145-3.013-2.46-4.767c-4.651-6.215-7.454-9.265-7.454-9.265
				s0.668,8.063-1.772,15.403c-2.002,6.006-2.098,8.561-2.098,8.561s-2.002-19.046-3.774-21.829
				c-1.773-2.765-5.986,15.194-5.986,15.194l-2.65-22.667l-5.757,16.681c0,0-3.337,4.5-4.881-8.77
				c-1.544-13.269-0.362-34.983-0.362-34.983l3.68,7.816l-3.68-14.336l7.054,3.394c-0.286-0.515-5.052-8.789-6.463-11.744
				c-1.658-3.489-5.51-14.069-5.738-14.718l7.283,11.515l-3.547-16.472l7.093,11.763l1.392-8.77l3.698,8.77l-0.438-14.336
				l10.791,8.979l-8.789-13.688l15.271,8.56l-9.513-14.337l7.302,1.277l-6.635-7.264c0,0,9.074-1.716,12.62-4.29
				c3.547-2.555,3.547-2.555,3.547-2.555s-8.637,0.629-10.639-0.648c-1.982-1.277,9.762-0.858,11.516-2.784
				c1.772-1.925-7.073-3.432-7.302-4.594c-0.229-1.182,4.423-3.927,3.107-5.128c-1.335-1.182-1.277-2.021-7.092-3.756
				c0,0,2.649,3.203-2.212,7.283c-4.881,4.061-4.881,4.061-4.881,4.061l3.908,0.858l-7.587,1.697l3.24,1.296h-5.986l2.746,3.851
				h-7.188l8.197,7.054l-5.758-2.345l2.67,7.264l-6.654-5.338l3.317,10.485l-5.3-5.147l-1.125,4.08l-1.906-4.08l-0.381,1.716
				c0,0-1.697-8.56-9.666-17.33c-7.492-8.217-10.867-11.267-11.268-11.61c0.114,0.133,0.515,0.629,1.125,1.449l-0.477,0.381
				c-1.354-1.754-3.107-3.355-5.338-4.709c-1.354-0.82-3.584-1.773-6.425-2.65c4.442-0.667-1.43-3.794-1.43-3.794
				s5.757-4.099-5.987-4.309c0,0-2.001,2.936,2.211,3.394c4.214,0.458-1.048,1.735-1.048,1.735s0.361,0.858,1.258,1.678
				c-14.07-3.107-36.108-3.413-47.738,11.916c0,0-0.057,0.095-0.133,0.286l-0.553-0.362c1.887-2.86,3.412-4.728,3.641-5.014
				c-0.229,0.209-1.544,1.392-4.175,4.061l-2.688-2.669l0.038-0.057c0,0-1.334-0.209-3.984,2.364
				c-2.669,2.554-2.879,1.277-2.879,1.277v-4.061l-4.652,3.851l1.983-3.851l-0.057-0.763c9.418-0.61,8.979-0.076,11.419-1.067
				c1.983-0.82,3.985-1.583,7.321-4.404c2.116-1.792,7.969-10.619,7.969-10.619s2.879,1.506,4.423,0.419
				c1.563-1.087,1.334-4.995-4.423-2.593c0,0-3.546,5.643-6.654,6.939c-3.088,1.296-3.984,0-3.984,0l0.458-0.114
				c0.667-0.191,1.049-1.85,1.277-3.985c1.163-3.755,2.688-9.246,2.708-12.049c0.057-7.702-2.669-5.052-2.669-5.052
				s-3.546,5.262-3.088,9.113c0.438,3.851-2.211-3.851-3.546-4.709s-0.438,4.499-0.896,6.52c-0.438,2.04-3.165-2.669-6.901-3.946
				c-3.737-1.296-3.737-1.296-3.737-1.296s0.667,5.147,1.563,6.215c0.877,1.068-7.054-2.745-12.411-2.574
				c-6.425,0.21-3.984,1.602-3.984,1.602s4.651,4.175,5.986,4.385c1.315,0.21-9.78-1.62-17.73,3.851
				c-2.955,2.04-3.622,2.784-3.336,2.936l-3.756,0.038c-1.296-1.029-22.172-1.583-22.172-1.583s-0.209-1.716,6.654-6.196
				c2.326-1.525,3.794-2.421,4.709-2.917l-10.104,3.317c0.953-0.591,16.129-9.837,19.351-10.466
				c3.317-0.629-10.676-0.629-10.676-0.629l12.449-7.073l-12.449,1.716c0,0,14.852-5.128,15.309-4.919
				c0.458,0.21,21.962-7.13,21.962-7.13s-11.515,0.724-17.73,2.726c-0.572,0.191-0.858,0.267-0.934,0.267
				c0.801-0.591,20.875-8.274,20.875-8.274s0.858-5.128-4.003-4.708c-4.861,0.438,8.865-1.716,18.512-0.21
				c9.627,1.487,9.627,1.487,9.627,1.487l-3.984-6.616l14.852,8.103l-2.212-7.035l7.969,7.035l0.438-5.338l4.213,7.073l2.764-6.634
				l5.205,5.357c-0.458,1.315-0.743,2.135-0.743,2.135l1.239-1.621l7.188-9.399l2.784,6.806l4.232-7.245l0.457,5.472l8.046-7.226
				l-2.231,7.226l14.985-8.331l-4.022,6.806C270.747,89.766,270.747,89.766,280.47,88.24z M284.416,147.932
				c9.742,0.629,8.407-3.279,11.286-5.415c3.241-2.402-3.317,3.642-1.105,3.432c2.212-0.209,15.519,0,15.519,0s0,0-2.44-3.641
				c-1.792-2.688-4.194-3.031-5.338-3.031l-0.038-2.822c3.622-0.057,8.922,0.21,8.922,0.21s7.97,3.508,0.21-1.85
				c-7.054-4.861-16.605-3.965-17.711-3.851c1.315-0.209,5.967-4.385,5.967-4.385s2.44-1.392-3.984-1.602
				c-5.338-0.171-13.288,3.642-12.411,2.574c0.896-1.067,1.563-6.215,1.563-6.215s0,0-3.736,1.296
				c-3.737,1.277-6.463,5.986-6.901,3.946c-0.438-2.021,0.438-7.378-0.896-6.52c-1.315,0.858-3.984,8.56-3.526,4.709
				c0.438-3.851-3.107-9.113-3.107-9.113s-2.727-2.65-2.67,5.052c0.02,2.803,1.563,8.313,2.727,12.068
				c0.21,2.116,0.61,3.775,1.277,3.966c0,0-0.896,1.296-4.004,0c-3.088-1.277-6.634-6.844-6.634-6.844
				c-5.758-2.345-5.986,1.506-4.442,2.574c1.563,1.067,4.442-0.438,4.442-0.438s5.853,8.712,7.969,10.485
				c3.317,2.784,5.338,3.527,7.32,4.328C275.132,147.855,274.655,147.283,284.416,147.932z M284.188,157.711l-0.458-5.452
				c0,0,3.337,2.459,4.861,3.736c1.525,1.296,0-3.622,0-3.622s8.427,1.697,10.429,1.277c2.002-0.438,7.988,0.858,1.773-2.574
				c-4.062-2.25-8.865-2.574-8.865-2.574s7.759,2.154,3.107,2.574s-10.199-2.574-10.199-2.574l2.001,3.87l-4.651-3.87v4.08
				c0,0-0.229,1.277-2.879-1.296c-2.669-2.555-3.984-2.345-3.984-2.345l5.319,5.357L284.188,157.711z"/>
			<path fill="#010101" d="M161.049,277.037c0,0,0.477,1.85,1.22,4.557c-1.105-0.648-2.192-1.411-3.146-2.326
				C161.049,277.037,161.049,277.037,161.049,277.037z"/>
			<path fill="#DB8042" d="M186.843,327.196c-2.307-3.966-7.664-1.277-5.853,8.846c2.001,11.134,2.001,13.917,2.001,13.917
				l-19.941-38.301c0,0-1.43,1.029-2.574,3.069l-0.458-0.267c0.076-0.038,0.076-0.096,0.038-0.19
				c-0.496-0.953,0.991-10.429,2.326-6.406c1.296,3.87,10.066,14.394,10.619,15.042c-0.267-0.915-4.518-14.794-1.315-7.664
				c3.336,7.378,8.979,12.507,6.654,6.901c-2.326-5.624-0.839-12.354-0.839-12.354l6.482,14.432c0,0-2.479-14.756-0.496-6.253
				c0.667,2.859,2.307,5.967,4.137,8.731L186.843,327.196z"/>
			<path fill="#010101" d="M159.791,105.894c0.248,0.362,0.381,0.572,0.381,0.572S158.609,108.239,159.791,105.894z"/>
			<path fill="#010101" d="M159.733,324.069c0,0-0.362,1.812-0.61-0.896C159.505,323.745,159.733,324.069,159.733,324.069z"/>
			<path fill="#010101" d="M208.596,148.027c-0.229,0.286-1.754,2.154-3.641,5.014c-2.25,3.393-4.995,8.198-6.73,13.44
				c-2.364,7.188-3.508,19.274-3.965,25.584l-1.792-0.114c0,0,0,0.019-0.02,0.038l-7.301,11.515l3.546-16.472l-7.092,11.763
				l-1.373-8.77l-3.718,8.77l0.438-14.336l-10.791,8.979l8.808-13.688l-15.29,8.56l9.532-14.337l-7.321,1.277l6.654-7.264
				c0,0-9.094-1.716-12.64-4.29c-3.546-2.555-3.546-2.555-3.546-2.555s8.655,0.629,10.638-0.648
				c2.002-1.277-9.742-0.858-11.515-2.784c-1.773-1.925,7.092-3.432,7.302-4.594c0.229-1.182-4.423-3.927-3.088-5.128
				c1.315-1.182,1.258-2.021,7.092-3.756c0,0-2.669,3.203,2.211,7.283c4.861,4.061,4.861,4.061,4.861,4.061l-3.908,0.858
				l7.607,1.697l-3.241,1.296h5.967l-2.726,3.851h7.168l-8.198,7.054l5.758-2.345l-2.65,7.264l6.635-5.338l-3.317,10.485
				l5.319-5.147l1.106,4.08l1.926-4.08l0.362,1.716c0,0,1.697-8.56,9.685-17.33c2.993-3.298,5.319-5.757,7.073-7.55
				C207.052,149.418,208.367,148.236,208.596,148.027z"/>
			<path fill="#010101" d="M157.579,338.597c-0.095-0.058-0.286-0.19-0.286-0.19s0-0.02-0.019-0.058
				C157.427,338.463,157.522,338.539,157.579,338.597z"/>
			<path fill="#010101" d="M150.239,307.979c0.019,0.02,0.019,0.038,0.019,0.038L150.239,307.979z"/>
			<path fill="#010101" d="M209.092,279.42l2.86,19.503l-2.65-5.356l-2.44-1.487l-4.652-17.33l-2.879,13.688l-0.438,8.561
				l-5.986-20.762l2.001,15.404c0,0-7.149-3.413-7.912-8.122c-0.744-4.709-0.744-4.709-0.744-4.709l-5.529-4.709l-1.773,10.486
				l-3.107-8.561l0.229,7.912l-5.757-7.264l-0.496,5.814l-0.629-1.43c0,0,0.153,1.392,0.324,3.489
				c-0.705-0.172-4.022-1.068-7.245-2.955c-0.743-2.707-1.22-4.557-1.22-4.557s0,0-1.925,2.23c-1.525-1.373-2.745-3.089-3.222-5.167
				c-1.773-7.701-1.773-7.701-1.773-7.701s-3.317,3.432-3.755,7.492c-0.458,4.061-0.458,4.061-0.458,4.061s-0.134-0.229-0.324-0.648
				c0,0,0-0.019-0.019-0.038c-0.057-0.324-0.515-2.44-1.068-5.376c0.057-1.906,0.648-4.137,2.307-6.349
				c4.652-6.196,6.196-7.054,6.196-7.054s2.002,7.416,4.442,14.756c1.983,5.986,2.44,4.709,2.44,4.709s1.983-19.046,3.756-21.829
				c1.773-2.765,5.986,15.194,5.986,15.194l2.65-22.667l5.776,16.681c0,0,3.317,4.5,4.862-8.77
				c1.563-13.269,0.381-34.983,0.381-34.983l-3.699,7.816l3.699-14.336l-7.054,3.394c0.286-0.515,5.052-8.789,6.463-11.744
				c1.659-3.489,5.51-14.069,5.738-14.718c0.02-0.019,0.02-0.038,0.02-0.038l1.792,0.114c-0.172,2.536-0.248,4.156-0.248,4.156
				s-0.438,8.56,3.107,12.831c1.869,2.269,2.765,3.336,3.165,3.832c0,0.095-0.019,0.209-0.019,0.343
				c-1.239-0.305-4.9-1.334-5.109-2.23c0.095,0.934,8.198,49.072,9.933,52.618c1.773,3.642,3.317,11.191,3.317,11.191
				L209.092,279.42z"/>
			<path fill="#010101" d="M147.437,127.056c1.735-0.934,1.468-0.477,1.468-0.477L147.437,127.056z"/>
			<path fill="#010101" d="M148.504,271.89c0.553,2.936,1.011,5.052,1.068,5.376C149.115,276.274,148.409,274.311,148.504,271.89z"
				/>
			<path fill="#DB8042" d="M160.477,314.728c-0.877,1.487-1.583,3.489-1.487,6.024c0.038,1.067,0.076,1.85,0.133,2.421
				c-1.602-2.421-6.12-9.284-9.304-14.908l0.438-0.248c0,0,0-0.019-0.019-0.038c0-0.019,0-0.019,0-0.038
				c-0.324-0.991-3.965-12.373-0.324-3.774c3.489,8.179,9.437,10.638,10.104,10.295L160.477,314.728z"/>
			<path fill="#010101" d="M148.485,245.542c-0.133,0.114-0.267,0.229-0.4,0.305C148.371,245.352,148.485,245.542,148.485,245.542z"
				/>
			<path fill="#DB8042" d="M154.128,266.399c0,0,0,0,1.773,7.701c0.477,2.078,1.696,3.794,3.222,5.167
				c-0.591,0.687-1.373,1.582-2.383,2.745c-4.328,4.976-3.66,18.626-3.66,18.626s-0.667-1.448-4.823-11.076
				c-3.375-7.798-3.336-15.385-3.832-17.559l1.125-0.457h0.02c0.858,2.401,2.135,4.479,4.022,5.757
				c0.19,0.42,0.324,0.648,0.324,0.648s0,0,0.458-4.061C150.812,269.831,154.128,266.399,154.128,266.399z"/>
			<path fill="#DB8042" d="M142.118,287.637l8.121,20.304c0,0.02,0,0.02,0,0.038l0.019,0.038l-0.438,0.248
				c-0.8-1.41-1.506-2.726-2.059-3.889c-3.355-6.939-4.652-5.357-3.317,1.163c1.315,6.539,7.759,25.374,7.759,25.374
				s-19.064-14.336-22.611-28.673c-1.125-4.575-2.021-8.56-2.688-12.163l2.25-0.4c1.85,9.99,5.415,18.055,7.645,15.862
				C140.097,302.336,142.118,287.637,142.118,287.637z"/>
			<path fill="#DB8042" d="M143.719,252.92c0.763-0.647-0.934,10.791,1.83,18.627l-1.125,0.457
				c-0.114-0.515-0.248-0.725-0.477-0.572c-1.163,0.801-7.816,28.406-8.979,25.356c-0.782-2.078-3.031-15.347-4.385-23.679
				l1.487-0.247c0.038,0.267,0.114,0.285,0.114,0.285S142.728,253.778,143.719,252.92z"/>
			<path fill="#010101" d="M137.237,233.455c0,0-3.927,30.352-4.08,30.866C132.986,264.816,129.383,249.279,137.237,233.455z"/>
			<path fill="#010101" d="M149.572,277.266c0.019,0.02,0.019,0.038,0.019,0.038c-1.888-1.277-3.165-3.355-4.022-5.757h-0.02
				c-2.764-7.836-1.067-19.274-1.83-18.627c-0.991,0.858-11.534,20.228-11.534,20.228s-0.076-0.019-0.114-0.285
				c-0.076-0.61,0.038-2.498,1.735-8.351c0.267-0.915,0.572-1.926,0.915-3.031c4.328-13.879,10.333-13.345,13.364-15.633
				c-0.286,0.553-0.781,1.964-1.487,5.471c-0.877,4.386,0.725,14.337,1.906,20.571C148.409,274.311,149.115,276.274,149.572,277.266
				z"/>
			<path fill="#010101" d="M207.243,331.009c-0.057-1.011-0.114-1.734-0.172-2.002c0,0.114,0,0.344,0.02,0.668
				C207.109,330.075,207.167,330.514,207.243,331.009z M220.912,343.858c0,0.096,0.133,0.801,0.458,2.345
				c0.324,1.525,0.724,3.013,1.201,4.366C221.846,347.462,221.045,344.163,220.912,343.858z M281.861,308.665
				c0.991,1.602,8.141-10.123,8.313-10.6c0.152-0.458-1.373,6.806-1.487,7.435c0.305-0.724,5.319-12.544,6.139-16.414
				c0.82-4.022-0.839,9.304-0.839,9.304s3.89-4.785,7.035-10.524c0.152-0.267,0.4-0.647,0.687-1.01
				c1.22-1.545,3.012-2.841-0.076,4.957c-3.813,9.627-1.487,4.575-1.487,4.575l7.13-11.954l-2.479,8.503l-3.774,15.748l-0.058,4.155
				c0,0-1.658,10.257-6.481,17.482c-4.805,7.226-4.805,7.226-4.805,7.226s-1.506-4.499-1.506-4.976s-0.839,3.05-0.839,3.05
				l-1.315-4.022c0,0-4.328,13.803-7.149,17.654c-2.821,3.851-0.324-4.499-0.839-11.706c-0.495-7.226-0.648-8.503-0.648-8.503
				s-2.345,9.78-5.833,18.131c-3.299,7.874-2.288-5.472-2.174-6.939c-0.343,1.239-2.765,10.848-2.307,16.396
				c0.19,2.307-0.743,1.85-1.982,0.076c-1.964-2.821-4.69-8.922-4.995-12.754c-0.076-1.011-0.114-1.525-0.134-1.64
				c0,0.343,0.438,10.313-1.696,19.465c-2.65,11.382-3.813,12.506-3.813,12.506s-2.325-4.804-4.823-15.557
				c-2.497-10.752-2.536-8.503-2.536-8.503s2.135,13.479,0,20.686c-2.116,7.226-1.982,6.101-1.982,6.101s0.133-14.107,0-16.205
				c-0.133-2.078-1.125,15.404-1.125,15.404s-11.801-22.134-13.803-29.531c-0.534-1.982-0.858-3.184-1.029-3.889
				c0.019-0.076,0.038-0.114,0.038-0.114s-0.133-0.42-0.21-0.648c0,0.114,0.077,0.362,0.172,0.763
				c-0.343,1.049-2.879,8.922-1.964,13.841c0.172,0.877,0.172,1.43,0.057,1.678c-0.496,1.01-2.897-2.517-4.651-7.646
				c0.667,2.841,1.277,5.491,1.277,5.491s-10.142-8.979-11.305-16.682c-1.163-7.702-1.315-6.577-1.315-6.577
				s-0.267,7.53,0.706,11.152c-1.182-2.764-3.965-9.132-4.69-12.982c0.286,4.194,0.82,13.059,0.82,13.059s-7.816-6.101-8.808-14.928
				c-0.991-8.826-0.991,5.777-0.991,5.777s-4.328-12.354-4.48-12.831c-0.172-0.495-1.011,8.827,0.648,12.03
				c1.106,2.135-3.222-1.983-6.825-7.474c-1.83-2.765-3.47-5.872-4.137-8.731c-1.983-8.503,0.496,6.253,0.496,6.253l-6.482-14.432
				c0,0-1.487,6.729,0.839,12.354c2.326,5.605-3.317,0.477-6.654-6.901c-3.203-7.13,1.049,6.749,1.315,7.664
				c-0.553-0.648-9.322-11.172-10.619-15.042c-1.335-4.022-2.822,5.453-2.326,6.406c0.038,0.095,0.038,0.152-0.038,0.19
				c-0.667,0.343-6.615-2.116-10.104-10.295c-3.642-8.599,0,2.783,0.324,3.774l-8.121-20.304c0,0-2.021,14.699-5.319,17.902
				c-2.23,2.192-5.795-5.872-7.645-15.862c-1.487-7.969-1.887-17.177,0.324-23.373c0,0,0.458,2.841,1.106,6.806
				c1.354,8.332,3.603,21.601,4.385,23.679c1.163,3.05,7.816-24.556,8.979-25.356c0.229-0.152,0.362,0.058,0.477,0.572
				c0.496,2.174,0.458,9.761,3.832,17.559c4.156,9.628,4.823,11.076,4.823,11.076s-0.667-13.65,3.66-18.626
				c1.011-1.163,1.792-2.059,2.383-2.745c0.953,0.915,2.04,1.678,3.146,2.326c1.812,6.577,5.167,18.206,6.92,20.494
				c1.907,2.44,0.916-10.962,0.324-17.539c0.095,0.019,0.133,0.038,0.133,0.038l0.172-2.098l8.846,19.885
				c0,0,2.326-17.33,2.993-18.035c0.667-0.705,7.988,15.176,9.475,19.675c1.487,4.479,2.822-7.397,2.822-7.397l15.118,16.854
				l4.995-4.004c0,0,1.487,8.827,3.489,12.03c1.982,3.202-1.011-12.526-1.011-12.526s3.165,4.671,3.832,9.476
				c0.153,1.067,0.229,1.812,0.267,2.307l-0.267,0.591c0,0,0.4,1.163,0.267-0.591l5.033-10.771c-0.096,0.286-0.858,2.803,1.01,6.711
				c2.002,4.156,3.489,5.243,3.489,5.243s2.154-6.54,4.328-8.789c2.154-2.25,0.82,2.573,4.976,7.55
				c2.536,3.05,3.222,3.927,3.355,4.155c-0.019,0.02-0.019,0.02-0.019,0.02s0.114,0.114,0.019-0.02
				c0.19-0.152,1.773-1.524,2.269-5.128c0.534-3.851,1.982-6.405,1.982-6.405s0.706,1.754,1.697,7.054
				c1.011,5.3,2.173-1.773,1.659-3.375c-0.038-0.095-0.038-0.171-0.038-0.19c0.191-0.019,3.279,6.691,4.042,8.103
				c0.82,1.563,0.82,1.563,0.82,1.563s3.488-12.678,3.832-13.002c0.324-0.324,1.334,6.749,1.334,6.749l1.812-5.777l2.002,4.328
				l7.645-8.675c0,0,0.991,3.852,0,5.777c-0.991,1.925,6.311-10.333,6.311-10.333s1.163,2.325,0,4.88
				C277.038,312.993,280.87,307.045,281.861,308.665z"/>
			<path fill="#DB8042" d="M201.733,149.418l2.688,2.669c-1.754,1.792-4.08,4.251-7.073,7.55c-7.988,8.77-9.685,17.33-9.685,17.33
				l-0.362-1.716l-1.926,4.08l-1.106-4.08l-5.319,5.147l3.317-10.485l-6.635,5.338l2.65-7.264l-5.758,2.345l8.198-7.054h-7.168
				l2.726-3.851h-5.967l3.241-1.296l-7.607-1.697l3.908-0.858c0,0,0,0-4.861-4.061c-4.881-4.08-2.211-7.283-2.211-7.283
				c-5.834,1.735-5.777,2.574-7.092,3.756c-1.334,1.201,3.317,3.946,3.088,5.128c-0.209,1.163-9.075,2.669-7.302,4.594
				c1.773,1.926,13.517,1.506,11.515,2.784c-1.983,1.277-10.638,0.648-10.638,0.648s0,0,3.546,2.555
				c3.546,2.574,12.64,4.29,12.64,4.29l-6.654,7.264l7.321-1.277l-9.532,14.337l15.29-8.56l-8.808,13.688l10.791-8.979
				l-0.438,14.336l3.718-8.77l1.373,8.77l7.092-11.763l-3.546,16.472l7.301-11.515c-0.229,0.648-4.08,11.229-5.738,14.718
				c-1.411,2.955-6.177,11.229-6.463,11.744l7.054-3.394l-3.699,14.336l3.699-7.816c0,0,1.182,21.714-0.381,34.983
				c-1.544,13.27-4.862,8.77-4.862,8.77l-5.776-16.681l-2.65,22.667c0,0-4.213-17.959-5.986-15.194
				c-1.773,2.783-3.756,21.829-3.756,21.829s-0.458,1.277-2.44-4.709c-2.44-7.34-4.442-14.756-4.442-14.756
				s-1.544,0.857-6.196,7.054c-1.659,2.212-2.25,4.442-2.307,6.349c-1.182-6.234-2.783-16.186-1.906-20.571
				c0.706-3.507,1.201-4.918,1.487-5.471c0.134-0.076,0.267-0.19,0.4-0.305c0,0-0.114-0.191-0.4,0.305
				c-3.031,2.288-9.037,1.754-13.364,15.633c-0.343,1.105-0.648,2.116-0.915,3.031l-0.648-0.19c0.152-0.515,4.08-30.866,4.08-30.866
				l-2.44-0.61c3.07-3.031,5.872-5.91,5.872-5.91s3.222-2.154,4.88,0.687c1.659,2.841-0.667-8.617-7.321-1.544
				c-6.634,7.054-10.962,12.087-11.953,11.229c-0.992-0.858-2.326-5.243,1.659-12.201c3.984-6.958,5.986-9.627,5.986-9.627
				l1.773-2.135c0,0-14.966,5.891-15.729,7.168c-0.782,1.277,4.652-10.161,7.969-14.451c3.317-4.271,3.317-4.271,3.317-4.271
				s-8.198,1.392-10.848,3.965c-2.65,2.555,5.757-6.539,6.311-7.073c0.553-0.534,11.629-8.122,12.735-8.56
				c1.106-0.419-13.612-0.744-17.939-0.744s-2.555-1.411,1.105-2.517c3.661-1.125,8.808-2.402,8.808-2.402l8.808-2.135
				c0,0,6.101-3.108,8.312-4.385c2.212-1.296-6.101,1.277-9.971,1.926c-3.87,0.629-17.063,0.209-15.175-1.926
				c1.887-2.154,5.434-3.432,5.434-3.432l8.407-3.431l5.319-3.298c0,0-7.512-3.222-10.505-3.546
				c-3.012-0.324,0.305-1.831,5.738-4.709c5.434-2.879,9.647-5.014,9.647-5.014l-10.752-0.438c0,0,10.752-1.602,10.962-5.662
				c0,0-14.832,4.385-16.72,5.243c-0.114,0.057-0.19,0.095-0.248,0.171l-0.477-0.858c2.307-1.258,4.042-2.154,4.518-2.211
				c1.735-0.209-8.674-2.345-8.674-2.345s16.625-8.351,29.245-9.837c2.421-0.286,3.203-0.553,2.898-0.782l3.756-0.038
				c0.477,0.267,3.546-1.086,3.546-1.086s4.88-0.248,8.484-0.229l-0.039,2.993c-1.125,0-3.527,0.343-5.338,3.069
				c-2.44,3.699-2.44,3.699-2.44,3.699s13.288-0.229,15.519,0c2.212,0.209-4.366-5.929-1.125-3.489
				c2.898,2.173,1.563,6.139,11.305,5.49c0.114,0,0.21-0.019,0.324-0.019l0.057,0.763c0,0-5.529,2.993-10.181,2.555
				c-4.671-0.419,3.089-2.555,3.089-2.555s-4.805,0.324-8.865,2.555c-6.196,3.432-0.21,2.154,1.773,2.574
				c2.002,0.438,10.428-1.277,10.428-1.277s-1.525,4.918,0,3.641c1.544-1.296,4.862-3.755,4.862-3.755l-0.438,5.452l3.546-3.413
				L201.733,149.418z"/>
			<path fill="#010101" d="M123.053,192.695c-8.407,0.534-7.854-3.432-7.854-3.432s0,0,0.019-0.038
				c0.076-0.115,0.4-0.553,1.64-2.364c1.659-2.421,10.848-3.946,10.848-3.946s0.667-0.381-1.659-0.706
				c-2.326-0.324-7.092-3.813-7.092-3.813l4.003-4.366l12.506-5.948c0,0-11.077-1.392-9.075-4.061
				c1.983-2.669,16.51-8.122,12.907-7.492c-3.394,0.61-9.475-1.716-8.617-2.708c0.057-0.076,0.133-0.114,0.248-0.171
				c1.888-0.858,16.72-5.243,16.72-5.243c-0.209,4.061-10.962,5.662-10.962,5.662l10.752,0.438c0,0-4.213,2.135-9.647,5.014
				c-5.433,2.878-8.75,4.385-5.738,4.709c2.993,0.324,10.505,3.546,10.505,3.546l-5.319,3.298l-8.407,3.431
				c0,0-3.546,1.277-5.434,3.432c-1.887,2.135,11.305,2.555,15.175,1.926c3.87-0.648,12.183-3.222,9.971-1.926
				c-2.211,1.277-8.312,4.385-8.312,4.385l-8.808,2.135c0,0-5.147,1.277-8.808,2.402c-3.66,1.106-5.433,2.517-1.105,2.517
				s19.045,0.324,17.939,0.744c-1.105,0.438-12.182,8.026-12.735,8.56c-0.553,0.534-8.96,9.627-6.311,7.073
				c2.65-2.574,10.848-3.965,10.848-3.965s0,0-3.317,4.271c-3.317,4.29-8.751,15.728-7.969,14.451
				c0.763-1.277,15.729-7.168,15.729-7.168l-1.773,2.135c0,0-2.001,2.669-5.986,9.627c-3.985,6.958-2.65,11.343-1.659,12.201
				c0.991,0.858,5.319-4.175,11.953-11.229c6.654-7.073,8.979,4.385,7.321,1.544c-1.658-2.841-4.88-0.687-4.88-0.687
				s-2.802,2.879-5.872,5.91c-1.83,1.811-3.736,3.68-5.205,4.995c-3.87,3.527-5.757,1.182-5.757,1.182s-0.782-2.897,0.991-11.4
				c1.583-7.626,6.234-11.248,6.616-11.61h-0.019c-0.725,0.438-13.898,8.026-13.898,8.026s0.667-6.101,2.211-9.952
				c1.563-3.851,7.988-9.666,7.988-9.666s0.553-0.82-5.548,2.936c-6.101,3.737-6.997,2.993-6.997,2.993s1.01-3.527,3.775-8.351
				c2.783-4.804,11.744-9.246,11.744-9.246S131.48,192.162,123.053,192.695z"/>
			<path fill="#010101" d="M117.22,116.799c2.23-1.792,3.965-2.421,3.965-2.421L117.22,116.799z"/>
			<path fill="#010101" d="M116.972,129.572l-1.563,1.583C116.228,129.877,116.972,129.572,116.972,129.572z"/>
			<path fill="#DB8042" d="M112.32,187.357l2.86-4.442c0,0-12.449,8.236-15.099,10.848c2.44-3.107,15.099-19.732,15.099-19.732
				s-10.39-0.705-15.271,2.993c-4.88,3.68,9.285-9.36,15.271-10.867c6.005-1.487,7.111-2.993,7.111-2.993l-8.636-0.629
				c0,0,10.314-6.177,16.548-9.571l0.477,0.858c-0.858,0.992,5.224,3.317,8.617,2.708c3.603-0.629-10.924,4.823-12.907,7.492
				c-2.002,2.669,9.075,4.061,9.075,4.061l-12.506,5.948l-4.003,4.366c0,0,4.766,3.489,7.092,3.813
				c2.326,0.324,1.659,0.706,1.659,0.706s-9.189,1.525-10.848,3.946c-1.239,1.811-1.563,2.25-1.64,2.364L112.32,187.357z"/>
			<path fill="#010101" d="M108.469,163.336c1.068-0.477,2.708-1.602,4.423-2.879l-0.077,2.059l-0.057,1.944
				c0,0-2.402-0.209-4.042-0.438C108.641,163.813,108.564,163.583,108.469,163.336z"/>
			<path fill="#010101" d="M112.758,164.46l-2.878,2.803c0,0-0.153-0.419-0.438-1.144
				C111.443,165.071,112.758,164.46,112.758,164.46z"/>
			<path fill="#010101" d="M112.758,164.46c0,0-1.315,0.61-3.317,1.659c-0.191-0.534-0.438-1.258-0.725-2.097
				C110.356,164.251,112.758,164.46,112.758,164.46z"/>
			<path fill="#010101" d="M108.736,137.922l0.667-0.686C108.85,139.085,108.736,137.922,108.736,137.922z"/>
			<path fill="#010101" d="M115.408,131.155l-6.005,6.082c0.267-0.877,0.629-2.479,1.144-5.243
				c1.468-8.083,11.553-14.203,12.544-14.794c-0.343,0.096-1.086,0.343-2.574,0.82c-3.851,1.258-11.267,9.532-11.725,10.047
				c0.133-0.248,0.82-1.354,3.298-5.396c1.659-2.707,3.527-4.595,5.128-5.872l3.965-2.421c0,0-1.735,0.629-3.965,2.421l-6.234,3.794
				c0,0,0,0,4.194-5.776c4.213-5.777,15.957-8.56,10.2-7.702c-5.758,0.858-3.756-0.648,0-3.851
				c3.774-3.203,11.076-3.432,20.57-4.061c7.931-0.534,12.526,4.881,13.841,6.692c-1.182,2.345,0.381,0.572,0.381,0.572
				s-0.133-0.209-0.381-0.572c0.305-0.591,0.762-1.43,1.468-2.631c1.067-1.792,3.298-3.279,5.91-4.5l3.641,0.438
				c0,0-0.534-0.515-1.449-1.373c5.7-2.154,12.068-3.146,12.068-3.146h-13.937c0,0,2.421-2.326,12.831-5.757
				c10.429-3.432,23.716,0,23.716,0s-8.865-5.567-4.099-5.986c4.766-0.438,17.158,6.844,16.529,5.986
				c-0.648-0.858-6.005-7.054-1.144-6.844c4.861,0.209,10.199,10.905,9.761,8.56c-0.438-2.364,0.877-8.56,0.877-8.56
				s3.775,10.485,4.442,10.905c0.667,0.438,3.317-10.905,4.213-10.905c0.725,0,3.47,9.303,4.385,12.506
				c-0.077,0.19-0.134,0.381-0.191,0.553l-5.205-5.357l-2.764,6.634l-4.213-7.073l-0.438,5.338l-7.969-7.035l2.212,7.035
				l-14.852-8.103l3.984,6.616c0,0,0,0-9.627-1.487c-9.647-1.506-23.373,0.648-18.512,0.21c4.861-0.419,4.003,4.708,4.003,4.708
				s-20.075,7.683-20.875,8.274c0.076,0,0.362-0.076,0.934-0.267c6.215-2.002,17.73-2.726,17.73-2.726s-21.505,7.34-21.962,7.13
				c-0.458-0.209-15.309,4.919-15.309,4.919l12.449-1.716l-12.449,7.073c0,0,13.994,0,10.676,0.629
				c-3.222,0.629-18.397,9.875-19.351,10.466l10.104-3.317c-0.915,0.496-2.383,1.392-4.709,2.917
				c-6.863,4.48-6.654,6.196-6.654,6.196s20.876,0.553,22.172,1.583c0.305,0.229-0.477,0.496-2.898,0.782
				c-12.621,1.487-29.245,9.837-29.245,9.837s10.409,2.135,8.674,2.345c-0.477,0.057-2.211,0.953-4.518,2.211
				c-6.234,3.394-16.548,9.571-16.548,9.571l-0.839-0.019l0.077-2.059c3.184-2.345,6.577-5.205,6.92-5.51l-4.633,1.373l4.671-5.338
				l-4.671,2.764l1.563-11.191l-3.546,2.097c0,0-0.438,1.182,0.229-6.368C113.75,134.567,114.627,132.394,115.408,131.155
				l1.563-1.583C116.972,129.572,116.228,129.877,115.408,131.155z"/>
			<path fill="#010101" d="M109.67,256.904c-0.744,3.832-1.201,5.872-0.896,3.089C108.888,258.906,109.212,257.858,109.67,256.904z"
				/>
			<path fill="#010101" d="M202.343,349.178c-0.515-1.697-0.515-0.935-0.515-0.935S202.019,348.587,202.343,349.178z
				 M108.774,259.993c-0.305,2.783,0.152,0.743,0.896-3.089C109.212,257.858,108.888,258.906,108.774,259.993z M105.895,269.507
				c-1.925-10.963,2.154-27.072,2.421-28.159v-0.019l0.019-0.038l-0.763-0.477c2.917-4.576,6.292-9.609,6.292-9.609l-0.438,4.823
				c0,0-2.364,13.574-3.737,20.819c2.879-6.024,11.058-8.999,8.389-5.319c-3.108,4.29-1.334,21.181-1.334,21.181
				s0.229,2.993,0.438-4.709c0.229-7.702,7.321-12.411,7.321-12.411s0.438,4.5,0.438,14.127c0,6.559,0.515,12.621,1.963,20.361
				c0.667,3.604,1.563,7.588,2.688,12.163c3.546,14.337,22.611,28.673,22.611,28.673s-6.444-18.835-7.759-25.374
				c-1.334-6.521-0.038-8.103,3.317-1.163c0.553,1.163,1.258,2.479,2.059,3.889c3.184,5.624,7.702,12.487,9.304,14.908
				c0.248,2.708,0.61,0.896,0.61,0.896s-0.229-0.324-0.61-0.896c-0.057-0.571-0.095-1.354-0.133-2.421
				c-0.096-2.535,0.61-4.537,1.487-6.024c1.144-2.04,2.574-3.069,2.574-3.069l19.941,38.301c0,0,0-2.783-2.001-13.917
				c-1.811-10.123,3.546-12.812,5.853-8.846c0.21,0.381,0.419,0.839,0.572,1.354c1.773,5.776,16.186,36.165,13.078,28.254
				c-3.107-7.932,0-14.337,0-14.337l11.077,18.816l-0.438-11.763l17.063,20.113c0,0-1.125-8.121-0.096-11.306
				c0.343-1.067,0.935-1.582,1.869-1.105c3.755,1.926,17.12,40.875,17.12,40.875s3.604-35.079,4.137-21.01
				c0.343,8.599-0.972,20.228-2.23,26.004c-1.125,1.145-1.907,1.64-1.907,1.64c-0.8-8.56-15.804-42.151-15.804-42.151
				s2.669,20.113-0.667,15.823c-3.317-4.271-17.272-22.896-17.272-22.896s2.211,14.984-0.667,11.134
				c-2.421-3.241-8.483-14.107-10.313-17.425c0.133,0.515,0.324,1.22,0.572,2.23c1.086,4.403,6.615,22.935,6.844,23.735
				c-0.419-0.438-7.321-7.683-15.042-20.952c-7.988-13.688-9.971-25.032-9.971-25.032s-0.667,1.716-0.667,7.493
				c0,5.604,3.355,22.344,3.527,23.277c-0.133-0.133-0.763-0.839-4.194-4.671c-4.213-4.709-21.047-38.301-21.047-38.301
				s3.107,17.33-2.212,11.992c-5.167-5.186-12.392-20.647-12.621-20.972c0.21,0.63,9.151,28.56,9.723,30.313
				c-0.534-0.382-1.773-1.277-4.423-3.146c-6.634-4.709-19.484-18.396-26.137-29.645c-6.654-11.229-5.986-39.884-5.986-39.884
				s-3.756,23.316-5.548,15.614c-1.773-7.702-1.525-26.31-2.421-23.965c-0.839,2.231-5.033,18.646-5.49,20.399
				C107.153,276.847,106.791,274.654,105.895,269.507z"/>
			<path fill="#010101" d="M108.469,163.336c0.096,0.248,0.172,0.477,0.248,0.686c-1.201-0.152-1.983-0.324-1.049-0.419
				C107.878,163.583,108.145,163.488,108.469,163.336z"/>
			<path fill="#010101" d="M107.268,277.724c0.152,1.01-0.039,0.133-0.039,0.133S107.249,277.818,107.268,277.724z"/>
			<path fill="#010101" d="M100.824,133.805c0.667-1.83,0.19-0.172,0.19-0.172L100.824,133.805z"/>
			<path fill="#DB8042" d="M107.573,240.814c-1.944,3.031-3.679,5.833-4.118,6.863c-1.106,2.574,3.774-23.755,5.319-26.958
				c1.544-3.203,2.44-8.56,2.44-8.56l-10.638,10.485c0,0-3.317,2.574,1.334-10.276c4.652-12.83,7.531-20.551,7.531-20.551
				l2.878-4.461l2.898,1.869c-0.019,0.038-0.019,0.038-0.019,0.038s-0.553,3.965,7.854,3.432c8.427-0.534,7.645,0.057,7.645,0.057
				s-8.96,4.442-11.744,9.246c-2.765,4.824-3.775,8.351-3.775,8.351s0.896,0.744,6.997-2.993c6.101-3.756,5.548-2.936,5.548-2.936
				s-6.425,5.815-7.988,9.666c-1.544,3.851-2.211,9.952-2.211,9.952s13.174-7.588,13.898-8.026h0.019
				c-0.381,0.362-5.033,3.984-6.616,11.61c-1.773,8.503-0.991,11.4-0.991,11.4s1.887,2.345,5.757-1.182
				c1.468-1.315,3.375-3.184,5.205-4.995l2.44,0.61c-7.854,15.824-4.251,31.361-4.08,30.866l0.648,0.19
				c-1.697,5.853-1.811,7.74-1.735,8.351l-1.487,0.247c-0.648-3.965-1.106-6.806-1.106-6.806
				c-2.211,6.196-1.811,15.404-0.324,23.373l-2.25,0.4c-1.449-7.74-1.963-13.803-1.963-20.361c0-9.627-0.438-14.127-0.438-14.127
				s-7.092,4.709-7.321,12.411c-0.21,7.702-0.438,4.709-0.438,4.709s-1.773-16.891,1.334-21.181c2.669-3.679-5.51-0.705-8.389,5.319
				c1.373-7.245,3.737-20.819,3.737-20.819l0.438-4.823C113.864,231.206,110.49,236.239,107.573,240.814z"/>
			<path fill="#010101" d="M100.538,147.798c-0.4,2.345-0.629,0.61-0.629,0.61L100.538,147.798z"/>
			<path fill="#010101" d="M99.68,194.201c0.076-0.114,0.19-0.229,0.343-0.381C99.642,194.296,99.508,194.449,99.68,194.201z"/>
			<path fill="#DB8042" d="M108.774,139.905l-8.236,7.893c0.133-0.839,0.305-2.192,0.477-4.347
				c0.648-7.912,3.375-15.328,3.527-15.785c-0.477,0.553-9.494,11-8.617,6.825c0.877-4.27,7.759-15.614,7.759-15.614l-8.808,4.728
				c0.782-0.801,2.288-2.536,5.262-6.215c6.863-8.56,21.695-13.917,19.274-14.565c-2.44-0.629-16.396,4.29-16.396,4.29
				s-3.108,0.858,3.546-5.205c6.634-6.063,33.668-5.071,33.668-5.071s0,0-5.51-2.154c-3.546-1.373-17.749-3.184-17.749-3.184
				s-0.877,0.419-0.991,0.419c0.095-0.134,0.934-0.648,3.641-2.135c6.215-3.432,35.003,4.899,35.003,4.899s-4.862-6.615-3.546-7.035
				c1.334-0.438,16.091,11.114,16.091,11.114c-2.612,1.22-4.843,2.708-5.91,4.5c-0.706,1.201-1.163,2.04-1.468,2.631
				c-1.315-1.811-5.91-7.226-13.841-6.692c-9.494,0.629-16.796,0.858-20.57,4.061c-3.756,3.203-5.758,4.709,0,3.851
				c5.757-0.858-5.986,1.925-10.2,7.702c-4.194,5.776-4.194,5.776-4.194,5.776l6.234-3.794c-1.602,1.277-3.47,3.165-5.128,5.872
				c-2.479,4.042-3.165,5.147-3.298,5.396c0.458-0.515,7.874-8.789,11.725-10.047c1.487-0.477,2.23-0.724,2.574-0.82
				c-0.991,0.591-11.076,6.711-12.544,14.794c-0.515,2.764-0.877,4.366-1.144,5.243l-0.667,0.686c0,0,0.114,1.163,0.667-0.686
				l6.005-6.082c-0.781,1.239-1.658,3.413-1.982,7.13c-0.667,7.55-0.229,6.368-0.229,6.368l3.546-2.097l-1.563,11.191l4.671-2.764
				l-4.671,5.338l4.633-1.373c-0.343,0.305-3.737,3.165-6.92,5.51l0.305-9.704l-4.423,6.749c0,0,0,2.25-0.229-2.574
				C108.335,150.086,108.774,139.905,108.774,139.905z"/>
			<path fill="#010101" d="M94.857,123.624l-0.706,0.381C94.151,124.005,93.865,124.616,94.857,123.624z M105.228,148.408
				c0.458-5.548-3.317,1.067-4.442,4.709c-1.105,3.622-3.279-9.647-1.105-16.053c0.553-1.62,0.915-2.65,1.144-3.26l0.19-0.172
				c0,0,0.477-1.658-0.19,0.172l-6.711,6.101c0,0,1.144-11.82,3.355-14.508c2.211-2.669-7.111,3.756-7.111,3.756
				s3.565-11.782,11.763-17.33c7.683-5.224,11.095-6.978,11.496-7.168l-13.479,4.804c0,0,2.211-8.56,7.74-10.905
				c5.548-2.345,19.503-3.87,19.503-3.87l-14.184-1.697c0,0,4.328-8.331,15.576-6.634c10.886,1.658,19.58,4.328,20.113,4.48
				l-6.653-5.967c0,0,7.969-1.296,14.165,2.555c4.613,2.86,10.333,7.969,12.964,10.409c-0.744,0.305-1.487,0.61-2.192,0.934
				c0,0-14.756-11.553-16.091-11.114c-1.315,0.419,3.546,7.035,3.546,7.035s-28.788-8.331-35.003-4.899
				c-2.707,1.487-3.546,2.001-3.641,2.135c0.114,0,0.991-0.419,0.991-0.419s14.203,1.811,17.749,3.184
				c5.51,2.154,5.51,2.154,5.51,2.154s-27.034-0.991-33.668,5.071c-6.654,6.063-3.546,5.205-3.546,5.205s13.955-4.919,16.396-4.29
				c2.421,0.648-12.411,6.005-19.274,14.565c-2.974,3.679-4.48,5.414-5.262,6.215l8.808-4.728c0,0-6.882,11.344-7.759,15.614
				c-0.877,4.175,8.141-6.272,8.617-6.825c-0.152,0.458-2.879,7.874-3.527,15.785c-0.171,2.154-0.343,3.508-0.477,4.347l-0.629,0.61
				c0,0,0.229,1.735,0.629-0.61l8.236-7.893c0,0-0.438,10.181-0.229,15.023c0.229,4.823,0.229,2.574,0.229,2.574l4.423-6.749
				l-0.305,9.704c-1.716,1.277-3.355,2.402-4.423,2.879C107.001,158.97,104.923,152.03,105.228,148.408z"/>
			<path fill="#010101" d="M94.151,124.005l0.706-0.381C93.865,124.616,94.151,124.005,94.151,124.005z"/>
			<path fill="#010101" d="M100.023,193.82c-0.153,0.153-0.267,0.267-0.343,0.381C99.508,194.449,99.642,194.296,100.023,193.82z
				 M108.316,241.348l-8.179,20.875c0-1.182,0-3.68,0-8.56c0-13.688,6.196-35.079,6.196-35.079l-10.199,15.404v-2.574
				c0,0,0,2.574-0.438-8.77c-0.438-11.343,8.426-29.035,8.426-29.035l-11.077,12.144l-2.688,2.955c0,0,2.459-8.522,5.338-14.623
				c2.878-6.082,14.623-18.073,14.623-18.073s0,0-8.408,4.156c-8.427,4.156-10.867,6.691-10.867,6.691s-1.544,2.841,0-5.109
				c1.144-5.91,12.602-12.602,18.397-15.633c0.286,0.725,0.438,1.144,0.438,1.144l2.878-2.803l0.057-1.944l0.839,0.019l8.636,0.629
				c0,0-1.105,1.506-7.111,2.993c-5.986,1.506-20.151,14.546-15.271,10.867c4.881-3.698,15.271-2.993,15.271-2.993
				s-12.659,16.625-15.099,19.732c2.65-2.612,15.099-10.848,15.099-10.848l-2.86,4.442l-2.878,4.461c0,0-2.879,7.721-7.531,20.551
				c-4.652,12.85-1.334,10.276-1.334,10.276l10.638-10.485c0,0-0.896,5.357-2.44,8.56c-1.544,3.203-6.425,29.531-5.319,26.958
				c0.438-1.03,2.173-3.832,4.118-6.863l0.763,0.477l-0.019,0.038V241.348z"/>
		</g>
		<g>
		</g>
	</g>
</g>
</svg>
