<?xml version="1.0" encoding="utf-8"?>
<!-- Generator: Adobe Illustrator 16.0.3, SVG Export Plug-In . SVG Version: 6.00 Build 0)  -->
<!DOCTYPE svg PUBLIC "-//W3C//DTD SVG 1.1//EN" "http://www.w3.org/Graphics/SVG/1.1/DTD/svg11.dtd">
<svg version="1.1" id="Layer_1" xmlns="http://www.w3.org/2000/svg" xmlns:xlink="http://www.w3.org/1999/xlink" x="0px" y="0px" viewBox="0 0 500 500" enable-background="new 0 0 500 500" xml:space="preserve">
<g>
	<g>
		<g>
			<path fill="#B65627" d="M350.197,181.495c0.23-1.006-0.447-2.018-1.513-2.261c-1.065-0.245-2.115,0.372-2.346,1.376
				c-0.23,1.006,0.565,1.789,1.63,2.033C349.035,182.888,349.967,182.5,350.197,181.495z"/>
			<path fill="#B65627" d="M345.293,180.641c-0.467-0.919-1.635-1.262-2.609-0.767c-0.976,0.496-1.387,1.643-0.92,2.56
				c0.469,0.919,1.58,1.012,2.555,0.517C345.293,182.456,345.761,181.56,345.293,180.641z"/>
			<path fill="#B65627" d="M340.845,183.572c-0.987-0.298-2.044,0.309-2.36,1.354c-0.315,1.047,0.229,2.136,1.215,2.435
				c0.986,0.297,1.824-0.442,2.139-1.488C342.155,184.827,341.83,183.87,340.845,183.572z"/>
			<path fill="#B65627" d="M348.83,183.919c-0.969-1.171-3.061-1.04-4.674,0.294c-1.613,1.333-2.137,3.363-1.17,4.535
				c0.967,1.171,2.921,0.679,4.534-0.654C349.135,186.76,349.797,185.09,348.83,183.919z"/>
		</g>
		<g>
			<path fill="#B65627" d="M215.409,237.909c-1.223,0.828-1.505,2.55-0.628,3.848c0.878,1.298,2.58,1.68,3.805,0.853
				c1.223-0.827,1.158-2.426,0.282-3.724C217.99,237.588,216.634,237.083,215.409,237.909z"/>
			<path fill="#B65627" d="M219.711,243.601c-0.41,1.419,0.479,2.921,1.983,3.357c1.504,0.434,3.057-0.365,3.466-1.783
				c0.41-1.419-0.664-2.605-2.168-3.04C221.485,241.701,220.121,242.182,219.711,243.601z"/>
			<path fill="#B65627" d="M227.238,244.884c0.741,1.278,2.441,1.675,3.796,0.889c1.355-0.787,1.85-2.46,1.109-3.737
				c-0.742-1.278-2.342-1.322-3.696-0.535S226.496,243.606,227.238,244.884z"/>
			<path fill="#B65627" d="M219.214,236.708c-0.132,2.173,2.188,4.082,5.182,4.265c2.994,0.183,5.529-1.431,5.661-3.604
				s-2.394-3.569-5.389-3.751C221.674,233.435,219.346,234.535,219.214,236.708z"/>
		</g>
		<g>
			<path fill="#B65627" d="M371.844,195.57c1.404-0.459,2.146-2.039,1.66-3.528c-0.486-1.489-2.02-2.323-3.424-1.865
				c-1.404,0.459-1.78,2.015-1.293,3.503C369.273,195.17,370.439,196.029,371.844,195.57z"/>
			<path fill="#B65627" d="M369.27,188.916c0.784-1.252,0.344-2.941-0.984-3.772c-1.328-0.831-3.04-0.489-3.824,0.762
				c-0.783,1.252-0.076,2.688,1.252,3.519C367.041,190.256,368.486,190.168,369.27,188.916z"/>
			<path fill="#B65627" d="M362.385,185.615c-0.361-1.432-1.888-2.281-3.406-1.897c-1.519,0.385-2.455,1.857-2.092,3.289
				c0.361,1.433,1.889,1.914,3.406,1.529C361.813,188.152,362.748,187.047,362.385,185.615z"/>
			<path fill="#B65627" d="M367.855,195.681c0.723-2.053-0.983-4.526-3.813-5.524c-2.828-0.998-5.709-0.142-6.434,1.911
				c-0.723,2.053,1.323,4.089,4.151,5.087C364.59,198.152,367.13,197.734,367.855,195.681z"/>
		</g>
		<g>
			<path fill="#B65627" d="M233.453,214.696c0.349-0.681,2.013-3.26,2.285-4.085c0.388-0.645,0.743-1.177,1.225-1.192
				c0.558-0.018,0.425,0.507,0.709,1.241c0.14,0.924,0.593,2.284,0.902,3.872c0.21,0.736,0.494,1.47,0.772,2.018
				c0.12,0.331,0.28,0.623,0.436,0.877c0.029-0.224,0.098-0.449,0.203-0.675l0.408-1.165c0.091-0.635,0.669-2.325,1.022-4.007
				c0.356-1.684,1.487-5.806,1.863-6.82c0.225-1.085,0.863-0.919,1.643-0.945l3.043-0.097c0.557-0.018,0.746,0.125,0.756,0.421
				c0.006,0.186-0.063,0.411-0.089,0.671c-0.238,0.714-0.53,2.061-1.174,4.012c-0.604,1.989-1.491,5.695-1.822,6.969
				c-0.254,1.309-1.29,6.097-1.643,7.891c-0.43,1.686-1.777,5.963-2.259,5.979c-0.63,0.021-1.036-1.006-1.324-1.889
				c-0.435-0.804-1.441-3.299-2.102-5.32c-0.293-1.031-0.821-2.462-1.271-3.75l-0.851-2.2c-0.069,0.187-0.136,0.411-0.242,0.601
				c-0.136,0.413-0.347,0.792-0.587,1.356l-2.401,5.092c-0.551,1.392-1.519,3.615-1.784,4.627c-0.376,1.051-0.904,1.959-1.459,1.978
				c-0.372,0.012-0.642-0.314-0.774-0.979c-0.203-0.55-0.396-0.731-0.867-2.684c-0.354-1.847-2.442-9.061-2.791-10.647
				c-0.461-1.582-1.948-7.479-2.482-9.059c-0.128-0.517-0.214-0.885-0.224-1.183c-0.02-0.63,0.273-0.751,0.679-0.875
				c0.705-0.022,2.145-0.291,3.445-0.333c1.223-0.039,1.164,0.446,1.296,1.073c0.21,0.774,0.313,1.625,0.77,3.208
				c0.457,1.471,1.765,5.219,1.983,6.214c0.325,0.881,0.461,2.809,0.869,2.795l0.11-0.003
				C232.313,217.37,233.066,215.339,233.453,214.696z"/>
			<path fill="#B65627" d="M258.25,202.61c0.136-0.375,0.319-0.455,0.51-0.276c0.266,0.177,0.354,0.583,0.517,1.023
				c0.128,0.517,1.554,3.293,2.109,4.391c0.593,1.132,1.156,2.451,1.724,3.92c0.527,1.431,2.543,5.193,3.377,6.949
				c0.836,1.682,2.843,5.222,3.395,6.208c0.514,0.949,1.312,2.707,1.852,3.284c0.117,0.219,0.196,0.365,0.201,0.477
				c0.008,0.26-0.326,0.308-0.658,0.318l-2.673,0.086c-0.298,0.009-0.505-0.654-0.782-1.202c-0.314-0.548-1.365-3.189-1.568-3.777
				c-0.204-0.55-0.717-1.5-0.996-2.085c-0.207-0.625-0.396-0.73-0.691-0.721c-0.26,0.008-0.851,0.102-1.48,0.159
				c-0.59,0.13-2.932,0.131-3.967,0.275c-0.332,0.047-0.778,0.062-1.186,0.074c-0.891,0.028-1.783,0.021-1.969,0.026
				c-0.334,0.011-0.357,0.42-0.457,0.831c-0.063,0.374-0.58,2.731-0.669,3.439l-0.356,1.608l-0.264,1.087
				c-0.131,0.561-0.201,0.712-0.461,0.721l-2.19,0.07c-0.147,0.004-0.186-0.031-0.188-0.143c-0.004-0.111,0.063-0.299,0.13-0.525
				c0.139-0.338,0.211-0.415,0.475-1.425c0.266-1.013,1.193-4.498,1.439-6.064c0.245-1.68,0.852-3.668,1.222-4.833
				c0.259-1.233,0.426-1.833,0.851-3.593c0.428-1.76,0.891-3.558,1.255-4.907l0.833-2.999
				C257.844,203.849,258.114,203.023,258.25,202.61z M262.465,215.959c-0.002-0.074-0.041-0.146-0.12-0.292
				c-0.273-0.438-1.511-3.073-1.915-4.138c-0.52-1.134-0.848-2.09-0.965-2.271c-0.277-0.549-0.322-0.771-0.508-0.765
				c-0.147,0.005-0.238,0.714-0.402,1.426c-0.163,0.599-0.695,2.584-0.857,3.296c-0.16,0.785-0.572,1.912-0.739,2.476
				c-0.067,0.262-0.097,0.447-0.093,0.596c0.006,0.149,0.081,0.22,0.341,0.212c0.445-0.014,3.784-0.195,4.412-0.326
				C262.135,216.082,262.471,216.146,262.465,215.959z"/>
			<path fill="#B65627" d="M291.249,226.373c0.037-0.001,0.075-0.002,0.075-0.002c0.407-0.013,0.268,0.213,0.275,0.473
				c-0.029,0.261,0.1,0.851,0.114,1.297c0.016,0.481-0.471,0.386-1.063,0.405c-0.631,0.02-4.354-0.195-5.653-0.154
				c-1.261,0.041-8.747,0.614-9.377,0.634c-0.632,0.021-0.829-0.344-0.841-0.715c-0.01-0.297-0.043-1.373-0.093-2.896
				c-0.042-1.336-0.211-11.249-0.248-12.437c-0.038-1.188-0.61-8.637-0.645-9.675c-0.016-0.482,0.165-0.637,0.463-0.646
				c0.37-0.012,0.862,0.195,1.345,0.18c0.521,0.057,1.488,0.102,2.49,0.07c0.668-0.022,1.298-0.08,1.889-0.172
				c1.479-0.233,0.918,0.788,0.945,1.678c0.021,0.631-0.064,4.943-0.014,6.576c0.053,1.633,0.357,7.641,0.379,8.346
				c0.021,0.668,0.035,3.417,0.055,4.047c0.006,0.148-0.021,0.447-0.014,0.744c0.012,0.335,0.059,0.667,0.07,1.038l0.117,1.297
				l5.312,0.016L291.249,226.373z"/>
			<path fill="#B65627" d="M299.602,227.442c0.02,0.631-0.392,0.533-0.689,0.542c-0.334,0.011-1.412-0.066-1.969-0.048
				c-0.521,0.017-2.484,0.19-2.856,0.202c-0.407,0.013-0.378-0.248-0.396-0.842l-0.329-9.09c-0.024-0.743-0.067-2.079-0.11-3.489
				c-0.068-2.115-0.142-4.416-0.242-5.231c-0.051-0.444-0.066-0.925-0.083-1.408c-0.031-1.001-0.025-1.968-0.039-2.451l-0.058-2.932
				c-0.008-0.26,0.139-0.339,0.361-0.347c0.26-0.008,0.596,0.093,0.818,0.085l4.233-0.098c0.558-0.018,0.601,0.241,0.61,0.5
				c0.008,0.259,0.061,0.741,0.095,1.817c0.033,1.039-0.284,3.947-0.245,5.134l0.078,2.45c0.016,0.481,0.033,1.001,0.088,1.557
				c0.321-0.382,0.607-0.763,0.855-1.141l1.314-1.826c0.676-0.913,3.479-5.089,3.832-5.658c0.352-0.568,1.821-2.287,2.024-2.924
				c0.165-0.601,0.727-0.506,1.06-0.554c0.335-0.011,0.998-0.107,1.555-0.161c0.074-0.002,0.111-0.003,0.148-0.005
				c0.445-0.014,0.672,0.09,0.676,0.239c0.006,0.185-0.173,0.34-0.354,0.531c-0.18,0.192-2.783,3.582-3.459,4.493
				c-0.567,0.911-3.621,5.355-4.119,5.965c-0.465,0.609-1.8,2.992-1.794,3.178c0.008,0.26,0.425,0.507,1.001,1.082
				c0.5,0.579,2.495,2.521,2.914,2.917c0.424,0.395,2.695,2.885,4.03,4.031c1.298,1.11,3.22,3.093,3.526,3.38
				c0.039,0.035,0.078,0.109,0.078,0.146c0.008,0.222-0.396,0.346-0.732,0.283c-0.408,0.013-2.371,0.187-3.076,0.209
				c-0.743,0.06-1.156-0.112-1.46-0.361c-0.271-0.251-0.841-0.716-1.419-1.33c-0.574-0.575-1.61-1.583-2.645-2.552
				c-0.498-0.467-1.41-1.145-2.176-1.826l-1.448-1.142l0.101,3.118C299.326,224.665,299.58,226.775,299.602,227.442z"/>
			<path fill="#B65627" d="M317.475,206.773c0.063,2.004-0.031,8.36,0.029,10.253c0.061,1.929,0.382,8.42,0.521,9.344
				c0.043,0.222,0.049,0.37,0.054,0.519c0.014,0.409-0.132,0.487-0.353,0.605c-0.217,0.155-0.699,0.17-1.145,0.185
				c-1.225,0.039-0.887,0.177-0.941-1.531c-0.043-1.409-0.178-10.209-0.256-12.658c-0.079-2.45,0.063-9.661-0.077-10.549
				c-0.008-0.26-0.054-0.518-0.062-0.778c-0.016-0.52,0.081-0.969,0.564-0.984c0.26-0.008,0.816,0.011,1.374-0.006
				c0.298-0.01,0.378,0.211,0.388,0.507c0.008,0.26-0.055,0.597-0.047,0.892C317.437,203.32,317.447,204.731,317.475,206.773z"/>
			<path fill="#B65627" d="M329.146,213.979c0.08,2.562,0.399,7.9,0.436,9.014c0.035,1.075,0.244,2.964,0.264,3.559
				c0,0.037,0.002,0.074,0.002,0.074c0.016,0.519-0.315,0.604-0.688,0.616c-0.406,0.013-1.59,0.199-2.48,0.228
				c-0.892,0.028-2.596,0.156-3.598,0.188c-1.003,0.032-0.945-0.525-1.074-1.004c-0.084-0.333-0.171-0.702-0.201-1.628
				c-0.012-0.409-0.027-0.892-0.01-1.522c-0.068-2.116-0.133-6.535-0.002-8.21c0.054-1.785,0.373-8.111,0.326-9.596
				c-0.048-1.484-0.096-2.932-0.03-4.383c0.048-0.856,0.526-1.019,1.009-1.034c0.37-0.013,0.744,0.049,0.965,0.042
				c0.595-0.019,2.115-0.104,3.155-0.137c1.075-0.034,1.526,0.136,1.842,0.684c0.315,0.584,1.509,3.036,2.46,4.9
				c0.949,1.827,3.457,7.06,4.404,8.813c0.475,0.912,1.3,2.298,1.971,3.577l1.224,2.227l-0.142-2.149l-0.266-3.632
				c-0.012-0.371-0.023-0.743-0.036-1.114c-0.051-1.596-0.061-3.082-0.057-4.121c-0.04-1.226-0.201-3.97-0.245-5.343l0.034-3.566
				c-0.014-0.446,0.242-0.566,0.54-0.575c0.26-0.008,0.559,0.057,0.744,0.087c0.451,0.099,0.597,0.056,1.302,0.034
				c0.409-0.013,0.487,0.096,0.493,0.318c0.006,0.187-0.058,0.449-0.05,0.745c0.023,0.705,0.167,8.761,0.23,10.691
				c0.01,0.334-0.016,0.669-0.002,1.078c0.069,2.153,0.39,5.263,0.435,6.673c0.052,1.633,0.369,5.783,0.393,6.489
				c0,0.037,0.002,0.074,0.002,0.074c0.021,0.667-0.347,0.717-0.684,0.69c-0.112-0.033-0.26-0.029-0.445-0.023
				c-0.447,0.014-0.963,0.105-1.26,0.077c-0.41-0.023-0.447-0.022-0.879-0.714c-0.316-0.659-2.523-5.715-3.275-7.177
				c-0.827-1.46-3.568-7.093-4.404-8.813c-0.436-0.839-1.146-2.117-1.774-3.174l-1.137-1.895l0.223,3.522
				C328.961,210.493,329.104,212.681,329.146,213.979z"/>
			<path fill="#B65627" d="M362.488,215.886c0.444-0.014,0.683,0.499,0.669,1.205c0.023,0.705,0.187,9.317-8.201,9.586
				c-5.901,0.188-8.968-7.44-9.181-14.083c-0.213-6.681,3.723-12.527,8.326-12.674c4.564-0.146,5.877,2.562,6.452,3.101
				c0.229,0.252,0.313,0.473,0.319,0.696c0.012,0.333-0.129,0.598-0.31,0.79c-0.288,0.307-1.335,1.23-1.698,1.502
				c-0.107,0.079-0.219,0.119-0.33,0.122c-0.261,0.008-0.486-0.132-0.68-0.312c-0.306-0.288-1.895-2.355-4.158-2.283
				c-3.303,0.106-4.701,6.355-4.588,9.917c0.113,3.526,1.801,9.862,6.145,9.723c2.227-0.071,3.342-1.147,4.016-2.208
				c0.386-0.643,0.624-1.357,0.711-2.14l-1.076,0.034c-0.594,0.019-1.264,0.002-1.672,0.016l-3.748,0.083
				c-0.557,0.018-0.643-0.313-0.65-0.573l-0.047-1.448c-0.018-0.594,0.242-0.565,0.391-0.569l1.707-0.055
				C355.479,216.296,362.078,215.899,362.488,215.886z"/>
		</g>
	</g>
	<ellipse fill="#5E5E5E" cx="249.47" cy="457.418" rx="217.398" ry="2.93"/>
	<polygon fill="#6D4B48" points="155.652,90.971 138.205,93.389 139.641,94.685 156.015,92.886 	"/>
	<path fill="#EACDA8" d="M126.428,132.033c0.741-13.31,53.288,62.033,54.172,71.633c0.792,8.6-10.475,53.758-16.517,63.858
		c0,0-18.013-2.343-21.748-18.216c1.955-3.254,16.513-34.123,15.378-39.131C156.523,204.956,124.17,172.656,126.428,132.033z"/>
	<path fill="#E1C49C" d="M157.373,223.283c7.909,0,15.224-2.24,21.581-6.141c-3.243,16.875-10.454,42.999-14.871,50.382
		c0,0-18.013-2.343-21.748-18.216c1.253-2.088,7.678-15.515,11.832-26.21C155.234,223.178,156.295,223.283,157.373,223.283z"/>
	<path fill="#CCA77B" d="M126.428,132.033c0.171-2.971,2.927-1.505,7.111,2.649c2.439,40.896,30.715,65.98,32.003,71.411
		c1.318,5.605-11.41,46.654-13.718,50.297c0.826,3.383,2.262,6.207,4.044,8.576c-5.275-2.431-11.505-7.039-13.533-15.659
		c1.955-3.254,14.938-34.387,13.796-39.394C154.943,204.689,124.17,172.656,126.428,132.033z"/>
	<path fill="#AA6B4B" d="M164.083,267.524c4.51-1.052-9.729-12.902-25.025-14.874C139.058,252.65,154.059,269.866,164.083,267.524z"
		/>
	<g>
		<path fill="#FDCD9D" d="M157.194,259.438c-2.698,3.408-1.918,12.788-6.021,12.412c-3.676-0.33-8.381-5.313,2.844-13.705
			L157.194,259.438z"/>
		<path fill="#FDCD9D" d="M149.328,263.198c6.579,0.261,5.313,6.758,4.333,8.784c-1.08,2.219-6.292,3.137-7.977,2.029
			C144.013,272.908,146.819,263.104,149.328,263.198z"/>
		<path fill="#FDCD9D" d="M148.394,268.355c-1,0.605-3.764,2.441-4.63,1.885c-1.115-0.726,0.309-2.156,1.068-3.064
			c2.004-2.351,3.954-4.541,5.531-3.449C151.773,264.689,154.616,264.608,148.394,268.355z"/>
		<path fill="#FDCD9D" d="M146.497,268.969c1.318,0.465,2.034,1.344,2.03,2.057c-0.004,0.721-0.766,0.352-2.085-0.113
			c-1.321-0.465-2.968-0.368-2.962-1.091C143.489,269.105,145.176,268.501,146.497,268.969z"/>
		<path fill="#FDCD9D" d="M147.739,273.1c-0.458,1.125-1.46,1.809-2.337,1.883c-0.869,0.076-0.49-0.586-0.039-1.709
			c0.448-1.125,0.195-2.45,1.069-2.527C147.306,270.676,148.189,271.98,147.739,273.1z"/>
		<path fill="#FDCD9D" d="M150.796,272.932c-0.126,1.113-1.799,2.185-2.69,2.211c-0.896,0.021-0.006-1.047,0.125-2.16
			c0.129-1.12,0.4-1.854,1.293-1.88C150.412,271.078,150.921,271.814,150.796,272.932z"/>
		<path fill="#FDCD9D" d="M153.303,272.527c-0.197,1.113-1.152,1.899-2.091,2.043c-0.947,0.15-0.346-0.664-0.162-1.774
			c0.19-1.114,0.378-1.896,1.334-2.054C153.325,270.59,153.492,271.422,153.303,272.527z"/>
	</g>
	<path fill="#614C3C" d="M80.288,391.449c0.033-8.095,5.331-15.823,4.326-25.393c-1.003-9.566-9.799-82.805-6.805-89.059
		c2.999-6.259,54.71-11.044,63.941,0.735c9.233,11.776-1.899,147.581-1.908,173.335h-6.199c0,0-8.902-57.775-9.003-59.619
		c-0.102-1.838,5.279-25.395,5.279-25.395s-7.444-48.574-12.332-50.785c-6.351-2.869-30.258,136.457-30.204,135.799h-4.771
		C82.613,451.068,80.256,399.551,80.288,391.449z"/>
	<path fill="#483427" d="M138.912,291.51c-3.736,1.074-36.276,3.224-43.887-0.537l-0.453-8.238l45.197,3.583L138.912,291.51z"/>
	<path fill="#483427" d="M145.02,340.398c-4.091-2.49-12.459-7.472-13.977-12.099c-1.518-4.624,1.689-41.986,1.689-41.986
		l14.397-0.713L145.02,340.398z"/>
	<path fill="#483427" d="M84.809,342.777c5.629-1.295,17.127-3.821,19.737-7.97c2.619-4.146,3.765-42.087,3.765-42.087
		l-25.493-7.358L84.809,342.777z"/>
	<g>
		<path fill="#483427" d="M117.459,316.858c1.031-2.591,4.403-1.601,5.08-1.296c4.893,2.213,10.819,50.963,10.819,50.963
			s-3.867,23.378-3.766,25.217c0.098,1.767,8.308,55.119,8.957,59.326h-4.906c0,0-8.902-57.775-9.003-59.619
			c-0.102-1.838,5.279-25.395,5.279-25.395S122.071,328.818,117.459,316.858z"/>
		<path fill="#483427" d="M80.288,391.449c0.033-8.095,5.331-15.823,4.326-25.393c-1.003-9.566-9.799-82.805-6.805-89.059
			c1.985-4.15,25.371-7.645,43.608-6.104c-17.265-0.622-36.844,2.615-38.656,6.396c-2.997,6.256,5.803,79.491,6.806,89.057
			c1.003,9.57-4.294,17.301-4.326,25.395c-0.031,7.43,1.949,51.352,2.276,58.584c-0.092,0.514-0.137,0.775-0.134,0.742h-4.771
			C82.613,451.068,80.256,399.551,80.288,391.449z"/>
	</g>
	<path fill="#483427" d="M131.673,312.936c-4.398,1.842-6.799,5.531-13.224,4.914c-6.422-0.613-16.048-7.831-16.048-7.831
		s13.003,3.993,17.052,4.454C123.496,314.931,131.673,312.936,131.673,312.936z"/>
	<path fill="#CCA77B" d="M127.825,144.875l17.609-27.806l-30.165-6.334l-1.806,11.881
		C120.295,124.812,125.706,131.065,127.825,144.875z"/>
	<polygon fill="#EF9070" points="119.621,126.855 119.079,103.917 99.426,102.118 98.252,124.158 	"/>
	<path fill="#74BDD2" d="M141.977,283.936c3.74-3.724,0.64-33.839,2.963-52.283c2.329-18.439,3.424-74.326-16.953-100.076
		c-5.371-6.795-14.377-8.977-18.775-9.784c-19.06-3.49-24.884,39.131-26.093,52.288c-1.495,16.193-11.644,106.417-3.659,110.089
		C82.637,285.635,133.386,292.482,141.977,283.936z"/>
	<path fill="#509BAD" d="M83.119,174.081c1.179-12.83,6.757-53.67,24.717-52.441c-0.084,0.87,0.155,1.889,0.821,3.033
		c3.63,6.203-2.119,154.726,2.435,159.264c4.554,4.535,21.606,1.668,21.606,1.668c1.279-101-8.592-137.074-13.314-160.607
		c3.104,1.48,6.222,3.554,8.604,6.58c20.376,25.75,19.281,81.637,16.953,100.076c-2.323,18.443,1.945,50.253-1.794,53.978
		c-8.595,8.547-61.683,1.464-64.86,0C70.306,281.957,81.624,190.274,83.119,174.081z"/>
	<path fill="#EACDA8" d="M101.794,331.51c2.488-5.242,6.766-85.009,5.471-99.853c-1.286-14.842-0.626-105.955-6.866-107.499
		c-9.746-2.416-30.324,38.233-33.396,51.724c-3.074,13.497-2.861,156.081-2.163,160.127
		C65.546,340.059,98.802,337.809,101.794,331.51z"/>
	<path fill="#E1C49C" d="M93.751,244.771c4.875,0,9.492-1.254,13.747-3.544c-0.095,25.979-3.562,85.766-5.705,90.283
		c-2.992,6.299-36.248,8.549-36.954,4.5c-0.445-2.576-0.689-61.238-0.024-107.051C72.963,238.827,83.071,244.771,93.751,244.771z"/>
	<path fill="#CCA77B" d="M65.026,176.779c1.928-8.469,15.913-42.067,22.975-40.564c12.701,12.903-8.514,127.94-6.347,201.498
		c-8.485,0.739-16.474,0.26-16.813-1.702C64.142,331.963,61.957,190.274,65.026,176.779z"/>
	<path fill="#EACDA8" d="M135.403,327.02c-2.326-5.244,1.842-44.529,1.069-84.562c-0.881-45.76-5.963-104.138-9.479-112.736
		c8.152,5.062,14.17,19.06,17.71,32.55c3.534,13.498,9.492,170.594,9.365,174.641C153.939,340.965,138.194,333.314,135.403,327.02z"
		/>
	<path fill="#E1C49C" d="M144.936,245.725c1.872,0,3.674-0.343,5.436-0.858c2.101,44.217,3.764,89.887,3.697,92.045
		c-0.13,4.053-15.875-3.598-18.666-9.893c-2.302-5.186,1.746-43.648,1.091-83.203C139.235,245.017,142.057,245.725,144.936,245.725z
		"/>
	<polygon fill="#CCA77B" points="104.325,145.918 103.387,113.36 85.223,108.302 94.47,126.853 	"/>
	<path fill="#CCA77B" d="M85.154,448.668c10.589-0.69,10.582,7.121,10.582,7.121s-17.088,0-18.229,0
		C77.507,455.789,78.341,449.111,85.154,448.668z"/>
	<path opacity="0.5" fill="#BD5643" d="M102.335,156.904c-4.986-4.858-11.437-13.226-17.22-21.26
		c0.344-0.368,0.676-0.729,0.999-1.047c0.013-0.012,0.019-0.015,0.032-0.027c1.102-1.094,2.087-1.892,2.923-2.348
		c1.812-2.313,3.587-4.24,5.264-5.647l-9.109-18.272l13.672,3.807l0.531-9.992l19.653,1.799l0.178,7.657l12.08,2.536l7.844,12.83
		l-5.194,8.202c3.595,3.645,8.177,9.158,13.048,15.508C133.028,158.408,112.803,167.097,102.335,156.904z"/>
	<path fill="#FDCD9D" d="M144.618,133.344c0,0,13.488-8.609,6.024-25.936c-1.222-2.839-6.701-13.837-6.553-16.901
		c0.146-3.062,0.558-4.211,0.792-7.265c0.448-5.625-10.77-14.721-16.617-17.069c-12.224-4.925-27.532,2.076-30.418,7.488
		c-10.031,18.759,14.776,46.069,18.224,50.054C118.139,126.091,120.288,133.274,144.618,133.344z"/>
	<g>
		<path fill="#F7A27C" d="M149.77,105.483c-0.239-0.512-0.496-1.079-0.782-1.69c-1.312,1.4-3.012,2.272-4.965,2.272
			c-4.587,0.011-8.648-4.6-9.085-10.297c-0.446-5.695,2.926-10.32,7.505-10.32c0.737-0.002,1.458,0.156,2.158,0.38
			c0.095-0.691,0.189-1.446,0.265-2.375c-0.739-0.2-1.492-0.331-2.27-0.311c-5.411,0.128-9.504,5.879-9.148,12.852
			c0.007,0.135,0.042,0.255,0.052,0.389l-1.704,0.016c-0.527-6.599-5.058-11.751-10.449-11.638
			c-4.589,0.094-8.303,3.984-9.408,9.204l-13.936,1.94c0.172,0.472,0.361,0.946,0.55,1.416l13.097-1.396
			c-0.042,0.563-0.102,1.117-0.086,1.695c0.21,6.987,4.935,12.543,10.533,12.427c5.459-0.117,9.71-5.565,9.753-12.275l1.808-0.115
			c0.944,6.158,5.249,10.834,10.214,10.715C146.166,108.324,148.19,107.222,149.77,105.483z M130.335,97.404
			c0.323,5.709-3.267,10.337-8.022,10.325c-4.753,0-8.868-4.623-9.199-10.332c-0.317-5.701,3.267-10.329,8.026-10.324
			C125.89,87.069,130.002,91.7,130.335,97.404z"/>
	</g>
	<path fill="#A88982" d="M109.407,107.237c0.568-7.293,4.954-30.801-5.485-34.204c-10.438-3.404-14.529,2.974-15.966,10.029
		c-1.441,7.053,4.216,14.505,13.615,23.1C102.192,106.737,109.188,110.103,109.407,107.237z"/>
	<path fill="#926D67" d="M86.959,82.167c1.44-7.055,6.382-13.341,16.827-9.939c1.482,0.484,2.782,2.214,3.72,3.414
		c-2.531,7.167-3.973,23.104-3.94,31.567c-1.001-0.438-2.728-0.334-2.917-0.506C91.251,98.106,85.519,89.219,86.959,82.167z"/>
	<path fill="#A88982" d="M100.598,116.667c-0.244,9.126,8.905,38.331,33.362,35.939c24.446-2.401,41.452-11.728,25.329-37.728
		c0,0,1.027-7.344-8.858-12.064c-9.889-4.722-11.763,5.621-13.465,6.674c-1.709,1.053-23.774,4.717-33.301-8.213
		C98.839,94.724,100.917,104.66,100.598,116.667z"/>
	<path fill="#926D67" d="M142.809,119.669c-4.666,3.418-14.815,8.306-24.601,2.65c-7.924-4.577-10.796-10.503-9.671-16.433
		c1.306,0.896,2.68,1.669,4.127,2.281c1.376,2.411,3.993,4.271,8.936,3.894c1.244-0.094,2.563-0.611,3.919-1.312
		c5.906,0.183,10.687-0.795,11.447-1.261c1.017-0.63,2.113-4.562,4.925-6.627c5.1,0.519,11.363,3.053,13.171,3.053
		c0.037,0,0.065-0.006,0.097-0.006c4.768,4.29,4.131,8.971,4.131,8.971c0.711,1.154,1.34,2.263,1.925,3.352
		C155.15,122.095,147.463,121.071,142.809,119.669z"/>
	<g>
		<path fill="#926D67" d="M140.333,105.486c-0.164,0.101-0.565,0.227-1.075,0.36c0.719-1.162,1.638-2.344,2.871-3.169
			C141.377,104.014,140.845,105.167,140.333,105.486z"/>
		<path fill="#926D67" d="M100.598,116.667c0.32-12.008-1.758-21.944,3.067-15.393c0.049,0.064,0.104,0.115,0.158,0.182
			c0.076,3.078,0.254,7.009,0.145,11.21c-0.243,9.126,8.911,38.33,33.361,35.936c11.14-1.094,20.717-3.636,26.338-8.521
			c-4.403,7.579-15.853,11.166-29.707,12.524C109.503,154.998,100.354,125.793,100.598,116.667z"/>
	</g>
	<g>
		<path fill="#402523" d="M136.12,117.472l14.332-0.832c0,0,2.239,9.967-7.125,10.246
			C137.502,127.058,136.12,117.472,136.12,117.472z"/>
		<polygon fill="#FFF2E4" points="136.991,116.667 139.405,121.902 148.606,120.056 148.567,117.248 		"/>
	</g>
	<path fill="#B7958F" d="M146.008,114.993c-1.132,1.916-14.475,12.332-27.167,4.998c-10.919-6.305-12.28-15.173-6.77-23.074
		c0,0-2.547,13.788,10.163,12.815c5.745-0.441,13.133-9.34,18.649-9.051C146.408,100.972,148.835,110.229,146.008,114.993z"/>
	<path fill="#B7958F" d="M139.451,115.66c1.823,1.45,17.905,7.391,26.346-3.352c5.04-6.416,1.241-16.116-6.971-17.192
		c0,0,9.328,8.47-3.131,8.47c-2.446,0-12.99-4.625-17.858-2.666C132.979,102.874,134.917,112.045,139.451,115.66z"/>
	<path fill="#926D67" d="M133.202,105.729c-2.146,3.974,5.385,5.633,9.359,2.815c3.967-2.815-0.921-7.417-4.608-8.355
		C134.263,99.252,134.324,103.664,133.202,105.729z"/>
	<path fill="#FDCD9D" d="M101.571,106.162c-4.9,1.567-10.443-3.402-10.67-7.522c-0.227-4.118,7.509-5.012,9.835-4.118
		C103.068,95.418,107.163,104.371,101.571,106.162z"/>
	<path fill="#EF9070" d="M100.963,104.691c-3.283,1.052-7-2.283-7.152-5.045c-0.153-2.763,5.033-3.364,6.595-2.763
		C101.97,97.483,104.721,103.489,100.963,104.691z"/>
	<path fill="#FDCD9D" d="M102.3,104.71c-1.872,0.6-3.99-1.3-4.077-2.875c-0.086-1.574,2.871-1.918,3.76-1.574
		C102.874,100.603,104.442,104.026,102.3,104.71z"/>
	<path fill="#FDCD9D" d="M134.324,103.417c-0.697,5.057,7.099,7.164,9.945,3.582c2.839-3.582-3.432-9.433-7.293-10.623
		C133.116,95.184,134.691,100.79,134.324,103.417z"/>
	<path fill="#B7958F" d="M128.54,85.117c2.323-0.015,3.806-4.541,1.07-7.715c-2.748-3.174-16.263,8.128-13.778,11.169
		C118.331,91.623,118.149,85.186,128.54,85.117z"/>
	<path fill="#B7958F" d="M138.567,85.048c-1.904,0.596-3.608-3.46-1.707-7.304c1.896-3.841,14.19,3.707,12.481,7.36
		C147.631,88.756,147.075,82.385,138.567,85.048z"/>
	<path fill="#6D4B48" d="M135.722,95.631c0.22,6.985-4.165,12.746-9.782,12.865c-5.602,0.118-10.323-5.44-10.537-12.424
		c-0.205-6.98,4.17-12.745,9.783-12.86C130.794,83.092,135.512,88.649,135.722,95.631z M124.978,85.524
		c-4.76-0.005-8.345,4.622-8.022,10.327c0.329,5.706,4.448,10.329,9.197,10.329c4.757,0.01,8.347-4.617,8.017-10.325
		C133.841,90.15,129.73,85.519,124.978,85.524z"/>
	<path fill="#553533" d="M128.266,97.083c-0.173-1.254-1.101-2.224-2.063-2.152c-0.965,0.068-1.607,1.138-1.433,2.394
		c0.17,1.264,1.104,2.226,2.069,2.163C127.805,99.416,128.449,98.344,128.266,97.083z"/>
	<path fill="#553533" d="M145.376,95.611c0.085-1.178-0.598-2.222-1.527-2.324c-0.937-0.105-1.752,0.769-1.845,1.945
		c-0.086,1.185,0.594,2.228,1.528,2.332C144.464,97.664,145.285,96.792,145.376,95.611z"/>
	<path fill="#6D4B48" d="M156.872,93.974c0.355,6.973-3.754,12.73-9.163,12.85c-5.403,0.128-10.076-5.409-10.421-12.379
		c-0.354-6.973,3.738-12.723,9.149-12.852C151.845,81.459,156.514,87.006,156.872,93.974z M146.283,83.897
		c-4.581,0-7.951,4.625-7.504,10.32c0.433,5.698,4.491,10.309,9.086,10.299c4.585-0.003,7.943-4.623,7.513-10.32
		C154.94,88.504,150.867,83.889,146.283,83.897z"/>
	<polygon fill="#6D4B48" points="135.385,94.854 138.284,94.822 138.441,96.046 135.535,96.232 	"/>
	<polygon fill="#6D4B48" points="116.505,92.315 101.051,94.463 102.369,95.774 116.894,94.227 	"/>
	<path opacity="0.5" fill="#BD5643" d="M86.959,82.167c0.183-0.91,0.449-1.795,0.756-2.655l44.665-11.12
		c3.698,2.365,7.868,5.893,10.337,9.317c1.67,0.771,3.347,1.889,4.623,3.09l-53.95,18.227
		C88.531,92.996,85.942,87.124,86.959,82.167z"/>
	<path fill="#6D4B48" d="M144.813,68.33c0,0-13.447-17.451-25.638-24.841c-5.663-3.434-19.825,8.103-24.109,8.939
		C81.574,55.063,87.12,82.04,87.12,82.04L144.813,68.33z"/>
	<path fill="#573634" d="M95.066,52.428c0.938-0.184,2.371-0.895,4.063-1.837c3.061,10.371,13.834,18.799,27.645,22.025L87.12,82.04
		C87.12,82.04,81.574,55.063,95.066,52.428z"/>
	<path fill="#CCA77B" d="M158.267,208.418c4.846-1.612,17.154-5.732,14.607-7.164c-2.547-1.432-17.022,4.658-17.022,4.658
		L158.267,208.418z"/>
	<path fill="#CCA77B" d="M160.028,206.764c3.921,0.967,13.881,3.406,12.857,1.503c-1.029-1.903-13.313-4.013-13.313-4.013
		L160.028,206.764z"/>
	<polygon fill="#483427" points="120.772,291.93 119.096,319.035 116.924,318.822 115.727,292.139 	"/>
	<polygon fill="#483427" points="113.161,291.573 126.071,291.573 126.405,297.66 113.495,297.66 	"/>
	<polygon fill="#CCA77B" points="115.998,292.123 124.044,292.123 124.252,295.916 116.207,295.916 	"/>
	<path fill="#CCA77B" d="M139.007,262.201c-0.116-2.112,0.47-3.819,1.31-3.819c0.837,0,1.612,1.707,1.728,3.819
		c0.116,2.109-0.471,3.818-1.309,3.818C139.897,266.02,139.123,264.311,139.007,262.201z"/>
	<path fill="#CCA77B" d="M138.229,206.568c-0.116-2.11,0.471-3.819,1.309-3.819c0.842,0,1.613,1.709,1.729,3.819
		c0.116,2.112-0.466,3.82-1.308,3.82C139.12,210.388,138.345,208.68,138.229,206.568z"/>
	<path fill="#CCA77B" d="M139.311,235.46c-0.117-2.112,0.467-3.821,1.31-3.821c0.836,0,1.611,1.709,1.728,3.821
		c0.116,2.108-0.472,3.819-1.308,3.819C140.198,239.279,139.427,237.568,139.311,235.46z"/>
	<path fill="#CCA77B" d="M136.767,180.064c-0.116-2.109,0.47-3.818,1.309-3.818c0.842,0,1.615,1.708,1.73,3.818
		c0.117,2.11-0.468,3.819-1.31,3.819C137.657,183.883,136.883,182.174,136.767,180.064z"/>
	<path fill="#DEA7A7" d="M86.008,69.942L134.73,56.73c1.569,1.637,2.999,3.213,4.283,4.664L86.29,76.115
		C86.109,74.277,85.993,72.16,86.008,69.942z"/>
	<path fill="#BE8886" d="M86.008,69.942l21.533-5.84c2.269,1.457,5.178,2.716,8.573,3.688L86.29,76.115
		C86.109,74.277,85.993,72.16,86.008,69.942z"/>
	<path fill="#6D4B48" d="M61.743,94.243c9.538-3.063,72.582-24.252,122.577-26.583c0,0-19.466-5.773-61.7,3.583
		C74.449,81.912,61.743,94.243,61.743,94.243z"/>
	<path fill="#573634" d="M114.376,72.138c1.362,1.559,4.455,3.835,7.434,5.123C92.168,84.14,67.434,92.414,61.743,94.243
		C61.743,94.243,72.278,82.367,114.376,72.138z"/>
	<path fill="#CCA77B" d="M137.431,448.668c10.587-0.69,22.034,7.121,22.034,7.121s-25.824,0-26.957,0
		C132.507,455.789,130.617,449.111,137.431,448.668z"/>
	<g>
		<path fill="#C17957" d="M322.794,323.268c0,0,1.917-5.689-1.021-4.425c-2.938,1.263-8.209,9.323-8.209,9.323
			s1.809-4.898-0.203-4.74c-2.01,0.158-6.788,8.06-6.788,8.06s-0.335-4.267-1.827-3.95c-1.494,0.315-3.137,9.482-3.137,9.482
			s-0.254-5.853-2.182-4.862c-2.922,1.501-1.164,11.657-1.164,11.657s-1.525-4.395-3.258-2.813
			c-1.73,1.579,3.877,10.713,3.877,10.713s-4.943-5.74-6.324-4.002c-1.383,1.738,6.363,10.957,6.363,10.957
			s-5.869-2.869-6.205-1.323c-0.791,3.632,8.773,8.277,8.773,8.277s-5.35-1.646-5.694,0.408c-0.345,2.056,7.49,5.28,7.49,5.28
			s-5.597,0.641-5.28,2.536c0.318,1.896,11.947,5.052,11.947,5.052l16.586-1.423c-11.947-3.951-17.459-12.991-18.707-21.335
			c-1.063-7.113,7.309-25.406,23.338-34.486C332.561,320.866,334.408,312.81,322.794,323.268z"/>
		<path fill="#E19873" d="M323.979,321.058c0,0,1.915-5.69-1.021-4.425c-2.937,1.263-8.208,9.323-8.208,9.323
			s1.807-4.898-0.203-4.741c-2.012,0.158-6.789,8.061-6.789,8.061s-0.334-4.267-1.828-3.951c-1.492,0.315-3.136,9.482-3.136,9.482
			s-0.829-4.108-2.778-3.161c-1.949,0.948-0.568,9.956-0.568,9.956s-2.729-2.528-4.46-0.947c-1.731,1.58,5.079,8.85,5.079,8.85
			s-6.044-3.95-7.424-2.213c-1.383,1.738,7.464,9.166,7.464,9.166s-7.339-1.105-7.384,0.476c-0.045,1.58,9.952,6.479,9.952,6.479
			s-6.421-0.158-6.766,1.896c-0.345,2.056,8.562,3.794,8.562,3.794s-6.729,2.37-6.412,4.266c0.318,1.896,13.078,3.32,13.078,3.32
			l16.586-1.423c-11.947-3.951-17.459-12.991-18.706-21.335c-1.063-7.113,5.764-26.426,21.841-33.348
			C332.326,319.951,334.061,314.104,323.979,321.058z"/>
		<path fill="#9B5332" d="M316.182,406.684l8.119,5.678l-2.729,18.562c-4.213,7.131-4.651,8.946-5.895,6.368
			c-0.469-0.972,0.006-3.093,0.777-5.357c-0.842,1.199-1.715,1.73-2.454,0.66c-1.18-1.709-0.016-5.537,1.38-8.829
			c-0.852,1.247-1.786,1.585-2.932-0.478C309.989,418.855,316.182,406.684,316.182,406.684z"/>
		<path fill="#9B5332" d="M407.549,414.818l-9.516,3.848l-2.528,17.717c2.119,7.361,2.041,9.125,3.976,6.948
			c0.729-0.819,0.859-2.872,0.74-5.111c0.488,1.261,1.191,1.908,2.211,1.044c1.631-1.379,1.564-5.139,1.123-8.441
			c0.482,1.307,1.303,1.785,2.998,0.07C410.193,427.209,407.549,414.818,407.549,414.818z"/>
		<path fill="#9B5332" d="M336.012,414.818l-9.519,3.848l-2.526,17.717c2.119,7.361,2.04,9.125,3.975,6.948
			c0.729-0.819,0.86-2.872,0.74-5.111c0.486,1.261,1.19,1.908,2.212,1.044c1.63-1.379,1.563-5.139,1.123-8.441
			c0.481,1.307,1.301,1.785,2.995,0.07C338.654,427.209,336.012,414.818,336.012,414.818z"/>
		<path fill="#9B5332" d="M391.644,399.469c-5.622,12.85-2.923,28.706-3.598,33.627c-0.675,4.922,2.698,10.664,6.297,22.693h7.196
			c-0.899-2.734-3.893-13.373-2.924-19.961c0.97-6.585,5.172-8.747,7.871-15.854C414.924,397.748,393.951,394.197,391.644,399.469z"
			/>
		<path fill="#9B5332" d="M325.584,434.2c1.688-4.048,23.611-32.383,22.6-46.55c-1.012-14.168-14.166-16.191-25.973-10.457
			s1.686,37.442-5.396,50.936c-4.811,9.16,5.396,19.225,8.432,27.66h8.096C333.342,455.789,323.896,438.247,325.584,434.2z"/>
		<path fill="#D2916C" d="M305.066,393.385c9.459,9.459,63.525,57.494,94.643,29.34c7.084-6.41,16.553-18.721,14.529-59.537
			l-20.795-8.258c0,0-2.361,18.215-14.168,22.601s-69.488-13.829-75.222,0.675C298.319,392.709,301.355,389.674,305.066,393.385z"/>
		<path fill="#E19873" d="M378.588,376.65c-9.408,3.494-47.141-7.698-65.424-3.699c5.84,5.992,21.846,9.038,40.193,12.346
			c28.033,5.054,38.086-2.941,40.824-12.317c2.482-8.501,1.867-13.954-0.831-17.446C392.823,358.701,389.121,372.737,378.588,376.65
			z"/>
		<path fill="#E19873" d="M372.273,380.16c-0.087,5.225,4.176,16.73,7.997,14.891c3.491-1.68,2.823-5.496,2.823-5.496
			s2.63,2.289,5.035,1.049c2.252-1.164,3.139-5.307,3.139-5.307s2.096,2.24,3.379,1.544c1.232-0.665,1.215-4.766,1.215-4.766
			s1.582,3.21,3.001,2.067c3.846-3.095-2.097-17.994-2.097-17.994C389.664,376.396,381.131,379.786,372.273,380.16z"/>
		<path fill="#C17957" d="M415.031,363.363l-4.548-1.777c-0.849,28.906-8.936,39.686-15.032,45.201
			c-28.498,25.785-76.643-13.467-91.812-27.523c-5.163,13.289-2.19,10.504,1.427,14.121c9.459,9.459,64.006,58.85,95.123,30.695
			C407.272,417.671,417.057,404.178,415.031,363.363z"/>
		<path fill="#C17957" d="M303.716,434.2c1.687-4.048,23.612-32.383,22.601-46.55c-1.012-14.168-14.167-16.191-25.974-10.457
			c-11.806,5.734,1.687,37.442-5.397,50.936c-4.809,9.16,5.397,19.225,8.435,27.66h8.095
			C311.475,455.789,302.029,438.247,303.716,434.2z"/>
		<path fill="#C17957" d="M375.453,402.5c-5.623,12.158-2.924,27.16-3.599,31.817s2.698,10.089,6.297,21.472h7.195
			c-0.898-2.586-3.892-12.654-2.922-18.887c0.969-6.23,5.171-8.275,7.869-15C398.732,400.873,377.76,397.514,375.453,402.5z"/>
		<path fill="#C17957" d="M317.04,401.986c-1.012,5.227-0.675,17.034,1.013,16.865c1.688-0.168,3.035-5.902,3.035-5.902
			s0.506,9.107,2.867,9.275c2.361,0.17,3.205-6.408,3.205-6.408s-0.844,8.602,2.193,8.938c3.035,0.337,4.047-6.24,4.047-6.24
			s0,10.288,2.867,10.963c2.867,0.674,3.541-6.071,3.541-6.071s1.351,8.264,3.036,8.938c1.688,0.676,3.712-6.576,3.712-6.576
			s-0.338,9.949,2.529,10.287c2.867,0.336,4.891-8.264,5.06-7.758s0.337,11.468,2.53,11.468s2.867-8.265,2.867-8.265
			s1.012,7.422,3.541,8.097s2.361-7.927,2.361-7.927s1.013,7.589,4.048,7.759c3.036,0.168,3.374-11.3,3.374-11.3L317.04,401.986z"/>
		<path fill="#C17957" d="M393.295,421.113c-0.932,7.775-1.465,14.123,0.532,13.05c1.998-1.074,3.198-6.971,3.198-6.971
			s0.133,4.449,1.73,3.456c1.598-0.994,3.328-7.242,3.328-7.242s0.668,4.252,1.732,3.532c1.065-0.719,2.53-7.927,2.53-7.927
			s-0.034,6.184,1.466,4.598c4.527-4.783,5.241-29.074,5.241-29.074L393.295,421.113z"/>
		<path fill="#C17957" d="M392.702,420.486l-9.813,3.01l-4.048,17.431c1.474,7.519,1.243,9.269,3.359,7.269
			c0.797-0.755,1.105-2.789,1.179-5.029c0.376,1.298,1.021,2.004,2.114,1.23c1.743-1.234,2.001-4.984,1.848-8.313
			c0.366,1.344,1.142,1.891,2.978,0.33C394.266,433.057,392.702,420.486,392.702,420.486z"/>
		<path fill="#C17957" d="M296.758,381.338l8.118,5.677l-2.729,18.562c-4.212,7.131-4.651,8.947-5.894,6.369
			c-0.469-0.972,0.005-3.093,0.775-5.357c-0.841,1.199-1.715,1.729-2.453,0.66c-1.18-1.709-0.016-5.537,1.379-8.83
			c-0.851,1.248-1.785,1.585-2.931-0.478C290.564,393.508,296.758,381.338,296.758,381.338z"/>
		<path fill="#C17957" d="M319.938,411.822l-12.051,1.896l-5.933,16.903c1.34,7.65,0.957,9.367,3.636,7.613
			c1.01-0.662,1.502-2.652,1.725-4.875c0.377,1.336,1.117,2.109,2.484,1.463c2.182-1.033,2.717-4.738,2.728-8.07
			c0.364,1.381,1.271,2.012,3.585,0.662C321.086,424.516,319.938,411.822,319.938,411.822z"/>
		<path fill="#D2916C" d="M385.873,406.109c-0.934,7.777-1.465,14.125,0.532,13.052c1.999-1.075,3.196-6.972,3.196-6.972
			s0.134,4.45,1.731,3.457c1.598-0.994,3.331-7.243,3.331-7.243s0.665,4.252,1.731,3.532c1.063-0.719,2.53-7.927,2.53-7.927
			s-0.037,6.184,1.464,4.599c4.528-4.784,5.241-29.074,5.241-29.074L385.873,406.109z"/>
		<path fill="#D2916C" d="M390.55,397.615c0.63,6.934-0.839,23.043-3.534,23.716c-2.693,0.674-3.856-4.155-3.856-4.155
			s-0.57,4.548-2.714,4.953c-2.143,0.405-4.021-4.31-4.021-4.31s-1.295,4.816-2.719,5.029c-1.423,0.213-2.846-5.688-2.846-5.688
			s-0.483,6.129-2.44,5.857c-5.902-0.814-4.805-24.393-4.805-24.393L390.55,397.615z"/>
		<path fill="#D2916C" d="M368.986,404.938c-0.471,5.084-4.424,16.213-7.151,16.069c-2.728-0.143-3.104-3.852-3.104-3.852
			s-1.268,3.105-3.417,2.898c-2.149-0.208-3.239-4-3.239-4s-2.015,3.131-3.436,2.952c-1.418-0.179-1.88-4.711-1.88-4.711
			s-1.43,4.253-3.29,3.606c-5.619-1.947-0.86-18.482-0.86-18.482L368.986,404.938z"/>
		<path fill="#D2916C" d="M344.509,397.791c-0.472,5.084-4.425,16.214-7.151,16.069c-2.729-0.143-3.105-3.852-3.105-3.852
			s-1.267,3.106-3.418,2.899c-2.149-0.208-3.238-4-3.238-4s-2.014,3.13-3.435,2.951c-1.419-0.178-1.88-4.711-1.88-4.711
			s-1.43,4.254-3.291,3.606c-5.619-1.946-0.453-25.972-0.453-25.972L344.509,397.791z"/>
		<path fill="#D2916C" d="M322.299,397.65c-0.624,5.038-4.499,16.19-6.838,16.166s-2.503-3.668-2.503-3.668
			s-1.222,3.119-3.061,3.006c-1.84-0.111-2.613-3.807-2.613-3.807s-1.865,3.175-3.078,3.06c-1.212-0.114-1.415-4.567-1.415-4.567
			s-1.41,4.259-2.984,3.7c-4.745-1.681,0.727-25.612,0.727-25.612L322.299,397.65z"/>
		<path fill="#D2916C" d="M319.771,405.791c1.608,5.8-2.229,12.726-4.194,13.262c-1.969,0.537-2.607-2.842-2.607-2.842
			s-0.695,4.275-2.25,4.619c-1.553,0.346-2.369-3.672-2.369-3.672s-0.986,3.714-2.014,3.908c-1.025,0.194-1.895-4.145-1.895-4.145
			s-1.957,6.028-3.316,5.922c-6.281-0.498-0.467-21.559-0.467-21.559L319.771,405.791z"/>
		<path fill="#D2916C" d="M327.982,390.176c2.926-9.293-6.918-17.191-17.816-16.25c-10.25,0.887-15.95,6.721-15.95,15.004
			c0,7.129,7.067,14.688,14.727,14.688C316.963,403.617,325.5,398.056,327.982,390.176z"/>
		<path fill="#C17957" d="M383.916,452.809l-5.765,2.98h10.739C388.891,455.789,388.496,451.703,383.916,452.809z"/>
		<path fill="#C17957" d="M309.93,452.809l-5.766,2.98h10.74C314.904,455.789,314.51,451.703,309.93,452.809z"/>
		<path fill="#9B5332" d="M399.945,452.809l-4.58,2.98h9.555C404.92,455.789,404.525,451.703,399.945,452.809z"/>
		<path fill="#9B5332" d="M330.775,452.809l-4.58,2.98h9.555C335.75,455.789,335.355,451.703,330.775,452.809z"/>
		<path fill="#E19873" d="M326.305,376.945c-2.468,4.18-4.228,14.898-0.627,15.263c3.234,0.33,5.529-2.55,5.529-2.55
			s-0.242,2.652,1.979,2.818c2.059,0.152,4.551-2.373,4.551-2.373s0.371,2.477,1.537,2.539c1.113,0.062,3.019-2.803,3.019-2.803
			s-0.479,2.914,0.964,2.727c3.887-0.5,7.57-14.098,7.57-14.098L326.305,376.945z"/>
		<path fill="#E19873" d="M348.946,378.974c-2.55,5.729-3.53,20.265,0.892,20.636c3.971,0.338,5.114-3.785,5.114-3.785
			s1.331,3.746,4.05,3.896c2.522,0.137,5.281-3.358,5.281-3.358s0.719,3.332,2.145,3.378c1.362,0.046,3.371-3.888,3.371-3.888
			s-0.269,3.952,1.469,3.649c4.673-0.807,7.683-19.295,7.683-19.295L348.946,378.974z"/>
		<path fill="#E19873" d="M311.146,369.545c-2.192,2.624-6.091,10.5-4.661,11.862c1.453,1.39,3.622-0.621,3.622-0.621
			s-0.998,2.542,0.229,3.603c1.244,1.076,3.785-0.689,3.785-0.689s-0.522,3.107,0.349,3.812c0.874,0.71,3.394-1.966,3.394-1.966
			s-1.317,3.602,0.064,4.269c4.224,2.042,11.336-14.893,11.336-14.893L311.146,369.545z"/>
		<path fill="#C9815D" d="M436.815,375.215c14.481,8.182,16.564-5.682,13.153-11.979
			C448.256,360.078,436.815,375.215,436.815,375.215z"/>
		<path fill="#AE5D38" d="M434.438,377.682c4.252,3.66,15.539,3.428,13.471-13.199C444.67,356.217,434.438,377.682,434.438,377.682z
			"/>
		<path fill="#D2916C" d="M406.184,366.346c9.925-0.55,23.525,16.089,30.203,13.977c4.441-1.404,15.894-15.542,14.096-18.24
			c-1.8-2.698-22.857-9.964-24.207-13.112c-1.349-3.147,1.012-12.028-13.043-16.753c-7.496-2.52-20.014,2.135-20.688,12.48
			C391.869,355.041,398.088,366.796,406.184,366.346z"/>
		<path fill="#E3A07D" d="M437.372,374.317c-4.431,1.772-19.57-16.854-15.08-21.474c4.491-4.619,25.088,7.36,25.473,9.027
			C448.15,363.539,441.863,372.521,437.372,374.317z"/>
		<path fill="#C9815D" d="M426.075,348.354c-0.638-2.455-0.221-7.069-4.218-11.162c1.618,4.992-12.91,8.389-18.832,5.072
			c-3.025-1.695-7.042-0.089-9.881-0.658c-0.317,0.967-0.528,1.995-0.601,3.092c-0.675,10.344,5.396,23.163,13.493,22.713
			c9.924-0.551,22.219,16.448,28.896,14.336c1.361-0.43,3.518-2.192,5.8-4.503C434.491,380.085,388.063,361.727,426.075,348.354z"/>
		<path fill="#B76A4C" d="M409.973,350.518c0.206-0.987,2.082-5.424,4.443-5.195c2.36,0.229,2.994,3.418,2.664,4.027
			C415.643,352.009,409.703,351.814,409.973,350.518z"/>
		<path fill="#B76A4C" d="M418.798,347.277c0.206-0.988,1.43-5.264,3.79-5.034c2.361,0.229,2.758,3.713,2.428,4.323
			C423.578,349.226,418.527,348.573,418.798,347.277z"/>
		<path fill="#C17957" d="M384.283,371.932c0,0,14.434,16.352,30.195,16.596l-0.732,4.271c0,0-21.763-0.731-33.313-16.718
			L384.283,371.932z"/>
		<path fill="#84D1F2" d="M385.07,369.857c0,0,15.009,16.352,30.994,16.596l-0.244,3.66c0,0-22.941-0.122-34.655-16.107
			L385.07,369.857z"/>
		<path fill="#62BCDB" d="M396.628,379.473c-0.395,1.961-1.208,3.758-2.323,5.307c10.611,5.273,21.516,5.334,21.516,5.334
			l0.244-3.66C408.987,386.345,402.105,383.078,396.628,379.473z"/>
		<path opacity="0.4" fill="#C17957" d="M403.307,338.539c-2.248-0.834-5.223-2.922-7.371-0.351
			c-2.15,2.575-5.34,27.124-11.086,35.679c6.562,5.238,19.965,9.949,21.131,6.201C407.545,375.046,405.543,339.369,403.307,338.539z
			"/>
		<path fill="#EFA079" d="M402.781,337.07c-2.213-0.783-5.045-2.723-7.412-0.362s-15.334,27.659-13.821,33.587
			c6.155,5.287,19.162,10.106,20.688,6.475C404.273,371.916,404.994,337.854,402.781,337.07z"/>
		<path fill="#5C3F30" d="M415.838,348.331c-0.16-1.093-1.135-1.789-2.178-1.555c-1.045,0.232-1.762,1.31-1.603,2.402
			s0.97,1.04,2.013,0.807C415.115,349.753,415.996,349.425,415.838,348.331z"/>
		<path fill="#5C3F30" d="M423.967,345.674c-0.085-0.923-0.766-1.553-1.516-1.41c-0.751,0.143-1.289,1.006-1.203,1.927
			c0.088,0.923,0.443,1.046,1.192,0.903C423.19,346.952,424.055,346.594,423.967,345.674z"/>
		<path fill="#E08663" d="M402.65,351.799c-4.16,11.479-12.387,19.026-18.372,16.856c-0.993-0.36-1.852-0.985-2.592-1.798
			c-0.274,1.435-0.347,2.623-0.139,3.438c6.155,5.287,19.162,10.106,20.688,6.475c1.347-3.207,2.118-19.169,1.848-29.854
			C403.715,348.519,403.248,350.152,402.65,351.799z"/>
		<path fill="#C9815D" d="M446.375,370.926c-1.814-0.868-7.07-7.809-4.601-13.262l8.55,8.682L446.375,370.926z"/>
		<path fill="#C9815D" d="M434.137,376.928c5.133,0.473,8.42-3.334,12.633-9.635l3.08,0.396c0,0-8.291,10.739-12.871,12.634
			C433.606,381.719,434.137,376.928,434.137,376.928z"/>
		<path fill="#784C38" d="M448.744,368.346c-6.182,0.113-8.433-10.344-6.97-10.682c1.462-0.337,11.943,2.787,12.144,4.385
			C454.144,363.85,450.879,368.306,448.744,368.346z"/>
		<path fill="#603727" d="M453.918,362.049c-0.053-0.437-0.883-0.99-2.084-1.554c0.199,0.579,0.232,1.158,0.051,1.698
			c-0.672,2.004-3.947,2.715-7.319,1.586c-0.896-0.301-1.704-0.703-2.402-1.166c1.089,2.822,3.271,5.793,6.581,5.732
			C450.879,368.306,454.144,363.85,453.918,362.049z"/>
		<path fill="#48251A" d="M447.876,367.135c-0.961,0-5.528-3.315-4.186-3.868c1.343-0.552,5.449,0.632,6.081,1.343
			C450.402,365.32,449.138,367.135,447.876,367.135z"/>
		
			<ellipse transform="matrix(0.9436 -0.331 0.331 0.9436 -91.8107 156.9433)" fill="#E29076" cx="414.811" cy="347.987" rx="0.375" ry="0.709"/>
		<path fill="#E29076" d="M423.437,345.106c-0.108-0.312-0.331-0.517-0.497-0.457c-0.168,0.06-0.215,0.36-0.106,0.673
			c0.108,0.312,0.332,0.516,0.499,0.455C423.498,345.719,423.545,345.418,423.437,345.106z"/>
		<path fill="#EFA079" d="M403.736,341c-3.183,8.909-12.075-0.608-8.367-4.292s10.736-6.21,15.631-5.026
			c2.333,0.564,6.986,1.989,6.87,3.001C417.742,335.794,406.105,334.367,403.736,341z"/>
		<path fill="#EFA079" d="M413.313,337.594c-4.02,1.991-9.516,2.92-6.157,0.279c3.36-2.639,9.795-4.184,10.726-3.362
			C418.811,335.332,417.064,335.736,413.313,337.594z"/>
		<path fill="#EFA079" d="M415.682,339.544c-2.95,1.462-6.985,2.144-4.52,0.205c2.467-1.938,7.19-3.071,7.873-2.468
			C419.718,337.884,418.437,338.18,415.682,339.544z"/>
		
			<ellipse transform="matrix(0.9456 -0.3253 0.3253 0.9456 -93.3088 166.0557)" fill="#C9815D" cx="449.89" cy="362.042" rx="1.382" ry="0.592"/>
		<ellipse fill="#62BCDB" cx="414.966" cy="395.482" rx="2.196" ry="4.148"/>
	</g>
	<g>
		<path fill="#84D1F2" d="M124.441,278.657l1.42-1.402c90.456,91.136,213.124,116.642,258.592,93.288l0.85,1.721
			C348.502,394.141,225.199,380.078,124.441,278.657z"/>
	</g>
	<g>
		<g>
			<path fill="#FEC67A" d="M343.477,299.484l30.043-10.701c-3.492,10.746-3.895,20.551-5.861,20.799
				c-1.409,0.177-2.277-0.979-2.799-2.189c-0.037,1.927-0.643,3.688-2.711,3.772c-1.031,0.042-1.794-0.521-2.357-1.421
				c-0.481,5.265-7.027,6.525-7.676-0.34c0.017,4.549-0.641,5.623-2.823,5.456C345.713,314.588,343.477,299.484,343.477,299.484z"/>
			<path fill="#FEC67A" d="M354.533,300.559l-23.289-4.5c-0.273,10.02-2.338,18.65,1.24,18.035c1.295-0.221,2.074-1.301,2.551-2.586
				c0.034,1.92,0.586,3.595,2.474,3.386c0.94-0.104,1.636-0.776,2.147-1.757c0.439,5.197,6.408,5.527,7-1.43
				c-0.015,4.549,0.583,5.531,2.572,5.055C352.495,315.98,354.533,300.559,354.533,300.559z"/>
			<path fill="#DD9554" d="M299.145,339.211c-1.074,5.277,2.457,40.861,2.83,49.235c0.375,8.372,10.566,44.047,16.557,67.343h12.123
				c-7.154-28.939-11.992-50.522-11.563-66.747c0.189-7.142,1.672-23.269,3.104-29.827
				C334.363,303.521,302.145,324.469,299.145,339.211z"/>
			<path fill="#DD9554" d="M218.333,391.24l-0.437-42.43c-6.4,5.295-20.136,48.695-17.36,49.461c1.004,0.272,2.104-0.932,3.092-2.57
				c-0.969,2.803-1.457,5.482-0.05,6.053c0.701,0.283,1.526-0.369,2.387-1.555c-0.988,3.207-1.328,5.863-0.097,6.594
				c2.196,1.311,5.756-6.067,8.261-12.203c-2.363,6.587-5.071,15.063-3.454,15.292C213.32,410.258,218.333,391.24,218.333,391.24z"
				/>
			<path fill="#DD9554" d="M221.151,409.723l-10.011-41.158c-5.034,6.678-8.585,52.156-5.71,52.236
				c1.041,0.029,1.836-1.402,2.425-3.233c-0.308,2.956-0.174,5.68,1.32,5.899c0.745,0.105,1.401-0.726,1.971-2.082
				c-0.236,3.354,0.032,6.018,1.395,6.436c2.434,0.75,4.229-7.276,5.277-13.838c-0.808,6.969-1.528,15.856,0.097,15.693
				C220.574,429.41,221.151,409.723,221.151,409.723z"/>
			<path fill="#DD9554" d="M313.267,400.643l-4.139-42.217c-5.914,5.861-15.806,50.352-12.972,50.857
				c1.025,0.182,2.012-1.118,2.855-2.844c-0.721,2.879-0.971,5.596,0.478,6.033c0.724,0.219,1.487-0.509,2.241-1.766
				c-0.704,3.283-0.81,5.961,0.48,6.574c2.303,1.104,5.204-6.574,7.161-12.916c-1.778,6.779-3.736,15.471-2.106,15.551
				C309.936,420.045,313.267,400.643,313.267,400.643z"/>
			<path fill="#DD9554" d="M317.689,418.793l-13.567-40.072c-4.429,7.113-3.996,52.736-1.124,52.553
				c1.037-0.066,1.705-1.567,2.135-3.444c-0.051,2.972,0.319,5.673,1.826,5.753c0.754,0.039,1.335-0.849,1.784-2.254
				c0.055,3.363,0.558,5.989,1.95,6.279c2.489,0.522,3.576-7.635,4.048-14.267c-0.196,7.015-0.138,15.933,1.466,15.622
				C318.833,438.453,317.689,418.793,317.689,418.793z"/>
			<path fill="#FFD489" d="M328.961,279.004c-7.893-20.268-23.119-12.449-23.119-12.449s-8.461,47.199-30.172,53.568l46.244,45.466
				C326.424,355.453,336.854,299.273,328.961,279.004z"/>
			<path fill="#FEC67A" d="M328.961,279.004c-4.498-11.547-11.371-13.974-16.456-13.929c3.75,1.879,7.508,5.856,9.841,13.835
				c5.006,17.116-4.351,57.201-10.846,76.44l10.414,10.238C326.424,355.453,336.854,299.273,328.961,279.004z"/>
			<path fill="#FFD489" d="M317.119,296.669c15.109,13.579,37.781,19.403,46.241,11.003c8.457-8.398,11.562-21.139,11.562-21.139
				s-25.942-10.716-27.353-13.321c-1.409-2.606-3.101-17.372-6.766-16.794c-3.667,0.58-30.169-6.371-34.397,6.66
				C302.176,276.107,312.609,292.614,317.119,296.669z"/>
			<path fill="#FEC67A" d="M347.569,273.212c-1.356-2.509-2.975-16.276-6.363-16.79c-2.632,0.646-6.53,1.287-11.954,1.877
				c3.665-0.578,9.682,13.773,11.092,16.381c1.408,2.605,26.326,12.761,26.326,12.761s4.566,15.716-9.806,19.208
				c-6.423,1.559-9.844-13.116-18.535-15.358c-7.433-1.917-15.028,3.421-6.896,15.224c1.068,1.551,23.154,9.867,31.927,1.158
				c8.457-8.398,11.562-21.139,11.562-21.139S348.979,275.817,347.569,273.212z"/>
			<path fill="#DD9554" d="M227.173,330.258c-23.684,5.213-8.457,47.492-17.198,70.946c-2.772,7.44,7.894,33.3,13.814,54.585h10.151
				c-10.997-30.84-10.714-47.634,1.128-70.221C246.912,362.981,250.857,325.045,227.173,330.258z"/>
			<path fill="#FFD489" d="M190.519,361.243c24.25,3.763,98.97,36.198,115.604,28.959c16.637-7.241,25.659-47.782,18.61-59.655
				c-1.638-2.762-17.723-21.835-27.915-17.881c-30.241,11.729-98.83,14.131-104.887,19.91
				C184.035,340.105,184.772,360.352,190.519,361.243z"/>
			<path fill="#FEC67A" d="M324.733,330.547c-0.618-1.042-3.294-4.406-6.933-7.979c-5.625,12.217-32.773,23.887-66.396,27.58
				c-27.634,3.035-52.165-0.137-64.555-7.303c-1.802,8.375-0.209,17.795,3.669,18.397c24.25,3.763,98.97,36.198,115.604,28.959
				C322.76,382.961,331.782,342.42,324.733,330.547z"/>
			<path fill="#FEC67A" d="M285.399,363.053c-1.666,4.197-2.114,32.506-2.678,39.164c-0.563,6.661,5.64,35.041,9.023,53.572h12.122
				c-2.639-15.514-7.977-33.207-4.511-53.137c0.986-5.681,2.907-16.355,5.073-21.576
				C322.828,336.774,290.051,351.324,285.399,363.053z"/>
			<path fill="#FEC67A" d="M245.196,371.338l-26.426-11.42c1.887,18.916,1.508,34.977,5.285,34.262
				c1.364-0.258,1.984-2.205,2.225-4.573c0.456,3.64,1.424,6.873,3.438,6.714c1.005-0.079,1.617-1.264,1.967-3.057
				c0.667,4.096,1.802,7.221,3.695,7.34c3.392,0.214,3.399-9.936,2.857-18.119c0.974,8.602,2.624,19.484,4.695,18.832
				C246.33,400.246,245.196,371.338,245.196,371.338z"/>
			<path fill="#FEC67A" d="M259.292,372.502l-23.472-10.968c1.676,18.167,1.339,33.595,4.693,32.907
				c1.215-0.247,1.764-2.117,1.979-4.393c0.404,3.496,1.262,6.604,3.052,6.451c0.892-0.076,1.436-1.217,1.747-2.936
				c0.594,3.934,1.599,6.936,3.284,7.047c3.011,0.206,3.017-9.543,2.536-17.4c0.864,8.262,2.329,18.715,4.169,18.088
				C260.297,400.27,259.292,372.502,259.292,372.502z"/>
			<path fill="#FEC67A" d="M270.031,374.273l-19.736-9.264c1.408,15.346,1.125,28.378,3.947,27.797
				c1.02-0.209,1.481-1.787,1.662-3.709c0.339,2.951,1.061,5.576,2.566,5.447c0.752-0.064,1.209-1.026,1.469-2.48
				c0.5,3.324,1.345,5.859,2.762,5.956c2.533,0.173,2.537-8.064,2.131-14.7c0.728,6.978,1.961,15.807,3.507,15.277
				C270.875,397.73,270.031,374.273,270.031,374.273z"/>
			<path fill="#FEC67A" d="M286.385,378.617l-19.736-9.266c1.409,15.347,1.127,28.38,3.948,27.799
				c1.018-0.209,1.481-1.788,1.661-3.71c0.34,2.952,1.063,5.577,2.567,5.448c0.749-0.063,1.207-1.025,1.47-2.479
				c0.497,3.323,1.344,5.857,2.76,5.954c2.533,0.173,2.537-8.063,2.133-14.7c0.727,6.979,1.959,15.808,3.506,15.279
				C287.232,402.074,286.385,378.617,286.385,378.617z"/>
			<path fill="#FEC67A" d="M304.143,382.361l-20.195-8.158c2.215,15.246,2.618,28.275,5.402,27.54
				c1.006-0.267,1.387-1.868,1.465-3.798c0.495,2.93,1.354,5.511,2.85,5.299c0.748-0.106,1.154-1.093,1.336-2.558
				c0.675,3.29,1.65,5.774,3.07,5.791c2.539,0.034,2.111-8.191,1.357-14.797c1.094,6.93,2.788,15.678,4.305,15.063
				C306.221,405.736,304.143,382.361,304.143,382.361z"/>
			<path fill="#FEC67A" d="M292.963,402.959l-4.137-42.218c-5.914,5.862-15.803,50.353-12.971,50.859
				c1.025,0.181,2.013-1.12,2.855-2.845c-0.721,2.879-0.973,5.596,0.477,6.032c0.725,0.219,1.489-0.509,2.243-1.765
				c-0.704,3.283-0.812,5.959,0.479,6.576c2.302,1.101,5.203-6.576,7.162-12.916c-1.779,6.775-3.736,15.469-2.108,15.547
				C289.635,422.361,292.963,402.959,292.963,402.959z"/>
			<path fill="#FEC67A" d="M297.387,421.109l-13.566-40.072c-4.431,7.113-3.994,52.736-1.123,52.553
				c1.038-0.068,1.704-1.566,2.135-3.444c-0.05,2.972,0.318,5.673,1.827,5.751c0.753,0.04,1.333-0.85,1.782-2.252
				c0.056,3.36,0.559,5.99,1.951,6.279c2.49,0.522,3.578-7.635,4.049-14.269c-0.197,7.019-0.139,15.936,1.464,15.622
				C298.534,440.77,297.387,421.109,297.387,421.109z"/>
			<path fill="#FEC67A" d="M303.662,377.411l20.505-22.827c-0.741,15.404,0.811,40.782-2.299,40.371
				c-1.123-0.146-1.712-1.693-2.007-3.602c-0.219,2.967-0.871,5.631-2.52,5.594c-0.824-0.021-1.375-0.952-1.732-2.388
				c-0.373,3.349-1.162,5.929-2.704,6.11c-2.761,0.328-3.192-7.895-3.095-14.545c-0.433,7.012-1.319,15.898-3.036,15.465
				C303.959,400.877,303.662,377.411,303.662,377.411z"/>
			<path fill="#FFD489" d="M208.564,328.811c-19.412,3.404-46.77,6.795-43.153-25.18c2.374-21.008,11.442-27.301,11.442-27.301
				s-4.239-1.716-10.735,3.93c-6.498,5.643-6.127,9.072-4.747,8.109c1.376-0.959-10.592,13.418-5.938,10.789
				c0,0-13.182,22.243-5.841,17.978c0,0-1.316,14.195,4.552,10.034c0,0-0.405,12.893,3.31,8.02c0,0,3.901,6.652,7.06,2.975
				c0,0,4.172,11.598,7.06,2.754c0,0,8.826,18.051,7.061,2.322c0,0,19.942,13.73,14.634,4.031
				C187.962,337.57,208.564,328.811,208.564,328.811z"/>
			<path fill="#F8A567" d="M336.053,273.035c-0.171-1.969-1.747-3.563-3.521-3.559c-1.771,0.004-3.068,1.604-2.897,3.573
				c0.172,1.968,1.648,2.521,3.421,2.516C334.83,275.564,336.224,275.001,336.053,273.035z"/>
			<path fill="#F8A567" d="M346.105,271.762c0-1.979-1.022-3.404-2.283-3.182c-1.26,0.223-2.281,2.01-2.281,3.987
				c0,1.979,1.313,2.127,2.574,1.903C345.375,274.249,346.105,273.739,346.105,271.762z"/>
			<path fill="#F8A567" d="M367.686,296.265c-7.411,15.303-15.281,8.955-17.656,6.21l-0.277,0.098
				c0.938,1.555,10.346,12.498,18.908-6.648L367.686,296.265z"/>
			<path fill="#F8A567" d="M369.491,293.438l-1.254,2.149c0,0-0.001,5.552,1.7,6.717l0.36-0.984
				C370.298,301.32,368.596,297.289,369.491,293.438z"/>
			<path fill="#D37946" d="M369.564,296.373c-1.451,0.373-9.439-5.559-7.281-7.467c2.158-1.906,13.101-3.971,13.493-2.656
				C376.17,287.562,371.905,295.774,369.564,296.373z"/>
			<path fill="#CA6430" d="M375.776,286.25c-0.127-0.424-1.362-0.495-3.044-0.332c0.645,0.611,1.009,1.303,0.992,2.032
				c-0.051,2.3-3.82,4.082-8.418,3.98c-0.864-0.019-1.697-0.104-2.479-0.242c1.806,2.314,5.756,4.937,6.736,4.685
				C371.905,295.774,376.17,287.562,375.776,286.25z"/>
			<path fill="#923E20" d="M368.779,294.875c-0.748,0.185-6.292-3.006-4.492-3.414c1.799-0.41,4.947-0.875,5.379-0.24
				C370.099,291.857,369.771,294.627,368.779,294.875z"/>
			<path fill="#FFD489" d="M325.031,288.783l22.564,1.803c2.419,5.988-1.092,15.849-4.246,15.538
				c-1.139-0.11-1.663-0.989-1.875-2.063c-0.364,1.65-1.156,3.121-2.84,3.057c-0.838-0.033-1.354-0.567-1.653-1.377
				c-0.538,1.856-1.47,3.277-3.052,3.339c-2.828,0.11-3.94-1.007-3.527-4.715c-0.77,3.9-0.957,9.957-2.686,9.671
				C324.876,313.563,325.031,288.783,325.031,288.783z"/>
			<path fill="#FFD489" d="M197.004,330.258c-23.685,5.213-8.457,47.492-17.199,70.946c-2.772,7.44,7.894,33.3,13.816,54.585h10.151
				c-10.998-30.84-10.714-47.634,1.128-70.221C216.742,362.981,220.688,325.045,197.004,330.258z"/>
			<path fill="#FEC67A" d="M213.135,345.25c-7.521,16.795-20.973,27.162-30.306,23.494c0.153,11.479,0.361,23.381-3.024,32.46
				c-2.772,7.44,7.894,33.3,13.816,54.585h10.151c-10.998-30.84-10.714-47.634,1.128-70.221
				c6.629-12.647,10.783-30.104,8.999-42.105C213.654,344.058,213.401,344.654,213.135,345.25z"/>
			<path fill="#FEC67A" d="M188.724,380.587l-0.433-42.429c-6.403,5.295-20.137,48.693-17.361,49.458
				c1.005,0.274,2.103-0.929,3.093-2.567c-0.969,2.801-1.458,5.482-0.051,6.053c0.702,0.283,1.527-0.369,2.388-1.555
				c-0.989,3.205-1.329,5.862-0.099,6.594c2.198,1.311,5.758-6.07,8.259-12.204c-2.361,6.587-5.068,15.063-3.454,15.292
				C183.714,399.604,188.724,380.587,188.724,380.587z"/>
			<path fill="#FEC67A" d="M191.547,399.068l-10.012-41.156c-5.036,6.676-8.586,52.155-5.711,52.236
				c1.042,0.029,1.834-1.402,2.427-3.234c-0.309,2.956-0.176,5.68,1.318,5.898c0.747,0.109,1.4-0.724,1.971-2.08
				c-0.236,3.354,0.034,6.016,1.396,6.435c2.434,0.749,4.23-7.274,5.278-13.837c-0.809,6.967-1.529,15.856,0.094,15.692
				C190.969,418.757,191.547,399.068,191.547,399.068z"/>
			<path fill="#FEC67A" d="M226.045,364.199l-19.736-11.932c1.41,19.762,1.126,36.545,3.946,35.797
				c1.021-0.271,1.483-2.303,1.663-4.776c0.34,3.8,1.062,7.181,2.567,7.014c0.75-0.083,1.208-1.321,1.468-3.193
				c0.501,4.28,1.345,7.544,2.762,7.669c2.533,0.224,2.538-10.385,2.133-18.93c0.728,8.986,1.958,20.356,3.505,19.675
				C226.891,394.404,226.045,364.199,226.045,364.199z"/>
			<path fill="#FFD489" d="M208.006,360.699c7.402-11.201,8.298-23.756,2.001-28.038c-6.297-4.284-17.315-3.499-24.715,7.702
				c-7.402,11.2-8.386,28.573-2.088,32.859C189.5,377.506,200.604,371.898,208.006,360.699z"/>
			<path fill="#FFD489" d="M302.599,350.839l-26.3-10.904c-4.432,7.114-3.995,52.736-1.123,52.554
				c1.037-0.068,1.705-1.567,2.135-3.445c-0.051,2.971,0.317,5.672,1.826,5.752c0.753,0.039,1.334-0.85,1.783-2.254
				c0.056,3.362,0.559,5.99,1.951,6.281c2.49,0.522,3.576-7.637,4.047-14.268c-0.196,7.016-0.137,15.933,1.466,15.621
				C291.012,399.666,302.599,350.839,302.599,350.839z"/>
			<path fill="#FFD489" d="M281.711,344.666l-27.959-5.376c-2.905,7.859,5.213,27.81,7.988,27.052
				c1.002-0.275,1.354-1.879,1.397-3.805c0.549,2.92,1.454,5.491,2.947,5.265c0.747-0.114,1.136-1.102,1.292-2.565
				c0.732,3.28,1.756,5.754,3.178,5.758c2.543,0.008,1.964-8.201,1.088-14.792c1.221,6.912,3.078,15.635,4.585,15.007
				C278.698,370.18,281.711,344.666,281.711,344.666z"/>
			<path fill="#FFD489" d="M282.988,339.288l32.984-7.722c2.996,11.164-5.057,42.127-7.869,41.473
				c-1.016-0.238-1.383-2.557-1.44-5.405c-0.533,4.423-1.429,8.392-2.94,8.308c-0.755-0.04-1.156-1.441-1.326-3.586
				c-0.714,4.99-1.73,8.83-3.169,9.08c-2.57,0.441-2.047-11.831-1.212-21.754c-1.182,10.459-2.992,23.708-4.52,23.031
				C290.988,381.606,282.988,339.288,282.988,339.288z"/>
			<path fill="#FFD489" d="M297.183,316.682l27.792-13.633c3.36,11.059-3.676,42.27-6.508,41.707
				c-1.021-0.203-1.467-2.508-1.617-5.354c-0.387,4.436-1.15,8.434-2.666,8.399c-0.755-0.017-1.202-1.403-1.441-3.54
				c-0.551,5.009-1.442,8.883-2.871,9.18c-2.553,0.524-2.434-11.758-1.924-21.703c-0.838,10.49-2.213,23.792-3.762,23.166
				C301.644,353.882,297.183,316.682,297.183,316.682z"/>
			<path fill="#FFD489" d="M261.025,347.084l-27.959-5.376c-2.905,7.858,5.213,27.81,7.989,27.05
				c1.002-0.273,1.354-1.877,1.396-3.803c0.55,2.919,1.455,5.49,2.948,5.264c0.747-0.112,1.135-1.102,1.292-2.564
				c0.732,3.28,1.756,5.754,3.178,5.758c2.544,0.008,1.963-8.202,1.088-14.793c1.221,6.912,3.078,15.636,4.585,15.006
				C258.014,372.598,261.025,347.084,261.025,347.084z"/>
			<path fill="#FFD489" d="M240.877,345.74l-27.959-5.375c-2.904,7.858,5.213,27.809,7.99,27.05
				c1.002-0.274,1.354-1.878,1.396-3.804c0.548,2.92,1.454,5.491,2.948,5.266c0.746-0.115,1.136-1.103,1.292-2.566
				c0.732,3.281,1.755,5.754,3.178,5.758c2.542,0.009,1.963-8.201,1.088-14.792c1.221,6.912,3.078,15.635,4.584,15.007
				C237.865,371.254,240.877,345.74,240.877,345.74z"/>
			<path fill="#FFD489" d="M192.458,352.42l21.673-5.869c3.332,7.617-2.914,28.129-5.604,27.584
				c-0.972-0.199-1.421-1.771-1.604-3.689c-0.309,2.953-0.979,5.588-2.413,5.474c-0.716-0.056-1.158-1.013-1.415-2.46
				c-0.454,3.328-1.246,5.872-2.595,5.983c-2.411,0.202-2.459-8.028-2.112-14.669c-0.653,6.986-1.745,15.672-3.254,15.313
				C189.499,378.746,192.458,352.42,192.458,352.42z"/>
			<path fill="#FEC67A" d="M207.499,376.898l-18.216,7.357c0,0-0.822,35.932,4.917,35.285c1.437-0.159,0.783-5.158,0.404-14.168
				c0.58,8.446,2.188,11.995,4.189,10.586c1.072-0.752,1.217-4.787,0.968-9.484c0.446,1.848,0.951,3.006,1.492,2.836
				c0.594-0.182,1.074-3.62,1.318-7.256c0.368,0.533,1.001,0.854,2.063,0.813C206.506,402.793,210.42,382.764,207.499,376.898z"/>
			<path fill="#FEC67A" d="M220.841,370.952l-15.562,5.855c0,0-0.701,28.601,4.201,28.087c1.228-0.129,0.668-4.105,0.345-11.279
				c0.495,6.725,1.869,9.549,3.578,8.428c0.917-0.599,1.041-3.812,0.828-7.551c0.382,1.474,0.813,2.394,1.272,2.26
				c0.507-0.145,0.918-2.883,1.127-5.775c0.316,0.423,0.855,0.678,1.763,0.646C219.992,391.563,223.336,375.621,220.841,370.952z"/>
			<path fill="#FFD489" d="M192.583,367.369l-13.09-11.738c-3.547,4.879-5.717,25.238-3.17,25.095
				c0.92-0.053,1.429-1.081,1.709-2.362c0.12,2.024,0.6,3.864,1.946,3.907c0.673,0.022,1.141-0.589,1.461-1.547
				c0.236,2.292,0.832,4.081,2.087,4.268c2.245,0.339,2.758-5.229,2.808-9.755c0.216,4.783,0.745,10.758,2.176,10.642
				C193.857,385.441,192.583,367.369,192.583,367.369z"/>
			<path fill="#FFE299" d="M371.812,288.775c-0.044-0.491-1.019-0.808-2.177-0.704c-1.156,0.103-2.06,0.585-2.015,1.077
				c0.042,0.493,1.017,0.811,2.175,0.705C370.953,289.75,371.855,289.268,371.812,288.775z"/>
			<path fill="#765042" d="M334.877,272.695c-0.128-1.469-1.146-2.58-2.277-2.48c-1.129,0.1-1.939,1.373-1.813,2.844
				c0.13,1.468,1.076,1.804,2.205,1.702C334.121,274.662,335.006,274.164,334.877,272.695z"/>
			<path fill="#765042" d="M345.479,271.729c0.021-1.437-0.707-2.481-1.625-2.334c-0.917,0.148-1.677,1.436-1.698,2.869
				c-0.021,1.438,0.931,1.559,1.848,1.412C344.922,273.527,345.457,273.164,345.479,271.729z"/>
			<path fill="#FEEBAB" d="M334.113,271.655c-0.165-0.511-0.504-0.872-0.756-0.804c-0.249,0.067-0.318,0.539-0.152,1.051
				c0.168,0.511,0.506,0.87,0.758,0.803C334.213,272.637,334.281,272.167,334.113,271.655z"/>
			<path fill="#FEEBAB" d="M344.859,270.581c-0.166-0.511-0.504-0.872-0.756-0.805c-0.25,0.068-0.318,0.539-0.152,1.052
				c0.167,0.511,0.507,0.87,0.758,0.803C344.958,271.563,345.025,271.092,344.859,270.581z"/>
			<path fill="#FEC67A" d="M291.745,455.789h16.629c0,0-1.88-8.508-7.388-4.745C295.48,454.804,291.745,455.789,291.745,455.789z"/>
			<path fill="#FEC67A" d="M193.287,455.789h16.631c0,0-1.882-8.508-7.389-4.745C197.022,454.804,193.287,455.789,193.287,455.789z"
				/>
			<path fill="#DD9554" d="M319.684,455.789h16.63c0,0-1.881-8.508-7.389-4.745C323.418,454.804,319.684,455.789,319.684,455.789z"
				/>
			<path fill="#DD9554" d="M224.181,455.789h16.63c0,0-1.88-8.508-7.387-4.745C227.916,454.804,224.181,455.789,224.181,455.789z"/>
			<path fill="#FFE299" d="M191.206,333.331c10.384,5.688,32.958,9.181,60.082,4.345c28.111-5.012,43.646-12.656,41.928-23.718
				c-31.75,10.622-95.455,13.058-101.284,18.618C191.679,332.814,191.438,333.066,191.206,333.331z"/>
			<path fill="#FFE299" d="M259.907,328.131l-26.299,6.188c-1.891,6.739,7.581,18.257,10.063,16.707
				c0.898-0.56,1.06-1.847,0.908-3.257c0.797,1.916,1.889,3.451,3.241,2.748c0.677-0.35,0.937-1.206,0.934-2.323
				c1.003,2.11,2.193,3.532,3.505,3.024c2.343-0.91,0.987-6.646-0.477-11.104c1.815,4.565,4.397,10.211,5.723,9.211
				C259.681,347.691,259.907,328.131,259.907,328.131z"/>
			<path fill="#FFE299" d="M214.113,331.02l22.31,2.23c1.751,6.281,0.281,17.255-2.059,17.859c-5.551,1.432-6.971-1.807-6.875-3.201
				c-0.629,1.979-1.514,3.629-2.669,3.141c-0.579-0.243-0.817-1.039-0.842-2.127c-0.796,2.198-1.766,3.752-2.883,3.447
				c-1.996-0.549-0.988-6.322,0.145-10.865c-1.426,4.699-3.471,10.563-4.61,9.781C214.758,350.009,214.113,331.02,214.113,331.02z"
				/>
			<path fill="#FFE299" d="M216.535,330.049l-21.119,0.811c-2.276,5.291-2.013,14.758,0.117,15.391
				c5.054,1.499,3.015-1.569,3.068-2.768c0.389,1.725,4.746,3.547,5.878,3.187c0.565-0.181,0.871-0.851,1.002-1.78
				c0.523,1.92,1.273,3.299,2.351,3.093c1.924-0.372,1.567-5.363,0.967-9.31c0.859,4.094,2.179,9.215,3.326,8.601
				C214.007,346.272,216.535,330.049,216.535,330.049z"/>
			<path fill="#FFE299" d="M291.853,305.44c-4.093,6.601-11.933,14.5-22.022,21.696c1.367,6.863,15.031,12.841,16.542,10.334
				c0.545-0.906,0.106-2.127-0.667-3.315c1.58,1.347,3.248,2.221,4.135,0.983c0.445-0.621,0.288-1.501-0.22-2.496
				c1.851,1.428,3.556,2.155,4.494,1.107c1.677-1.874-2.13-6.373-5.457-9.683c3.688,3.247,8.55,7.11,9.278,5.62
				C299.133,327.244,291.853,305.44,291.853,305.44z"/>
			<path fill="#FFE299" d="M281.77,322.363l-25.899,7.697c-1.497,6.835,8.626,17.789,11.013,16.1
				c0.865-0.613,0.951-1.908,0.719-3.307c0.908,1.865,2.086,3.336,3.396,2.557c0.656-0.389,0.863-1.258,0.797-2.373
				c1.126,2.049,2.396,3.401,3.675,2.816c2.288-1.045,0.603-6.691-1.119-11.059c2.077,4.453,4.983,9.941,6.249,8.869
				C282.676,341.906,281.77,322.363,281.77,322.363z"/>
			<path fill="#F8A567" d="M307.102,263.205c-3.635,3.032-9.006,13.087-4.746,38.433c4.263,25.345,6.762,3.618,6.762,3.618
				s-0.713,9.813,4.826,6.969c2.671-1.372,4.061-4.068,4.791-6.496c0.041,1.707,0.682,2.953,2.879,1.852
				c4.896-2.455,4.759-12.336,4.759-12.336s-0.635-32.711-0.938-36.012C325.087,255.479,316.922,255.006,307.102,263.205z"/>
			<path fill="#FEEBAB" d="M306.733,260.669c-3.86,2.961-9.986,12.772-7.622,37.504c2.364,24.734,6.49,3.531,6.49,3.531
				s-1.447,9.574,4.305,6.802c2.773-1.34,4.364-3.973,5.277-6.342c-0.087,1.668,0.461,2.883,2.74,1.809
				c5.081-2.395,5.683-12.037,5.683-12.037s-0.21-30.16,1.923-32.789C327.659,256.517,317.168,252.67,306.733,260.669z"/>
			<path fill="#FFE299" d="M323.479,256.436c-0.168,5.117-1.576,11.047-4.279,16.969c-5.211,11.414-13.591,19.228-20.459,19.822
				c0.086,1.58,0.207,3.224,0.371,4.946c2.364,24.734,6.49,3.531,6.49,3.531s-1.447,9.574,4.305,6.802
				c2.773-1.34,4.364-3.973,5.277-6.342c-0.087,1.668,0.461,2.883,2.74,1.809c5.081-2.395,5.683-12.037,5.683-12.037
				s-0.21-30.16,1.923-32.789C326.299,258.195,325.413,257.086,323.479,256.436z"/>
		</g>
		<path fill="#FEC67A" d="M331.012,325.725l-1.952,6.996c0,0-27.578-1.75-40.269-22.86l2.685-4.229
			C291.476,305.631,315.026,325.602,331.012,325.725z"/>
		<path fill="#DE5F45" d="M332.354,323.975l-2.074,6.834c0,0-28.554-1.586-41.244-22.697l2.563-4.516
			C291.598,303.596,316.369,323.854,332.354,323.975z"/>
		<path fill="#C55135" d="M306.355,313.969c-0.484,3.159-1.436,6.02-2.736,8.392c12.727,7.664,26.66,8.448,26.66,8.448l2.074-6.834
			C324.481,323.915,314.482,318.971,306.355,313.969z"/>
		<path fill="#C55135" d="M332.326,336.865c0.324-2.746-0.883-5.003-2.697-5.04c-1.815-0.037-3.551,2.159-3.877,4.905
			c-0.325,2.746,0.883,5.003,2.697,5.041C330.264,341.808,332,339.611,332.326,336.865z"/>
	</g>
	<g>
		<g>
			<path fill="#FDCAA0" d="M136.201,386.525c-3.004,20.538,25.429,19.304,25.429,19.304l3.35-2.009
				c-7.499-1.816-19.551-6.683-14.943-17.966c4.394-10.757,11.575-15.919,20.714-19.479
				C160.13,365.346,138.137,373.29,136.201,386.525z"/>
			<path fill="#F9A160" d="M150.036,385.854c0.298-0.728,0.611-1.427,0.935-2.105c-4.451-1.513-7.818-3.944-9.299-6.835
				c-2.897,2.758-4.94,5.984-5.471,9.611c-3.004,20.538,25.429,19.304,25.429,19.304l3.35-2.009
				C157.48,402.004,145.428,397.138,150.036,385.854z"/>
			<path opacity="0.3" fill="#FFFFFF" d="M142.371,386.326c1.606-10.975,16.997-18.305,28.263-19.905
				c0.04-0.015,0.077-0.03,0.116-0.046c-10.62-1.029-32.613,6.915-34.549,20.15c-3.004,20.538,25.429,19.304,25.429,19.304
				l0.706-0.423C154.236,404.588,140.216,401.059,142.371,386.326z"/>
			<path fill="#F9A160" d="M237.32,382.42c1.922-4.875,2.363-26.826-4.846-31.256c-2.736,1.794-8.908,19.711-3.94,24.98
				C231.522,380.34,237.32,382.42,237.32,382.42z"/>
			<path fill="#EA733C" d="M237.641,378.783c1.045-3.657,0.328-20.5-4.632-24.234c-1.723,1.252-4.974,14.732-1.454,19.01
				C233.72,376.919,237.641,378.783,237.641,378.783z"/>
			<path fill="#D96A31" d="M233.057,372.146c0-4.433,1.329-8.397,3.423-11.098c-0.796-2.907-1.928-5.337-3.471-6.499
				c-1.723,1.252-4.974,14.732-1.454,19.01c0.528,0.819,1.159,1.547,1.814,2.184C233.173,374.59,233.057,373.389,233.057,372.146z"
				/>
			<path fill="#BD673B" d="M231.208,440.811c2.217-3.787,2.48-20.145-2.074-19.801c-4.553,0.346-7.304,14.635-8.335,18.596
				c-0.633,2.428,1.783,11.363,3.368,16.184h8.582C232.725,450.451,228.992,444.598,231.208,440.811z"/>
			<path fill="#BD673B" d="M174.935,439.828c0.903-2.482,15.432-23.561,14.076-31.014c-1.354-7.453-9.711-4.969-18.066-2.71
				c-8.356,2.259-5.517,29.767-5.797,31.767c-0.527,3.766,0.302,10.916,3.915,17.918h9.485
				C178.548,455.789,174.032,442.313,174.935,439.828z"/>
			<path fill="#F89851" d="M151.75,428.989c4.539,2.108,52.243,20.927,66.998,15.657c14.754-5.269,22.885-25.895,23.487-28.303
				c0.602-2.41-32.22-24.692-32.22-24.692s-3.317,3.616-5.571,4.969c-13.55,8.13-54.2-3.765-57.061,14.753
				C145.242,425.244,147.534,427.033,151.75,428.989z"/>
			<polygon fill="#E4833F" points="171.756,432.917 166.979,412.882 158.884,427.743 			"/>
			<polygon fill="#E4833F" points="221.303,441.729 213.507,426.016 207.831,439.697 			"/>
			<path fill="#E4833F" d="M237.003,411.105c-2.951,6.787-10.464,20.494-22.104,24.65c-14.755,5.27-62.459-13.549-66.998-15.658
				c-0.467-0.216-0.91-0.432-1.326-0.66c-0.121,6.669,1.97,8.064,5.174,9.552c4.539,2.108,52.243,20.927,66.998,15.657
				c14.754-5.269,22.885-25.895,23.487-28.303C242.393,415.711,240.249,413.711,237.003,411.105z"/>
			<path fill="#F9A160" d="M204.444,396.62c-12.189,7.313-46.305-1.572-55.116,10.05c5.66,5.61,21.352,10.262,37.289,11.387
				c20.7,1.461,31.605-11.421,33.968-19.076c-5.837-4.117-10.57-7.329-10.57-7.329S206.698,395.268,204.444,396.62z"/>
			<path fill="#E4833F" d="M233.759,431.638l0.001-0.006c-0.043-0.046-0.666-0.705-1.419-1.63c0.602,0.034,1.208,0.044,1.817,0.027
				c0.012,0.006,0.026,0.011,0.038,0.018l3.081-11.225l4.125,1.131c2.382-10.036,4.771-25.332-0.666-31.934
				c-7.539-9.154-8.292-13.195-25.143-6.774c-1.87,0.712-6.307,7.636-8.911,14.86c-1.585,1.979-3.954,5.908-3.987,11.787
				c0,0,0.603-1.225,1.46-2.592c-0.43,2.381-0.505,5.448,0.531,8.996c0,0,0.174-1.023,0.503-2.314
				c0.503,1.883,1.363,3.967,2.822,6.106c0,0-0.195-1.32-0.269-2.909c0.605,1.971,1.633,4.17,3.36,6.39c0,0-0.377-1.778-0.526-3.7
				c0.266,0.316,0.536,0.629,0.815,0.938c0.812,2.062,2.144,4.377,4.351,6.618c0,0-0.495-1.465-0.862-3.174
				c0.36,0.313,0.726,0.621,1.1,0.923c0.912,1.577,2.161,3.231,3.905,4.818c0,0-0.471-1.173-0.901-2.644
				c0.354,0.229,0.712,0.453,1.075,0.67c1.243,1.601,2.941,3.259,5.277,4.703c0,0-0.797-1.257-1.546-2.792
				c0.365,0.157,0.733,0.304,1.104,0.444c1.275,1.105,2.84,2.173,4.778,3.065c0,0-0.722-0.879-1.526-2.056
				c0.601,0.143,1.208,0.262,1.819,0.359C231.063,430.444,232.314,431.094,233.759,431.638z"/>
			<path fill="#F9A160" d="M156.267,439.528c0.903-2.484,14.228-23.261,12.873-30.714s-8.432-7.829-16.788-5.572
				c-8.356,2.26-4.667,27.252-6.699,32.221c-1.281,3.129,1.129,13.324,4.742,20.326h9.485
				C159.88,455.789,155.363,442.012,156.267,439.528z"/>
			<path fill="#F89851" d="M212.508,441.423c2.306-3.632,2.958-19.397-1.609-18.987c-7.858,0.703-7.647,14.035-8.771,17.832
				c-0.688,2.328,1.516,10.897,2.988,15.521h8.582C213.798,450.671,210.203,445.056,212.508,441.423z"/>
			<path fill="#FEDBC1" d="M216.489,379.154c-3.162,1.205-13.657,20.158-10.239,28.307c4.396,10.473,18.519,23.514,33.424,19.871
				c0,0,10.388-31.164,1.957-41.402C234.093,376.775,233.34,372.734,216.489,379.154z"/>
			<path fill="#F3C3A2" d="M241.632,385.93c-4.9-5.949-6.937-9.734-12.386-9.896c3.762,4.775,6.134,11.725,6.134,19.466
				c0,14.2-7.976,25.741-17.896,26.058c6.206,4.795,14.081,7.758,22.19,5.775C239.675,427.332,250.063,396.168,241.632,385.93z"/>
			<path fill="#F9A160" d="M240.164,410.546c0,0,1.37-8.568,6.775-8.92c10.389-0.679,13.514-2.447,14.567-5.759
				c2.107-6.625,0.752-8.282,0.752-8.282s-14.265-2.71-15.319-5.72c-1.054-3.011-3.726-8.017-6.361-9.938
				c-2.801-2.039-21.83-0.902-23.788,3.162c-1.389,2.885-6.317,16.231-4.968,23.638
				C212.124,400.385,231.466,409.934,240.164,410.546z"/>
			<path fill="#F89851" d="M233.323,391.055c-0.538-4.674-0.929-8.559,14.087-8.504c-0.224-0.227-0.39-0.454-0.471-0.686
				c-0.981-2.803-3.365-7.332-5.815-9.494c-0.275,0.864-3.625,1.585-4.65,1.533c-12.97-0.664-16.785,26.033-24.709,24.455
				c0.019,0.123,0.035,0.248,0.057,0.368c0.302,1.657,19.645,11.206,28.342,11.818c0,0,1.37-8.568,6.775-8.92
				c0.515-0.034,12.391-1.682,13.188-6.261C253.293,401.006,233.837,395.518,233.323,391.055z"/>
			<path fill="#FEDBC1" d="M236.043,383.425c0.498,2.289,19.738,12.472,23.221,8.192c0,0,4.309-2.646,2.91-4.047
				c-0.824-0.16-8.299-1.646-12.487-3.585c-12.838-2.593-7.202-8.75-14.744-13.033c-4.023-0.101-9.271,0.368-13.12,1.39
				c2.582,0.096,8.75,0.464,11.467,1.861C236.772,375.993,235.545,381.136,236.043,383.425z"/>
			<path fill="#F3C3A2" d="M237.433,372.863c-1.473,0.421-3.174,0.748-5.02,0.968c0.317,0.116,0.617,0.237,0.877,0.372
				c3.482,1.79,2.255,6.933,2.753,9.222c0.053,0.243,0.327,0.579,0.76,0.972c2.108-0.959,4.729-1.682,7.661-2.081
				C239.465,379.803,240.477,376.076,237.433,372.863z"/>
			<path fill="#F3C3A2" d="M262.258,387.585c0,0-0.517-0.097-1.356-0.276c0.012,0.212-0.163,2.412-0.146,2.617
				c1.096,12.605-12.97,6.335-20.865,7.629c-8.04,1.318-9.952,4.777-28.053,1.209c0.531,1.74,20.271,12.316,28.915,12.924
				c0,0,0.78-9.71,6.186-10.062c10.389-0.679,13.514-2.447,14.567-5.759C263.613,389.242,262.258,387.585,262.258,387.585z"/>
			<path fill="#F9A160" d="M216.892,386.598c-3.464-3.914-9.184-23.184-6.172-31.014c2.559,0.15,15.206,7.979,11.743,21.228
				C221.107,381.78,216.892,386.598,216.892,386.598z"/>
			<path fill="#EA733C" d="M217.171,382.343c-2.498-2.823-6.625-16.724-4.452-22.37c1.845,0.107,10.967,5.754,8.47,15.311
				C220.212,378.867,217.171,382.343,217.171,382.343z"/>
			<path fill="#503622" d="M232.994,382.275c-0.193-1.443-1.051-2.52-1.917-2.402c-0.866,0.117-1.411,1.38-1.217,2.822
				c0.193,1.442,0.723,0.984,1.589,0.869C232.314,383.449,233.188,383.717,232.994,382.275z"/>
			<path fill="#503622" d="M244.664,380.91c-0.082-1.284-0.853-2.281-1.726-2.228c-0.874,0.055-1.516,1.142-1.436,2.426
				c0.08,1.284,0.908,1.013,1.781,0.958C244.157,382.01,244.744,382.194,244.664,380.91z"/>
			<path fill="#F3C3A2" d="M206.177,455.789h10.527c0,0,1.313-5.219-2.902-4.237C209.587,452.533,206.177,455.789,206.177,455.789z"
				/>
			<path fill="#F3C3A2" d="M151.509,455.789h10.527c0,0,0.597-4.76-3.483-3.864C154.473,452.82,151.509,455.789,151.509,455.789z"/>
			<path fill="#BD673B" d="M224.455,455.789h10.527c0,0,0.597-4.76-3.483-3.864C227.418,452.82,224.455,455.789,224.455,455.789z"/>
			<path fill="#BD673B" d="M169.422,455.789h10.527c0,0,0.597-4.76-3.483-3.864S169.422,455.789,169.422,455.789z"/>
			<path fill="#F89851" d="M156.267,439.528c0.488-1.343,4.603-8.028,8.069-15.067c-3.751,4.013-8.412,5.979-12.727,4.803
				c-2.034-0.556-3.777-1.755-5.18-3.425c-0.062,4.333-0.122,8.022-0.777,9.624c-1.281,3.129,1.129,13.324,4.742,20.326h9.485
				C159.88,455.789,155.363,442.012,156.267,439.528z"/>
			<path fill="#F3C3A2" d="M160.344,455.789c0,0-4.734-13.72-3.832-16.205c0.18-0.496,0.613-1.783,1.569-3.49
				c-1.355-1.492-2.796-2.253-4.182-2.039c-3.983,0.615-5.991,9.037-4.484,18.815c0.073,0.476,0.155,0.942,0.242,1.405
				c0.24,0.518,0.484,1.023,0.736,1.514H160.344z"/>
			<path fill="#FEDBC1" d="M152.885,450.127c0.722-4.039,2.015-7.6,3.551-10.201c0.019-0.127,0.042-0.244,0.077-0.342
				c0.18-0.496,0.613-1.783,1.569-3.49c-1.355-1.492-2.796-2.253-4.182-2.039c-3.983,0.615-5.991,9.037-4.484,18.815
				c0.073,0.476,0.155,0.942,0.242,1.405c0.24,0.518,0.484,1.023,0.736,1.514h1.923
				C152.355,454.002,152.533,452.098,152.885,450.127z"/>
			<path fill="#F3C3A2" d="M214.614,455.789c0.101-5.118-4.411-10.733-2.106-14.366c0.946-1.49,1.613-5.024,1.756-8.646
				c-0.895-0.847-1.874-1.317-2.901-1.317c-4.214,0-7.629,7.87-7.629,17.58c0,0.74,0.022,1.469,0.061,2.188
				c0.445,1.678,0.911,3.273,1.321,4.563H214.614z"/>
			<path fill="#FEDBC1" d="M205.146,455.789c0.068-0.434,0.136-0.866,0.224-1.303c1.242-6.203,4.143-11.24,7.409-13.566
				c0.801-1.691,1.356-4.88,1.485-8.144c-0.895-0.847-1.874-1.317-2.901-1.317c-4.214,0-7.629,7.87-7.629,17.58
				c0,0.74,0.022,1.469,0.061,2.188c0.445,1.678,0.911,3.273,1.321,4.563H205.146z"/>
			<path fill="#FEDBC1" d="M205.79,402.002c0,0-1.857,6.699,3.118,13.997c0,0-0.995-6.7,0.664-8.094L205.79,402.002z"/>
			<path fill="#FEDBC1" d="M206.942,397.931c0,0-3.837,5.798-1.359,14.277c0,0,1.124-6.682,3.132-7.493L206.942,397.931z"/>
			<path fill="#FEDBC1" d="M208.977,392.51c0,0-5.335,4.46-5.385,13.293c0,0,2.987-6.082,5.144-6.285L208.977,392.51z"/>
			<path fill="#FEDBC1" d="M208.008,405.705c0,0-1.433,6.803,3.991,13.773c0,0-1.414-6.623,0.154-8.119L208.008,405.705z"/>
			<path fill="#FEDBC1" d="M211.069,410.117c0,0-0.629,6.924,5.571,13.22c0,0-2.178-6.417-0.795-8.085L211.069,410.117z"/>
			<path fill="#FEDBC1" d="M214.495,413.008c0,0-0.25,6.949,6.287,12.895c0,0-2.526-6.287-1.236-8.027L214.495,413.008z"/>
			<path fill="#F3C3A2" d="M223.45,422.436h-3.544c1.276,2.024,3.252,4.297,6.326,6.197
				C226.232,428.633,223.86,424.896,223.45,422.436z"/>
			<path fill="#F3C3A2" d="M227.05,423.539l-3.518,0.434c1.514,1.854,3.752,3.866,7.036,5.378
				C230.568,429.351,227.757,425.932,227.05,423.539z"/>
			<path fill="#F3C3A2" d="M230.738,424.012l-3.478,0.687c1.645,1.738,4.021,3.584,7.405,4.854
				C234.665,429.552,231.616,426.347,230.738,424.012z"/>
			<path fill="#F3C3A2" d="M233.797,423.908l-3.408,0.975c1.783,1.595,4.305,3.236,7.783,4.221
				C238.171,429.104,234.866,426.162,233.797,423.908z"/>
			<path fill="#F3C3A2" d="M236.916,423.443l-3.409,0.974c1.783,1.597,4.305,3.237,7.783,4.222
				C241.29,428.639,237.984,425.698,236.916,423.443z"/>
			<path fill="#C66B2D" d="M260.771,391.502c-1.045,7.355-9.63,6.49-12.495,5.91l-0.196,0.094c1.288,0.41,12.659,2.73,13.381-6.329
				L260.771,391.502z"/>
			<path fill="#C66B2D" d="M261.846,391.93l-1.11,1.223c0,0-0.832,3.158,0.064,3.821l0.373-0.56
				C261.173,396.414,260.706,394.12,261.846,391.93z"/>
			<path fill="#884D20" d="M261.654,393.309c-1.15,0.46-8.129-5.572-5.87-6.927c2.258-1.355,7.226-1.506,7.979,0.301
				C264.517,388.49,263.16,392.703,261.654,393.309z"/>
			<path fill="#6E3F18" d="M263.764,386.683c-0.031-0.075-0.08-0.14-0.125-0.207c0.001,0.011,0.004,0.021,0.004,0.034
				c0,1.923-2.392,3.482-5.342,3.482c-0.517,0-1.016-0.051-1.489-0.141c1.653,1.883,4.188,3.718,4.843,3.457
				C263.16,392.703,264.517,388.49,263.764,386.683z"/>
			<path fill="#472714" d="M260.325,392.05c-0.54-0.09-4.246-2.722-3.052-3.186c1.194-0.463,3.316-0.399,3.715,0.133
				C261.387,389.527,261.121,392.184,260.325,392.05z"/>
			<ellipse fill="#C67F4F" cx="260.723" cy="387.371" rx="1.791" ry="0.564"/>
			
				<ellipse transform="matrix(0.9252 -0.3795 0.3795 0.9252 -127.4758 116.5789)" fill="#FEDBC1" cx="231.996" cy="381.666" rx="0.448" ry="0.796"/>
			
				<ellipse transform="matrix(0.9253 -0.3793 0.3793 0.9253 -125.9355 120.7602)" fill="#FEDBC1" cx="243.54" cy="380.023" rx="0.448" ry="0.796"/>
			<path fill="#D96A31" d="M219.275,368.535c0.763,0.469,1.485,0.974,2.164,1.502c-1.114-6.343-7.243-9.979-8.72-10.064
				c-0.571,1.483-0.704,3.539-0.549,5.813C214.33,366.1,216.808,367.014,219.275,368.535z"/>
		</g>
		<path fill="#F3C3A2" d="M207.846,393.57c0.976,6.508,4.638,13.911,24.813,17.816l-1.464,1.301c0,0-24.65,1.871-25.951-15.049
			L207.846,393.57z"/>
		<path fill="#AE6A7C" d="M207.846,391.618c0.976,6.509,4.23,15.294,24.405,19.199l-0.65,0.65c0,0-25.056,1.14-26.357-15.782
			L207.846,391.618z"/>
		<path fill="#6E4F56" d="M239.786,410.492c0,0,3.899-0.773,4.933-2.074l-0.633,3.294c0,0-3.289,0-4.554-0.244L239.786,410.492z"/>
		<path fill="#6E4F56" d="M235.018,411.483c-3.173,0.61-4.027,7.932,0.122,7.688S240.356,410.457,235.018,411.483z"/>
		<path fill="#6E4F56" d="M238.137,411.949c-0.071,0.391,0.191,0.709,0.587,0.709c0.396,0,0.775-0.318,0.847-0.709
			c0.071-0.393-0.191-0.711-0.587-0.711S238.208,411.557,238.137,411.949z"/>
		<path fill="#6E4F56" d="M231.914,411.872c-0.072,0.392,0.191,0.709,0.587,0.709c0.396,0,0.775-0.317,0.846-0.709
			s-0.191-0.709-0.587-0.709C232.364,411.163,231.985,411.48,231.914,411.872z"/>
		<path fill="#6E4F56" d="M215.29,404.287c-0.806,1.123-1.792,2.08-2.91,2.832c7.82,4.859,19.221,4.349,19.221,4.349l0.65-0.65
			C224.224,409.264,218.881,406.936,215.29,404.287z"/>
	</g>
	<g>
		<path fill="#AE6A7C" d="M199.916,395.133c-19.375-0.588-36.36-15.141-50.73-43.525c-13.191-26.057-20.719-57.285-23.954-70.703
			c-0.601-2.494-1.076-4.466-1.41-5.672l1.952-0.473c0.343,1.242,0.822,3.23,1.427,5.744
			c19.467,80.854,46.521,118.097,81.051,111.99l0.452,1.979C205.721,395,202.79,395.219,199.916,395.133z"/>
	</g>
	<g>
		<path fill="#DE5F45" d="M238.38,319.386c-0.689,0.001-1.383-0.005-2.083-0.015c-25.461-0.359-65.784-8.018-112.98-43.002
			l1.183-1.632c46.729,34.671,86.597,42.269,111.762,42.63c28.034,0.404,48.222-7.817,54.401-13.096l1.303,1.539
			C285.73,311.137,265.858,319.361,238.38,319.386z"/>
	</g>
	<path fill="#EACDA8" d="M88.027,137.725c-7.092-9.932-19.474,60.161-18.21,67.62c1.267,7.457,17.341,52.228,21.803,62.164
		c0,0,15.728-4.126,22.139-9.858c-1.443-3.213-19.727-47.086-18.467-52.417C100.141,184.708,102.083,157.419,88.027,137.725z"/>
	<g>
		<path fill="#FFC954" d="M105.138,262.505c1.776-1.769,3.688-2.429,5.621-2.333c8.376,0.418,17.161,15.03,17.161,15.03
			C112.441,286.127,95.839,271.766,105.138,262.505z"/>
		<g>
			<path fill="#EE6444" d="M105.956,264.588c1.193-1.189,2.478-1.632,3.776-1.567c5.629,0.281,11.534,10.101,11.534,10.101
				C110.864,280.464,99.707,270.813,105.956,264.588z"/>
			<polygon fill="#83564E" points="120.404,278.725 126.022,272.059 129.039,276.413 125.471,278.731 			"/>
			<circle fill="#83564E" cx="120.754" cy="272.933" r="0.893"/>
			<path opacity="0.2" fill="#83564E" d="M120.444,276.203c-8.067-2.541-14.527-6.604-17.449-10.539
				c-2.915,7.314,6.422,15.585,17.486,12.97l-0.077,0.091l5.066,0.007l1.432-0.931C124.817,277.426,122.647,276.896,120.444,276.203
				z"/>
		</g>
	</g>
	<g>
		<path fill="#FDCD9D" d="M99.985,259.32c2.987,3.205,3.702,13.041,7.406,12.155c3.327-0.806,6.912-6.554-4.678-13.888
			L99.985,259.32z"/>
		<path fill="#FDCD9D" d="M107.788,262.261c-6.003,1.077-3.846,7.665-2.645,9.651c1.323,2.177,6.243,2.48,7.622,1.131
			C114.145,271.699,110.091,261.863,107.788,262.261z"/>
		<path fill="#FDCD9D" d="M111.796,268.416c3.318,1.668,7.883,2.217,8.137,1.02c0.294-1.357-3.668-1.175-6.293-3.295
			c-2.865-2.261-4.777-3.57-5.729-2.728C106.947,264.268,108.464,266.755,111.796,268.416z"/>
		<path fill="#FDCD9D" d="M112.934,274.422c1.572,2.531,3.026,3.584,3.693,3.202c0.703-0.384-0.297-1.803-1.854-4.325
			c-1.567-2.53-2.872-6.029-3.546-5.659C110.538,268.033,111.381,271.882,112.934,274.422z"/>
		<path fill="#FDCD9D" d="M109.523,275.469c0.993,2.768,3.227,4.877,3.977,4.633c0.751-0.246-0.833-2.647-1.843-5.424
			c-0.996-2.766-1.819-4.529-2.57-4.272C108.345,270.654,108.515,272.698,109.523,275.469z"/>
		<path fill="#FDCD9D" d="M105.798,274.018c1.124,2.741,2.432,4.096,3.17,3.834c0.732-0.271-0.367-1.979-1.502-4.715
			c-1.123-2.744-1.945-4.647-2.69-4.389C104.026,269.023,104.659,271.273,105.798,274.018z"/>
	</g>
	<path fill="#E1C49C" d="M69.817,205.345c-0.198-1.205-0.045-4.044,0.379-7.901c7.672,12.432,18.573,21.844,30.371,26.884
		c5.155,14.248,12.311,31.362,13.192,33.323c-6.411,5.732-22.139,9.858-22.139,9.858C87.158,257.573,71.084,212.802,69.817,205.345z
		"/>
	<path fill="#CCA77B" d="M75.909,205.054c1.218,7.159,16.07,48.675,21.204,60.788c-3.191,1.066-5.494,1.667-5.494,1.667
		c-4.461-9.936-22.43-55.704-23.697-63.161c-1.097-6.484,10.015-59.286,17.094-66.71C79.595,153.941,74.943,199.33,75.909,205.054z"
		/>
	<path fill="#AA6B4B" d="M92.677,256.85c-0.636-1.416-0.027-2.951,1.359-3.438c1.386-0.487,3.018,0.262,3.654,1.678
		c0.633,1.41,0.028,2.947-1.358,3.434C94.945,259.01,93.31,258.26,92.677,256.85z"/>
</g>
</svg>
