<?xml version="1.0" encoding="utf-8"?>
<!-- Generator: Adobe Illustrator 16.0.3, SVG Export Plug-In . SVG Version: 6.00 Build 0)  -->
<!DOCTYPE svg PUBLIC "-//W3C//DTD SVG 1.1//EN" "http://www.w3.org/Graphics/SVG/1.1/DTD/svg11.dtd">
<svg version="1.1" id="Layer_1" xmlns="http://www.w3.org/2000/svg" xmlns:xlink="http://www.w3.org/1999/xlink" x="0px" y="0px" viewBox="0 0 500 500" enable-background="new 0 0 500 500" xml:space="preserve">
<g>
	<g>
		<path fill="#B6E1DD" d="M333.533,202.053c4.012,2.22,7.088,2.713,7.75,6.659c0.66,3.946-2.531,12.084-1.32,11.591
			c1.209-0.494-0.011-7.398,3.092-6.659c3.102,0.741,1.428,1.598,1.977,6.906c0.574,5.556-1.68,14.726,1.396,15.219
			c1.518,0.243,0.209-17.01-1.006-22.468c-1.693-7.604-2.915-12.233-2.915-12.233L333.533,202.053z"/>
		<g>
			<path fill="#B6E1DD" d="M441.264,226.179c-0.825-1.782-4.846,8.366-9.885,6.678c2.289,1.902,5.152,4.923,4.935,7.536
				c-0.445,5.3-1.247,17.585,0.364,18.066c1.799,0.539,0.047-6.021,0.539-11.081C437.71,242.319,442.157,228.105,441.264,226.179z"
				/>
		</g>
		<g>
			<path fill="#A7DAD2" d="M314.046,191.673c0.507-0.573,2.753-2.663,3.22-3.396c0.535-0.528,1.01-0.957,1.482-0.853
				c0.544,0.12,0.286,0.597,0.379,1.376c-0.09,0.932,0.014,2.362-0.078,3.976c0.021,0.766,0.116,1.548,0.249,2.148
				c0.036,0.349,0.117,0.672,0.208,0.955c0.082-0.209,0.203-0.409,0.36-0.603l0.683-1.028c0.245-0.593,1.222-2.088,1.98-3.632
				c0.76-1.544,2.871-5.259,3.486-6.151c0.486-0.996,1.063-0.677,1.824-0.51l2.973,0.656c0.545,0.12,0.693,0.305,0.631,0.595
				c-0.041,0.181-0.162,0.384-0.254,0.628c-0.406,0.634-1.021,1.867-2.125,3.601c-1.078,1.778-2.848,5.15-3.482,6.305
				c-0.57,1.205-2.756,5.59-3.537,7.24c-0.832,1.528-3.194,5.342-3.665,5.237c-0.616-0.136-0.757-1.229-0.817-2.157
				c-0.224-0.884-0.584-3.551-0.725-5.672c-0.031-1.071-0.189-2.59-0.309-3.947l-0.281-2.344c-0.111,0.165-0.233,0.366-0.383,0.523
				c-0.232,0.369-0.529,0.682-0.903,1.17l-3.582,4.344c-0.878,1.213-2.363,3.127-2.87,4.043c-0.623,0.928-1.357,1.677-1.903,1.557
				c-0.362-0.079-0.544-0.461-0.508-1.139c-0.062-0.583-0.203-0.804-0.177-2.814c0.109-1.877-0.136-9.384-0.082-11.007
				c-0.055-1.646-0.043-7.729-0.171-9.391c0.003-0.532,0.011-0.91,0.075-1.201c0.136-0.617,0.451-0.66,0.873-0.682
				c0.688,0.153,2.151,0.248,3.42,0.527c1.196,0.265,1.02,0.719,0.993,1.359c0.012,0.802-0.099,1.65-0.044,3.297
				c0.08,1.54,0.424,5.495,0.388,6.514c0.099,0.934-0.245,2.834,0.155,2.923l0.107,0.023
				C312.281,193.983,313.51,192.201,314.046,191.673z"/>
			<path fill="#A7DAD2" d="M341.055,186.073c0.227-0.329,0.423-0.362,0.564-0.142c0.214,0.238,0.198,0.651,0.248,1.118
				c-0.004,0.534,0.693,3.575,0.961,4.776c0.296,1.243,0.516,2.661,0.703,4.224c0.16,1.519,1.185,5.66,1.562,7.568
				c0.394,1.836,1.466,5.762,1.759,6.853c0.262,1.046,0.605,2.946,0.984,3.638c0.061,0.242,0.102,0.404,0.076,0.513
				c-0.056,0.254-0.39,0.219-0.716,0.147l-2.61-0.577c-0.291-0.063-0.328-0.756-0.462-1.357c-0.171-0.608-0.537-3.427-0.589-4.045
				c-0.063-0.585-0.325-1.633-0.451-2.268c-0.047-0.655-0.203-0.806-0.492-0.87c-0.254-0.056-0.852-0.11-1.476-0.211
				c-0.604-0.02-2.872-0.595-3.911-0.711c-0.334-0.035-0.769-0.132-1.168-0.219c-0.869-0.193-1.732-0.421-1.915-0.461
				c-0.325-0.073-0.45,0.319-0.646,0.693c-0.152,0.347-1.237,2.504-1.5,3.167l-0.74,1.472l-0.523,0.988
				c-0.264,0.511-0.369,0.641-0.623,0.585l-2.14-0.473c-0.145-0.031-0.173-0.076-0.148-0.185c0.023-0.108,0.136-0.274,0.258-0.477
				c0.215-0.294,0.306-0.349,0.81-1.265c0.506-0.914,2.268-4.063,2.893-5.521c0.65-1.567,1.727-3.346,2.373-4.382
				c0.555-1.133,0.863-1.672,1.712-3.271c0.847-1.602,1.739-3.23,2.425-4.447l1.547-2.7
				C340.357,187.174,340.822,186.441,341.055,186.073z M341.852,200.052c0.016-0.073-0.006-0.151-0.046-0.315
				c-0.157-0.49-0.707-3.348-0.837-4.48c-0.223-1.228-0.306-2.233-0.375-2.44c-0.133-0.599-0.121-0.825-0.303-0.865
				c-0.146-0.031-0.406,0.633-0.74,1.282c-0.308,0.54-1.313,2.334-1.646,2.982c-0.348,0.723-1.023,1.714-1.324,2.218
				c-0.129,0.236-0.205,0.409-0.236,0.556c-0.032,0.146,0.023,0.232,0.277,0.289c0.435,0.097,3.715,0.745,4.355,0.772
				C341.499,200.087,341.81,200.232,341.852,200.052z"/>
			<path fill="#A7DAD2" d="M371.897,197.06c0.085,0.136,0.097,0.252,0.073,0.36c-0.033,0.146-0.174,0.265-0.33,0.459
				c-0.326,0.271-1.174,1.186-1.67,1.534c-0.414,0.327-0.463,0.544-0.86,0.455c-0.362-0.08-2.874-4.55-5.521-5.135
				c-0.943-0.208-2.336-0.438-2.872,1.991c-0.528,2.392,1.821,3.975,3.337,5.031c1.535,1.138,6.518,4.063,4.926,11.277
				c-1.057,4.786-5.452,6.098-11.363,4.794c-5.908-1.304-6.963-5.491-7.215-5.889c-0.078-0.17-0.09-0.286-0.066-0.395
				c0.031-0.146,0.166-0.23,0.395-0.407c0.377-0.335,1.234-0.943,1.721-1.257c0.133-0.083,0.215-0.104,0.323-0.081
				c0.254,0.058,0.383,0.505,0.609,0.857c0.311,0.486,1.558,2.588,4.386,3.212c1.306,0.288,3.473,0.461,3.961-1.751
				c0.496-2.247-1.4-4.68-2.777-6.2c-1.375-1.521-5.975-4.286-4.941-8.962c1.031-4.678,6.973-6.446,9.62-5.861
				C369.107,192.301,371.671,196.707,371.897,197.06z"/>
			<path fill="#A7DAD2" d="M383.188,206.358c0.508,0.112,1.097,0.205,1.431,0.24c0.226,0.012,0.442,0.06,0.696,0.114
				c0.254,0.057,0.508,0.112,0.754,0.205l0.817,0.258l0.349-1.065l0.492-1.716c0.192-0.87,1.402-5.66,1.547-6.313
				c0.188-0.682,0.309-0.883,0.86-0.8c0.542,0.12,1.22,0.155,2.078,0.23c0.298,0.027,0.661,0.108,1.06,0.197
				c0.689,0.151,1.406,0.347,1.896,0.531c0.703,0.271,0.488,0.375,0.461,1.015c-0.136,0.616-1.188,4.188-1.453,5.383
				c-0.256,1.16-1.58,5.088-1.891,6.504c-0.322,1.449-1.184,5.708-1.512,7.193c-0.319,1.451-0.908,4.287-0.951,5
				c-0.008,0.036-0.018,0.073-0.018,0.073c-0.151,0.689-0.553,0.447-0.844,0.382c-0.137-0.066-0.347-0.151-0.71-0.23
				c-0.253-0.057-0.551-0.084-0.958-0.136c-1.039-0.116-2.6-0.461-3.287-0.612c-0.037-0.008-0.072-0.016-0.072-0.016
				c-0.617-0.136-0.43-0.475-0.317-0.983c0.112-0.506,0.813-3.851,0.993-5.18c0.115-0.697,0.318-1.792,0.519-2.698
				c0.084-0.552,0.204-1.096,0.332-1.676l-1.052-0.232c-0.58-0.129-1.24-0.234-1.566-0.308c-0.182-0.039-0.407-0.052-0.661-0.108
				c-0.217-0.047-0.463-0.14-0.717-0.195c-0.255-0.057-0.544-0.12-0.862-0.229l-0.613,2.26c-0.389,1.244-0.686,2.586-0.837,3.275
				c-0.12,0.543-0.265,1.197-0.407,1.85c-0.217,0.979-0.433,1.957-0.447,2.373c-0.052,0.748-0.572,0.52-1.116,0.399
				c-0.534-0.157-1.454-0.473-2.069-0.608c-0.626-0.101-2.145-0.281-2.986-0.432c-0.785-0.059-0.713-0.727-0.609-1.197
				c0.104-0.473,0.788-3.059,0.996-4c0.152-0.689,0.865-3.575,1.33-5.679c0.175-0.798,0.319-1.449,0.371-1.857
				c0.047-0.559,0.187-1.364,0.371-2.2c0.295-1.341,0.688-2.772,0.873-3.607c0.279-1.269,1.654-5.946,1.806-6.636
				c0.097-0.436,0.293-0.469,0.548-0.412c0.143,0.031,0.318,0.108,0.463,0.14c0.346,0.154,1.889,0.569,2.688,0.747
				c0.834,0.183,2.155,0.397,2.59,0.494l0.036,0.008c0.362,0.081,0.211,0.428,0.146,0.717c-0.063,0.29-0.472,2.481-0.896,4.402
				c-0.217,0.98-0.509,2.131-0.76,3.103l-0.441,1.652C381.781,206.01,382.463,206.199,383.188,206.358z"/>
			<path fill="#A7DAD2" d="M400.652,205.421c-0.432,1.958-2.09,8.095-2.498,9.944c-0.416,1.885-1.707,8.255-1.799,9.185
				c-0.012,0.225-0.043,0.37-0.076,0.516c-0.087,0.398-0.248,0.439-0.49,0.501c-0.248,0.096-0.721-0.008-1.154-0.104
				c-1.197-0.265-0.903-0.046-0.536-1.714c0.304-1.379,2.346-9.94,2.874-12.332c0.527-2.395,2.441-9.348,2.525-10.242
				c0.057-0.254,0.076-0.516,0.133-0.77c0.111-0.508,0.316-0.918,0.787-0.813c0.254,0.055,0.79,0.213,1.334,0.333
				c0.29,0.063,0.314,0.297,0.251,0.587c-0.056,0.252-0.201,0.563-0.265,0.853C401.469,202.064,401.129,203.436,400.652,205.421z"/>
			<path fill="#A7DAD2" d="M410.187,215.28c-0.553,2.504-1.558,7.757-1.798,8.844c-0.232,1.052-0.496,2.933-0.625,3.514
				c-0.008,0.036-0.016,0.071-0.016,0.071c-0.111,0.508-0.455,0.508-0.817,0.428c-0.397-0.087-1.591-0.197-2.461-0.391
				c-0.87-0.19-2.554-0.486-3.532-0.703c-0.979-0.217-0.788-0.744-0.792-1.238c0-0.343,0.006-0.722,0.206-1.627
				c0.088-0.4,0.191-0.871,0.366-1.479c0.456-2.068,1.479-6.366,2.021-7.957c0.494-1.716,2.361-7.769,2.681-9.22
				c0.32-1.45,0.632-2.864,1.054-4.253c0.258-0.819,0.76-0.858,1.23-0.756c0.363,0.081,0.709,0.234,0.928,0.281
				c0.58,0.128,2.074,0.42,3.09,0.645c1.051,0.23,1.445,0.508,1.615,1.116c0.164,0.645,0.715,3.313,1.177,5.355
				c0.471,2.003,1.61,7.693,2.097,9.626c0.234,1.002,0.692,2.547,1.029,3.953l0.635,2.458l0.393-2.117l0.638-3.585
				c0.081-0.362,0.161-0.725,0.24-1.087c0.345-1.561,0.701-3.004,0.962-4.011c0.264-1.195,0.783-3.896,1.078-5.237l0.914-3.448
				c0.097-0.436,0.373-0.489,0.664-0.424c0.254,0.056,0.527,0.193,0.701,0.268c0.41,0.207,0.563,0.201,1.253,0.354
				c0.398,0.087,0.446,0.211,0.398,0.43c-0.04,0.182-0.168,0.42-0.231,0.709c-0.152,0.689-1.997,8.532-2.414,10.419
				c-0.071,0.325-0.179,0.645-0.268,1.042c-0.463,2.104-0.918,5.196-1.223,6.575c-0.352,1.595-1.066,5.696-1.219,6.385
				c-0.008,0.036-0.017,0.073-0.017,0.073c-0.144,0.652-0.515,0.608-0.832,0.5c-0.101-0.061-0.246-0.092-0.427-0.132
				c-0.436-0.097-0.96-0.136-1.24-0.236c-0.393-0.124-0.429-0.132-0.675-0.908c-0.146-0.717-1.036-6.16-1.404-7.764
				c-0.443-1.617-1.712-7.753-2.098-9.626c-0.215-0.922-0.587-2.334-0.936-3.514l-0.636-2.117l-0.65,3.469
				C410.865,211.857,410.467,214.012,410.187,215.28z"/>
			<path fill="#A7DAD2" d="M442.03,225.35c0.435,0.096,0.54,0.651,0.353,1.333c-0.152,0.689-2.117,9.076-10.313,7.268
				c-5.765-1.272-6.855-9.422-5.424-15.912c1.439-6.527,6.695-11.221,11.192-10.229c4.46,0.983,5.063,3.93,5.488,4.596
				c0.161,0.301,0.187,0.533,0.139,0.752c-0.071,0.325-0.273,0.548-0.495,0.689c-0.354,0.227-1.598,0.862-2.016,1.038
				c-0.125,0.047-0.242,0.059-0.35,0.035c-0.254-0.055-0.44-0.248-0.582-0.471c-0.225-0.353-1.256-2.747-3.468-3.235
				c-3.228-0.712-6.122,5-6.89,8.48c-0.76,3.445-0.688,10,3.555,10.936c2.177,0.48,3.523-0.288,4.438-1.148
				c0.534-0.529,0.939-1.162,1.218-1.9l-1.053-0.23c-0.579-0.128-1.225-0.31-1.624-0.398l-3.654-0.845
				c-0.543-0.118-0.543-0.461-0.488-0.715l0.313-1.414c0.129-0.581,0.374-0.488,0.52-0.455l1.668,0.368
				C435.137,224.018,441.631,225.261,442.03,225.35z"/>
		</g>
		<path fill="#B6E1DD" d="M418.559,237.335c-0.523-2.442-0.832,8.108-0.832,8.108S421.316,250.2,418.559,237.335z"/>
	</g>
	<ellipse fill="#5E5E5E" cx="259.179" cy="433.122" rx="220.837" ry="3.025"/>
	<g>
		<path fill="#CAE9E6" d="M267.703,249.99c-0.182-2.17-1-1.604-1.383,0.037c0.377-4.068-0.389-13.846-3.334-9.932
			c-2.178,2.886-4.1,10.725-2.229,15.53c-1.199-3.605-4.09-1.605-3.96,1.862c-0.862-3.444-2.546-0.589-2.661,3.151
			c0.155-3.753-0.355-9.118-2.984-8.324c-2.055,0.618-2.903,5.704-2.9,9.092c-0.362-2.397-2.244-3.318-1.793-0.32
			c-0.741-4.056-7.827-1.768-6.067,1.939c-1.487-0.47-3.145,1.213-3.708,3.817c-0.54-3.83-3.284-2.673-2.637,1.281
			c-3.596-9.915-11.929-8.227-10.082,1.719c-1.691-2.404-6.129,0.792-4.663,4.277c-0.957,0.559-1.889,1.196-2.846,1.886
			c-0.435-3.153-3.67-0.925-3.886,1.702c-1.402-3.904-3.107-7.221-4.68-3.054c-3.73-13.729-11.096-9.042-10.554-0.53
			c-0.579-1.788-2.234-1.885-3.422-0.038c-0.142-3.338-0.554-8.056-3.421-6.355c-0.215-4.654-1.589-11.035-5.425-10.477
			c-0.545-3.715-3.681-14.33-6.385-5.938c-3.864-1.891-3.383,4.181-3.047,8.271c-1.295-0.707-3.177-0.255-3.348,4.004
			c-0.235-6.84-7.263-11.92-11.713-7.913c-5.157,4.642-7.7,16.204-0.961,18.866c-1.95,4.325-3.657,8.963,0.765,10.855
			c-0.825,3.318,0.815,5.327,2.818,3.824c-1.423,2.345-0.045,8.28,0.833,10.248c2.306,5.173,7.549,5.454,11.618,3.418
			c73.351-27.742,83.354-33.512,92.159-35.809c2.225-5.205,3.176-8.32,1.212-13.53C270.733,252.701,269.055,246.957,267.703,249.99z
			"/>
		<path fill="#B6E1DD" d="M267.703,249.99c-0.182-2.17-1-1.604-1.383,0.037c0.076-0.845,0.104-1.941,0.074-3.104
			c-4.667,11.903-18.802,24.514-38.657,31.617c-31.401,11.243-63.585,4.423-64.931-17.303c-0.14-2.284,0.129-4.601,0.718-6.925
			c-1.042,0.123-2.049,0.553-2.951,1.364c-5.157,4.642-7.7,16.204-0.961,18.866c-1.95,4.325-3.657,8.963,0.765,10.855
			c-0.825,3.318,0.815,5.327,2.818,3.824c-1.423,2.345-0.045,8.28,0.833,10.248c2.306,5.173,7.549,5.454,11.618,3.418
			c0.005,0,92.159-35.809,92.159-35.809c2.225-5.205,3.176-8.32,1.212-13.53C270.733,252.701,269.055,246.957,267.703,249.99z"/>
		<path fill="#B6E1DD" d="M225.663,274.479c-3.507-0.835-6.471,2.316-6.752,5.871c-0.208,2.72,1.251,5.102,3.308,5.858
			c2.152,0.797,4.908-0.195,6.375-2.78C230.555,279.968,229.442,275.37,225.663,274.479z"/>
		<path fill="#B6E1DD" d="M208.774,278.355c-1.716-6.091-5.62-8.394-8.106-6.265c-1.935,1.659-2.595,5.718-1.807,9.573
			c0.828,4.089,3.268,7.831,5.959,8.231C208.41,290.42,210.669,285.063,208.774,278.355z"/>
		<path fill="#B6E1DD" d="M192.227,275.398c-1.729-7.239-5.944-10.261-8.726-7.991c-2.15,1.754-2.985,6.427-2.221,10.994
			c0.81,4.838,3.382,9.413,6.33,10.115C191.533,289.435,194.134,283.367,192.227,275.398z"/>
		<path fill="#B6E1DD" d="M181.646,271.389c-3.92-5.208-9.1-4.926-11.188-0.929c-1.618,3.097-0.983,7.809,1.205,11.279
			c2.295,3.631,6.23,5.771,9.34,4.307C185.122,284.089,185.901,277.032,181.646,271.389z"/>
		<path fill="#B6E1DD" d="M171.196,263.107c-4.1-5.396-9.562-5.244-11.804-1.219c-1.727,3.111-1.096,7.943,1.195,11.528
			c2.395,3.761,6.539,6.023,9.83,4.609C174.769,276.129,175.644,268.957,171.196,263.107z"/>
		<path fill="#CAE9E6" d="M170.36,259.088c-2.337-4.822-6.173-5.949-8.135-3.601c-1.511,1.812-1.563,5.383-0.347,8.479
			c1.28,3.253,3.947,5.886,6.41,5.672C171.577,269.34,172.93,264.361,170.36,259.088z"/>
		<path fill="#CAE9E6" d="M189.823,265.646c-1.38-5.244-4.531-7.422-6.521-5.779c-1.532,1.263-2.054,4.621-1.426,7.902
			c0.669,3.467,2.616,6.762,4.772,7.302C189.537,275.774,191.362,271.433,189.823,265.646z"/>
		<path fill="#B6E1DD" d="M183.192,261.261c-0.321-1.195-1.128-1.639-1.651-1.229c-0.392,0.313-0.549,1.079-0.407,1.814
			c0.148,0.777,0.618,1.503,1.167,1.604C183.042,263.58,183.548,262.57,183.192,261.261z"/>
		<path fill="#CAE9E6" d="M188.104,254.522c-0.188-1.001-0.828-1.473-1.289-1.22c-0.35,0.202-0.53,0.799-0.471,1.408
			c0.069,0.646,0.412,1.303,0.863,1.462C187.814,256.385,188.313,255.637,188.104,254.522z"/>
		<path fill="#CAE9E6" d="M196.286,269.001c-0.104-0.591-0.561-0.811-0.905-0.609c-0.269,0.151-0.426,0.525-0.402,0.894
			c0.031,0.378,0.261,0.734,0.589,0.787C196.007,270.143,196.404,269.645,196.286,269.001z"/>
		<path fill="#B6E1DD" d="M227.829,272.694c-1.603-2.074-3.538-1.817-4.221-0.106c-0.529,1.308-0.183,3.222,0.702,4.59
			c0.92,1.448,2.446,2.265,3.586,1.616C229.433,277.918,229.586,274.949,227.829,272.694z"/>
		<path fill="#B6E1DD" d="M235.048,271.382c-1.962-4.638-5.046-5.801-6.558-3.605c-1.167,1.693-1.146,5.097-0.112,8.059
			c1.085,3.131,3.258,5.703,5.223,5.548C236.217,281.179,237.205,276.468,235.048,271.382z"/>
		<path fill="#B6E1DD" d="M240.239,279.208c3.024-1.911,4.552-6.54,3.92-9.545c-0.49-2.292-2.174-3.225-3.99-2.49
			c-1.932,0.785-4.007,3.479-4.632,6.712C234.686,278.311,236.819,281.372,240.239,279.208z"/>
		<path fill="#B6E1DD" d="M248.675,269.725c-0.325-3.245-1.755-5.485-3.199-5.005c-1.462,0.485-2.402,3.555-2.075,6.865
			c0.332,3.316,1.797,5.56,3.261,5.012C248.108,276.052,249.005,272.971,248.675,269.725z"/>
		<path fill="#CAE9E6" d="M245.627,263.644c-1.125-0.504-2.222,0.396-2.438,2.011c-0.226,1.619,0.528,3.321,1.663,3.799
			c1.129,0.473,2.212-0.451,2.423-2.054C247.483,265.804,246.749,264.13,245.627,263.644z"/>
		<path fill="#B6E1DD" d="M253.247,267.49c0.565-3.577-0.056-7.146-1.394-8.015c-1.346-0.869-2.916,1.317-3.516,4.93
			c-0.605,3.654,0.033,7.315,1.407,8.154C251.111,273.387,252.678,271.102,253.247,267.49z"/>
		<path fill="#B6E1DD" d="M257.426,265.944c0.419-2.777-0.068-5.563-1.092-6.239c-1.03-0.68-2.225,1.026-2.672,3.827
			c-0.442,2.828,0.052,5.669,1.102,6.322C255.809,270.508,257.002,268.749,257.426,265.944z"/>
		<path fill="#B6E1DD" d="M261.059,260.849c0.569-3.113,0.016-6.05-1.182-6.412c-1.117-0.345-2.334,1.734-2.766,4.522
			c-0.414,2.694,0.018,5.288,1.006,5.926C259.174,265.567,260.507,263.826,261.059,260.849z"/>
		<path fill="#B6E1DD" d="M265.785,247.217c-1.3,4.342-3.748,9.041-5.777,4.487c-0.24,3.479,0.248,7.839,1.24,8.368
			c1.146,0.615,3.08-2.346,4.318-6.532c1.021-3.438,1.237-6.641,0.654-7.983C266.095,246.1,265.955,246.655,265.785,247.217z"/>
		<path fill="#CAE9E6" d="M232.251,265.27c-2.193-3.229-4.963-3.18-6.012-0.848c-0.805,1.803-0.4,4.621,0.811,6.741
			c1.278,2.241,3.41,3.651,5.062,2.889C234.316,273.019,234.64,268.794,232.251,265.27z"/>
		<path fill="#CAE9E6" d="M253.393,261.404c0.16-2.54-0.566-4.843-1.635-5.15c-1.074-0.306-2.089,1.519-2.262,4.1
			c-0.175,2.586,0.568,4.918,1.66,5.202C252.234,265.831,253.233,263.966,253.393,261.404z"/>
		<path fill="#CAE9E6" d="M259.326,250.103c0.049-0.825-0.172-1.563-0.482-1.646c-0.322-0.088-0.615,0.511-0.662,1.342
			c-0.045,0.831,0.173,1.568,0.491,1.65C258.989,251.535,259.285,250.932,259.326,250.103z"/>
		<path fill="#CAE9E6" d="M255.411,254.033c-0.053-0.551-0.298-0.946-0.528-0.87c-0.24,0.076-0.391,0.591-0.333,1.15
			c0.058,0.556,0.294,0.952,0.534,0.871C255.321,255.106,255.471,254.593,255.411,254.033z"/>
		<path fill="#CAE9E6" d="M248.073,254.183c-0.12-1.3-0.673-2.224-1.224-2.057c-0.559,0.172-0.91,1.373-0.789,2.688
			c0.123,1.312,0.679,2.235,1.239,2.054C247.851,256.693,248.195,255.491,248.073,254.183z"/>
		<path fill="#CAE9E6" d="M237.886,260.415c-0.382-0.611-0.926-0.641-1.207-0.054c-0.284,0.59-0.203,1.562,0.184,2.179
			c0.384,0.611,0.932,0.631,1.208,0.042C238.354,261.999,238.272,261.027,237.886,260.415z"/>
		<path fill="#CAE9E6" d="M213.336,270.321c-0.439-0.667-1.08-0.672-1.424-0.019c-0.357,0.654-0.278,1.725,0.167,2.384
			c0.443,0.661,1.086,0.664,1.431-0.002C213.854,272.045,213.778,270.977,213.336,270.321z"/>
		<path fill="#B6E1DD" d="M156.281,287.097c-0.786-1.041-2.077-0.893-2.883,0.344c-0.801,1.242-0.809,3.111,0.001,4.151
			c0.797,1.053,2.097,0.869,2.886-0.378C157.078,289.975,157.074,288.139,156.281,287.097z"/>
		<path fill="#B6E1DD" d="M155.724,276.794c-0.365-0.476-0.972-0.408-1.348,0.146c-0.374,0.56-0.375,1.394,0.001,1.864
			c0.375,0.47,0.987,0.401,1.358-0.152C156.103,278.099,156.106,277.267,155.724,276.794z"/>
		<path fill="#CAE9E6" d="M259.91,256.688c0.166-0.547,0.127-1.181-0.087-1.405c-0.212-0.235-0.522,0.028-0.692,0.57
			c-0.17,0.553-0.134,1.178,0.08,1.413C259.434,257.494,259.74,257.236,259.91,256.688z"/>
	</g>
	<g>
		<path fill="#309399" d="M362.613,415.656c-2.27-3.782-6.975-65.801,8.656-67.818c5.714,2.018,40.842,53.447,40.842,53.447
			L362.613,415.656z"/>
		<path fill="#F2D7CE" d="M346.936,325.866c2.018-5.295,7.063-7.314,5.17-13.745c-1.891-6.432-5.675-18.539-7.566-21.943
			c-1.514,0.884-5.549,22.197-4.918,24.593S346.936,325.866,346.936,325.866z"/>
		<path fill="#E0BBB1" d="M346.936,325.866c2.018-5.295,4.463-6.597,2.57-13.03c-1.891-6.43-3.075-19.254-4.967-22.658
			c-1.514,0.884-5.549,22.197-4.918,24.593S346.936,325.866,346.936,325.866z"/>
		<path fill="#D48272" d="M344.994,326.498c1.186-4.772,3.874-6.593,3.045-12.386c-0.831-5.794-2.51-16.704-3.416-19.771
			c-0.812,0.794-4.391,17.261-4.12,19.418C340.773,315.921,344.994,326.498,344.994,326.498z"/>
		<path fill="#CFA296" d="M382.877,380.273c-4.287-12.865,11.35-19.434,19.168-16.698c7.818,2.739,6.305,33.942,7.566,37.502
			c1.262,3.558-3.784,13.96-8.828,30.656h-9.584c0,0,9.332-22.718,8.828-25.455C399.522,403.541,387.164,393.137,382.877,380.273z"
			/>
		<path fill="#CFA296" d="M349.814,404.433c0,0-11.782-18.411-10.357-28.253c1.428-9.842,14.915-16.826,21.938-13.333
			c7.02,3.491-1.957,37.084-1.751,42.432s-7.474,18.856-9.052,26.455h-10.256C347.061,424.148,349.814,404.433,349.814,404.433z"/>
		<path fill="#F2D7CE" d="M420.456,385.392c-6.053-0.757-27.794,16.377-49.182,18.159c-3.027,0.252-30.519-1.767-31.778-24.97
			c-1.263-23.203,7.06-23.203,1.26-34.554l22.951-16.143c0,0,1.389,20.43,10.846,27.241c11.695,8.419,50.949,1.261,51.703,15.385
			C427.013,384.635,420.456,385.392,420.456,385.392z"/>
		<path fill="#F4E1D3" d="M374.553,355.126c11.084,7.978,46.912,1.97,51.274,13.34c-5.011,5.382-17.792,8.033-32.195,6.082
			c-17.879-2.423-33.697-8.944-35.37-17.03c-2.301-11.119-1.726-19.906-1.413-24.808l6.858-4.825
			C363.707,327.885,365.096,348.314,374.553,355.126z"/>
		<path fill="#E2BDB3" d="M340.756,344.027l3.754-2.643c2.652,6.117,2.297,9.343,3.292,27.645
			c1.26,23.203,28.752,25.222,31.778,24.97c18.975-1.581,38.215-15.233,46.545-17.77c-1.013,8.624-5.669,9.162-5.669,9.162
			c-6.053-0.757-28.207,16.994-49.596,18.776c-3.025,0.253-30.104-2.384-31.364-25.587
			C338.233,355.378,346.556,355.378,340.756,344.027z"/>
		<polygon fill="#E2BDB3" points="358.852,370.876 356.047,392.264 367.987,397.352 367.26,381.363 		"/>
		<polygon fill="#E2BDB3" points="403.289,374.509 402.25,388.63 410.764,387.176 410.154,378.784 		"/>
		<path fill="#F2D7CE" d="M367.996,405.183c0,0-9.762-20.479-8.418-30.05c1.344-9.571,12.596-13.793,19.646-10.395
			c7.052,3.396-1.646,36.064-1.395,41.267c0.255,5.198-7.313,18.339-8.825,25.729h-11.352
			C363.707,423.308,367.996,405.183,367.996,405.183z"/>
		<path fill="#F2D7CE" d="M403.811,380.273c-4.288-12.865,11.35-19.434,19.168-16.698c7.818,2.739,6.305,33.942,7.566,37.502
			c1.262,3.558-3.782,13.96-8.826,30.656h-9.584c0,0,9.332-22.718,8.827-25.455C420.456,403.541,408.098,393.138,403.811,380.273z"
			/>
		<path fill="#F4E1D3" d="M424.07,350.671c1.515-5.888,0.672-9.922-1.852-15.304c0,0,15.974,14.294-3.53,32.284l-8.575-5.045
			C416.504,361.094,422.562,356.531,424.07,350.671z"/>
		<path fill="#F2D7CE" d="M342.521,313.006c-5.381,3.026-30.855,28.583-29.51,46.575c0,0,6.137,7.734,15.385,4.036
			c9.247-3.699,38.674-12.275,35.983-33.797C361.69,308.295,342.521,313.006,342.521,313.006z"/>
		<path fill="#E0BBB1" d="M333.615,320.906c-8.65,9.806-18.26,23.982-17.42,35.213c0,0,6.138,7.736,15.384,4.037
			c5.813-2.325,19.591-6.579,28.362-14.76c-8.173,10.479-24.169,16.546-30.75,19.181c-9.248,3.698-16.18-4.996-16.18-4.996
			C312.067,346.94,324.354,330.576,333.615,320.906z"/>
		<path fill="#F3ADA0" d="M313.012,359.581c-0.389-5.192,2.751-16.046,8.462-13.52c4.43,1.96,4.745,8.779,0.675,14.276
			C316.854,359.559,313.012,359.581,313.012,359.581z"/>
		<path fill="#B7857E" d="M341.2,334.745c2.478,2.037,16.301-0.414,14.952-4.568c-1.351-4.152-7.061-7.579-9.554-7.476
			C344.107,322.806,336.529,330.902,341.2,334.745z"/>
		<path fill="#724C45" d="M313.27,359.73c0.312,1.504,7.793,1.156,7.722-1.396C320.844,352.969,312.828,357.604,313.27,359.73z"/>
		<path fill="#724C45" d="M314.368,360.1c1.238-0.651,1.532-6.057,0.068-6.27C310.885,353.382,312.114,361.276,314.368,360.1z"/>
		<path fill="#F2D7CE" d="M362.952,325.866c2.018-5.295,7.062-7.314,5.169-13.745c-1.891-6.432-5.674-18.539-7.565-21.943
			c-1.513,0.884-5.55,21.943-4.918,24.34C356.268,316.915,362.952,325.866,362.952,325.866z"/>
		<path fill="#F4A392" d="M362.896,323.387c1.607-4.224,5.63-5.832,4.121-10.96c-1.508-5.129-4.523-14.783-6.033-17.497
			c-1.206,0.703-4.423,17.497-3.922,19.408C357.565,316.247,362.896,323.387,362.896,323.387z"/>
		<path fill="#644039" d="M343.945,330.435c0.184-1.136,1.109-2.063,2.071-2.077c0.962-0.014,1.593,0.895,1.409,2.029
			c-0.182,1.131-1.109,2.061-2.072,2.075C344.393,332.474,343.763,331.566,343.945,330.435z"/>
		<path fill="#644039" d="M330.669,325.948c0.331-1.103,1.372-1.899,2.325-1.784c0.956,0.111,1.463,1.096,1.129,2.196
			c-0.328,1.097-1.37,1.896-2.327,1.782C330.842,328.028,330.338,327.044,330.669,325.948z"/>
		<path fill="#D48272" d="M357.156,311.713c0.594-5.275,2.859-16.218,3.828-16.783c0.771,1.386,1.934,4.58,3.087,8.056
			C361.467,304.039,358.83,307.307,357.156,311.713z"/>
		<path fill="#F4E1D3" d="M356.739,364.994c0-12.272,10.187-8.029,15.921-8.029c5.733,0,10.383,9.946,10.383,22.218
			c0,12.27-4.649,22.217-10.383,22.217C366.926,401.399,356.739,377.264,356.739,364.994z"/>
		<path fill="#F4E1D3" d="M408.178,385.504c-5.999-10.706-6.881-19.369-1.879-22.173c5.002-2.803,14.119-3.045,18.549,1.801
			c8.281,9.056,5.399,32.53,3.246,34.679C424.037,403.859,414.176,396.209,408.178,385.504z"/>
		<path fill="#F2D7CE" d="M369.005,431.733h-14.308c0,0,2.181-5.831,6.438-3.65C365.392,430.265,369.005,431.733,369.005,431.733z"
			/>
		<path fill="#F2D7CE" d="M421.125,431.733h-14.307c0,0,2.18-5.831,6.436-3.65C417.512,430.265,421.125,431.733,421.125,431.733z"/>
		<path fill="#CFA296" d="M350.731,431.733h-14.308c0,0,2.181-5.831,6.438-3.65C347.118,430.265,350.731,431.733,350.731,431.733z"
			/>
		<path fill="#CFA296" d="M401.087,431.733h-14.308c0,0,2.181-5.831,6.438-3.65C397.475,430.265,401.087,431.733,401.087,431.733z"
			/>
		<path fill="#CFA296" d="M325.245,364.646c0,0-5.878-3.53-6.678-3.53c-1.974,0.001-1.903,1.73-1.903,1.73s2.041,1.647,3.943,2.077
			C321.666,365.163,324.541,365.019,325.245,364.646z"/>
		<path fill="#E0BBB1" d="M333.068,361.74c0,0,6.643-3.807,8.513-10.105c0,0-7.269,9.62-15.853,9.898L333.068,361.74z"/>
		<path fill="#CFA296" d="M329.883,364.508c5.123-2.006,6.375-5.938,6.375-5.938s-5.613,7.321-16.617,6.075
			C319.641,364.646,324.178,366.745,329.883,364.508z"/>
		<path fill="#57C6D6" d="M371.438,348.597c7.563,9.603,8.571,26.785,7.814,39.926c-0.51,8.862,9.58,31.335-4.285,43.211h66.809
			c0,0-6.051-21.227-5.547-29.06c0.504-7.834,1.008-43.717-22.941-45.232C389.336,355.925,368.141,344.412,371.438,348.597z"/>
		<path fill="#4CBDC4" d="M413.65,415.798c-22.158-11.13-34.65-21.968-32.129-41.174c2.738-20.868,23.919-20.977,45.773-10.277
			c-3.339-3.857-7.865-6.517-14.008-6.905c-23.951-1.517-45.146-13.029-41.85-8.845c7.563,9.603,8.571,26.785,7.814,39.926
			c-0.51,8.862,9.58,31.335-4.285,43.211h66.809c0,0-0.995-3.489-2.144-8.16C431.637,422.869,422.595,420.289,413.65,415.798z"/>
		<path opacity="0.6" fill="#79CFDC" d="M386.227,390.192c0,0,11.75,17.897-3.873,41.347h4.928
			c2.905-4.285,13.234-21.758,3.316-41.011c0,0,6.936-23.157-5.904-38.851c-1.895-0.587-3.639-1.155-5.197-1.67
			C383.924,355.419,389.566,367.792,386.227,390.192z"/>
		<polygon fill="#3BA6A9" points="374.967,431.733 406.396,426.176 452.281,431.733 		"/>
		<polygon fill="#79CFDC" points="406.229,425.825 420.935,432.043 459.171,431.54 457.995,427.506 449.423,430.027 		"/>
		<path fill="#4CBDC4" d="M380.513,381.369c0,0,5.042,7.941,26.093,11.723c0,0-23.067-3.151-26.093-5.042V381.369z"/>
	</g>
	<g>
		<path fill="#F3849A" d="M169.926,256.794c-1.065-4.19-0.718-17.24,10.6-15.936c11.314,1.304,8.471,7.366,15.758,3.903
			c7.289-3.464,12.867,15.312,1.51,20.461c-11.355,5.152-9.228-2.834-13.949-3.985C181.532,260.672,171.659,263.623,169.926,256.794
			z"/>
		<path fill="#E87284" d="M196.284,244.762c-0.044,0.021-0.082,0.033-0.122,0.053c0.897,1.259,1.562,2.659,1.934,4.186
			c1.546,6.349-2.255,13.047-9.008,17.218c1.52,1.009,3.908,1.184,8.706-0.995C209.151,260.073,203.573,241.298,196.284,244.762z"/>
		<path fill="#E87284" d="M192.407,258.164c-0.735-0.58-1.664-0.633-2.063-0.12c-0.407,0.512-0.138,1.4,0.599,1.98
			c0.735,0.58,1.661,0.633,2.065,0.122C193.413,259.633,193.144,258.745,192.407,258.164z"/>
		<path fill="#E87284" d="M194.232,250.778c-0.463-0.36-1.114-0.305-1.449,0.123c-0.336,0.427-0.233,1.064,0.229,1.424
			c0.46,0.361,1.11,0.306,1.447-0.122C194.794,251.775,194.692,251.138,194.232,250.778z"/>
		<path fill="#E87284" d="M182.987,248.116c-0.46-0.359-1.111-0.305-1.448,0.123c-0.335,0.425-0.234,1.064,0.231,1.423
			c0.461,0.361,1.112,0.305,1.45-0.123C183.554,249.111,183.452,248.473,182.987,248.116z"/>
		<path fill="#E87284" d="M188.896,252.051c-0.773-0.389-1.623-0.28-1.89,0.234c-0.269,0.518,0.14,1.251,0.915,1.64
			c0.776,0.387,1.626,0.28,1.895-0.237C190.083,253.172,189.67,252.438,188.896,252.051z"/>
		<path fill="#E87284" d="M180.798,255.622c-0.486-0.241-1.043-0.12-1.246,0.268c-0.202,0.389,0.027,0.9,0.515,1.14
			c0.484,0.241,1.046,0.12,1.245-0.268C181.517,256.374,181.283,255.863,180.798,255.622z"/>
		<path fill="#E87284" d="M189.834,247.141c-0.285-0.162-0.575-0.139-0.648,0.054c-0.077,0.192,0.094,0.481,0.379,0.643
			c0.288,0.162,0.578,0.139,0.655-0.055C190.289,247.591,190.122,247.304,189.834,247.141z"/>
		<path fill="#E87284" d="M186.679,259.204c-0.289-0.164-0.581-0.139-0.652,0.052c-0.076,0.191,0.095,0.482,0.382,0.644
			c0.285,0.162,0.578,0.138,0.651-0.056C187.129,259.654,186.964,259.363,186.679,259.204z"/>
		<path fill="#E87284" d="M174.426,258.057c-0.285-0.163-0.577-0.138-0.649,0.054c-0.076,0.191,0.095,0.48,0.38,0.644
			c0.285,0.162,0.576,0.137,0.651-0.057C174.882,258.507,174.709,258.219,174.426,258.057z"/>
		<path fill="#E87284" d="M175.806,248.505c-0.284-0.164-0.576-0.14-0.652,0.055c-0.072,0.189,0.098,0.479,0.382,0.64
			c0.285,0.162,0.58,0.139,0.654-0.054C176.261,248.954,176.091,248.664,175.806,248.505z"/>
		<path fill="#E87284" d="M177.73,242.6c-0.484-0.241-1.044-0.121-1.244,0.267c-0.205,0.387,0.025,0.899,0.513,1.138
			c0.485,0.243,1.046,0.121,1.247-0.267C178.448,243.349,178.217,242.841,177.73,242.6z"/>
		<path fill="#E87284" d="M174.454,253.659c-0.71-0.491-1.563-0.498-1.9-0.021c-0.337,0.479-0.035,1.264,0.68,1.751
			c0.714,0.488,1.57,0.495,1.907,0.019C175.478,254.93,175.168,254.145,174.454,253.659z"/>
	</g>
	<g>
		<path fill="#E2C5B5" d="M190.58,230.662c-12.187-4.921-47.735-70.553-21.604-87.415c26.131-16.867,43.79,75.855,43.79,75.855
			S201.443,235.047,190.58,230.662z"/>
		<path fill="#CFA996" d="M184.2,219.824c3.802-5.531,24.375-16.078,30.254,2.593C197.618,235.806,189.482,233.684,184.2,219.824z"
			/>
		<path fill="#CFA996" d="M184.888,149.199c-0.624-0.696-2.16-4.27-1.388-4.583c-4.458-3.732-9.324-4.726-14.524-1.369
			c-26.131,16.862,9.417,82.494,21.604,87.415c2.853,1.152,5.736,0.894,8.44-0.101C170.883,203.66,206.154,172.799,184.888,149.199z
			"/>
		<path fill="#FCC398" d="M235.695,264.688c-6.826-6.135-45.284-28.757-44.325-37.944c0.914-8.712,8.542-13.374,15.315-10.898
			c12.686,4.629,23.731,35.378,32.73,47.034C240.323,264.047,235.695,264.688,235.695,264.688z"/>
		<path fill="#F7A27C" d="M196.461,227.422c0.876-6.376,6.429-10.224,11.966-10.755c-0.579-0.321-1.156-0.608-1.741-0.822
			c-6.773-2.476-16.496,1.866-17.405,10.575c-0.964,9.188,45.013,33.39,47.085,41.166
			C236.666,256.938,194.914,238.678,196.461,227.422z"/>
		<path fill="#FCC398" d="M173.279,240.435c-0.364,1.662,4.516,3.595,4.156,9.734c-0.068,1.04-0.268,2.646-0.424,4.242
			c-0.272,2.852,0.692,5.91,1.899,5.775c1.013-0.112,0.234-2.306,0.385-4.34c0.143-1.772,0.147-2.394,0.592-2.391
			c0.312,0.005,0.583,2.274,0.965,4.811c0.483,3.254,1.354,5.32,2.571,5.146c1.167-0.171,0.279-2.21,0.125-5.176
			c-0.135-2.582-0.351-3.685,0.815-3.883c0.546-0.104,0.829,1.588,1.811,4.104c1.145,2.917,2.575,4.507,3.478,4.102
			c1.305-0.567-0.178-1.576-1.046-5.085c-1.119-4.503-2.793-8.649-1.579-11.243c1.121-2.398,6.652-0.394,6.423-2.641
			c-0.176-1.771-5.222-1.427-11.417-1.764C177.054,241.571,173.665,238.672,173.279,240.435z"/>
		<path fill="#FCC398" d="M232.793,261.693c-0.364,1.661,4.517,3.593,4.156,9.735c-0.069,1.04-0.269,2.645-0.425,4.241
			c-0.272,2.851,0.693,5.909,1.899,5.773c1.013-0.11,0.235-2.302,0.386-4.339c0.143-1.772,0.146-2.394,0.59-2.39
			c0.313,0.004,0.583,2.275,0.966,4.81c0.483,3.254,1.354,5.322,2.57,5.146c1.167-0.171,0.279-2.212,0.125-5.177
			c-0.135-2.581-0.351-3.684,0.816-3.882c0.545-0.103,0.827,1.588,1.811,4.105c1.145,2.917,2.574,4.504,3.478,4.101
			c1.304-0.569-0.178-1.578-1.047-5.085c-1.118-4.503-2.792-8.652-1.578-11.243c1.12-2.399,6.651-0.395,6.422-2.641
			c-0.176-1.773-5.221-1.427-11.416-1.765C236.568,262.831,233.179,259.93,232.793,261.693z"/>
		<path fill="#6E645B" d="M128.095,241.522c-14.658-26.194-57.734-48.722-74.885-27.518c-19.334,38.046-4.573,121.521-3.325,129.628
			c1.246,8.109-4.055,9.357-3.43,26.818c0.621,17.468,9.667,29.942,16.527,59.258h6.55c-7.895-49.066-7.698-161.439,16.217-151.877
			c9.355,3.742,26.508,58.317,27.755,65.801c1.247,7.484-2.808,12.477-0.313,26.819c2.494,14.345,31.498,59.257,31.498,59.257h5.302
			C121.613,322.74,122.168,243.396,128.095,241.522z"/>
		<g>
			<path fill="#50463F" d="M53.627,343.633c-1.249-8.107-2.037-83.437,6.779-100.034c4.411,3.113,34.235,24.12,66.392,0.778
				c-7.612-0.396-70.279-37.538-74.728-32.036c-19.336,38.048-3.434,123.185-2.186,131.292c1.246,8.109-4.055,9.357-3.43,26.818
				c0.621,17.468,9.667,29.942,16.527,59.258h3.744c-6.861-29.315-15.905-41.79-16.529-59.258
				C49.572,352.99,54.877,351.742,53.627,343.633z"/>
			<path fill="#50463F" d="M117.246,343.633c-1.248-7.483-18.398-62.059-27.755-65.801c-1.647-0.658-3.178-0.723-4.608-0.282
				c0.29,0.083,0.573,0.169,0.867,0.282c9.355,3.742,26.508,58.317,27.755,65.801c1.247,7.484-2.808,12.477-0.313,26.819
				c2.494,14.345,31.498,59.257,31.498,59.257h3.741c0,0-29.001-44.912-31.498-59.257
				C114.441,356.109,118.494,351.117,117.246,343.633z"/>
		</g>
		<path fill="#50463F" d="M72.961,268.063c3.12,3.324,17.674,10.187,30.146,6.237c0,0-6.859,7.278-18.086,3.534
			C73.793,274.093,72.961,268.063,72.961,268.063z"/>
		<path fill="#EED29F" d="M162.774,431.295l-19.059,0.002c0,0-0.658-10.018,3.387-8.632
			C152.295,424.451,162.774,431.295,162.774,431.295z"/>
		<path fill="#EED29F" d="M76.081,431.296H59.45c0,0,3.646-9.315,7.692-7.933C72.337,425.147,76.081,431.296,76.081,431.296z"/>
		<path fill="#FFF0E7" d="M126.327,245c-3.771,3.406-29.09,7.605-41.529,5.107c-16.432-3.305-39.139-21.923-35.555-36.94
			c1.712-7.164,24.803-24.055,38.063-47.394c20.792-36.59,32.755-49.033,54.161-47.309c40.93,3.305,80.979,54.792,16.112,92.216
			C148.633,215.841,137.981,234.488,126.327,245z"/>
		<path fill="#E2C5B5" d="M165.181,170.379c3.804-13.313-12.45-48.756-0.691-45.643c14.395,3.81,19.707,14.349,20.744,20.229
			C186.272,150.843,175.05,164.305,165.181,170.379z"/>
		<path fill="#FEE0D0" d="M71.042,227.641c0.845-7.313,26.696-24.649,37.083-49.396c9.318-22.198,21.828-46.842,28.529-59.904
			c-23.083-0.779-35.724,20.744-50.312,46.421c-13.26,23.336-35.387,41.241-37.099,48.405c-3.584,15.018,19.123,33.636,35.555,36.94
			c0.225,0.044,0.465,0.083,0.698,0.123C76.648,244.064,70.101,235.791,71.042,227.641z"/>
		<path fill="#FEE0D0" d="M101.232,182.387c-0.255,6.24-1.795,26.959,12.809,33.485c0,0-26.056-1.005-23.292-18.951
			C93.515,178.97,101.232,182.387,101.232,182.387z"/>
		<path fill="#FEE0D0" d="M184.63,186.803c-15.299,16.079-35.104,20.984-52.694,16.733c0,0,12.446,13.871,34.539,1.94
			C179.442,198.476,184.63,186.803,184.63,186.803z"/>
		<g>
			<path fill="#CFA996" d="M57.328,233.765c0.708-11.77,9.484-20.207,19.508-29.843c3.616-3.48,7.351-7.068,10.91-11.018
				c19.469-21.604,33.968-52.182,40.827-68.35l1.869,0.82c-6.902,16.292-21.505,47.104-41.168,68.937
				c-3.606,4.006-7.367,7.624-11.009,11.128c-10.313,9.923-19.26,18.528-18.885,30.605
				C59.378,236.045,57.283,234.531,57.328,233.765z"/>
		</g>
		<path fill="#EF9070" d="M196.961,133.311l-4.983-27.417l-27.66,19.712c-5.663,9.655,4.841,25.237,16.769,23.857L196.961,133.311z"
			/>
		<path fill="#A15927" d="M208.255,84.262c4.47-20.686,35.947-11.008,43.393-2.969c7.446,8.034-1.289,13.526-1.289,13.526
			s9.445,0.603,11.362,6.629c1.912,6.024-14.166,12.633-14.166,12.633s3.801-0.024,1.217,4.076
			c-2.583,4.099-10.168,6.067-10.168,6.067s-8.266,7.33-17.126,4.627c-11.61-3.556-18.698,17.426-18.698,17.426L208.255,84.262z"/>
		<path fill="#784827" d="M221.478,128.852c2.298,0.694,4.545,0.715,6.628,0.372c-11.305-6.245-15.054-22.845-8.258-38.104
			c3.667-8.242,9.689-14.439,16.369-17.765c-11.516-3.105-25.137-2.174-27.962,10.906l-5.475,62.016
			C202.78,146.277,209.868,125.296,221.478,128.852z"/>
		<path fill="#E2C5B5" d="M125.155,212.676c-10.499-8.734-24.825-84.562,6.394-92.745c31.222-8.19,19.232,88.506,19.232,88.506
			S134.51,220.464,125.155,212.676z"/>
		<path fill="#CFA996" d="M121.957,202.019c3.805-5.533,24.378-16.08,30.255,2.591C135.381,217.998,127.24,215.879,121.957,202.019z
			"/>
		<path fill="#CFA996" d="M139.136,120.191c-2.189-0.875-4.703-1.018-7.587-0.261c-31.219,8.184-16.893,84.011-6.394,92.745
			c1.455,1.215,3.088,1.9,4.791,2.273C121.056,195.381,114.609,131.461,139.136,120.191z"/>
		<path opacity="0.5" fill="#BD5643" d="M187.929,148.938c-0.679-1.411-1.418-2.8-2.251-4.146l5.416-5.512
			c-0.182-7.581-2.777-17.768-6.757-27.941l-19.119,13.621c-0.246-0.071-0.475-0.157-0.727-0.224
			c-0.618-0.165-1.145-0.199-1.614-0.158c-6.705-3.354-14.042-5.518-21.409-6.113c-34.551-0.472,5.558,7.483,8.527,18.933
			c1.211,4.78,1.856,9.689,2.389,13.797C165.2,157.665,181.821,153.089,187.929,148.938z"/>
		<path fill="#FCC398" d="M192.27,103.652c0,0-14.753,14.424-14.184,19.695c0.563,5.27,2.944,17.896,10.396,29.061
			c0,0,22.563-8.151,27.446-15.569c6.582-9.981,10.272-2.915,14.632-8.194c0.997-1.213,11.763-20.658,7.573-25.88
			C229.228,91.646,206.901,82.649,192.27,103.652z"/>
		<path fill="#F7A27C" d="M181.121,126.186c-0.565-5.267,14.189-19.686,14.189-19.686c5.868-8.428,13.222-13.284,20.506-15.426
			c-8.092-0.488-16.668,2.704-23.547,12.578c0,0-14.753,14.424-14.184,19.695c0.447,4.208,2.106,13.109,6.522,22.206
			C181.897,137.494,181.521,129.879,181.121,126.186z"/>
		<path fill="#784827" d="M185.41,110.562c4.284-15.825,9.146-41.152,34.936-29.53C234.497,87.413,185.41,110.562,185.41,110.562z"
			/>
		<path fill="#FCC398" d="M187.082,96.141c4.698-4.317,11.767,3.678,7.937,8.396c-3.827,4.722-9.718,10.818-10.833,7.702
			C183.07,109.129,181.903,100.898,187.082,96.141z"/>
		<path fill="#EF9070" d="M187.397,98.074c3.032-2.786,7.595,2.375,5.119,5.422c-2.466,3.043-6.271,6.976-6.994,4.975
			C184.802,106.462,184.05,101.144,187.397,98.074z"/>
		<path fill="#FCC398" d="M186.565,103.523c1.687-1.542,4.223,1.321,2.847,3.016c-1.37,1.692-3.486,3.885-3.885,2.767
			C185.124,108.188,184.708,105.235,186.565,103.523z"/>
		<path fill="#784827" d="M187.356,112.631c0,0,10.519-9.17,9.459-11.543c0,0,10.209-23.189,22.709-15.375
			c0,0,12.467,2.662-30.13,29.858L187.356,112.631z"/>
		<path fill="#F7A27C" d="M226.425,132.102c-3.621-4.056-2.568-8.695-10.008-3.527c-6.245,4.35-21.374,8.935-17.92,19.422
			c5.995-1.964,12.822-4.48,22.238-15.079C222.34,131.105,224.897,133.008,226.425,132.102z"/>
		<path fill="#553D33" d="M217.494,133.842c1.62-0.944,2.447-2.4,1.847-3.238c-0.598-0.837-2.39-0.76-4.009,0.19
			c-1.607,0.938-2.441,2.389-1.851,3.227C214.072,134.871,215.876,134.79,217.494,133.842z"/>
		<path fill="#FCC398" d="M219.782,125.581c-5.924,4.499-15.791,19.938-17.371,19.827c-1.577-0.124-4.9-9.522-4.9-9.522
			S222.351,123.634,219.782,125.581z"/>
		<path fill="#92542A" d="M222.619,127.967c-0.628-0.845,1.433-2.729,2.775-1.796c1.342,0.938,3.028,5.164,2.679,5.763
			c-0.211,0.363-1.138,1.817-2.725,1.033C224.403,132.495,224.839,130.975,222.619,127.967z"/>
		<path fill="#92542A" d="M218.032,122.662c1.082,1.071,4.579,0.032,3.568-1.779c-1.008-1.798-6.75-5.55-7.726-5.509
			c-0.616,0.027-3.009,0.197-2.373,2.086C211.878,118.611,214.253,118.958,218.032,122.662z"/>
		<path fill="#553D33" d="M209.491,123.489c1.596-0.924,2.413-2.329,1.847-3.14c-0.583-0.798-2.333-0.719-3.922,0.206
			c-1.592,0.914-2.427,2.319-1.853,3.129C206.132,124.495,207.891,124.408,209.491,123.489z"/>
		<g>
			<path fill="#C46A52" d="M196.965,130.256l0.607,0.562c-5.349,4.621-2.704,12.234,1.716,15.998l-0.387,0.319
				C195.268,144.346,189.392,136.813,196.965,130.256z"/>
		</g>
		<path fill="#EF9070" d="M191.248,139.333c0,0,0.13,3.417,3.067,6.318C190.642,144.533,189.966,142.367,191.248,139.333z"/>
		<path fill="#C46A52" d="M195.585,128.219c0,0,1.12,2.05,4.13,3.019C196.701,131.574,195.564,130.424,195.585,128.219z"/>
		<path fill="#784827" d="M240.763,102.307c2.444-4.463,5.547-7.57,10.372-7.52c4.832,0.059,9.611,2.805,9.87,5.92
			C252.713,97.581,248.044,97.657,240.763,102.307z"/>
		<path fill="#FCC398" d="M176.303,245.461c-7.547-5.809-49.032-27.081-48.729-36.614c0.289-9.036,7.728-13.577,14.937-11.524
			c13.512,3.829,27.296,34.673,37.512,46.007C181.053,244.47,176.303,245.461,176.303,245.461z"/>
		<path fill="#F7A27C" d="M133.973,208.786c0.491-5.687,4.667-9.623,9.464-11.146c-0.308-0.118-0.617-0.229-0.925-0.317
			c-7.209-2.053-16.967,3.125-17.254,12.162c-0.305,9.529,44.045,30.728,51.594,36.535
			C170.711,238.239,133.006,219.959,133.973,208.786z"/>
		<polygon fill="#50463F" points="85.476,252.503 84.094,272.386 84.959,272.386 88.244,252.85 		"/>
		<polygon fill="#50463F" points="98.444,253.022 87.898,252.678 86.689,257.346 95.679,257.516 		"/>
		<polygon fill="#FEE0D0" points="94.81,252.956 88.758,252.956 87.726,256.133 93.778,256.133 		"/>
	</g>
	<g>
		<path fill="#AB5E44" d="M291.502,241.211c6.379,0.52,24.325,5.368,27.331-1.732C307.742,237.503,294.162,238.624,291.502,241.211z
			"/>
		<polygon fill="#442E27" points="271.467,426.984 280.709,426.984 277.602,377.478 287.545,322.201 269.121,309.221 262.375,337.1 
			264.654,375.313 		"/>
		<path fill="#442E27" d="M216.078,310.225c-1.704-2.51-26.792-23.816-26.792-23.816s-6.723,18.969-6.848,25.062
			c-0.124,6.097,7.867,51.938,7.767,56.959c-0.101,5.019-3.04,20.196-3.105,23.422c-0.064,3.227,3.898,16.85,8.353,35.133h7.455
			c0,0-3.726-32.503-4.137-33.938c-0.411-1.432,5.614-17.329,7.476-22.704C208.108,364.962,217.78,312.734,216.078,310.225z"/>
		<path fill="#5F4741" d="M174.265,317.671c13.391,2.356,66.972,26.67,68.139,26.67c1.169,0,40.082-1.385,40.082-1.385
			s8.872-26.284,8.578-33.491c-0.291-7.21-7.563-58.016-6.393-77l-30.734,3.939c0,0-5.182,30.366-6.643,33.01
			c-1.464,2.645-59.176,8.956-62.098,10.154c-10.427,4.283-22.409,1.203-25.963,11.172
			C158.123,293.86,165.596,316.145,174.265,317.671z"/>
		<path fill="#523B37" d="M291.064,309.465c-0.291-7.21-7.563-58.016-6.393-77l-12.334,1.582
			c-1.385,19.106-5.609,72.289-14.994,86.309c-11.399,17.027-63.337-12.091-98.114-29.592c-1.074,3.192,6.382,25.385,15.035,26.907
			c13.391,2.356,66.972,26.67,68.139,26.67c1.169,0,40.082-1.385,40.082-1.385S291.358,316.672,291.064,309.465z"/>
		<path fill="#442E27" d="M291.064,309.465c-0.291-7.21-7.563-58.016-6.393-77l-1.64,0.692c0.547,22.455,4.223,62.421,4.48,68.772
			c0.293,7.212-8.579,33.492-8.579,33.492s-38.912,1.387-40.082,1.387c-1.169,0-54.75-24.314-68.139-26.672
			c-3.333-0.586-6.484-4.241-9.044-8.694c2.761,7.166,9.107,17.748,14.234,18.653c13.39,2.356,65.333,24.245,66.501,24.245
			c1.169,0,40.628-0.347,40.628-0.347S291.358,316.672,291.064,309.465z"/>
		<path fill="#523B37" d="M282.441,216.471c4.602-4.261,9.672-3.738,10.224-9.977c0.554-6.239-3.571-21.635-2.054-28.467
			c1.518-6.83-13.235,18.444-11.879,28.698C280.089,216.977,282.441,216.471,282.441,216.471z"/>
		<path fill="#BB6F51" d="M265.395,238.168c0,0,22.369,5.783,53.983,1.656c4.646-0.604,9.009-14.979,9.009-14.979
			s-30.628-12.658-36.602-15.988c0,0-33.363-5.462-35.605-4.798c-2.24,0.669,2.537,22.164-0.201,31.091L265.395,238.168z"/>
		<path fill="#AB5E44" d="M279.389,224.845c-9.285-7.654-16.217-6.739-23.383-11.254c0.635,7.101,1.551,16.415-0.027,21.559
			l9.416,3.019c0,0,22.369,5.783,53.983,1.656c1.616-0.211,3.198-2.089,4.573-4.445
			C315.002,235.545,297.244,239.564,279.389,224.845z"/>
		<path fill="#72534D" d="M322.566,221.899c-32.861-14.033-37.104-17.978-67.679-17.82c0,0-1.894,57.105-10.445,69.362
			l40.047-31.452c-5.897-2.48-10.237-10.663-5.249-17.951c2.762,1.626,4.616,2.678,6.98,2.106c2.473-0.603,5.826-4.902,9.988-7.737
			l20.527,4.879L322.566,221.899z"/>
		<path fill="#5F4741" d="M271.485,220.86c-1.438-1.164-0.479-12.339,7.584-10.909c8.06,1.428,17.148,6.817,16.739,8.377
			C295.398,219.886,288.02,234.242,271.485,220.86z"/>
		<path fill="#5F4741" d="M254.89,208.825c-0.093,12.312-3.553,54.733-10.447,64.616l40.047-31.452
			c-5.897-2.48-9.86-10.463-4.874-17.75C274.629,220.86,263.174,220.515,254.89,208.825z"/>
		<path fill="#72534D" d="M153.549,275.428c-5.26-3.114-9.033,1.324-3.23,5.257c7.239,4.904,13.265,10.793,14.616,13.738
			l5.201-9.786C164.788,282.592,158.809,278.541,153.549,275.428z"/>
		<path fill="#442E27" d="M283.396,215.492c0-1.243-1.103-2.251-2.46-2.251c-1.358,0-2.46,1.008-2.46,2.251s1.375,1.039,2.732,1.039
			S283.396,216.735,283.396,215.492z"/>
		<path fill="#4D2C21" d="M325.301,224.325c-3.447-0.917,4.372,15.327-16.99,15.239c5.193,1.559,8.686,0.572,11.067,0.26
			c3.687-0.479,7.19-9.622,8.482-13.382C327.283,225.356,326.401,224.618,325.301,224.325z"/>
		<path fill="#503730" d="M319.743,230.473c-1.75-0.475-4.976-8.3-3.735-8.918c1.242-0.622,13.827,0.68,14.12,1.384
			c0.187,0.446-1.104,5.471-3.643,7.707C325.016,231.938,320.259,230.612,319.743,230.473z"/>
		<path fill="#4D2C21" d="M320.881,239.174c-8.607,1.777-22.453-2.38-23.91,1.259C298.611,241.558,318.194,242.336,320.881,239.174z
			"/>
		<path fill="#5F4741" d="M257.198,213.534c-4.821-4.285-10.246-3.841-10.7-10.018c-0.457-6.178,4.273-21.34,2.8-28.115
			c-1.473-6.775,13.735,18.437,12.067,28.55C259.697,214.068,257.198,213.534,257.198,213.534z"/>
		<path fill="#AB5E44" d="M256.25,210.927c-3.67-3.263-7.798-2.923-8.145-7.624c-0.348-4.702,3.254-16.244,2.132-21.403
			c-1.122-5.158,10.456,14.034,9.184,21.733C258.152,211.333,256.25,210.927,256.25,210.927z"/>
		<polygon fill="#442E27" points="263.628,339.059 248.599,314.381 247.505,338.02 		"/>
		<polygon fill="#442E27" points="202.687,323.473 187.656,298.793 186.563,322.434 		"/>
		<path fill="#5F4741" d="M232.568,426.984h9.111l1.275-49.507c0,0,14.185-44.146,12.415-55.305
			c-1.767-11.156-4.117-16.133-14.799-12.951c-10.683,3.184-9.095,27.878-9.095,27.878l-1.096,38.213L232.568,426.984z"/>
		<path fill="#523B37" d="M255.516,324.938c-0.401,2.942-0.904,5.985-1.511,9.099c-4.768,24.413-14.177,43.836-21.022,43.381
			c-0.962-0.063-1.817-0.531-2.572-1.333l2.158,50.9h9.111l1.275-49.507C242.954,377.478,255.244,339.227,255.516,324.938z"/>
		<polygon fill="#523B37" points="271.007,255.28 267.864,237.227 283.714,242.162 280.846,250.476 		"/>
		<path fill="#5F4741" d="M195.582,302.171c-1.754-2.525-23.964-20.037-32.011-16.483c-8.046,3.553-3.877,15.151-3.877,21.278
			c0,6.13,6.245,56.091,6.245,61.139c0,5.047-2.63,20.306-2.63,23.553c0,3.244,4.239,16.941,9.063,35.326h7.455
			c0,0-4.386-32.683-4.824-34.126c-0.438-1.441,8.075-23.02,9.83-28.426C186.585,359.023,197.337,304.694,195.582,302.171z"/>
		<path fill="#72534D" d="M245.683,269.526c-1.602,2.571-57.564,8.844-60.486,10.042c-7.322,3.009-15.408,2.391-20.806,5.207
			c11.241-0.009,18.593-1.566,31.737-1.566c23.503,0,41.355,27.273,56.843-9.873c2.893-6.94,1.951-60.941,1.821-62.001
			C254.792,211.335,250.966,261.039,245.683,269.526z"/>
		<path fill="#523B37" d="M195.582,311.782c-4.284,28.685-19.453,51.215-30.125,50.293c0.3,3.014,0.481,5.172,0.481,6.029
			c0,5.047-2.63,20.306-2.63,23.553c0,3.244,4.239,16.941,9.063,35.326h7.455c0,0-4.386-32.683-4.824-34.126
			c-0.438-1.441,8.075-23.02,9.83-28.426C186.124,360.446,194.124,328.77,195.582,311.782z"/>
		<path fill="#72534D" d="M190.935,281.907c-0.274,9.872-6.013,45.723-28.147,47.539c0,0-10.386-38.104-0.547-44.939
			C169.346,279.568,190.935,281.907,190.935,281.907z"/>
		<path fill="#AB5E44" d="M243,426.984l-0.511-31.523c-0.798-0.875-1.68-1.306-2.621-1.209c-3.376,0.339-6.514,7.346-7.972,16.865
			l0.672,15.867H243z"/>
		<path fill="#BB6F51" d="M233.114,426.984h15.666c0,0,0.203-7.482-7.064-6.097C234.449,422.273,233.114,426.984,233.114,426.984z"
			/>
		<path fill="#AB5E44" d="M180.961,426.984c-2.735-13.24-4.237-25.711-5.603-32.463c-3.615,0.334-7.303,7.612-7.027,16.933
			l3.847,15.53H180.961z"/>
		<path fill="#BB6F51" d="M172.178,426.984h16.48c0,0-0.73-7.482-8.199-6.097C172.99,422.273,172.178,426.984,172.178,426.984z"/>
		<path fill="#442E27" d="M195.271,426.984h16.478c0,0-0.728-7.482-8.197-6.097C196.082,422.273,195.271,426.984,195.271,426.984z"
			/>
		<path fill="#442E27" d="M271.822,426.984h15.326c0,0-0.326-7.482-7.338-6.097C272.8,422.273,271.822,426.984,271.822,426.984z"/>
		<path fill="#A07974" d="M282.555,214.644c-0.145-0.461-0.513-0.762-0.826-0.674s-0.454,0.531-0.311,0.991
			c0.141,0.457,0.511,0.757,0.824,0.67C282.557,215.545,282.695,215.101,282.555,214.644z"/>
		<path fill="#8D4330" d="M249.557,192.211c3.363,0.43,6.755,2.533,9.303,5.775c-2.26-8.698-9.523-20.224-8.623-16.087
			C250.772,184.361,250.23,188.277,249.557,192.211z"/>
		<path fill="#3A241F" d="M330.128,222.938c-0.026-0.063-0.159-0.133-0.374-0.205c-0.09,1.913-4.973,3.455-10.99,3.455
			c-0.678,0-1.34-0.022-1.982-0.063c0.869,2.074,2.096,4.112,2.962,4.347c0.516,0.14,5.272,1.466,6.742,0.173
			C329.024,228.409,330.314,223.385,330.128,222.938z"/>
		<path fill="#805B53" d="M326.619,223.508c0.012-0.502-1.298-0.931-2.919-0.959c-1.622-0.025-2.946,0.359-2.954,0.862
			c-0.011,0.5,1.297,0.929,2.92,0.956C325.288,224.395,326.611,224.009,326.619,223.508z"/>
		<polygon fill="#442E27" points="284.398,246.709 266.225,236.578 284.945,240.734 		"/>
		<path fill="#5F4741" d="M291.516,194.165c-0.863-6.003-1.74-12.37-0.904-16.138c0.965-4.341-4.636,4.28-8.502,13.772
			C285.233,191.873,288.466,192.648,291.516,194.165z"/>
	</g>
	<g>
		<path fill="#CAE9E6" d="M307.732,389.642c0.117-2.409-1.643-2.055-2.779-0.407c1.66-4.277,2.299-15.195-4.434-11.72
			c-4.845,2.501-10.102,10.233-7.541,15.861c-1.53-4.16-7.314-2.98-7.754,0.637c-0.911-3.823-4.514-1.423-5.427,2.344
			c0.978-3.767,1.073-9.418-3.786-9.385c-3.719,0.022-6.088,4.88-6.674,8.25c-0.207-2.493-3.264-3.986-3.008-0.88
			c-0.568-4.246-12.646-4.096-10.385,0.01c-2.334-0.904-5.236,0.205-6.522,2.512c-0.271-3.805-4.735-3.523-4.303,0.396
			c-4.087-10.371-16.674-11.036-15.294-1.445c-2.123-2.674-8.773-1.057-7.158,2.47c-1.395,0.214-2.763,0.506-4.154,0.828
			c-0.225-2.905-4.854-1.876-5.44,0.347c-1.424-3.796-3.318-7.144-5.819-3.971c-3.372-12.824-13.074-10.561-13.219-3.274
			c-0.536-1.643-2.528-2.142-4.118-0.907c0.13-2.807,0.062-6.841-3.493-6.095c0.145-3.914-0.905-9.53-5.42-9.858
			c-0.317-3.182-3.046-12.582-6.76-6.118c-4.126-2.234-4.052,2.771-3.986,6.133c-1.351-0.824-3.411-0.824-3.892,2.528
			c0.231-5.493-6.81-10.787-11.599-8.412c-5.37,2.662-8.468,10.905-2.088,14.277c-2.158,2.844-4.067,5.926,0.11,8.339
			c-1.003,2.278,0.486,4.169,2.554,3.53c-1.547,1.406-0.542,6.164,0.204,7.854c1.975,4.451,7.256,6.122,11.616,5.739
			c101.067-0.235,119.788-2.292,137.02-1.324c5.574-4.661,8.209-7.651,5.405-13.967
			C313.264,393.594,311.154,386.772,307.732,389.642z"/>
		<path fill="#B6E1DD" d="M307.732,389.642c0.117-2.409-1.643-2.055-2.779-0.407c0.342-0.883,0.636-2.057,0.835-3.32
			c-11.626,11.127-39.31,18.955-71.619,18.958c-42.794,0-77.488-13.731-77.488-30.671c0-1.798,0.416-3.557,1.166-5.27
			c-1.064-0.082-2.117,0.074-3.08,0.553c-5.37,2.662-8.468,10.905-2.088,14.277c-2.158,2.844-4.067,5.926,0.11,8.339
			c-1.003,2.278,0.486,4.169,2.554,3.53c-1.547,1.406-0.542,6.164,0.204,7.854c1.975,4.451,7.256,6.122,11.616,5.739
			c0.005,0,137.02-1.324,137.02-1.324c5.574-4.661,8.209-7.651,5.405-13.967C313.264,393.594,311.154,386.772,307.732,389.642z"/>
		<path fill="#B6E1DD" d="M231.672,400.528c-4.927-1.821-9.482,0.098-10.297,3.151c-0.623,2.326,1.11,4.883,3.89,6.227
			c2.938,1.428,7.016,1.491,9.503-0.332C238.138,407.092,237.104,402.529,231.672,400.528z"/>
		<path fill="#B6E1DD" d="M208.009,398.916c-1.581-5.716-6.342-8.723-9.68-7.551c-2.547,0.893-3.748,4.118-3.148,7.545
			c0.625,3.621,3.259,7.442,6.574,8.595C206.255,409.062,209.756,405.218,208.009,398.916z"/>
		<path fill="#B6E1DD" d="M187.789,391.961c-1.402-6.396-6.052-9.849-9.406-8.618c-2.555,0.938-3.843,4.496-3.347,8.322
			c0.519,4.046,3.022,8.351,6.285,9.71C185.748,403.206,189.34,399.008,187.789,391.961z"/>
		<path fill="#B6E1DD" d="M175.981,386.144c-3.935-5.052-9.542-5.922-12.026-3.224c-1.891,2.059-1.553,5.853,0.497,9.043
			c2.154,3.369,6.201,6.026,9.689,5.688C178.87,397.176,180.323,391.707,175.981,386.144z"/>
		<path fill="#B6E1DD" d="M165.238,377.291c-3.931-5.051-9.539-5.922-12.024-3.224c-1.891,2.06-1.554,5.855,0.495,9.045
			c2.157,3.369,6.203,6.027,9.69,5.688C168.126,388.324,169.583,382.855,165.238,377.291z"/>
		<path fill="#CAE9E6" d="M164.636,373.945c-2.132-4.257-6.035-5.822-8.186-4.323c-1.637,1.143-1.909,3.897-0.875,6.512
			c1.089,2.763,3.629,5.336,6.179,5.683C165.211,382.279,166.996,378.638,164.636,373.945z"/>
		<path fill="#CAE9E6" d="M185.82,383.336c-1.171-4.662-4.641-7.133-7.055-6.19c-1.836,0.716-2.689,3.336-2.242,6.13
			c0.478,2.952,2.407,6.071,4.814,7.028C184.606,391.591,187.122,388.477,185.82,383.336z"/>
		<path fill="#B6E1DD" d="M178.53,378.264c-0.274-1.043-1.145-1.573-1.765-1.348c-0.471,0.175-0.706,0.771-0.608,1.396
			c0.105,0.663,0.579,1.354,1.188,1.552C178.169,380.13,178.828,379.411,178.53,378.264z"/>
		<path fill="#CAE9E6" d="M184.761,373.699c-0.132-0.88-0.835-1.403-1.401-1.277c-0.426,0.095-0.688,0.56-0.667,1.082
			c0.025,0.554,0.365,1.166,0.877,1.389C184.26,375.194,184.908,374.671,184.761,373.699z"/>
		<path fill="#CAE9E6" d="M193.237,387.653c-0.072-0.518-0.604-0.813-1.047-0.731c-0.334,0.066-0.558,0.34-0.559,0.651
			c0,0.327,0.244,0.682,0.636,0.805C192.793,388.544,193.317,388.227,193.237,387.653z"/>
		<path fill="#B6E1DD" d="M235.085,399.569c-2.076-2.382-4.928-2.722-6.13-1.378c-0.921,1.021-0.681,2.845,0.413,4.352
			c1.148,1.599,3.243,2.82,4.998,2.605C236.744,404.854,237.382,402.191,235.085,399.569z"/>
		<path fill="#B6E1DD" d="M246.19,400.628c-2.354-4.962-6.877-6.963-9.454-5.374c-1.967,1.21-2.388,4.332-1.266,7.362
			c1.181,3.202,4.068,6.275,7.048,6.808C246.56,410.144,248.788,406.097,246.19,400.628z"/>
		<path fill="#B6E1DD" d="M253.159,409.726c5.168-0.737,8.431-4.634,7.872-7.753c-0.422-2.377-3.048-3.828-6.098-3.698
			c-3.227,0.133-6.895,2.029-8.35,4.853C244.619,406.959,247.464,410.538,253.159,409.726z"/>
		<ellipse fill="#B6E1DD" cx="264.049" cy="403.569" rx="4.568" ry="5.97"/>
		<path fill="#CAE9E6" d="M264.492,396.59c-1.803-0.844-3.777-0.311-4.402,1.185s0.333,3.389,2.137,4.229
			c1.807,0.84,3.777,0.308,4.401-1.188C267.259,399.322,266.298,397.429,264.492,396.59z"/>
		<path fill="#B6E1DD" d="M276.945,402.951c1.656-3.393,1.213-7.202-0.996-8.509c-2.207-1.305-5.335,0.389-6.99,3.779
			c-1.656,3.394-1.213,7.202,0.994,8.507C272.16,408.035,275.289,406.345,276.945,402.951z"/>
		<path fill="#B6E1DD" d="M284.732,402.868c1.309-2.684,0.956-5.699-0.789-6.732c-1.745-1.034-4.221,0.308-5.529,2.99
			c-1.309,2.684-0.955,5.699,0.791,6.733C280.952,406.893,283.426,405.555,284.732,402.868z"/>
		<path fill="#B6E1DD" d="M292.479,398.91c1.717-3.039,1.266-6.297-0.925-7.066c-2.032-0.716-4.701,1.053-6.038,3.783
			c-1.28,2.614-0.992,5.409,0.693,6.413C288.024,403.109,290.849,401.799,292.479,398.91z"/>
		<path fill="#B6E1DD" d="M304.513,386.037c-3.509,4.251-9.235,8.42-12.158,2.985c-1.159,3.567-1.12,8.262,0.644,9.152
			c2.042,1.034,6.388-1.391,9.707-5.416c2.766-3.358,3.916-6.747,3.038-8.386C305.373,384.924,304.969,385.481,304.513,386.037z"/>
		<path fill="#CAE9E6" d="M242.764,394.034c-2.876-3.663-7.037-4.393-8.903-2.527c-1.424,1.425-1.204,4.128,0.289,6.431
			c1.577,2.436,4.56,4.403,7.151,4.232C244.819,401.925,245.944,398.071,242.764,394.034z"/>
		<path fill="#CAE9E6" d="M278.326,396.891c0.76-2.521-0.116-5.091-1.959-5.731c-1.842-0.644-3.945,0.881-4.703,3.406
			c-0.756,2.523,0.121,5.088,1.96,5.734C275.463,400.945,277.569,399.415,278.326,396.891z"/>
		<path fill="#CAE9E6" d="M291.392,387.135c0.256-0.853-0.007-1.696-0.583-1.879c-0.579-0.187-1.252,0.355-1.506,1.21
			s0.012,1.695,0.588,1.878C290.467,388.529,291.143,387.987,291.392,387.135z"/>
		<path fill="#CAE9E6" d="M283.355,390.021c0.006-0.589-0.356-1.065-0.803-1.062c-0.447,0.005-0.814,0.487-0.816,1.077
			c-0.007,0.591,0.354,1.067,0.802,1.062C282.986,391.094,283.354,390.613,283.355,390.021z"/>
		<path fill="#CAE9E6" d="M270.289,387.955c0.023-1.344-0.77-2.43-1.754-2.42c-0.985,0.012-1.797,1.109-1.813,2.457
			c-0.019,1.344,0.772,2.426,1.758,2.418C269.464,390.401,270.276,389.303,270.289,387.955z"/>
		<path fill="#CAE9E6" d="M252.315,391.09c-0.515-0.705-1.378-0.886-1.917-0.407c-0.541,0.48-0.561,1.435-0.04,2.137
			c0.518,0.702,1.38,0.882,1.917,0.402C252.82,392.747,252.838,391.791,252.315,391.09z"/>
		<path fill="#CAE9E6" d="M214.938,393.217c-0.514-0.703-1.376-0.883-1.917-0.403c-0.54,0.477-0.56,1.431-0.037,2.13
			c0.517,0.704,1.377,0.885,1.917,0.404C215.442,394.875,215.461,393.917,214.938,393.217z"/>
		<path fill="#B6E1DD" d="M148.721,392.42c-0.691-0.95-1.93-1.13-2.756-0.402c-0.823,0.729-0.929,2.089-0.224,3.038
			c0.697,0.953,1.937,1.128,2.757,0.4C149.326,394.73,149.428,393.372,148.721,392.42z"/>
		<path fill="#B6E1DD" d="M148.767,384.643c-0.331-0.434-0.92-0.512-1.309-0.177c-0.387,0.339-0.433,0.958-0.099,1.391
			c0.334,0.431,0.92,0.509,1.31,0.175C149.06,385.695,149.104,385.074,148.767,384.643z"/>
		<path fill="#CAE9E6" d="M291.156,394.2c0.428-0.513,0.484-1.183,0.127-1.489c-0.355-0.311-0.987-0.143-1.413,0.371
			c-0.43,0.514-0.483,1.18-0.128,1.489C290.1,394.879,290.734,394.715,291.156,394.2z"/>
	</g>
	<g>
		<polygon fill="#EF896A" points="157.372,431.572 304.721,431.572 313.102,401.698 147.184,403.453 		"/>
		<path fill="#DF815C" d="M227.818,423.472c-33.188,0-62.26-5.519-78.376-13.785l7.929,21.886h147.349l7.082-25.244
			C297.568,416.424,265.324,423.472,227.818,423.472z"/>
		<polygon fill="#D1633F" points="313.031,403.303 147.143,404.311 149.665,409.605 310.258,410.613 		"/>
		<polygon fill="#FFCF7C" points="315.049,400.95 145.63,402.204 144.958,407.336 316.057,406.249 		"/>
	</g>
	<path fill="#B6E1DD" d="M215.717,286.954c0,0-2.521,9.832,0.756,19.664s0.126,5.042-1.513-0.252
		C211.684,295.777,215.717,286.954,215.717,286.954z"/>
	<path fill="#B6E1DD" d="M216.852,278.13c-1.083,3.002-1.387,4.79-4.916,5.673c-3.53,0.882-3.403-4.034-7.059-1.513
		c-3.656,2.521-4.286,4.538-4.79,8.823c-0.504,4.286,2.143,7.438,3.025,9.58c0.882,2.144-1.009,5.295-2.269-0.756
		c-1.261-6.051-2.395-10.463-3.277-11.598c-0.883-1.134-4.412-5.42-6.051-3.655s0.378,9.328-0.882,9.58
		c-1.261,0.252-2.269-4.664-1.513-7.437c0.756-2.773,0.63-7.06-1.261-8.572C185.968,276.743,218.49,273.592,216.852,278.13z"/>
	<path fill="#B6E1DD" d="M224.79,272.286c-4.283,10.004-8.316,22.356-2.266,39.753c6.051,17.396,8.698,17.521,7.689,22.563
		c0,0,1.639-3.277-1.891-10.715c-4.618-9.729-8.32-23.698-6.807-31.766s7.563-7.563,14.37-4.538
		c3.091,1.374,11.345,12.354,7.175-8.09c-0.357-1.749,4.22-13.332,4.22-13.332L224.79,272.286z"/>
	
		<ellipse transform="matrix(0.9986 0.0523 -0.0523 0.9986 14.7279 -11.3652)" fill="#B6E1DD" cx="224.605" cy="275.835" rx="3.727" ry="3.554"/>
	
		<ellipse transform="matrix(0.9986 0.0523 -0.0523 0.9986 14.5624 -11.0537)" fill="#B6E1DD" cx="218.554" cy="272.81" rx="3.726" ry="3.554"/>
	
		<ellipse transform="matrix(0.9986 0.0523 -0.0523 0.9986 15.0599 -11.1465)" fill="#B6E1DD" cx="220.592" cy="282.29" rx="3.727" ry="3.554"/>
	
		<ellipse transform="matrix(0.9986 0.0523 -0.0523 0.9986 14.8033 -10.7488)" fill="#B6E1DD" cx="212.861" cy="277.583" rx="3.727" ry="3.554"/>
	
		<ellipse transform="matrix(0.9986 0.0524 -0.0524 0.9986 14.8662 -9.6816)" fill="#B6E1DD" cx="192.019" cy="278.592" rx="3.726" ry="3.554"/>
	
		<ellipse transform="matrix(0.9986 0.0523 -0.0523 0.9986 14.7307 -9.9945)" fill="#B6E1DD" cx="198.406" cy="276.575" rx="3.727" ry="3.554"/>
	
		<ellipse transform="matrix(0.9986 0.0523 -0.0523 0.9986 14.9249 -8.9559)" fill="#B6E1DD" cx="178.679" cy="280.852" rx="6.072" ry="5.791"/>
	<path fill="#B6E1DD" d="M174.151,284.823c0.144-2.749-2.077-5.103-4.961-5.254c-2.883-0.149-5.337,1.957-5.48,4.708
		c-0.143,2.748,2.077,5.1,4.96,5.252C171.555,289.68,174.008,287.572,174.151,284.823z"/>
	
		<ellipse transform="matrix(0.9986 0.0522 -0.0522 0.9986 15.7064 -8.4877)" fill="#B6E1DD" cx="170.275" cy="296.315" rx="2.431" ry="2.32"/>
	
		<ellipse transform="matrix(0.9986 0.0523 -0.0523 0.9986 14.6338 -12.3016)" fill="#B6E1DD" cx="242.441" cy="273.549" rx="3.726" ry="3.554"/>
	
		<ellipse transform="matrix(0.9986 0.0523 -0.0523 0.9986 14.6204 -11.8263)" fill="#B6E1DD" cx="233.365" cy="273.549" rx="3.727" ry="3.554"/>
	
		<ellipse transform="matrix(0.9986 0.0523 -0.0523 0.9986 14.5447 -10.7346)" fill="#B6E1DD" cx="212.288" cy="272.414" rx="1.913" ry="1.825"/>
	
		<ellipse transform="matrix(0.9986 0.0523 -0.0523 0.9986 14.1708 -11.1159)" fill="#B6E1DD" cx="219.436" cy="265.152" rx="1.914" ry="1.826"/>
	
		<ellipse transform="matrix(0.9986 0.0523 -0.0523 0.9986 14.7735 -10.9472)" fill="#B6E1DD" cx="216.489" cy="276.712" rx="1.913" ry="1.826"/>
	
		<ellipse transform="matrix(0.9986 0.0521 -0.0521 0.9986 14.5699 -10.2891)" fill="#B6E1DD" cx="204.678" cy="274.374" rx="3.168" ry="3.023"/>
	
		<ellipse transform="matrix(0.9986 0.0522 -0.0522 0.9986 14.1801 -10.1608)" fill="#B6E1DD" cx="201.623" cy="266.406" rx="1.413" ry="1.35"/>
	<path fill="#B6E1DD" d="M193.164,287.482c0.108-2.061-1.552-3.825-3.717-3.939c-2.164-0.113-4.003,1.47-4.111,3.531
		c-0.108,2.059,1.557,3.822,3.721,3.937C191.221,291.124,193.056,289.542,193.164,287.482z"/>
	<path fill="#B6E1DD" d="M214.563,283.009c-0.831-0.279-1.738,0.198-2.031,1.069c-0.292,0.87,0.146,1.801,0.975,2.079
		c0.827,0.277,1.737-0.202,2.029-1.072C215.828,284.214,215.389,283.286,214.563,283.009z"/>
	
		<ellipse transform="matrix(0.9986 0.0521 -0.0521 0.9986 15.4898 -12.2016)" fill="#B6E1DD" cx="241.974" cy="291.25" rx="1.66" ry="1.584"/>
	<path fill="#B6E1DD" d="M250.335,285.961c0.046-0.873-0.657-1.621-1.575-1.669c-0.917-0.049-1.696,0.621-1.742,1.496
		c-0.046,0.87,0.661,1.618,1.577,1.667C249.513,287.502,250.29,286.833,250.335,285.961z"/>
	<path fill="#B6E1DD" d="M246.07,285.225c0.071-1.439-1.086-2.67-2.595-2.75c-1.506-0.078-2.784,1.025-2.855,2.465
		c-0.071,1.438,1.091,2.67,2.597,2.749C244.727,287.768,245.999,286.662,246.07,285.225z"/>
	<path fill="#B6E1DD" d="M239.885,287.332c0.072-1.441-1.085-2.671-2.595-2.751c-1.506-0.078-2.784,1.024-2.855,2.465
		c-0.072,1.438,1.091,2.67,2.597,2.749C238.543,289.874,239.814,288.769,239.885,287.332z"/>
	<path fill="#B6E1DD" d="M210.641,298.089c0.072-1.441-1.085-2.671-2.595-2.751c-1.507-0.078-2.784,1.024-2.855,2.466
		c-0.072,1.438,1.092,2.669,2.598,2.748C209.298,300.631,210.569,299.525,210.641,298.089z"/>
	<path fill="#B6E1DD" d="M211.313,277.584c0.072-1.441-1.085-2.671-2.594-2.75c-1.507-0.079-2.785,1.023-2.855,2.465
		c-0.072,1.438,1.091,2.67,2.597,2.748C209.97,280.126,211.242,279.021,211.313,277.584z"/>
	<path fill="#B6E1DD" d="M248.867,267.843c0.043-0.881-0.663-1.631-1.585-1.681c-0.921-0.048-1.701,0.627-1.745,1.506
		c-0.043,0.88,0.667,1.633,1.588,1.682C248.046,269.397,248.823,268.722,248.867,267.843z"/>
	
		<ellipse transform="matrix(0.9986 0.0521 -0.0521 0.9986 13.9871 -9.2178)" fill="#B6E1DD" cx="183.727" cy="263.568" rx="1.668" ry="1.594"/>
	
		<ellipse transform="matrix(0.9986 0.0523 -0.0523 0.9986 14.7645 -11.0917)" fill="#B6E1DD" cx="219.276" cy="276.511" rx="2.212" ry="2.11"/>
	
		<ellipse transform="matrix(0.9986 0.0523 -0.0523 0.9986 14.5301 -11.5832)" fill="#B6E1DD" cx="228.548" cy="271.789" rx="2.212" ry="2.109"/>
	
		<ellipse transform="matrix(0.9986 0.052 -0.052 0.9986 14.3456 -11.9213)" fill="#B6E1DD" cx="236.454" cy="269.946" rx="1.325" ry="1.261"/>
	
		<ellipse transform="matrix(0.9987 0.0516 -0.0516 0.9987 13.4757 -11.6417)" fill="#B6E1DD" cx="232.031" cy="254.963" rx="1.324" ry="1.261"/>
</g>
</svg>
